<svg xmlns="http://www.w3.org/2000/svg" viewBox="0 0 121.396 180">
  <defs>
    <clipPath id="a">
      <path d="M0 49.857h33.625V0H0v49.857z"/>
    </clipPath>
  </defs>
  <g fill="#afafaf" clip-path="url(#a)" transform="matrix(3.6 0 0 -3.6 0 180)">
    <path d="M9.638 25.746h2.264c.414 0 .75.336.75.75s-.336.75-.75.75H9.638c-.414 0-.75-.336-.75-.75s.336-.75.75-.75m11.987 0h2.264c.41 0 .75.336.75.75s-.34.75-.75.75h-2.27c-.42 0-.75-.336-.75-.75s.33-.75.75-.75M11.04 23.57c-.052.023-.106.034-.164.038-.02.002-.042.015-.065.015-.11 0-.23-.04-.34-.103-.52-.173-1.2-.12-1.45-.077-.27.045-.53-.13-.58-.402-.05-.27.13-.53.4-.58.07-.01.39-.07.82-.07l.04.01c-.21-.58-.34-1.32-.34-2.14 0-1.86.66-3.37 1.47-3.37.82 0 1.48 1.51 1.48 3.38 0 1.68-.54 3.07-1.24 3.32m11.44.05c-.01 0-.02-.01-.04-.01-.14.01-.28-.05-.39-.15-.6-.42-1.04-1.69-1.04-3.21 0-1.86.66-3.37 1.48-3.37.81 0 1.47 1.51 1.47 3.38 0 .82-.13 1.56-.342 2.14.418.01.74.06.804.07.27.05.45.31.4.58-.05.28-.32.45-.58.41-.23-.04-.864-.09-1.374.05-.12.07-.247.13-.378.13"/>
    <path d="M31.22 17.77v4.71c.523-.433.905-1.348.905-2.36 0-1.09-.408-1.94-.905-2.35m-1.5-3.373C29.72 7.34 21.327 1.5 17.043 1.5l-.227.003-.173-.003c-2.263 0-5.492 1.546-8.037 3.846-1.734 1.566-4.64 4.824-4.64 9.05v8.024l1.252-.843c-.11-.422-.19-.857-.19-1.313 0-2.85 2.318-5.166 5.167-5.166 2.58 0 4.706 1.907 5.087 4.383h2.627c.38-2.47 2.5-4.38 5.08-4.38 2.85 0 5.16 2.32 5.16 5.17 0 .31-.04.6-.09.89l1.65 1.11V14.4zM1.5 20.12c0 1.05.41 2.005.965 2.414v-4.817c-.523.39-.965 1.268-.965 2.403m12.36.144c0-2.02-1.644-3.666-3.665-3.666-2.022 0-3.666 1.645-3.666 3.666 0 2.023 1.64 3.668 3.66 3.668 2.02 0 3.66-1.645 3.66-3.668m12.8 0c0-2.02-1.65-3.666-3.67-3.666s-3.67 1.645-3.67 3.666c0 2.023 1.64 3.668 3.66 3.668 2.02 0 3.66-1.645 3.66-3.668m-22.11 7.81c.07.005.14.01.21.018 3.81.426 7.91 1.463 12.36 1.467.57-.01 1.42-.08 1.73.11.19.11.27.52.24.67-.15.63-.27 1.26-.37 1.9-.08.48-.19.94-.18 1.42 0 .75.26.07.37-.27.45-1.48.82-3.13 2.28-3.84.76-.38 3.58-1.47 7.94-1.48.02-.06.03-.13.05-.19.34-1.16.53-2.39.53-3.66v-.19l-2.16-1.45c-.86 1.66-2.58 2.81-4.57 2.81-2.61 0-4.74-1.94-5.1-4.45h-2.61c-.354 2.51-2.49 4.45-5.095 4.45-1.85 0-3.465-.986-4.378-2.45l-1.83 1.27v.022c0 1.27.19 2.5.53 3.66.015.052.027.107.043.16m26.676-3.92v.1c0 1.267-.18 2.49-.49 3.66-.04.143-.07.29-.113.433 1.14.44 2.24 1.36 1.68 2.09-.56.733-.11-.704-4.61 3.23-1.74 2.01-4.03 3.54-6.64 4.344 1.17 1.3 1.9 3.11 1.9 5.04 0 3.77-2.75 6.81-6.15 6.81-3.4 0-6.15-3.05-6.15-6.81 0-1.94.74-3.75 1.92-5.06-2.55-.8-4.8-2.31-6.52-4.28-.17-.15-.36-.29-.53-.45C2.56 30.39.64 30.27.5 29.61c-.22-1.014 1.137-1.43 2.5-1.53-.014-.05-.024-.105-.04-.157-.31-1.17-.49-2.393-.49-3.66v-.087C1.046 23.81 0 22.16 0 20.12s1.044-3.688 2.465-4.048v-1.676C2.465 6.59 11.173 0 16.643 0l.173.005.227-.005c5.47 0 14.177 6.59 14.177 14.397v1.69c1.39.39 2.405 2.02 2.405 4.033 0 2.012-1.014 3.642-2.405 4.033"/>
    <path d="M18.722 9.426c.206.266.278.624.148.965-.192.51-.768.76-1.272.59-.002 0-.27-.08-.92-.08-.644.01-.943.09-.977.1-.51.18-1.07-.08-1.26-.58-.13-.34-.05-.69.16-.95-.05-.07-.11-.15-.15-.24-.2-.51.06-1.09.57-1.29.13-.05.62-.21 1.65-.22h.07c.99 0 1.49.18 1.62.24.5.21.72.77.53 1.27-.03.09-.09.168-.15.24"/>
  </g>
</svg>
