<svg xmlns="http://www.w3.org/2000/svg" viewBox="0 0 559.548 669.96" width="26" height="auto">
  <defs>
    <clipPath id="a">
      <path d="M0 502.47h419.66V0H0z"/>
    </clipPath>
  </defs>
  <g clip-path="url(#a)" transform="matrix(1.33333 0 0 -1.33333 0 669.96)">
    <path fill="#555" d="M341.534 129.538c-7.19-23.08-17.47-43.785-30.55-61.54-12.98-17.618-28.05-31.424-44.795-41.038-17.17-9.857-35.38-14.855-54.13-14.855s-36.96 4.998-54.12 14.855c-16.75 9.61-31.82 23.42-44.8 41.038-13.08 17.755-23.36 38.46-30.55 61.54-6.84 21.93-8.24 46.145-8.24 75.753 0 29.61 1.4 53.83 8.23 75.76.75 2.42 1.55 4.79 2.37 7.15 38.643 18.54 83.533 29.17 123.592 29.17 49.362 0 94.684-10.82 131.284-31.26.562-1.68 1.145-3.34 1.68-5.05 6.83-21.93 8.23-46.15 8.23-75.75s-1.4-53.81-8.235-75.75m77.96 285.51c3.01 45.898-34.12 83.9-79.72 82.34-38.93-1.335-71.264-32.27-74.23-71.11-.893-11.71.85-22.912 4.67-33.1-15.063 6.743-34.04 11.36-58.146 11.36-25.4 0-48.045-5.793-67.76-17.274 6.754 11.9 10.46 25.75 9.996 40.52-1.31 41.726-36.65 75.356-78.39 74.688-44.07-.703-79.17-38.35-75.674-83.33 2.86-36.812 32.2-66.883 68.94-70.6 13.37-1.35 26.12.735 37.51 5.45-1.1-1.39-2.21-2.765-3.28-4.215-13.877-18.84-24.765-40.75-32.36-65.12-7.29-23.39-8.78-48.635-8.78-79.35 0-30.71 1.49-55.96 8.78-79.35 7.594-24.37 18.48-46.277 32.36-65.12 13.99-18.983 30.31-33.903 48.52-44.356C170.943 5.536 191.18 0 212.07 0c20.883 0 41.12 5.538 60.145 16.462 18.212 10.455 34.533 25.378 48.515 44.357 13.88 18.84 24.768 40.75 32.362 65.11 7.28 23.39 8.78 48.64 8.78 79.35 0 30.71-1.5 55.96-8.78 79.35-7.02 22.51-16.88 42.89-29.28 60.72 9.2-2.29 19.04-2.95 29.22-1.57 35.98 4.87 64.07 35.02 66.45 71.25"/>
    <path fill="#555" d="M156.112 213.68c0-20.74-6.775-37.556-15.132-37.556s-15.132 16.815-15.132 37.556c0 20.74 6.775 37.556 15.132 37.556s15.132-16.815 15.132-37.556m139.97 0c0-20.74-6.774-37.556-15.13-37.556-8.357 0-15.13 16.815-15.13 37.556 0 20.74 6.773 37.556 15.13 37.556 8.357 0 15.132-16.815 15.132-37.556M161.55 264.268h-41.14c-.963 0-1.75.788-1.75 1.75v7.092c0 .963.787 1.75 1.75 1.75h41.14c.96 0 1.75-.787 1.75-1.75v-7.092c0-.962-.79-1.75-1.75-1.75m139.97 0h-41.138c-.963 0-1.75.788-1.75 1.75v7.092c0 .963.787 1.75 1.75 1.75h41.14c.96 0 1.75-.787 1.75-1.75v-7.092c0-.962-.79-1.75-1.75-1.75M213.11 83.062s-13.003 1.913-17.802 3.657c-4.003 1.13-9.437 5.39-9.437 8.82 0 3.43 1.6 6.55 4.16 8.81 2.57 2.26 6.11 3.66 10 3.66h26.17c3.9 0 7.43-1.41 10-3.67 2.57-2.27 4.16-5.39 4.16-8.82s-4-6.56-9.43-9.21c-5.66-1.73-17.8-3.28-17.8-3.28"/>
    <path fill="#555" d="M145.75 220.643s-13.373 10.684-16.372 14.462c-3.118 3.927-7.776 16.13-7.776 16.13s10.74-12.37 14.814-15.296c3.918-2.82 14.815-9.55 14.815-9.55zm131.392 2.87s13.373 10.685 16.372 14.463c3.118 3.927 7.776 16.13 7.776 16.13s-10.74-12.37-14.814-15.296c-3.918-2.814-14.815-9.545-14.815-9.545z"/>
    <path fill="#555" d="M269.072 222.253s13.373 10.684 16.372 14.462c3.118 3.927 7.776 16.13 7.776 16.13s-10.742-12.37-14.814-15.296c-3.918-2.82-9.056-9.73-9.056-9.73zm-116.018 0s-13.373 10.684-16.372 14.462c-3.118 3.927-7.776 16.13-7.776 16.13s10.74-12.37 14.814-15.296c3.918-2.82 9.056-9.73 9.056-9.73z"/>
    <path fill="none" stroke="#000101" stroke-width="12" stroke-miterlimit="10" d="M70.88 171.672c-.297-.023-.596-.035-.897-.035-11.46 0-20.752 17.163-20.752 38.334 0 21.18 9.3 38.34 20.76 38.34.22 0 .43 0 .64-.02m278.74-.48c1.09.33 2.21.5 3.35.5 11.46 0 20.75-17.16 20.75-38.33 0-21.17-9.29-38.33-20.75-38.33-.85 0-1.7.1-2.53.28"/>
  </g>
</svg>
