<svg xmlns="http://www.w3.org/2000/svg" viewBox="0 0 44.582 53.5" width="78">
  <defs>
    <clipPath id="a">
      <path d="M0 40.125h33.436V0H0z"/>
    </clipPath>
  </defs>
  <g fill="#fff" clip-path="url(#a)" transform="matrix(1.33333 0 0 -1.33333 0 53.5)">
    <path d="M8.544 27.393h2.834c.553 0 1 .447 1 1 0 .553-.447 1-1 1H8.544c-.553 0-1-.447-1-1 0-.553.447-1 1-1m13.416 0h2.834c.553 0 1 .447 1 1 0 .553-.447 1-1 1H21.96c-.553 0-1-.447-1-1 0-.553.447-1 1-1"/>
    <path d="M29.593 15.875c0-.193-.02-.382-.03-.573-.24-.112-.457-.263-.64-.45-.32.392-.803.648-1.35.648-.578 0-1.085-.283-1.404-.715-.37.65-1.05 1.09-1.85 1.09-.94 0-1.73-.615-2.01-1.463-.5.87-1.42 1.463-2.49 1.463-.7 0-1.33-.26-1.83-.674-.33.36-.68.63-1.3.65-.71-.07-.96-.29-1.297-.65-.5.42-1.13.68-1.83.68-1.073 0-1.997-.59-2.49-1.46-.28.85-1.07 1.466-2.01 1.466-.795 0-1.48-.44-1.846-1.09-.32.43-.826.715-1.405.715-.546 0-1.03-.255-1.35-.647-.18.188-.4.34-.64.45-.008.19-.03.38-.03.574v8.41l.933-.31c.214-2.58 1.56-6.612 5.55-6.613l.19.004c1.76.053 3.18.655 4.21 1.79 1.378 1.51 1.69 3.564 1.753 4.68h.44c.06-1.116.373-3.17 1.75-4.68 1.035-1.135 2.453-1.737 4.215-1.79l.186-.006c3.99 0 5.334 4.034 5.552 6.61l1.002.337v-8.26zm-8.152-5.69c-.05-.025-1.43-.592-4.52-.592h-.252c-3.315.033-4.72.56-4.78.582-.386.15-.58.583-.43.97.15.384.578.577.966.43.04-.012 1.298-.453 4.26-.48 2.926-.03 4.176.468 4.188.472.387.16.82-.026.98-.406.16-.38-.017-.81-.396-.97M1.5 21.65c0 1.016.355 1.823.804 2.26v-4.52c-.45.44-.804 1.245-.804 2.26m15.198 16.977c5.808 0 10.717-3.863 12.326-9.152.345-1.14.546-2.34.56-3.587l-1.65-.55H5.4l-1.587.528c.013 1.255.215 2.463.562 3.61 1.608 5.288 6.518 9.15 12.326 9.15m14.4-14.68c.47-.43.85-1.25.85-2.296 0-1.044-.374-1.866-.842-2.295zm-.02-8.546c.008.16.026.316.026.477v1.766c1.357.428 2.344 2.03 2.344 4.01s-.988 3.59-2.345 4.01v.075c0 1.297-.19 2.548-.51 3.744-1.657 6.123-7.245 10.65-13.887 10.65-6.64 0-12.23-4.527-13.882-10.653-.322-1.2-.51-2.45-.51-3.748v-.09C.97 25.2 0 23.61 0 21.65s.968-3.55 2.304-3.99v-1.784c0-.16.02-.317.024-.477-.87-.27-1.505-1.07-1.505-2.03 0-.558.22-1.058.567-1.437-.35-.428-.567-.97-.567-1.565 0-1.254.926-2.28 2.13-2.463 0-.013-.005-.024-.005-.038 0-.968.784-1.75 1.75-1.75.184 0 .356.036.522.087-.008-.07-.022-.14-.022-.212 0-1.172.952-2.123 2.125-2.123.15 0 .293.015.434.044.27-1.31 1.428-2.294 2.816-2.294.553 0 1.063.164 1.5.434.29-.833 1.07-1.435 2-1.435.46 0 .877.157 1.225.407C15.515.435 16.085 0 16.76 0c.65 0 1.208.396 1.442.96.328-.204.707-.335 1.12-.335.93 0 1.714.602 2 1.434.44-.27.95-.44 1.5-.44 1.39 0 2.55.98 2.818 2.29.14-.03.285-.047.433-.047 1.174 0 2.125.95 2.125 2.125 0 .07-.013.142-.02.212.165-.05.34-.09.52-.09.967 0 1.75.784 1.75 1.75 0 .015-.003.026-.003.038 1.203.185 2.128 1.21 2.128 2.466 0 .595-.216 1.136-.564 1.565.34.38.56.88.56 1.437 0 .958-.64 1.758-1.51 2.025"/>
  </g>
</svg>
