<svg xmlns="http://www.w3.org/2000/svg" width="29.998" height="36">
  <defs>
    <clipPath id="a">
      <path d="M0 111.996h93.324V0H0v111.996z"/>
    </clipPath>
  </defs>
  <g clip-path="url(#a)" transform="matrix(.32 0 0 -.32 0 36)">
    <path fill="#231f20" d="M27.323 70.064c-2.273 0-4.116-4.22-4.116-9.42 0-5.207 1.843-9.42 4.116-9.42 2.273 0 4.115 4.213 4.115 9.42 0 5.2-1.842 9.42-4.115 9.42M65.473 70.064c-2.273 0-4.116-4.22-4.116-9.42 0-5.207 1.843-9.42 4.116-9.42 2.273 0 4.115 4.213 4.115 9.42 0 5.2-1.842 9.42-4.115 9.42M31.782 82.04h-7.904c-1.543 0-2.79-1.248-2.79-2.79 0-1.544 1.247-2.792 2.79-2.792h7.904c1.543 0 2.79 1.248 2.79 2.79 0 1.544-1.247 2.792-2.79 2.792M69.234 82.04h-7.91c-1.543 0-2.79-1.248-2.79-2.79 0-1.544 1.247-2.792 2.79-2.792h7.91c1.543 0 2.79 1.248 2.79 2.79 0 1.544-1.247 2.792-2.79 2.792M6.46 54.044c-1.27 1.218-2.273 3.48-2.273 6.336 0 2.86 1.003 5.12 2.274 6.34V54.043zm0 17.775v-.286C2.716 70.32 0 65.874 0 60.38c0-5.49 2.715-9.938 6.46-11.152v-4.493h4.187V71.82c0 3.613.548 7.097 1.545 10.39h-4.32c-.89-3.32-1.41-6.794-1.41-10.39M86.81 53.994v12.774c1.295-1.205 2.33-3.487 2.33-6.388 0-2.9-1.035-5.18-2.33-6.386m0 17.566v.258c0 3.598-.52 7.07-1.41 10.39h-4.32c.996-3.29 1.543-6.775 1.543-10.39V44.735h4.187v4.468c3.775 1.19 6.515 5.658 6.515 11.177 0 5.52-2.74 9.988-6.515 11.18"/>
    <path fill="#231f20" d="M59.87 28.427c-.408-.17-4.144-1.65-12.61-1.65-.243 0-.486 0-.738.002-9.258.088-13.18 1.557-13.344 1.62-1.08.418-1.617 1.627-1.202 2.706.417 1.074 1.613 1.61 2.695 1.206.107-.04 3.624-1.268 11.894-1.348 8.177-.09 11.65 1.31 11.685 1.323 1.065.438 2.286-.077 2.726-1.135.44-1.06-.05-2.276-1.107-2.725m31.078 8.905c0 2.67-1.777 4.904-4.207 5.646.018.446.07.883.07 1.333v.426h-4.188v-.425c0-.54-.057-1.07-.08-1.603-.668-.31-1.276-.73-1.783-1.254-.895 1.097-2.242 1.81-3.77 1.81-1.612 0-3.03-.79-3.924-1.995-1.014 1.81-2.926 3.043-5.146 3.043-2.627 0-4.83-1.717-5.61-4.082-1.38 2.424-3.957 4.083-6.95 4.083-1.952 0-3.717-.725-5.108-1.88-.933.992-2.196 1.635-3.614 1.81-1.424-.175-2.688-.818-3.62-1.81-1.39 1.155-3.152 1.88-5.103 1.88-2.993 0-5.57-1.658-6.95-4.082-.78 2.365-2.983 4.083-5.61 4.083-2.224 0-4.138-1.233-5.152-3.042-.89 1.205-2.306 1.995-3.92 1.995-1.525 0-2.873-.713-3.77-1.81-.51.524-1.115.946-1.785 1.257-.024.534-.082 1.06-.082 1.6v.426H6.46v-.425c0-.45.052-.886.068-1.332-2.426-.745-4.2-2.977-4.2-5.646 0-1.548.605-2.944 1.575-4.002-.97-1.2-1.576-2.71-1.576-4.37 0-3.502 2.58-6.37 5.943-6.876-.005-.032-.01-.065-.01-.103 0-2.698 2.185-4.883 4.883-4.883.508 0 .993.102 1.456.244-.023-.194-.06-.392-.06-.593 0-3.276 2.654-5.93 5.93-5.93.415 0 .818.043 1.21.125.748-3.653 3.98-6.406 7.862-6.406 1.537 0 2.965.457 4.186 1.21.8-2.322 2.982-4.002 5.582-4.002 1.282 0 2.444.442 3.414 1.14C43.334 1.204 44.926 0 46.81 0c1.812 0 3.366 1.107 4.025 2.682.91-.572 1.97-.938 3.13-.938 2.595 0 4.774 1.68 5.582 4.002 1.22-.753 2.644-1.21 4.186-1.21 3.876 0 7.11 2.753 7.862 6.406.386-.082.796-.125 1.21-.125 3.276 0 5.93 2.654 5.93 5.93 0 .2-.043.4-.06.594.465-.14.944-.243 1.457-.243 2.698 0 4.885 2.185 4.885 4.884 0 .04-.012.072-.012.104 3.36.507 5.943 3.374 5.943 6.875 0 1.66-.61 3.17-1.582 4.37.97 1.058 1.582 2.454 1.582 4.002M46.638 111.996c-18.558 0-34.17-12.66-38.766-29.787h4.32c2.808 9.277 9.264 16.986 17.702 21.44.092-.925.848-1.658 1.796-1.658 1.01 0 1.832.823 1.832 1.83 0 .512-.248.934-.587 1.26 4.228 1.75 8.85 2.727 13.703 2.727 4.874 0 9.52-.985 13.76-2.75-.317-.323-.535-.746-.535-1.237 0-1.008.824-1.83 1.832-1.83.93 0 1.666.71 1.78 1.61 8.39-4.462 14.807-12.15 17.603-21.394h4.32c-4.595 17.125-20.205 29.786-38.76 29.786"/>
    <path fill="#231f20" d="M16.502 88.097c-1.01 0-1.832-.823-1.832-1.832 0-1.01.823-1.83 1.832-1.83 1.008 0 1.83.82 1.83 1.83 0 1.01-.822 1.832-1.83 1.832M26.5 88.097c-1.01 0-1.83-.823-1.83-1.832 0-1.01.82-1.83 1.83-1.83 1.014 0 1.83.82 1.83 1.83 0 1.01-.816 1.832-1.83 1.832M36.504 88.097c-1.01 0-1.833-.823-1.833-1.832 0-1.01.825-1.83 1.834-1.83 1.01 0 1.83.82 1.83 1.83 0 1.01-.82 1.832-1.83 1.832M46.506 88.097c-1.008 0-1.83-.823-1.83-1.832 0-1.01.822-1.83 1.83-1.83 1.01 0 1.833.82 1.833 1.83 0 1.01-.825 1.832-1.834 1.832M56.51 88.097c-1.008 0-1.83-.823-1.83-1.832 0-1.01.822-1.83 1.83-1.83 1.01 0 1.833.82 1.833 1.83 0 1.01-.824 1.832-1.833 1.832M66.51 88.097c-1.01 0-1.833-.823-1.833-1.832 0-1.01.823-1.83 1.832-1.83 1.013 0 1.83.82 1.83 1.83 0 1.01-.817 1.832-1.83 1.832M76.513 88.097c-1.01 0-1.832-.823-1.832-1.832 0-1.01.824-1.83 1.833-1.83 1.008 0 1.83.82 1.83 1.83 0 1.01-.822 1.832-1.83 1.832M21.686 94.027c-1.008 0-1.83-.823-1.83-1.83-.002-1.01.82-1.833 1.83-1.833 1.01 0 1.833.823 1.833 1.832-.002 1.008-.826 1.83-1.835 1.83M31.69 94.027c-1.01 0-1.833-.823-1.833-1.83 0-1.01.823-1.833 1.832-1.833 1.008 0 1.83.823 1.83 1.832 0 1.008-.822 1.83-1.83 1.83M41.693 94.027c-1.01 0-1.832-.823-1.832-1.83 0-1.01.824-1.833 1.833-1.833 1.008 0 1.83.823 1.83 1.832 0 1.008-.822 1.83-1.83 1.83M51.69 94.027c-1.008 0-1.832-.823-1.832-1.83 0-1.01.824-1.833 1.833-1.833 1.015 0 1.833.823 1.833 1.832 0 1.008-.818 1.83-1.832 1.83M61.694 94.027c-1.008 0-1.832-.823-1.832-1.83 0-1.01.824-1.833 1.832-1.833s1.832.823 1.832 1.832c0 1.008-.824 1.83-1.832 1.83M71.698 94.027c-1.01 0-1.832-.823-1.832-1.83 0-1.01.823-1.833 1.832-1.833 1.008 0 1.832.823 1.832 1.832 0 1.008-.824 1.83-1.832 1.83M26.5 99.725c-1.01 0-1.83-.823-1.83-1.832 0-1.01.82-1.832 1.83-1.832 1.014 0 1.83.824 1.83 1.833 0 1.01-.816 1.832-1.83 1.832M66.51 99.725c-1.01 0-1.833-.823-1.833-1.832 0-1.01.823-1.832 1.832-1.832 1.013 0 1.83.824 1.83 1.833 0 1.01-.817 1.832-1.83 1.832M41.693 105.655c-1.01 0-1.832-.823-1.832-1.832 0-1.008.824-1.83 1.833-1.83 1.008 0 1.83.822 1.83 1.83 0 1.01-.822 1.832-1.83 1.832M51.69 105.655c-1.008 0-1.832-.823-1.832-1.832 0-1.008.824-1.83 1.833-1.83 1.015 0 1.833.822 1.833 1.83 0 1.01-.818 1.832-1.832 1.832M36.504 99.774c-1.01 0-1.833-.824-1.833-1.833 0-1.013.825-1.83 1.834-1.83 1.01 0 1.83.817 1.83 1.83 0 1.01-.82 1.834-1.83 1.834M46.506 99.774c-1.008 0-1.83-.824-1.83-1.833 0-1.013.822-1.83 1.83-1.83 1.01 0 1.833.817 1.833 1.83 0 1.01-.825 1.834-1.834 1.834M56.51 99.774c-1.008 0-1.83-.824-1.83-1.833 0-1.013.822-1.83 1.83-1.83 1.01 0 1.833.817 1.833 1.83 0 1.01-.824 1.834-1.833 1.834"/>
  </g>
</svg>
