<svg xmlns="http://www.w3.org/2000/svg" viewBox="0 0 72.466 72.485">
  <path fill="#6cd3dd" d="M36.232 59.523c-12.864 0-23.292-10.43-23.292-23.292 0-12.863 10.428-23.292 23.292-23.292s23.292 10.43 23.292 23.293c0 12.864-10.428 23.293-23.292 23.293m30.228-21.49l6.006-2.02-.32-4.594-6.226-1.17c-.253-1.253-.588-2.5-1.008-3.737l4.877-4.166-2.026-4.135-6.276 1.3c-.79-1.2-1.66-2.33-2.597-3.383l2.822-5.675-3.473-3.022-5.233 3.58c-1.075-.716-2.193-1.36-3.35-1.928l.473-6.324-4.356-1.49-3.498 5.288c-1.385-.282-2.802-.47-4.22-.556L36.04 0l-4.592.323-1.168 6.226c-1.255.254-2.504.59-3.74 1.012L22.375 2.69l-4.138 2.032 1.298 6.282c-1.2.795-2.33 1.665-3.38 2.597l-5.692-2.833-3.024 3.477 3.58 5.23c-.716 1.08-1.36 2.198-1.93 3.353l-6.325-.472-1.49 4.358 5.288 3.498c-.286 1.39-.472 2.8-.557 4.223L0 36.453l.32 4.596 6.225 1.165c.254 1.256.59 2.504 1.01 3.74l-4.872 4.168 2.025 4.138 6.276-1.297c.792 1.2 1.66 2.33 2.595 3.386L10.76 62.02l3.477 3.026 5.23-3.58c1.078.715 2.198 1.355 3.352 1.927l-.473 6.325 4.36 1.49 3.5-5.292c1.387.285 2.8.472 4.22.56l2.02 6.007 4.596-.323 1.168-6.226c1.255-.254 2.504-.584 3.74-1.006l4.17 4.87 4.136-2.025-1.3-6.275c1.203-.79 2.33-1.66 3.384-2.593l5.673 2.818 3.02-3.473-3.577-5.232c.714-1.076 1.358-2.2 1.926-3.35l6.325.47 1.492-4.357-5.29-3.498c.286-1.39.472-2.8.56-4.223"/>
</svg>
