<svg xmlns="http://www.w3.org/2000/svg" viewBox="0 0 62.992 63">
  <path fill="#6cd3dd" d="M31.478 51.857c-11.236 0-20.346-9.108-20.346-20.345 0-11.237 9.11-20.346 20.346-20.346 11.24 0 20.35 9.11 20.35 20.346s-9.11 20.345-20.344 20.345m31.06-14.863l.448-3.984-5.144-1.974c-.02-1.117-.112-2.243-.28-3.37l4.828-2.793-1.087-3.86-5.575.143c-.49-1.156-1.062-2.262-1.696-3.312l3.298-4.418-2.5-3.13L49.8 12.54c-.814-.78-1.672-1.507-2.573-2.175l1.397-5.34-3.498-1.964-3.823 3.983c-1.143-.46-2.323-.845-3.53-1.137L36.986.446 33.002 0 31.03 5.145c-1.112.018-2.235.112-3.36.28L24.85.577l-3.86 1.087.142 5.61c-1.153.492-2.256 1.057-3.304 1.69L13.41 5.668 10.28 8.17l2.246 5.04c-.783.807-1.508 1.665-2.175 2.566L5.01 14.378 3.05 17.876l3.984 3.827c-.46 1.144-.84 2.324-1.138 3.53l-5.455.79L0 30.01l5.15 1.97c.023 1.114.113 2.237.28 3.362L.56 38.157l1.087 3.858 5.61-.142c.492 1.152 1.06 2.254 1.697 3.303l-3.3 4.418 2.502 3.13 5.04-2.244c.81.777 1.668 1.504 2.57 2.175l-1.4 5.337 3.5 1.957 3.826-3.984c1.143.46 2.324.84 3.53 1.137l.79 5.456L30 63l1.97-5.147c1.118-.025 2.243-.118 3.367-.28l2.795 4.822 3.858-1.094-.143-5.572c1.156-.49 2.262-1.063 3.312-1.697l4.418 3.3 3.13-2.503-2.244-5.04c.784-.813 1.51-1.67 2.176-2.572l5.343 1.395 1.957-3.498-3.98-3.822c.46-1.143.838-2.323 1.136-3.526z"/>
</svg>
