<svg xmlns="http://www.w3.org/2000/svg" viewBox="0 0 45.75 45.748">
  <path fill="#6cd3dd" d="M22.888 37.333c-7.98 0-14.446-6.468-14.446-14.446S14.91 8.44 22.888 8.44c7.978 0 14.446 6.47 14.446 14.447 0 7.978-6.468 14.446-14.446 14.446m22.54-10.467l.322-2.892-3.736-1.432c-.015-.814-.082-1.628-.203-2.448l3.502-2.032-.79-2.802-4.045.1c-.357-.84-.77-1.64-1.233-2.405L41.64 9.75l-1.82-2.275-3.66 1.628c-.59-.566-1.212-1.094-1.865-1.58l1.013-3.876-2.54-1.423-2.78 2.89c-.83-.336-1.69-.616-2.558-.827L26.858.323 23.962 0l-1.435 3.734c-.808.013-1.622.08-2.442.2L18.04.41l-2.8.79.098 4.07c-.838.353-1.64.766-2.398 1.23L9.734 4.1 7.46 5.917 9.1 9.582c-.565.588-1.093 1.212-1.578 1.864l-3.877-1.013-1.423 2.54 2.89 2.772c-.336.83-.61 1.683-.827 2.56l-3.962.57L0 21.77l3.736 1.433c.016.807.08 1.62.203 2.438L.42 27.688l.808 2.82 4.07-.1c.357.835.77 1.634 1.23 2.397l-2.394 3.204L5.95 38.28l3.656-1.63c.59.57 1.21 1.095 1.864 1.58l-1.01 3.877 2.537 1.42 2.777-2.888c.833.332 1.69.607 2.567.822l.578 3.963 2.896.323 1.435-3.736c.813-.015 1.627-.08 2.447-.203l2.026 3.5 2.802-.79-.1-4.046c.84-.356 1.64-.77 2.4-1.23l3.207 2.394 2.272-1.817-1.632-3.658c.565-.59 1.093-1.212 1.578-1.864l3.877 1.013 1.42-2.54-2.89-2.778c.332-.833.61-1.684.823-2.56z"/>
</svg>
