<?xml version="1.0" encoding="UTF-8" standalone="no"?>
<svg id="svg2" xmlns:rdf="http://www.w3.org/1999/02/22-rdf-syntax-ns#" xmlns="http://www.w3.org/2000/svg" xml:space="preserve" height="40.288" width="138" version="1.1" xmlns:cc="http://creativecommons.org/ns#" xmlns:dc="http://purl.org/dc/elements/1.1/" viewBox="0 0 138 40.287628"><metadata id="metadata8"><rdf:RDF><cc:Work rdf:about=""><dc:format>image/svg+xml</dc:format><dc:type rdf:resource="http://purl.org/dc/dcmitype/StillImage"/><dc:title/></cc:Work></rdf:RDF></metadata><defs id="defs6"><clipPath id="clipPath18" clipPathUnits="userSpaceOnUse"><path id="path16" d="m0 40.125h137.44v-40.125h-137.44z"/></clipPath></defs><g id="g10" transform="matrix(1.0041 0 0 -1.0041 -.00050203 40.288)"><g id="g12"><g id="g14" clip-path="url(#clipPath18)"><g id="g20" transform="translate(67.755 21.614)"><path id="path22" d="m0 0h0.011c0 1.177 0.001 2.354 0 3.531 0 0.085-0.004 0.17-0.008 0.256-0.09 1.889-1.406 3.116-3.357 3.129-1.997 0.015-3.395-1.202-3.432-3.106-0.049-2.524-0.049-5.05 0.014-7.574 0.013-0.608 0.246-1.272 0.562-1.8 0.705-1.18 2.363-1.657 3.879-1.237 1.387 0.385 2.265 1.453 2.321 2.949 0.048 1.284 0.01 2.568 0.01 3.852m-1.33 9.295c2.569-0.697 4.203-2.703 4.268-5.365 0.063-2.612 0.07-5.226-0.001-7.836-0.085-3.148-2.381-5.457-5.563-5.614-0.988-0.048-2.023 0.034-2.98 0.282-2.375 0.617-3.942 2.476-4.066 5.095-0.137 2.86-0.127 5.742 0.05 8.599 0.176 2.817 2.174 4.642 4.965 5.015 1.068 0.142 2.443 0.064 3.327-0.176" fill-rule="evenodd" fill="#231f20"/></g><g id="g24" transform="translate(47.596 31.208)"><path id="path26" d="m0 0c0.547-0.064 1.082-0.218 1.602-0.392 2.211-0.738 3.419-2.314 3.741-4.593 0.103-0.735-0.376-1.422-1.037-1.561-0.862-0.18-1.437 0.207-1.726 1.021-0.246 0.69-0.473 1.47-0.955 1.975-1.02 1.069-2.381 1.082-3.701 0.653-1.272-0.415-1.964-1.428-2-2.717-0.074-2.652-0.083-5.309 0-7.96 0.055-1.745 1.305-2.837 3.115-2.962 1.738-0.119 3.022 0.781 3.45 2.424 0.032 0.123 0.058 0.248 0.087 0.374 0.205 0.925 0.819 1.376 1.645 1.212 0.794-0.161 1.232-0.849 1.109-1.748-0.336-2.449-1.932-4.195-4.344-4.713-1.34-0.289-2.686-0.264-3.994 0.158-2.219 0.714-3.484 2.255-3.932 4.54-0.177 0.901-0.099 8.683-0.005 9.384 0.3 2.248 1.583 3.805 3.75 4.549 0.55 0.189 1.088 0.29 1.653 0.356 0.51 0.06 1.031 0.061 1.542 0" fill-rule="evenodd" fill="#231f20"/></g><g id="g28" transform="translate(127.91 21.959)"><path id="path30" d="m0 0c1.26 0 2.46-0.069 3.648 0.018 1.623 0.119 2.786 1.359 2.876 2.918 0.101 1.734-0.803 3.041-2.542 3.281-1.293 0.179-3.505 0.066-3.982 0.035zm6.34-1.936c0.74-1.648 1.475-3.282 2.207-4.915 0.115-0.253 0.228-0.508 0.337-0.762 0.365-0.856 0.114-1.627-0.651-2.008-0.731-0.363-1.585-0.067-1.977 0.766-0.742 1.585-1.419 3.203-2.125 4.8-0.514 1.166-1.311 1.438-2.313 1.485-0.584 0.027-1.185-0.018-1.852-0.018 0-1.086 0.001-2.107 0-3.129 0-0.834 0.01-1.67-0.003-2.504-0.016-0.982-0.576-1.554-1.492-1.549-0.888 0.008-1.426 0.561-1.43 1.534-0.01 3.146-0.004 6.295-0.004 9.442 0 2.056-0.008 4.111 0.002 6.167 0.006 0.919 0.383 1.5 1.147 1.504 2.201 0.012 4.425 0.123 6.594-0.158 2.662-0.344 4.269-2.117 4.673-4.594 0.396-2.413-0.682-4.58-2.938-5.916-0.035-0.02-0.064-0.053-0.175-0.145" fill-rule="evenodd" fill="#231f20"/></g><g id="g32" transform="translate(111.47 20.5)"><path id="path34" d="m0 0v-5.523c0.23-0.012 0.457-0.032 0.682-0.032 2.096-0.004 4.194 0.007 6.293-0.006 1.011-0.007 1.541-0.607 1.402-1.537-0.093-0.632-0.514-1.065-1.16-1.068-2.952-0.016-5.905-0.022-8.859 0.004-0.803 0.007-1.273 0.541-1.309 1.372-0.026 0.599-0.009 1.198-0.009 1.798-0.001 4.515-0.002 9.029 0 13.545 0 1.419 0.413 1.842 1.829 1.845 2.589 0.006 5.178 0.012 7.767-0.003 1.166-0.008 1.727-0.696 1.455-1.709-0.163-0.6-0.614-0.921-1.366-0.924-2.034-0.008-4.068-0.004-6.1-0.004h-0.611v-5.154c0.213-0.01 0.437-0.03 0.662-0.032 1.713-0.002 3.426 0.02 5.136-0.015 0.403-0.009 0.866-0.118 1.188-0.341 0.461-0.318 0.521-0.857 0.346-1.393-0.185-0.563-0.604-0.811-1.173-0.814-1.819-0.009-3.638-0.007-5.456-0.009z" fill-rule="evenodd" fill="#231f20"/></g><g id="g36" transform="translate(79.169 21.431)"><path id="path38" d="m0 0c1.316 0 2.564-0.116 3.78 0.028 1.592 0.19 2.608 1.416 2.741 3.006 0.142 1.705-0.604 3.223-2.075 3.557-1.428 0.324-2.94 0.288-4.446 0.414zm-0.031-2.558c0-1.838 0.011-3.502-0.003-5.166-0.01-0.968-0.599-1.536-1.519-1.515-0.792 0.016-1.383 0.504-1.386 1.299-0.021 5.369-0.021 10.738 0.001 16.107 0.002 0.736 0.448 1.243 1.134 1.242 2.219-0.006 4.467 0.131 6.648-0.187 3.081-0.451 4.821-3.016 4.646-6.303-0.152-2.863-2.352-5.205-5.261-5.457-1.378-0.119-2.773-0.02-4.26-0.02" fill-rule="evenodd" fill="#231f20"/></g><g id="g40" transform="translate(96.31 14.944)"><path id="path42" d="m0 0h0.74c1.842 0 3.682 0.006 5.526-0.002 1.007-0.006 1.498-0.467 1.478-1.352-0.017-0.84-0.514-1.265-1.5-1.267-2.504-0.004-5.01-0.004-7.515 0-1.155 0.003-1.657 0.49-1.657 1.633-0.005 5.161-0.006 10.321 0 15.481 0.003 1.206 0.836 1.842 1.945 1.518 0.659-0.193 0.981-0.709 0.981-1.613 0.003-4.518 0.002-9.036 0.002-13.554z" fill-rule="evenodd" fill="#231f20"/></g><g id="g44" transform="translate(9.7891 25.102)"><path id="path46" d="m0 0c-0.814 0-1.475-1.512-1.475-3.375 0-1.865 0.661-3.375 1.475-3.375s1.475 1.51 1.475 3.375c0 1.863-0.661 3.375-1.475 3.375" fill="#231f20"/></g><g id="g48" transform="translate(23.457 25.102)"><path id="path50" d="m0 0c-0.814 0-1.475-1.512-1.475-3.375 0-1.865 0.661-3.375 1.475-3.375s1.475 1.51 1.475 3.375c0 1.863-0.661 3.375-1.475 3.375" fill="#231f20"/></g><g id="g52" transform="translate(11.387 29.392)"><path id="path54" d="m0 0h-2.832c-0.553 0-1-0.447-1-1s0.447-1 1-1h2.832c0.553 0 1 0.447 1 1s-0.447 1-1 1" fill="#231f20"/></g><g id="g56" transform="translate(24.805 29.392)"><path id="path58" d="m0 0h-2.834c-0.553 0-1-0.447-1-1s0.447-1 1-1h2.834c0.553 0 1 0.447 1 1s-0.447 1-1 1" fill="#231f20"/></g><g id="g60" transform="translate(2.3145 19.362)"><path id="path62" d="m0 0c-0.455 0.436-0.814 1.246-0.814 2.27 0 1.025 0.359 1.834 0.814 2.271zm0 6.368v-0.101c-1.342-0.436-2.314-2.029-2.314-3.997 0-1.967 0.972-3.56 2.314-3.996v-1.609h1.5v9.703c0 1.295 0.196 2.543 0.554 3.723h-1.548c-0.319-1.19-0.506-2.434-0.506-3.723" fill="#231f20"/></g><g id="g64" transform="translate(31.102 19.345)"><path id="path66" d="m0 0v4.576c0.464-0.431 0.834-1.249 0.834-2.288s-0.37-1.856-0.834-2.288m0 6.293v0.093c0 1.289-0.187 2.533-0.506 3.722h-1.548c0.358-1.179 0.554-2.427 0.554-3.722v-9.703h1.5v1.6c1.352 0.427 2.334 2.028 2.334 4.005 0 1.978-0.982 3.578-2.334 4.005" fill="#231f20"/></g><g id="g68" transform="translate(21.449 10.184)"><path id="path70" d="m0 0c-0.146-0.061-1.484-0.592-4.518-0.592-0.087 0-0.173 0-0.263 0.001-3.318 0.032-4.723 0.559-4.782 0.581-0.386 0.15-0.579 0.583-0.43 0.97 0.149 0.385 0.578 0.577 0.966 0.432 0.038-0.014 1.297-0.455 4.26-0.483 2.93-0.032 4.174 0.469 4.187 0.474 0.382 0.157 0.819-0.028 0.976-0.406 0.159-0.38-0.017-0.816-0.396-0.977m11.135 3.191c0 0.957-0.637 1.756-1.507 2.022 0.006 0.16 0.024 0.316 0.024 0.478v0.152h-1.5v-0.152c0-0.194-0.02-0.383-0.029-0.575-0.239-0.111-0.457-0.261-0.639-0.449-0.32 0.393-0.802 0.649-1.349 0.649-0.578 0-1.086-0.284-1.406-0.715-0.364 0.648-1.049 1.09-1.844 1.09-0.942 0-1.731-0.616-2.01-1.463-0.494 0.869-1.418 1.463-2.49 1.463-0.699 0-1.332-0.26-1.83-0.674-0.334 0.355-0.787 0.586-1.295 0.648-0.51-0.062-0.963-0.293-1.297-0.648-0.498 0.414-1.129 0.674-1.828 0.674-1.073 0-1.996-0.594-2.49-1.463-0.28 0.847-1.069 1.463-2.01 1.463-0.797 0-1.483-0.442-1.846-1.09-0.318 0.431-0.826 0.715-1.404 0.715-0.547 0-1.03-0.256-1.352-0.649-0.181 0.188-0.398 0.339-0.638 0.45-0.009 0.192-0.03 0.38-0.03 0.574v0.152h-1.5v-0.152c0-0.162 0.019-0.318 0.025-0.478-0.87-0.267-1.505-1.067-1.505-2.022 0-0.555 0.217-1.055 0.564-1.434-0.347-0.43-0.564-0.971-0.564-1.566 0-1.254 0.924-2.282 2.129-2.463-0.002-0.012-0.004-0.024-0.004-0.037 0-0.967 0.783-1.75 1.75-1.75 0.181 0 0.355 0.037 0.521 0.087-0.008-0.07-0.021-0.14-0.021-0.212 0-1.174 0.951-2.125 2.125-2.125 0.148 0 0.293 0.015 0.433 0.044 0.268-1.308 1.426-2.294 2.817-2.294 0.551 0 1.062 0.164 1.5 0.433 0.287-0.832 1.068-1.433 2-1.433 0.459 0 0.875 0.158 1.222 0.408 0.219-0.602 0.789-1.033 1.465-1.033 0.649 0 1.205 0.396 1.442 0.96 0.326-0.205 0.705-0.335 1.121-0.335 0.929 0 1.711 0.601 2 1.433 0.437-0.269 0.947-0.433 1.5-0.433 1.388 0 2.547 0.986 2.816 2.294 0.139-0.029 0.285-0.044 0.434-0.044 1.174 0 2.125 0.951 2.125 2.125 0 0.072-0.016 0.142-0.022 0.212 0.166-0.05 0.338-0.087 0.522-0.087 0.967 0 1.75 0.783 1.75 1.75 0 0.013-0.004 0.025-0.004 0.037 1.203 0.181 2.129 1.209 2.129 2.463 0 0.595-0.219 1.136-0.567 1.566 0.348 0.379 0.567 0.879 0.567 1.434" fill="#231f20"/></g><g id="g72" transform="translate(16.709,40.125)"><path id="path74" d="m0 0c-6.648 0-12.242-4.536-13.889-10.672h1.548c1.006 3.324 3.32 6.086 6.342 7.682 0.033-0.331 0.304-0.594 0.644-0.594 0.361 0 0.656 0.295 0.656 0.656 0 0.183-0.089 0.334-0.21 0.451 1.514 0.626 3.171 0.977 4.909 0.977 1.746 0 3.41-0.353 4.93-0.984-0.114-0.117-0.192-0.268-0.192-0.444 0-0.361 0.295-0.656 0.657-0.656 0.333 0 0.596 0.255 0.637 0.577 3.006-1.598 5.305-4.352 6.307-7.665h1.548c-1.647 6.136-7.24 10.672-13.887 10.672" fill="#231f20"/></g><g id="g76" transform="translate(5.9121 31.562)"><path id="path78" d="m0 0c-0.361 0-0.656-0.295-0.656-0.656 0-0.362 0.295-0.656 0.656-0.656s0.656 0.294 0.656 0.656c0 0.361-0.295 0.656-0.656 0.656" fill="#231f20"/></g><g id="g80" transform="translate(9.4941 31.562)"><path id="path82" d="m0 0c-0.361 0-0.656-0.295-0.656-0.656 0-0.362 0.295-0.656 0.656-0.656 0.363 0 0.656 0.294 0.656 0.656 0 0.361-0.293 0.656-0.656 0.656" fill="#231f20"/></g><g id="g84" transform="translate(13.078 31.562)"><path id="path86" d="m0 0c-0.361 0-0.656-0.295-0.656-0.656 0-0.362 0.295-0.656 0.656-0.656s0.656 0.294 0.656 0.656c0 0.361-0.295 0.656-0.656 0.656" fill="#231f20"/></g><g id="g88" transform="translate(16.662 31.562)"><path id="path90" d="m0 0c-0.361 0-0.656-0.295-0.656-0.656 0-0.362 0.295-0.656 0.656-0.656s0.656 0.294 0.656 0.656c0 0.361-0.295 0.656-0.656 0.656" fill="#231f20"/></g><g id="g92" transform="translate(20.246 31.562)"><path id="path94" d="m0 0c-0.361 0-0.656-0.295-0.656-0.656 0-0.362 0.295-0.656 0.656-0.656s0.656 0.294 0.656 0.656c0 0.361-0.295 0.656-0.656 0.656" fill="#231f20"/></g><g id="g96" transform="translate(23.828 31.562)"><path id="path98" d="m0 0c-0.361 0-0.656-0.295-0.656-0.656 0-0.362 0.295-0.656 0.656-0.656 0.363 0 0.656 0.294 0.656 0.656 0 0.361-0.293 0.656-0.656 0.656" fill="#231f20"/></g><g id="g100" transform="translate(27.412 31.562)"><path id="path102" d="m0 0c-0.361 0-0.656-0.295-0.656-0.656 0-0.362 0.295-0.656 0.656-0.656s0.656 0.294 0.656 0.656c0 0.361-0.295 0.656-0.656 0.656" fill="#231f20"/></g><g id="g104" transform="translate(7.7695 33.688)"><path id="path106" d="m0 0c-0.361 0-0.656-0.295-0.656-0.656 0-0.362 0.295-0.656 0.656-0.656s0.656 0.294 0.656 0.656c0 0.361-0.295 0.656-0.656 0.656" fill="#231f20"/></g><g id="g108" transform="translate(11.354 33.688)"><path id="path110" d="m0 0c-0.361 0-0.656-0.295-0.656-0.656 0-0.362 0.295-0.656 0.656-0.656s0.656 0.294 0.656 0.656c0 0.361-0.295 0.656-0.656 0.656" fill="#231f20"/></g><g id="g112" transform="translate(14.938 33.688)"><path id="path114" d="m0 0c-0.361 0-0.656-0.295-0.656-0.656 0-0.362 0.295-0.656 0.656-0.656s0.656 0.294 0.656 0.656c0 0.361-0.295 0.656-0.656 0.656" fill="#231f20"/></g><g id="g116" transform="translate(18.52 33.688)"><path id="path118" d="m0 0c-0.361 0-0.656-0.295-0.656-0.656 0-0.362 0.295-0.656 0.656-0.656 0.363 0 0.656 0.294 0.656 0.656 0 0.361-0.293 0.656-0.656 0.656" fill="#231f20"/></g><g id="g120" transform="translate(22.104 33.688)"><path id="path122" d="m0 0c-0.361 0-0.656-0.295-0.656-0.656 0-0.362 0.295-0.656 0.656-0.656s0.656 0.294 0.656 0.656c0 0.361-0.295 0.656-0.656 0.656" fill="#231f20"/></g><g id="g124" transform="translate(25.688 33.688)"><path id="path126" d="m0 0c-0.361 0-0.656-0.295-0.656-0.656 0-0.362 0.295-0.656 0.656-0.656s0.656 0.294 0.656 0.656c0 0.361-0.295 0.656-0.656 0.656" fill="#231f20"/></g><g id="g128" transform="translate(9.4941 35.728)"><path id="path130" d="m0 0c-0.361 0-0.656-0.295-0.656-0.656 0-0.362 0.295-0.656 0.656-0.656 0.363 0 0.656 0.294 0.656 0.656 0 0.361-0.293 0.656-0.656 0.656" fill="#231f20"/></g><g id="g132" transform="translate(23.828 35.728)"><path id="path134" d="m0 0c-0.361 0-0.656-0.295-0.656-0.656 0-0.362 0.295-0.656 0.656-0.656 0.363 0 0.656 0.294 0.656 0.656 0 0.361-0.293 0.656-0.656 0.656" fill="#231f20"/></g><g id="g136" transform="translate(14.938 37.854)"><path id="path138" d="m0 0c-0.361 0-0.656-0.295-0.656-0.656 0-0.362 0.295-0.656 0.656-0.656s0.656 0.294 0.656 0.656c0 0.361-0.295 0.656-0.656 0.656" fill="#231f20"/></g><g id="g140" transform="translate(18.52 37.854)"><path id="path142" d="m0 0c-0.361 0-0.656-0.295-0.656-0.656 0-0.362 0.295-0.656 0.656-0.656 0.363 0 0.656 0.294 0.656 0.656 0 0.361-0.293 0.656-0.656 0.656" fill="#231f20"/></g><g id="g144" transform="translate(13.078 35.746)"><path id="path146" d="m0 0c-0.361 0-0.656-0.295-0.656-0.656 0-0.364 0.295-0.656 0.656-0.656s0.656 0.292 0.656 0.656c0 0.361-0.295 0.656-0.656 0.656" fill="#231f20"/></g><g id="g148" transform="translate(16.662 35.746)"><path id="path150" d="m0 0c-0.361 0-0.656-0.295-0.656-0.656 0-0.364 0.295-0.656 0.656-0.656s0.656 0.292 0.656 0.656c0 0.361-0.295 0.656-0.656 0.656" fill="#231f20"/></g><g id="g152" transform="translate(20.246 35.746)"><path id="path154" d="m0 0c-0.361 0-0.656-0.295-0.656-0.656 0-0.364 0.295-0.656 0.656-0.656s0.656 0.292 0.656 0.656c0 0.361-0.295 0.656-0.656 0.656" fill="#231f20"/></g></g></g></g></svg>
