<svg xmlns="http://www.w3.org/2000/svg" width="194" height="81">
  <defs>
    <clipPath id="a">
      <path d="M0 13.426h33.436V0H0v13.426z"/>
    </clipPath>
  </defs>
  <g clip-path="url(#a)" transform="matrix(5.8 0 0 -6.03 0 81)">
    <path fill="#231f20" d="M9.78 9.043c-.815 0-1.476-1.512-1.476-3.375 0-1.865.66-3.375 1.476-3.375.814 0 1.475 1.51 1.475 3.375 0 1.863-.66 3.375-1.475 3.375M23.447 9.043c-.814 0-1.475-1.512-1.475-3.375 0-1.865.66-3.375 1.475-3.375s1.475 1.51 1.475 3.375c0 1.863-.66 3.375-1.475 3.375M11.38 13.334H8.544c-.553 0-1-.447-1-1s.447-1 1-1h2.834c.552 0 1 .447 1 1s-.448 1-1 1M24.795 13.334H21.96c-.552 0-1-.447-1-1s.448-1 1-1h2.835c.553 0 1 .447 1 1s-.447 1-1 1M2.306 3.34C1.856 3.776 1.5 4.583 1.5 5.6c0 1.017.356 1.824.806 2.262V3.34zm0 6.332v-.078C.97 9.154 0 7.564 0 5.602S.97 2.05 2.306 1.61V0h1.5v9.672c0 1.177.172 2.312.47 3.395.032.122.076.24.113.36H2.817c-.326-1.2-.512-2.455-.512-3.755M31.094 3.307v4.59c.468-.43.843-1.25.843-2.295s-.375-1.865-.843-2.295m0 6.303v.062c0 1.3-.184 2.556-.508 3.754h-1.57c.024-.076.053-.15.075-.226.32-1.123.504-2.303.504-3.528V0h1.5v1.594c1.356.423 2.343 2.027 2.343 4.008s-.987 3.585-2.343 4.008"/>
  </g>
</svg>
