<svg xmlns="http://www.w3.org/2000/svg" width="169" height="111.01">
  <defs>
    <clipPath id="a">
      <path d="M0 19.284h29.357V0H0v19.284z"/>
    </clipPath>
  </defs>
  <g clip-path="url(#a)" transform="matrix(5.757 0 0 -5.757 0 111.01)">
    <path fill="#231f20" d="M22.955 7.446c.453 1.52 1.183 3.505 3.172 6.117.17.22.512.603.907 1.046 2.14 2.393 2.616 3.065 2.17 3.597-.386.46-1.015.692-1.87.692-2.747 0-8.198-2.66-10.55-4.617.244 1.296.802 2.42 1.175 3.168.355.72.534 1.08.38 1.425-.063.136-.244.29-.39.328-.2.054-.414.08-.634.08-2.44 0-5.5-3.448-7.328-5.51-.336-.38-.705-.794-.915-1.028-.075.218-.073.547-.06.914.014.436.028.813-.22 1.07-.315.325-.753.294-1.508-.34-1.576-1.324-2.687-3.844-2.643-5.994.006-.35.05-.68.115-.998C2.47 5.518.79 2.938 0 0h1.56c.702 2.31 2.025 4.35 3.79 5.916.26-.427.574-.82.98-1.133C8.107 3.41 12.14 1.99 15.81 1.99c2.713 0 4.746.77 5.876 2.226.374.48.602 1.034.8 1.646C24.22 4.304 25.52 2.282 26.215 0h1.56c-.798 2.965-2.504 5.56-4.82 7.446"/>
  </g>
</svg>
