<svg xmlns="http://www.w3.org/2000/svg" viewBox="0 0 633.7 450.36" width="176">
  <defs>
    <style>
      .cls-1{font-size:57.12px;fill:#6cd3dd;font-family:ClearSansRegular, ClearSans, Clear Sans;}.cls-2{letter-spacing:-0.04em;}.cls-3{letter-spacing:0em;}
    </style>
  </defs>
  <path fill="#6cd3dd" d="M339.57 404.73l39.24-41.88-23.69-32.5a169.27 169.27 0 0 0 19.8-50l42.14-8v-57.38l-42.14-8.12a169.53 169.53 0 0 0-26.35-60.22l23.32-36.73-41.85-39.25-35.6 25.89a169.2 169.2 0 0 0-49.53-19.38l-7.65-40.31h-57.38l-7.68 40.33a169.49 169.49 0 0 0-59.33 25.55L77.11 80.06l-39.24 41.86 24.72 33.93a169.2 169.2 0 0 0-21.16 54.75l-41.3 7.77-.09 57.36 43 8.31a169.65 169.65 0 0 0 26.62 58.09l-22.33 35.06 41.77 39.34 34.75-25.19a169 169 0 0 0 48.31 18.68l7.68 40.33h57.37l7.68-40.33a169.47 169.47 0 0 0 60.91-26.67zm-131-13.14c-81.6 0-148-66.39-148-148s66.39-148 148-148 148 66.39 148 148a147.21 147.21 0 0 1-29.39 88.42l-22.42 23.92a147.31 147.31 0 0 1-96.19 35.65zM566.51 36.73l4-25.34L538.64 0l-13.15 22.36a99.72 99.72 0 0 0-31.32 1.17l-13.64-20-31 13.49 5.33 23.61a99.84 99.84 0 0 0-26.05 27.76l-24.66-3.84-11.37 31.85 21.34 12.53a99.78 99.78 0 0 0 1.44 34.57l-20.52 13.92 13.42 31 25.26-5.57a100 100 0 0 0 28.05 25.13l-3.82 24.2 31.83 11.44 12.85-21.77a99.72 99.72 0 0 0 30.5-1.27l13.64 20 31-13.49-5.33-23.61a99.94 99.94 0 0 0 26.6-28.78l23.25 3.62 11.36-31.85-20.44-12a99.75 99.75 0 0 0-1.07-31.69l20.9-14.24-13.47-31-24.69 5.56a99.9 99.9 0 0 0-28.37-26.37zm32 105.21l-6.47 18.2a87 87 0 1 1 6.49-18.2zM531.36 354.3v-17.51l-12.88-2.46a51.73 51.73 0 0 0-8-18.38l7.12-11.21-12.77-12-10.87 7.9a51.65 51.65 0 0 0-15.12-5.92l-2.34-12.31h-17.54l-2.34 12.31a51.75 51.75 0 0 0-18.11 7.8l-10.92-6.92-12 12.78 7.55 10.36a51.67 51.67 0 0 0-6.46 16.71l-12.64 2.4v17.51l13.16 2.49a51.76 51.76 0 0 0 8.13 17.73l-6.82 10.7 12.75 12 10.61-7.69a51.67 51.67 0 0 0 14.75 5.7l2.34 12.31h17.52l2.34-12.31a51.72 51.72 0 0 0 18.59-8.14l10.29 6.52 12-12.78-7.23-9.93a51.72 51.72 0 0 0 6-15.27zm-27.44 18.22l-6.88 7.33a45.07 45.07 0 1 1 6.84-7.3z"/>
  <text class="cls-1" transform="rotate(-17.47 1020.29 -142.597)">
    20 WEE<tspan x="197.14" y="0" class="cls-2">K</tspan><tspan x="230.38" y="0" class="cls-3">S</tspan>
  </text>
</svg>
