<svg xmlns="http://www.w3.org/2000/svg" viewBox="0 0 63.24 12.926" width="48" height="10">
  <defs>
    <clipPath id="a">
      <path d="M0 9.695h50.327V0H0z"/>
    </clipPath>
  </defs>
  <path fill="#6cd3dd" d="M0 6.184l1.17 2.48.833-.354-1.04-2.54z"/>
  <g clip-path="url(#a)" transform="matrix(1.33333 0 0 -1.33333 -.277 12.926)">
    <path fill="#6cd3dd" fill-rule="evenodd" d="M3.763 5.252c.172-.6-.14-1.234-.695-1.407-.547-.184-1.162.125-1.394.71-.23.582.075 1.244.68 1.448.605.19 1.236-.145 1.41-.75m4.072 1.01c.128-.61-.24-1.22-.82-1.35-.585-.124-1.17.24-1.326.854-.153.604.21 1.233.817 1.363.606.135 1.2-.25 1.33-.868m4.126.763c.098-.62-.3-1.203-.892-1.3-.59-.105-1.16.306-1.275.923-.116.615.28 1.21.89 1.317.608.1 1.182-.32 1.28-.94m4.156.57c.07-.626-.356-1.18-.95-1.26-.593-.077-1.146.365-1.233.986-.088.624.337 1.19.95 1.274.61.082 1.167-.378 1.235-.998m4.182.35c.028-.63-.427-1.152-1.02-1.2-.594-.04-1.12.428-1.177 1.05-.056.628.4 1.176 1.02 1.218.618.05 1.15-.444 1.177-1.068m4.193-.05c-.052-.625-.57-1.102-1.156-1.062-.574.018-1.04.54-1.044 1.168-.006.628.514 1.126 1.157 1.105.627-.042 1.094-.584 1.042-1.21m4.172-.46c-.085-.625-.636-1.055-1.23-.987-.595.07-1.023.633-.956 1.257.068.624.62 1.072 1.233 1 .614-.07 1.038-.652.954-1.27m4.15-.635c-.108-.62-.676-1.04-1.27-.94-.593.093-1 .67-.905 1.29.095.62.664 1.05 1.27.955.608-.103 1.013-.688.906-1.306m4.124-.78c-.13-.612-.71-1.014-1.3-.893-.59.114-.977.703-.862 1.32.115.616.698 1.028 1.302.91.602-.122.987-.72.86-1.335m4.09-.93c-.153-.607-.75-.985-1.33-.84-.585.134-.95.738-.812 1.35.137.612.736 1 1.336.863.6-.15.96-.764.807-1.372m.33-2.666L40.725 0l1.037.526c.634.318 1.477.728 2.334 1.11.868.4 1.735.75 2.41 1.01.677.267 1.134.41 1.134.41s-.223.438-.598 1.06c-.37.632-.895 1.488-1.45 2.304-.55.836-1.13 1.654-1.57 2.257-.45.61-.747 1.018-.747 1.018l-.637-2.423z"/>
  </g>
</svg>
