<svg xmlns="http://www.w3.org/2000/svg" viewBox="0 0 283.743 284.617">
  <defs>
    <clipPath id="a">
      <path d="M0 213.463h212.807V0H0z"/>
    </clipPath>
  </defs>
  <path fill="#9ddbdb" d="M148.643 0l-9.747 10.663 9.747 10.662h2.265l-9.745-10.662L150.908 0zm-16.36 263.29l9.744 10.665-9.745 10.663h2.267l9.74-10.663-9.75-10.664zm130.134-119.748v2.265l10.663-9.745 10.664 9.745v-2.265l-10.664-9.747zm-251.754 5.235L0 139.032v2.265l10.663 9.747 10.663-9.747v-2.265z"/>
  <g clip-path="url(#a)" transform="matrix(1.33333 0 0 -1.33333 0 284.617)">
    <path fill="#f9f8f6" fill-rule="evenodd" d="M105.676 188.47c44.898 0 81.295-36.398 81.295-81.296S150.58 25.88 105.68 25.88s-81.295 36.396-81.295 81.294c0 44.898 36.398 81.295 81.296 81.295"/>
    <path fill="#9ddbdb" d="M111.335 204.343c-1.64.082-3.31.124-4.962.124l-.213-.002v1h.21c1.672 0 3.358-.04 5.014-.124zm-15.085-.393l-.103.995c1.654.17 3.336.3 5 .386l.052-1c-1.65-.08-3.32-.21-4.95-.38m24.96-.6c-1.63.25-3.29.46-4.93.62l.1 1c1.65-.16 3.33-.38 4.97-.63zm-34.77-.91l-.2.98c1.63.34 3.29.64 4.93.89l.15-.99c-1.63-.25-3.27-.54-4.89-.88m44.49-1.07c-1.59.41-3.22.79-4.84 1.12l.2.98c1.63-.33 3.28-.71 4.88-1.13zm-54.1-1.43l-.3.96c1.59.51 3.21.97 4.82 1.39l.25-.97c-1.59-.41-3.2-.87-4.77-1.37m63.57-1.54c-1.54.57-3.13 1.12-4.71 1.61l.3.96c1.6-.5 3.2-1.04 4.75-1.62zm-72.87-1.91l-.4.92c1.52.66 3.08 1.29 4.64 1.87l.35-.93c-1.55-.57-3.09-1.2-4.6-1.85m82-2.01c-1.48.73-3 1.43-4.52 2.08l.39.92c1.53-.66 3.07-1.36 4.56-2.1zm-90.87-2.4l-.49.88c1.45.81 2.94 1.6 4.43 2.33l.44-.9c-1.48-.72-2.95-1.5-4.39-2.3m99.56-2.45c-1.4.88-2.84 1.73-4.28 2.53l.48.88c1.46-.82 2.91-1.67 4.32-2.56zm-107.97-2.81l-.58.82c1.36.95 2.76 1.88 4.17 2.77l.53-.84c-1.4-.87-2.79-1.79-4.14-2.74m116.11-2.87c-1.31 1.01-2.65 2-4 2.95l.57.82c1.36-.95 2.72-1.95 4.04-2.97zm-123.95-3.22l-.65.76c1.26 1.09 2.57 2.16 3.88 3.18l.61-.79c-1.3-1.01-2.59-2.06-3.84-3.14m131.47-3.25c-1.19 1.14-2.43 2.26-3.68 3.33l.65.76c1.26-1.09 2.52-2.22 3.72-3.36zm-138.64-3.6l-.73.69c1.15 1.21 2.34 2.41 3.54 3.55l.692-.72c-1.194-1.13-2.37-2.32-3.51-3.51m145.5-3.6c-1.07 1.25-2.19 2.49-3.33 3.69l.723.69c1.145-1.21 2.28-2.46 3.36-3.72zm-151.94-3.95l-.79.62c1.02 1.32 2.09 2.63 3.17 3.89l.76-.65c-1.07-1.24-2.13-2.54-3.14-3.85m158.03-3.9c-.944 1.36-1.933 2.7-2.94 4l.79.62c1.02-1.31 2.017-2.67 2.97-4.04zm-163.66-4.3l-.85.53c.88 1.42 1.81 2.83 2.76 4.2l.82-.57c-.94-1.35-1.86-2.75-2.73-4.15m168.953-4.15c-.8 1.44-1.65 2.88-2.52 4.27l.85.53c.88-1.4 1.735-2.86 2.544-4.31zM18.303 149.5l-.9.44c.733 1.495 1.514 2.994 2.323 4.453l.875-.485c-.8-1.444-1.57-2.927-2.29-4.408m178.15-4.356c-.65 1.508-1.34 3.022-2.07 4.5l.9.442c.74-1.494 1.44-3.023 2.1-4.547zM14.39 140.36l-.938.344c.575 1.562 1.2 3.134 1.858 4.67l.92-.394c-.65-1.52-1.27-3.075-1.84-4.62m185.5-4.51c-.495 1.577-1.036 3.158-1.607 4.697l.938.347c.58-1.554 1.13-3.15 1.63-4.744zm-188.455-4.978l-.97.248c.414 1.615.875 3.238 1.37 4.826l.955-.298c-.49-1.572-.946-3.18-1.355-4.776m190.94-4.63c-.332 1.62-.71 3.246-1.12 4.836l.968.25c.416-1.606.797-3.25 1.132-4.884zm-192.91-5.096l-.99.148c.25 1.647.542 3.31.872 4.94l.98-.2c-.327-1.613-.617-3.258-.862-4.888m194.407-4.714c-.166 1.644-.376 3.3-.623 4.925l.98.15c.25-1.64.46-3.313.63-4.974zM8.49 111.27l-1 .048c.08 1.664.204 3.347.367 5l.995-.098m195.52-9.7c0 1.653-.043 3.323-.126 4.963l1 .05c.082-1.656.125-3.343.126-5.013zM7.506 101.29c-.084 1.66-.13 3.346-.132 5.013l1 .002c.003-1.65.047-3.32.132-4.963zm197.373-4.784l-1 .1c.16 1.64.29 3.305.37 4.95l1-.05c-.08-1.66-.21-3.343-.37-5M8.52 91.318c-.252 1.64-.466 3.315-.636 4.975l.992.102c.167-1.644.38-3.3.63-4.924zm194.852-4.723l-.98.2c.33 1.615.622 3.26.868 4.887l.988-.15c-.247-1.644-.542-3.305-.875-4.937M10.545 81.5c-.42 1.61-.8 3.253-1.136 4.884l.98.203c.33-1.616.71-3.242 1.12-4.835zm190.33-4.615l-.953.3c.492 1.572.95 3.178 1.36 4.773l.97-.25c-.416-1.61-.878-3.234-1.375-4.823M13.56 71.938c-.58 1.56-1.128 3.155-1.63 4.743l.955.31c.495-1.57 1.038-3.15 1.613-4.69zm183.832-4.477l-.92.4c.653 1.52 1.273 3.08 1.845 4.62l.937-.34c-.577-1.56-1.204-3.13-1.862-4.66m-179.87-4.71c-.735 1.49-1.44 3.02-2.098 4.55l.918.4c.65-1.51 1.35-3.02 2.077-4.49zm175.445-4.3l-.874.49c.802 1.45 1.576 2.93 2.303 4.41l.898-.44c-.734-1.49-1.517-2.99-2.327-4.45M22.4 54.01c-.88 1.4-1.737 2.85-2.55 4.31l.873.484c.804-1.44 1.654-2.874 2.524-4.264zm165.253-4.077l-.82.57c.942 1.36 1.863 2.75 2.736 4.15l.84-.53c-.88-1.41-1.82-2.82-2.77-4.19M28.13 45.8c-1.02 1.31-2.02 2.667-2.97 4.033l.82.574c.947-1.35 1.937-2.692 2.945-3.99zM181.51 42l-.76.653c1.077 1.252 2.133 2.547 3.14 3.848l.792-.61c-1.018-1.31-2.085-2.62-3.172-3.89M34.676 38.2c-1.148 1.205-2.28 2.455-3.366 3.716l.758.653c1.075-1.25 2.196-2.49 3.332-3.68zm139.927-3.464l-.69.725c1.195 1.14 2.376 2.32 3.51 3.51l.724-.69c-1.145-1.2-2.337-2.39-3.544-3.54M41.948 31.3c-1.265 1.084-2.518 2.215-3.724 3.36l.69.725c1.192-1.133 2.433-2.252 3.685-3.327zm125.055-3.1l-.613.79c1.298 1.005 2.59 2.06 3.842 3.138l.653-.758c-1.265-1.088-2.572-2.154-3.882-3.17m-117.12-3.045c-1.366.95-2.727 1.95-4.046 2.97l.612.79c1.3-1.01 2.65-2 4-2.94zm108.905-2.69l-.53.847c1.4.877 2.792 1.797 4.137 2.736l.572-.82c-1.358-.95-2.764-1.878-4.18-2.763M58.4 19.845c-1.452.805-2.908 1.662-4.328 2.547l.53.848c1.405-.875 2.846-1.724 4.283-2.52zm91.64-2.253l-.44.898c1.472.725 2.95 1.5 4.39 2.3l.485-.873c-1.454-.81-2.946-1.592-4.435-2.325m-82.623-2.167c-1.535.657-3.07 1.362-4.566 2.096l.44.9c1.48-.72 3.01-1.42 4.52-2.07zm73.433-1.79l-.35.938c1.542.572 3.088 1.192 4.6 1.843l.395-.92c-1.527-.656-3.09-1.282-4.645-1.86m-64.007-1.69c-1.594.496-3.195 1.042-4.76 1.62l.348.937c1.55-.572 3.14-1.11 4.71-1.604zm54.443-1.32l-.25.97c1.597.413 3.203.874 4.77 1.367l.3-.954c-1.583-.5-3.205-.97-4.82-1.39M86.553 9.45c-1.628.33-3.273.71-4.888 1.124l.25.97c1.598-.41 3.226-.786 4.837-1.114zm34.913-.84l-.15.988c1.632.25 3.276.545 4.885.875l.21-.98c-1.62-.333-3.28-.63-4.93-.883m-25-.655c-1.65.165-3.33.374-4.97.622l.15.99c1.63-.246 3.29-.454 4.93-.617zm15.03-.36l-.05 1c1.65.084 3.32.21 4.95.376l.1-.99c-1.65-.16-3.33-.29-5-.38m-5.01-.13h-.11c-1.62 0-3.27.04-4.9.12l.05 1c1.61-.08 3.25-.12 4.86-.12z"/>
    <path fill="#fff" d="M81.882 119.148c-.843.1-1.838-.052-2.503.347-2.33 1.393-4.64 2.515-7.66 1.265 1.65 2.68 5.37 2.134 10.16-1.612m7.37-1.343c-2.41-.65-4.73-1.862-7.28-1.253 2.05 2.942 4.47 3.42 7.27 1.253m2.29 51.722c1.73.446 2.81-.382 3.76-1.805-1.67-.265-3.15-.533-4.65-.682-.13-.013-.59.92-.45 1.16.3.523.86.898 1.33 1.327M62.4 174.6c4.643-.413 8.337-3.608 13.257-2.17-4.115.306-4.286.46-4.597 4.02l-4.542-.874c-.2.62-.364 1.016-.577 1.224 11.95 7.008 25.83 11.046 40.65 11.046 15.07 0 29.18-4.168 41.26-11.398-1.88-2.897-4.45-4.292-7.94-4.016-.48.038-1.01-.286-1.5-.475-2.58-.984-5.21-1.884-7.73-3.014-1.13-.506-2.19-1.35-3.03-2.275-.89-.99-1.18-2.647-2.98-2.49-2.36.207-4.2 1.692-4.7 3.703-.91 3.73-.47 4.56 3.07 5.72-.52.68-1.35 1.28-1.49 2.02-.3 1.54-1.3 1.42-2.38 1.42-3.32-.01-6.64.01-9.97-.01-.75 0-1.5-.1-2.28-.15l2.21-3.99c1.28.07 2.53-.55 2.97-2.79l-3.62-.36c1.19-1.16 1.19-2.15-.13-2.52-1.08-.3-2.16-.72-3.26-.82-.77-.07-1.75.07-2.34.51-1.19.88-2.27 1.54-3.82 1.02-.35-.11-.87.29-1.31.45.29.46.48 1.03.88 1.34.32.26.89.18 1.33.29 1.24.32 2.48.67 3.74 1.01-.9 2.37-2.09 2.79-6.02 2.37-.32-2.09-1.69-2.92-3.73-3.06-.75-.05-1.47-.49-2.21-.75.01.01.03.02.04.03-3.45-1.48-6.94-2.87-10.33-4.5-.8-.39-1.58-1.49-1.72-2.36-.08-.51 1.03-1.47 1.78-1.8 1.84-.8 3.78-1.35 5.78-2.03-.15-.35-.31-.77-.5-1.17-.49-1.02-1.28-2.17.29-2.84 1.63-.7 1.89.78 2.19 1.81.36 1.28.95 2.03 2.38 2.28.65.12 1.61 1.04 1.63 1.62.06 1.82 1.02 3.06 2.03 4.4 1.51 2.01 2.64 2.35 5.29 1.27 1.73-.7 2.69-1.83 1.75-4.02.95.33 1.61.79 2.32 1.17.59.31 1.51.9 1.79.69.56-.41 1.23-1.45 1.05-1.93-.86-2.22.49-2.79 2.068-3.65 1.12-.61 2.66-1.6.82-3.38-.38-.37.13-1.84.46-2.72.29-.76.9-1.4 1.48-2.26h-6.22c-.02 2.21 3.25 2.07 2.55 4.73-1.95-2.05-4.26-1.61-6.42-1.24-1.86.31-3.09-.46-4.79-1.67h3.888l.24-.44-1.63-.92c1.39-2.67 3.61-.09 5.7-1.64-1.74-.78-3.06-1.71-4.48-1.92-1.85-.26-3.79.07-5.69.1-.44 0-.965-.1-1.3-.36-2.27-1.71-4.48-3.5-6.76-5.2-.8-.6-1.73-1.03-2.78-1.64-.036-2.8.09-3.04-3.17-4.69-3.33-1.69-4.68-3.97-3.93-7.64.13-.61-.48-1.37-.75-2.07-.58.66-1.28 1.25-1.71 1.99-.26.47.03 1.23-.19 1.75-.21.53-.683 1.22-1.15 1.31-1.67.34-3.38.46-5.01.65-.71-2.26-1.26-2.47-3.19-1.48-1.89.96-5.415-.41-6.11-2.32-.49-1.36-1.05-2.69-1.623-4.02-.86-1.99.3-5.73 1.99-5.975 1.99-.29 3.965-.364 5.34 1.68.94 1.4 2.36 1.73 4.36 1.06-.962-1.23-1.833-2.2-2.52-3.29-.31-.49-.454-1.28-.28-1.79.108-.31.97-.405 1.508-.51.31-.06.66.063.99.08 2.46.11 3.15-.717 2.87-3.22-.2-1.856.35-3.5 1.74-5.09 1.25 1.45 2.577 2.203 4.22.74.16-.14.817.18 1.187.38 1.73.94 3.44 1.92 5.23 2.924l.5-1.38c2.167 1.11 2.17 1.07 4.13-.61.38-.32 1.07-.34 1.63-.38 3.22-.25 6.34-.69 8.53-3.5.96-1.24 2.17-1.88 3.83-2.15 2.06-.33 4.34-.97 4.94-3.42.56-2.27 2.31-3.19 4.09-3.95 4.18-1.79 8.45-3.38 12.7-5.04 1.03-.4 1.32-1 .72-1.98-1.11-1.85-2.08-3.8-3.34-5.54-1.03-1.42-1.6-2.78-1.38-4.587.485-4.01-1.69-7.18-5.52-8.39-.49-.16-.92-.52-1.41-.72-3.11-1.26-2.25-4.57-3.34-6.84-1.32-2.75-3.12-5.06-6.22-5.54-.29-.05-.57-.223-.86-.34 1.55-3.3.78-4.45-2.89-4.555-.282-.01-.65-.18-.823-.4-.58-.73-1.082-1.52-1.652-2.34 1.17-1.2.98-2.47.11-3.89-.3-.49-.34-1.47-.05-1.95 1.157-1.89 1.067-4.98-.15-6.46l4.99-3.15c-3.53-.53-4.81-.534-7.28 1.2-1.68 1.188-2.87 3.077-4.25 4.67-.21.24-.31.596-.39.91-.24.96-.36 1.95-.69 2.878-.505 1.44-1.14 2.84-1.79 4.43l1.41-.174c-1.58 3.16-2.55 6.24-1.63 9.68.21.784-.03 1.7-.12 2.55-.18 1.77-.47 3.54-.56 5.31-.13 2.58-.165 5.17-.17 7.75-.005 1.97-.865 3.27-2.71 3.96-3.37 1.28-5.513 3.72-6.975 6.97-.97 2.17-2.32 4.17-3.52 6.23-.45.79-.452 5.73.07 6.44.15.21.38.39.61.5 2.09.98 2.52 3.02 2.946 4.92.486 2.17-.48 3.5-2.76 4.45l-.993-1.9c-.84 3.26-5.1 2.27-5.31 5.73-.005.12-.283.24-.452.33-2.8 1.43-5.59 2.88-8.4 4.28-.51.25-1.21.54-1.67.38-3.75-1.29-6.17 1.21-8.8 3.03-.345.24-.61 1.26-.41 1.5.97 1.15.22 2-.35 2.86-1.34 2.06-2.75 4.07-4.07 6.14-.37.584-.74 1.34-.7 1.98.11 1.416-.53 2.04-1.96 2.4-.06-.73-.32-1.45-.11-1.99.73-1.906 1.64-3.74 2.44-5.625.25-.61.37-1.27.56-1.9l-.99-.36c-.37.895-.71 1.8-1.12 2.68-.18.38-.49.705-.757 1.04-.28.34-.75.626-.83 1-.385 1.81-.636 3.655-1 5.47-.1.5-.355 1.01-.66 1.417-3.33 4.395-2.86 10.827 1.11 14.62 1.9 1.82 1.85 2.65-.34 3.78.364.535.74 1.056 1.12 1.58.01-.03.02-.07.035-.09.4-.64.92-1.21 1.42-1.78.233-.27.52-.53.84-.66.11-.05.57.32.55.42-.08.35-.247.72-.49.98-.537.56-1.12 1.09-1.88 1.8 5.67 7.69 12.68 14.33 20.67 19.59m117.27-33.43c.24-.514.47-1.03.7-1.55-1.747-1.272-2.28-1.052-3.08.56.27.06.544.06.773.17.54.26 1.07.54 1.6.82m-1.11 1.975c-1.57 1.07-3.22 2.016-4.87 2.955-.49.28-1.115.58-1.63.517-1.366-.18-2.9-.24-4.01-.93-1.63-1.026-2.95-2.55-4.39-3.87-.07-.07-.08-.266-.05-.385.45-1.72-.74-2.22-1.99-2.59-1.19-.35-2.41-.73-3.632-.81-2.12-.12-4.16 2.05-3.76 3.73.25 1.04.23 2.15.55 3.16.15.47.82 1.03 1.3 1.08 1.32.125 2.67-.14 3.98.026.76.095 1.818.554 2.11 1.16.507 1.04.33 2.184-1.12 2.7-.623.224-1.14.77-2 1.38l4.33 1.91-.19.58c-1.24-.29-2.475-.57-3.84-.89-.15 1.293-.61 2.62.83 3.66.23.17.32.82.19 1.13-.11.27-.65.545-.95.504-.256-.03-.57-.492-.65-.814-.67-2.75-1.29-3.22-4.285-3 .2 1.21.03 2.72.7 3.52.65.786 2.17.85 3.31 1.24-.66 2.05-.1 3.12 2.07 3.18.56.01 1.75-1.25 1.64-1.495-.96-2.246 1.18-2.82 2.02-4.05.43-.626 1-1.15 1.5-1.72l3.99 2.264c3.52-4.44 6.593-9.25 9.13-14.37-.09.08-.17.164-.27.23m-.057-70.92c-1.53 1.92-1.79 4.2-1.294 6.43.39 1.75 1.87 3.35 1.92 5.04.05 1.73-1 3.51-1.67 5.225-.37.94-.77 2-1.48 2.65-3.05 2.797-3.1 2.75-1.87 6.51.81 2.485.17 3.304-2.52 3.02-1.31-.137-2.34.023-3.07 1.25-.8 1.353-2.29 1.624-3.28.825-2.283-1.85-4.66-1.8-7.29-1.26-.78.16-1.68-.24-2.52-.42-1.373-.3-2.4.082-3.3 1.23-1.05 1.33-2.33 2.48-3.46 3.75-2.49 2.823-4.94 5.654-3.31 9.9.375.973.98 2.15-.48 2.95-.196.11-.28.823-.127 1.104 1.7 3.18 3.003 6.66 6.58 8.44.68.34 1.394 1.31 1.452 2.04.13 1.68.52 2.92 2.23 3.61.69.28 1.23.99 1.77 1.57.89.95 1.77 1.325 3.17.9.972-.294 2.25-.096 3.25.28 3.07 1.16 6.12 2.09 9.48 1.88 2.46-.157 2.47-.02 2.06-2.415-.35-2.07.062-2.9 2.012-3.03 2.34-.15 4.39-.84 6.3-2.154.134-.09.292-.17.463-.24 2.38-7.6 3.662-15.68 3.662-24.05 0-12.77-3-24.85-8.31-35.59-.09.19-.21.38-.36.57m-71.98 117.05c-45.25 0-82.06-36.82-82.06-82.07s36.8-82.09 82.05-82.09 82.06 36.81 82.06 82.06-36.814 82.066-82.064 82.066"/>
    <path fill="#fff" d="M85.253 174.497l.262-.433-.402-1.796c2.557-.134 1.117 2.363 1.854 2.986-.798.36-1.698.94-2.678 1.148-.79.17-1.67-.113-2.52-.195.34-.5.66-1.006 1.02-1.492.18-.248.41-.458.71-.78-1.6-1.31-3.97.327-5.61-1.638 3.09-.75 5.38.065 7.35 2.2m8.99-.637c-.21.898-.61 1.753-1.17 3.22l-2.25-2.31c.91-.622 1.82-1.256 2.77-1.823.03-.022.71.66.65.912"/>
    <path fill="none" stroke="#9ddbdb" stroke-miterlimit="10" d="M105.97 187.88c44.736 0 81-36.265 81-81 0-44.736-36.264-81-81-81-44.734 0-81 36.264-81 81 0 44.735 36.266 81 81 81z"/>
  </g>
</svg>
