<svg xmlns="http://www.w3.org/2000/svg" viewBox="0 0 253.333 178.773">
  <defs>
    <clipPath id="a">
      <path d="M0 134.08h190V0H0z"/>
    </clipPath>
  </defs>
  <g clip-path="url(#a)" transform="matrix(1.33333 0 0 -1.33333 0 178.773)" fill="#665d5d">
    <path fill="#9ddbdb" fill-rule="evenodd" d="M172.116 27.382C172.116 12.26 159.856 0 144.734 0c-15.122 0-27.382 12.26-27.382 27.382 0 15.123 12.26 27.382 27.382 27.382 15.123 0 27.382-12.26 27.382-27.382"/>
    <path d="M138.92 57.994c0 9.255 5.935 17.452 14.77 20.396l-1.34 3.958c-10.55-3.513-17.637-13.303-17.637-24.354V56.24c1.362.473 2.766.854 4.208 1.13zm30.943 23.988l-1.508-3.9c8.32-3.167 13.91-11.242 13.91-20.088V48.28c-3.615-2.27-7.493-3.898-11.485-4.933.746-1.216 1.408-2.49 1.982-3.81 4.46 1.256 8.775 3.21 12.778 5.877l.933.62v11.96c0 10.564-6.676 20.206-16.61 23.988"/>
    <path d="M64.593 22.543v16.004c0 19.357 15.87 35.106 35.374 35.106 13.6 0 25.422-7.66 31.34-18.86 1.103.543 2.233 1.04 3.406 1.446 0 0 .584 0 .36.41-6.605 12.57-19.86 21.17-35.106 21.17-21.826 0-39.582-17.63-39.582-39.29V20.37l.888-.623C72.823 11.625 86.39 7.56 99.965 7.56c6.534 0 13.067.95 19.38 2.834-.797 1.187-1.514 2.433-2.14 3.73-17.622-4.974-36.997-2.166-52.612 8.42"/>
    <path d="M32.297 31.512c-10.918 0-21.837 3.17-31.363 9.513L0 41.647v14.885C0 70.324 8.844 82.54 22.01 86.926l1.34-3.96C11.9 79.15 4.207 68.526 4.207 56.532V43.887c17.184-10.93 38.996-10.93 56.177 0V56.53c0 11.467-7.245 21.933-18.03 26.038l1.51 3.9c12.398-4.72 20.728-16.753 20.728-29.937V41.65l-.93-.62c-9.527-6.346-20.45-9.516-31.366-9.516"/>
    <path d="M32.17 78.414h-6.4l4.895-9.717-7.983-15.488 9.486-8.1 9.486 8.1-7.984 15.48 4.895 9.71zm20.35 26.564v6.158c.62-.595 1.11-1.693 1.11-3.08s-.49-2.485-1.11-3.078m0 8.502v.118c0 1.76-.255 3.46-.698 5.08h-2.118c.496-1.607.765-3.312.765-5.08v-13.146h2.05v2.18c1.83.595 3.16 2.756 3.16 5.424 0 2.67-1.33 4.83-3.16 5.424m-39.38-8.534c-.64.583-1.15 1.697-1.15 3.11 0 1.414.51 2.526 1.14 3.11zm0 8.653v-.11c-1.86-.58-3.2-2.75-3.2-5.44 0-2.69 1.34-4.86 3.2-5.44v-2.17h2.05v13.15c0 1.76.28 3.47.78 5.07h-2.13c-.45-1.62-.7-3.32-.7-5.08m8.4-.86c-1.12 0-2.02-2.06-2.02-4.58 0-2.54.9-4.59 2.02-4.59 1.11 0 2.01 2.05 2.01 4.58 0 2.53-.91 4.58-2.02 4.58m22.26 0c-1.12 0-2.02-2.06-2.02-4.58 0-2.53.9-4.58 2.01-4.58 1.11 0 2.01 2.05 2.01 4.58 0 2.53-.9 4.58-2.02 4.58m-20.33 4.44h-3.99c-.76 0-1.37-.61-1.37-1.36 0-.75.61-1.36 1.36-1.36h3.99c.76 0 1.37.61 1.37 1.36 0 .75-.61 1.36-1.37 1.36m22.36 0H41.8c-.753 0-1.365-.61-1.365-1.36 0-.75.61-1.36 1.364-1.36h3.99c.75 0 1.37.61 1.37 1.36 0 .75-.61 1.36-1.36 1.36"/>
    <path d="M50.47 100.218c0-9.654-7.912-17.507-17.636-17.507-9.726 0-17.638 7.86-17.638 17.51v.24h-2.052v-.23c0-10.77 8.832-19.54 19.69-19.54 10.856 0 19.687 8.77 19.687 19.55v.24h-2.05z"/>
    <path d="M26.092 92.457c.077-.026 1.97-.588 6.474-.633h.397c4.164 0 6 .616 6.078.643.54.184.82.76.64 1.29-.18.53-.76.814-1.3.636-.01-.007-1.72-.577-5.79-.53-4.1.038-5.84.525-5.89.54-.53.16-1.11-.14-1.28-.674-.17-.54.14-1.11.68-1.28m6.74 40.68c-9.08 0-16.73-6.15-18.99-14.47h2.14c.96 3.12 2.77 5.88 5.17 8 .34-1.05 1.32-2.81 3.31-3.98 1.41-.83 3.69-1.26 6.77-1.26 2.25 0 4.07.22 4.15.23.27.03.5.23.57.49.08.26-.01.54-.23.71-1.62 1.28-3.06 2.87-3.06 3.27.02.01.14.08.53.08.55 0 1.32-.13 2.3-.28 1.62-.26 3.84-.62 6.49-.62 1.23 0 2.46.09 3.68.25 1.85-1.94 3.26-4.3 4.06-6.92h2.12c-2.26 8.31-9.91 14.46-18.99 14.46m57.08-27.33c-1.5 0-2.71-2.76-2.71-6.16 0-3.41 1.22-6.17 2.71-6.17 1.5 0 2.72 2.76 2.72 6.16s-1.21 6.16-2.71 6.16m20.18 0c-1.5 0-2.71-2.76-2.71-6.17s1.21-6.17 2.71-6.17 2.72 2.76 2.72 6.16c0 3.4-1.21 6.16-2.71 6.16m-17.5 5.98h-5.37c-1.01 0-1.84-.82-1.84-1.83s.83-1.83 1.84-1.83h5.36c1.02 0 1.84.82 1.84 1.83 0 1.01-.82 1.83-1.84 1.83m20.19 0h-5.37c-1.02 0-1.84-.82-1.84-1.83s.82-1.83 1.84-1.83h5.37c1.02 0 1.84.82 1.84 1.83 0 1.01-.82 1.82-1.84 1.82m13.67-16.56v8.41c.87-.78 1.57-2.29 1.57-4.21s-.7-3.43-1.56-4.21m0 11.54v.195c0 2.333-.34 4.59-.92 6.75h-2.85c.65-2.14 1.01-4.408 1.01-6.75v-17.7h2.76v2.92c2.51.76 4.33 3.7 4.33 7.33s-1.82 6.566-4.33 7.33M73.5 95.3c-.82.804-1.46 2.27-1.46 4.114 0 1.843.65 3.31 1.47 4.115zm0 11.64v-.24c-2.45-.81-4.22-3.71-4.22-7.286s1.77-6.47 4.22-7.286v-2.96h2.76v17.775c0 2.348.35 4.61 1 6.75H74.4c-.58-2.155-.92-4.41-.92-6.75m26.49 26.298c-12.26 0-22.56-8.31-25.58-19.54h2.85c.02.05.03.11.04.16 1.21.8 3.49 2.25 5.02 2.79 1.58.56-.3 3.25.39 6.39 1.9 2 4.14 3.67 6.64 4.92.83-2.92 3.3-7.91 10.61-7.96h.12c7.45 0 9.78 5.04 10.5 7.98 2.54-1.27 4.81-2.96 6.73-5 .68-3.12-1.18-5.79.39-6.35 1.51-.54 3.76-1.97 4.97-2.77.02-.06.03-.13.05-.19h2.842c-3.01 11.23-13.32 19.54-25.57 19.54m8.502-54.69c-.266-.11-2.73-1.08-8.313-1.08h-.48c-6.1.06-8.69 1.02-8.79 1.06-.71.27-1.07 1.06-.79 1.77.28.7 1.06 1.05 1.78.79.07-.03 2.39-.83 7.84-.89 5.34-.07 7.68.85 7.7.86.7.29 1.51-.05 1.8-.74.29-.69-.03-1.49-.73-1.79m15.22 10.4c0-1.01-.09-2-.21-2.97H76.45c-.127.97-.21 1.96-.21 2.97v.23h-2.76v-.23c0-14.5 11.882-26.3 26.49-26.3s26.49 11.79 26.49 26.29v.23h-2.76zM99.82 60h-7.94l6.07-12.06-9.91-19.223 11.776-10.05 11.776 10.05-9.91 19.226 6.077 12.06zm51.914 52.288h3.085c.56 0 1.02.454 1.02 1.014s-.46 1.014-1.02 1.014h-3.09c-.57 0-1.02-.455-1.02-1.015s.45-1.01 1.02-1.01m16.31 0h3.08c.56 0 1.02.46 1.02 1.02s-.46 1.02-1.02 1.02h-3.08c-.56 0-1.02-.45-1.02-1.01s.46-1.01 1.02-1.01m-14.72-1.55c-.53 0-1-.29-1.4-.8-.45-.02-.85.02-1.05.06-.37.06-.73-.18-.8-.54-.07-.36.17-.71.54-.78.06-.01.29-.05.61-.07-.28-.81-.44-1.81-.44-2.91 0-2.89 1.08-5.063 2.52-5.063s2.52 2.18 2.52 5.07-1.08 5.065-2.52 5.065m16.51 0c-1.44 0-2.52-2.18-2.52-5.064 0-2.89 1.08-5.06 2.52-5.06 1.43 0 2.52 2.18 2.52 5.07 0 1.104-.16 2.104-.44 2.92.28.02.49.06.55.07.36.06.61.42.54.78-.07.37-.43.6-.79.543-.19-.04-.57-.08-.99-.07-.4.51-.88.81-1.4.81m-27.87.35V97.9H144v13.19c0 1.72.26 3.375.73 4.945h-2.105c-.42-1.584-.668-3.236-.668-4.947m37.096-13.19h2.04v13.19c0 1.712-.246 3.364-.667 4.946h-2.116c.472-1.574.742-3.227.742-4.947zm-20.02-8.89c.17-.064.845-.284 2.243-.3h.097c1.345 0 2.02.243 2.2.318.673.286.976 1.04.716 1.717-.05.122-.13.22-.21.318.28.36.38.85.2 1.31-.26.68-1.04 1.02-1.73.79 0 0-.37-.12-1.25-.12-.88.01-1.29.12-1.33.13-.7.24-1.46-.11-1.72-.79-.18-.45-.07-.93.21-1.29-.08-.1-.16-.2-.21-.32-.27-.69.08-1.48.78-1.75"/>
    <path d="M189.353 91.046c-.174.106-.385.13-.577.065-.894-.3-1.726-.45-2.473-.45-4.086 0-5.018 4.68-5.226 6.6.005.18.02.35.02.52v.13h-2.04v-.12c0-5.71-3.957-10.11-6.315-12.22-3.464-3.1-7.86-5.19-10.937-5.19l-.31.01h-.236c-3.08 0-7.48 2.09-10.94 5.2-2.36 2.12-6.32 6.52-6.32 12.23v.13h-2.05v-.19c-.01-.04-.03-.08-.03-.12-.14-1.63-.92-6.94-5.26-6.94-.75 0-1.58.15-2.48.46-.19.07-.4.05-.58-.06-.17-.11-.29-.28-.32-.48-.18-1.25.55-3.67 2.25-5.68 1.27-1.51 3.56-3.34 7.26-3.5h.31c2.66 0 5.11 1.45 6.32 2.2 3.77-3.22 8.28-5.23 11.81-5.23l.23.01.31-.01c3.43 0 7.96 2.05 11.72 5.23 1.21-.75 3.66-2.19 6.31-2.19h.31c3.7.16 5.99 1.99 7.26 3.5 1.69 2.02 2.42 4.43 2.25 5.69-.03.2-.15.38-.32.48m-27.83 39.48c-9.07-.01-16.69-6.18-18.9-14.49h2.1l.06.24h.5c5.07 1.26 10.77 1.98 16.83 1.98.78 0 1.93-.1 2.35.16.26.15.37.7.33.9-.2.86-.37 1.72-.51 2.58-.1.65-.25 1.27-.24 1.93.01 1.02.36.09.5-.35.62-2 1.11-4.22 3.11-5.19.98-.48 7.01-1.08 10.52-1.83l.12-.41h2.11c-2.21 8.32-9.84 14.49-18.9 14.5"/>
    <path d="M161.487 53.208l-10.71 27.307 3.92 1.515 6.794-17.322 6.58 16.714 3.92-1.52z"/>
    <path fill="#fff" fill-rule="evenodd" d="M146 21.08l-2.754-5.228s-7.434 9.087-11.746 11.52c3.338.28 14.5-6.29 14.5-6.29"/>
    <path fill="#fff" fill-rule="evenodd" d="M160 36.08c-3.547 1.46-19.687-15.716-19.687-15.716L144 15.08s12.175 21.766 16 21"/>
  </g>
</svg>
