<svg xmlns="http://www.w3.org/2000/svg" viewBox="0 0 186.271 197.333">
  <defs>
    <clipPath id="a">
      <path d="M0 148h139.703V0H0z"/>
    </clipPath>
  </defs>
  <g fill="#6cd3dd" clip-path="url(#a)" transform="matrix(1.33333 0 0 -1.33333 0 197.333)">
    <path d="M67.083 140.227c-27.778 3.73-53.32-15.764-57.052-43.543-3.73-27.778 15.77-53.32 43.55-57.05 27.78-3.732 53.32 15.763 57.06 43.54 3.73 27.78-15.766 53.323-43.544 57.053m-.626-4.665c25.16-3.38 42.88-26.6 39.5-51.76C102.58 58.64 79.36 40.92 54.2 44.298c-25.16 3.38-42.882 26.598-39.503 51.76 3.38 25.16 26.598 42.883 51.76 39.504m37.98-84.317l29.025-33.9c2.608-3.044 2.253-7.625-.79-10.232-3.045-2.607-7.626-2.252-10.233.792l-28.86 33.7c3.99 2.748 7.64 5.987 10.85 9.64"/>
    <path d="M91.59 40.315L121.16 5.78c1.04-1.214 2.962-2.114 5.14-2.406 2.96-.398 5.804.356 7.802 2.066 1.846 1.58 2.986 3.963 3.21 6.707.197 2.436-.397 4.786-1.55 6.133L105.95 53.094c.503.622 1.008 1.24 1.486 1.884L137.55 19.81c1.57-1.834 2.358-4.77 2.107-7.854-.273-3.368-1.703-6.317-4.023-8.304-2.507-2.147-6.023-3.098-9.646-2.612-2.778.373-5.19 1.542-6.614 3.207L89.55 39.077c.256.15.527.273.782.425.43.255.836.544 1.257.812"/>
    <path d="M4.49 97.428c4.136 30.79 32.548 52.473 63.337 48.34 30.788-4.136 52.473-32.548 48.338-63.337-1.29-9.59-4.965-18.28-10.314-25.6-.47-.65-.96-1.28-1.46-1.9-.5-.62-.98-1.26-1.5-1.86-3.194-3.67-6.84-6.91-10.846-9.65-.653-.44-1.327-.86-2-1.28-.294-.18-.58-.38-.876-.56-.387-.23-.8-.42-1.19-.64-1.08-.612-2.16-1.23-3.28-1.77-9.133-4.4-19.54-6.36-30.286-5.22-.523.06-1.043.085-1.57.155-2.24.3-4.41.77-6.545 1.32-9.342 2.406-17.654 7.07-24.373 13.36-1.24 1.16-2.423 2.373-3.552 3.637C7.775 64.26 2.22 80.48 4.49 97.426m-2.332.313C-.22 80.04 5.57 63.13 16.615 50.787c1.126-1.26 2.307-2.47 3.54-3.63C27.54 40.21 36.78 35.124 47.215 32.74c1.738-.395 3.5-.737 5.3-.98.12-.015.24-.02.36-.034 11.724-1.502 23.09.566 33 5.368 1.254.61 2.468 1.29 3.673 1.986.257.15.53.27.784.43.428.258.836.546 1.256.81.668.43 1.343.84 1.995 1.29 3.994 2.75 7.64 5.99 10.852 9.64.526.6 1.012 1.23 1.514 1.85.5.62 1 1.24 1.48 1.887 5.74 7.714 9.69 16.93 11.06 27.14 4.31 32.126-18.23 61.667-50.36 65.98-32.12 4.31-61.66-18.236-65.98-50.366"/>
  </g>
</svg>
