<svg xmlns="http://www.w3.org/2000/svg" width="100%" height="100%" viewBox="0 0 149.993 180">
  <defs>
    <clipPath id="a">
      <path d="M0 40.125h33.436V0H0v40.125z"/>
    </clipPath>
  </defs>
  <g clip-path="url(#a)" transform="matrix(4.5 0 0 -4.5 0 180)">
    <path fill="#231f20" d="M8.544 27.393h2.834c.553 0 1 .447 1 1 0 .553-.447 1-1 1H8.544c-.553 0-1-.447-1-1 0-.553.447-1 1-1M21.96 27.393h2.834c.553 0 1 .447 1 1 0 .553-.447 1-1 1H21.96c-.553 0-1-.447-1-1 0-.553.447-1 1-1"/>
    <path fill="#231f20" d="M29.593 15.875c0-.193-.02-.382-.03-.573-.24-.112-.457-.263-.64-.45-.32.392-.803.648-1.35.648-.578 0-1.085-.283-1.404-.715-.364.65-1.05 1.09-1.847 1.09-.94 0-1.73-.615-2.01-1.463-.493.87-1.417 1.463-2.49 1.463-.7 0-1.33-.26-1.83-.674-.332.357-.68.626-1.295.65-.712-.07-.96-.293-1.294-.65-.5.415-1.13.675-1.83.675-1.073 0-1.997-.594-2.49-1.463-.28.848-1.07 1.463-2.01 1.463-.795 0-1.48-.44-1.846-1.09-.32.432-.826.715-1.405.715-.546 0-1.03-.256-1.35-.648-.182.187-.4.338-.64.45-.008.19-.03.38-.03.573v8.41l.933-.31c.216-2.58 1.563-6.612 5.55-6.613l.19.003c1.76.056 3.18.658 4.213 1.79 1.377 1.51 1.69 3.567 1.752 4.68h.44c.064-1.113.376-3.17 1.754-4.68 1.034-1.132 2.452-1.734 4.214-1.79l.187-.003c3.988 0 5.334 4.032 5.552 6.61l1.003.335v-8.432zm-8.152-5.69c-.058-.025-1.432-.592-4.527-.592h-.256c-3.315.033-4.72.56-4.78.582-.386.15-.578.583-.43.97.15.384.578.577.966.43.04-.012 1.298-.453 4.26-.48 2.926-.03 4.176.468 4.188.472.386.16.82-.026.978-.406.157-.38-.018-.814-.397-.975M1.5 21.648c0 1.016.355 1.823.804 2.26v-4.52c-.45.438-.804 1.245-.804 2.26m15.198 16.977c5.808 0 10.717-3.863 12.326-9.152.345-1.14.546-2.34.56-3.587l-1.65-.55H5.4l-1.587.528c.013 1.255.215 2.463.562 3.61 1.608 5.288 6.518 9.15 12.326 9.15m14.395-14.68c.468-.43.844-1.25.844-2.296 0-1.044-.376-1.866-.844-2.295v4.59zm-.024-8.546c.005.16.023.316.023.477v1.766c1.357.423 2.344 2.027 2.344 4.008 0 1.982-.987 3.586-2.344 4.008v.074c0 1.296-.188 2.547-.51 3.743-1.654 6.126-7.243 10.652-13.885 10.652-6.64 0-12.23-4.526-13.883-10.652-.324-1.196-.51-2.447-.51-3.743v-.09C.967 25.2 0 23.61 0 21.648c0-1.96.968-3.55 2.304-3.99V15.874c0-.16.02-.317.024-.477-.87-.267-1.505-1.067-1.505-2.023 0-.555.22-1.055.567-1.434-.35-.428-.567-.97-.567-1.565 0-1.254.926-2.28 2.13-2.463 0-.012-.005-.023-.005-.037 0-.967.784-1.75 1.75-1.75.184 0 .356.037.522.088-.008-.07-.022-.14-.022-.213 0-1.174.952-2.125 2.125-2.125.15 0 .293.016.434.045.27-1.31 1.428-2.295 2.816-2.295.553 0 1.063.164 1.5.434.29-.833 1.07-1.435 2-1.435.46 0 .877.158 1.225.408C15.515.433 16.085 0 16.76 0c.65 0 1.208.396 1.442.96.328-.204.707-.335 1.12-.335.93 0 1.714.602 2 1.434.44-.27.95-.435 1.5-.435 1.39 0 2.55.986 2.818 2.295.14-.03.285-.045.433-.045 1.174 0 2.125.95 2.125 2.125 0 .072-.013.143-.02.213.165-.05.34-.088.52-.088.967 0 1.75.783 1.75 1.75 0 .014-.003.025-.003.037 1.203.182 2.128 1.21 2.128 2.463 0 .596-.216 1.137-.564 1.566.347.38.563.88.563 1.435 0 .956-.635 1.756-1.504 2.023"/>
  </g>
</svg>
