<svg xmlns="http://www.w3.org/2000/svg" width="147.517" height="180">
  <defs>
    <clipPath id="a">
      <path d="M0 43.25h35.444V0H0v43.25z"/>
    </clipPath>
  </defs>
  <g fill="#231f20" clip-path="url(#a)" transform="matrix(4.16197 0 0 -4.16197 0 180)">
    <path d="M12.185 26.895h-1.65c-.553 0-1-.447-1-1 0-.553.447-1 1-1h1.65c.553 0 1 .447 1 1 0 .553-.447 1-1 1m13.292-1c0 .553-.447 1-1 1h-1.65c-.553 0-1-.447-1-1 0-.553.447-1 1-1h1.65c.553 0 1 .447 1 1m-14.073-2.31c-.814 0-1.475-1.51-1.475-3.374 0-1.86.66-3.37 1.47-3.37s1.47 1.51 1.47 3.38-.66 3.38-1.48 3.38m12.23 0c-.82 0-1.48-1.51-1.48-3.37s.66-3.37 1.47-3.37c.81 0 1.47 1.51 1.47 3.38s-.66 3.375-1.48 3.375"/>
    <path d="M32.137 17.948v4.44c.426-.45.754-1.24.754-2.22 0-.982-.32-1.772-.75-2.22m-28.83.045c-.4.455-.71 1.226-.71 2.175 0 .95.31 1.72.72 2.175v-4.35zm28.83 6.147v.11c0 1.3-.18 2.552-.51 3.75l.04.015h-1.61c.06-.175.12-.348.16-.527.27-1.037.43-2.118.43-3.238v-9.682c-.03-1.89-1.01-5.118-3.12-7.918-1.75-2.32-4.86-5.097-9.72-5.15h-.13c-4.86.053-7.97 2.83-9.72 5.15-2.11 2.8-3.09 6.028-3.12 7.918h.007c0 .04-.007.087-.007.125v9.557c0 1.124.154 2.21.43 3.25.042.174.1.344.16.515h-1.6l.01-.005c-.327-1.2-.516-2.457-.516-3.76v-.126c-1.29-.484-2.22-2.038-2.22-3.956 0-1.918.92-3.474 2.21-3.956v-1.644C3.384 10.35 7.654.108 17.73.002L17.8 0h.004c9.99.108 14.256 10.352 14.33 14.568l.003.125v1.502c1.306.463 2.247 2.034 2.247 3.973 0 1.938-.94 3.51-2.247 3.972"/>
    <path d="M13.43 10.096c-.39.145-.816-.047-.966-.432-.148-.386.044-.82.43-.97.06-.022 1.465-.548 4.782-.58h.264c3.033 0 4.372.53 4.517.59.38.162.555.597.397.977-.156.38-.595.57-.977.41-.013 0-1.264-.5-4.186-.47-2.96.03-4.22.47-4.26.48m14.88 26.39c-.4 4.51-2.07 6.7-5.07 6.7-1.17 0-2.4-.32-3.47-.61-.85-.23-1.66-.44-2.27-.44-.59.01-1.4.23-2.26.47-1.09.31-2.33.65-3.52.65-3.04 0-4.7-2.21-5.17-6.91-3.84-1-6.55-2.54-6.55-4.61 0-1.53 1.49-2.76 3.8-3.71h1.58c.15.47.31.94.51 1.39 3.54.83 7.45 1.31 11.61 1.32 4.34-.01 8.43-.52 12.088-1.42.176-.42.33-.85.464-1.29h1.605c2.314.94 3.803 2.175 3.803 3.7 0 2.178-2.983 3.778-7.14 4.755"/>
  </g>
</svg>
