<svg xmlns="http://www.w3.org/2000/svg" width="100%" height="100%" viewBox="0 0 132.17 180">
  <defs>
    <clipPath id="a">
      <path d="M0 49.314h36.25V0H0v49.314z"/>
    </clipPath>
  </defs>
  <g clip-path="url(#a)" transform="matrix(3.65015 0 0 -3.65015 0 180.002)">
    <path fill="#231f20" d="M6.484 27.896c-.293 0-.53-.238-.53-.53 0-.296.237-.532.53-.532.293 0 .53.236.53.53 0 .294-.237.532-.53.532M10.068 26.834c.293 0 .53.236.53.53 0 .293-.237.53-.53.53-.295.002-.53-.237-.53-.53 0-.295.235-.53.53-.53M13.65 27.896c-.293 0-.53-.238-.53-.53 0-.296.237-.532.53-.532.295 0 .53.236.53.53 0 .294-.235.532-.53.532M17.234 26.834c.293 0 .53.236.53.53 0 .293-.237.53-.53.53-.293.002-.53-.237-.53-.53 0-.295.237-.53.53-.53M20.818 27.896c-.293 0-.53-.238-.53-.53 0-.296.237-.532.53-.532.293 0 .53.236.53.53 0 .294-.237.532-.53.532M24.402 26.834c.293 0 .53.236.53.53 0 .293-.237.53-.53.53-.295.002-.53-.237-.53-.53 0-.295.235-.53.53-.53M27.984 27.896c-.293 0-.53-.238-.53-.53 0-.296.237-.532.53-.532.295 0 .53.236.53.53 0 .294-.235.532-.53.532M8.264 25.77c-.293 0-.53-.237-.53-.53 0-.295.237-.53.53-.53.293 0 .53.235.53.53 0 .293-.237.53-.53.53M15.43 24.709c.295-.002.53.234.53.53 0 .293-.235.53-.53.53-.293 0-.53-.238-.53-.53 0-.295.237-.53.53-.53M19.014 24.709c.293-.002.53.234.53.53 0 .293-.237.53-.53.53-.293 0-.53-.238-.53-.53 0-.295.237-.53.53-.53M22.598 24.709c.293-.002.53.234.53.53 0 .293-.237.53-.53.53-.293 0-.53-.238-.53-.53 0-.295.237-.53.53-.53M29.764 25.77c-.293 0-.53-.237-.53-.53 0-.295.237-.53.53-.53.295 0 .53.235.53.53 0 .293-.235.53-.53.53M6.484 23.896c-.293 0-.53-.238-.53-.53 0-.296.237-.532.53-.532.293 0 .53.236.53.53 0 .294-.237.532-.53.532M13.65 23.896c-.293 0-.53-.238-.53-.53 0-.296.237-.532.53-.532.295 0 .53.236.53.53 0 .294-.235.532-.53.532M17.234 22.834c.293 0 .53.236.53.53 0 .293-.237.53-.53.53-.293.002-.53-.237-.53-.53 0-.295.237-.53.53-.53M20.818 23.896c-.293 0-.53-.238-.53-.53 0-.296.237-.532.53-.532.293 0 .53.236.53.53 0 .294-.237.532-.53.532M27.984 23.896c-.293 0-.53-.238-.53-.53 0-.296.237-.532.53-.532.295 0 .53.236.53.53 0 .294-.235.532-.53.532M8.264 21.77c-.293 0-.53-.237-.53-.53 0-.295.237-.53.53-.53.293 0 .53.235.53.53 0 .293-.237.53-.53.53M15.43 20.709c.295-.002.53.234.53.53 0 .293-.235.53-.53.53-.293 0-.53-.238-.53-.53 0-.295.237-.53.53-.53M19.014 20.709c.293-.002.53.234.53.53 0 .293-.237.53-.53.53-.293 0-.53-.238-.53-.53 0-.295.237-.53.53-.53M29.764 21.77c-.293 0-.53-.237-.53-.53 0-.295.237-.53.53-.53.295 0 .53.235.53.53 0 .293-.235.53-.53.53M6.484 19.896c-.293 0-.53-.238-.53-.53 0-.296.237-.532.53-.532.293 0 .53.236.53.53 0 .294-.237.532-.53.532"/>
    <path fill="#231f20" d="M13.65 19.896c-.05 0-.092-.016-.137-.028.006.127.018.25.018.38 0 2.137-.794 3.75-1.85 3.75-.385 0-.733-.22-1.024-.598-.02 0-.042-.005-.063-.005-.016.278-.243.5-.525.5-.292 0-.525-.233-.53-.522-.117-.07-.206-.186-.233-.332-.05-.27.13-.53.4-.58.045-.01.215-.037.447-.054-.203-.603-.32-1.34-.32-2.158 0-.14.01-.268.018-.4-.184-.084-.313-.268-.313-.483 0-.256.18-.458.422-.51.26-1.405.913-2.357 1.72-2.357.818 0 1.474.97 1.73 2.4.073-.038.152-.064.24-.064.295 0 .53.236.53.53 0 .294-.235.532-.53.532M17.234 18.834c.293 0 .53.236.53.53 0 .293-.237.53-.53.53-.293.002-.53-.237-.53-.53 0-.295.237-.53.53-.53M20.818 19.896c-.293 0-.53-.238-.53-.53 0-.296.237-.532.53-.532.293 0 .53.236.53.53 0 .294-.237.532-.53.532M27.984 19.896c-.293 0-.53-.238-.53-.53 0-.296.237-.532.53-.532.295 0 .53.236.53.53 0 .294-.235.532-.53.532M8.264 17.77c-.293 0-.53-.237-.53-.53 0-.295.237-.53.53-.53.293 0 .53.235.53.53 0 .293-.237.53-.53.53M15.96 17.24c0 .293-.235.53-.53.53-.293 0-.53-.237-.53-.53 0-.295.237-.53.53-.53.295 0 .53.235.53.53M19.014 16.709c.293-.002.53.234.53.53 0 .293-.237.53-.53.53-.293 0-.53-.238-.53-.53 0-.295.237-.53.53-.53M22.598 17.77c-.293 0-.53-.237-.53-.53 0-.295.237-.53.53-.53.293 0 .53.235.53.53 0 .293-.237.53-.53.53M29.764 17.77c-.293 0-.53-.237-.53-.53 0-.295.237-.53.53-.53.295 0 .53.235.53.53 0 .293-.235.53-.53.53M10.06 25.148h1.275c.044-.25.25-.44.513-.44.26 0 .468.19.513.44h.062c.414 0 .75.336.75.75s-.336.75-.75.75H10.06c-.415 0-.75-.336-.75-.75s.335-.75.75-.75M23.684 25.148h1.985c.043-.25.25-.44.512-.44.293 0 .53.237.53.532 0 .086-.024.163-.06.235.086.122.147.263.147.423 0 .414-.337.75-.75.75h-2.366c-.414 0-.75-.336-.75-.75s.336-.75.75-.75"/>
    <path fill="#231f20" d="M26.311 23.442c-.134-.025-.41-.056-.718-.048-.29.382-.643.603-1.03.603-.8 0-1.447-.923-1.716-2.297-.074.04-.156.07-.248.07-.293 0-.53-.238-.53-.53 0-.296.237-.532.53-.532.048 0 .092.016.136.027-.01-.16-.023-.32-.023-.488 0-2.138.796-3.75 1.85-3.75.42 0 .795.263 1.1.704.02-.275.24-.492.522-.492.293 0 .53.236.53.53 0 .294-.237.533-.53.533-.092 0-.173-.028-.248-.07.296.66.477 1.542.477 2.547 0 .174-.013.337-.023.502.192.08.326.268.326.49 0 .263-.196.473-.448.514-.048.233-.107.45-.177.655.21.016.364.04.406.05.27.05.45.31.4.58-.05.273-.315.454-.582.402"/>
    <path fill="#231f20" d="M32.643 17.875c-.015 0-.028.004-.043.004-.033 0-.064-.008-.098-.01v4.672c.547-.416.95-1.36.95-2.402 0-1.02-.358-1.827-.81-2.265m-.042-2.162c-.035 0-.064.015-.098.02-.068.012-.133.036-.19.068v.002c-.057.03-.105.07-.148.117-.013.017-.024.036-.037.055-.017.024-.033.05-.046.076-.035.075-.062.156-.062.245 0 .075.017.145.043.21.017.043.042.078.067.113.013.018.024.038.037.055.043.047.09.087.147.118h.002c.057.034.122.058.19.07.034.004.063.018.098.018.075 0 .147-.017.213-.043.044-.018.083-.046.12-.074.017-.01.033-.018.047-.03.097-.09.165-.21.186-.348.005-.03.018-.056.018-.087 0-.32-.262-.583-.584-.583m-1.598-1.315c0-4.227-2.907-7.485-4.64-9.052C23.82 3.045 20.59 1.5 18.328 1.5l-.23.002-.172-.002c-2.263 0-5.492 1.545-8.038 3.846-1.733 1.566-4.64 4.825-4.64 9.05v9.857c0 1.29.21 2.526.564 3.7.258.854.582 1.68 1 2.448 3.104-1.458 7.036-2.337 11.315-2.337 4.28 0 8.21.88 11.313 2.338.42-.768.743-1.593 1-2.446.354-1.175.564-2.412.564-3.7V14.397zM3.614 15.712c-.323 0-.584.262-.584.583 0 .046.015.087.026.13.015.062.04.12.07.173l.01.013c.03.048.066.09.107.126.02.016.043.03.064.043.03.02.062.042.1.056.064.025.132.042.207.042.047 0 .09-.016.132-.026.063-.015.12-.04.173-.072l.012-.01c.047-.03.088-.065.124-.106.017-.02.028-.04.042-.063.02-.03.043-.062.058-.098.024-.064.042-.133.042-.207 0-.084-.025-.16-.058-.233-.012-.026-.026-.05-.042-.072-.014-.022-.025-.044-.042-.063-.036-.04-.077-.077-.124-.107l-.013-.01c-.053-.03-.11-.056-.174-.07-.043-.01-.085-.028-.132-.028m.132 6.8v-4.646c-.038.003-.074.01-.113.01-.45.44-.806 1.245-.806 2.263 0 1.02.388 1.946.92 2.373M32.5 24.185v.068c0 1.28-.17 2.52-.486 3.7-.294 1.105-.713 2.155-1.246 3.139 3.375 1.93 5.48 4.62 5.48 7.597 0 5.857-8.13 10.623-18.125 10.623C8.13 49.313 0 44.547 0 38.688c0-2.976 2.105-5.666 5.48-7.596-.534-.983-.953-2.035-1.247-3.138-.316-1.182-.487-2.422-.487-3.7v-.076c-1.398-.383-2.42-2.02-2.42-4.04 0-1.198.368-2.25.955-2.995-.157-.246-.25-.535-.25-.848 0-.873.71-1.583 1.584-1.583.045 0 .088.01.132.015v-.33C3.746 6.587 12.456 0 17.926 0l.172.003.228-.003c2.648 0 6.198 1.66 9.043 4.232 1.916 1.734 5.132 5.36 5.132 10.165v.325c.034-.002.065-.01.098-.01.873 0 1.584.71 1.584 1.583 0 .292-.085.56-.223.796.61.748.992 1.824.992 3.05 0 2.033-1.037 3.676-2.45 4.045"/>
    <path fill="#231f20" d="M20.473 8.935c.192.265.26.61.134.942-.195.504-.772.756-1.28.58-.002-.002-.34-.13-1.187-.118-.827.007-1.203.114-1.24.124-.507.182-1.075-.073-1.27-.582-.127-.326-.053-.67.137-.933-.05-.07-.106-.135-.138-.218-.2-.515.058-1.094.573-1.293.146-.057.714-.24 1.918-.25.035-.002.067-.002.1-.002 1.143 0 1.707.2 1.857.263.496.21.723.773.53 1.277-.032.08-.085.142-.134.208"/>
  </g>
</svg>
