<svg xmlns="http://www.w3.org/2000/svg" width="100%" height="100%" viewBox="0 0 121.396 180">
  <defs>
    <clipPath id="a">
      <path d="M0 49.857h33.625V0H0v49.857z"/>
    </clipPath>
  </defs>
  <g fill="#231f20" clip-path="url(#a)" transform="matrix(3.6 0 0 -3.6 0 180)">
    <path d="M9.638 25.746h2.264c.414 0 .75.336.75.75s-.336.75-.75.75H9.638c-.414 0-.75-.336-.75-.75s.336-.75.75-.75m11.987 0h2.264c.412 0 .75.336.75.75s-.338.75-.75.75h-2.266c-.414 0-.75-.336-.75-.75s.336-.75.75-.75M11.04 23.57c-.052.023-.106.034-.164.038-.02.002-.042.015-.065.015-.117 0-.23-.04-.342-.103-.52-.173-1.207-.12-1.45-.077-.27.045-.534-.13-.583-.402-.05-.27.13-.53.4-.58.064-.012.39-.07.813-.07l.035.003c-.212-.584-.345-1.325-.345-2.144 0-1.865.66-3.376 1.474-3.376.816 0 1.476 1.51 1.476 3.375 0 1.682-.54 3.07-1.246 3.32m11.438.053c-.015 0-.027-.01-.042-.01-.145.01-.285-.048-.388-.152-.604-.422-1.046-1.692-1.046-3.21 0-1.864.66-3.376 1.475-3.376.813 0 1.474 1.512 1.474 3.375 0 .817-.133 1.56-.345 2.142.417.002.74.057.803.07.27.05.45.31.4.58-.05.273-.32.447-.583.403-.23-.042-.863-.09-1.373.055-.12.073-.246.125-.377.125"/>
    <path d="M31.22 17.77v4.71c.523-.433.905-1.348.905-2.36 0-1.09-.408-1.94-.905-2.35m-1.5-3.373C29.72 7.34 21.327 1.5 17.043 1.5l-.227.003-.173-.003c-2.263 0-5.492 1.546-8.037 3.846-1.734 1.566-4.64 4.824-4.64 9.05v8.024l1.252-.843c-.11-.422-.19-.857-.19-1.313 0-2.85 2.318-5.166 5.167-5.166 2.58 0 4.706 1.907 5.087 4.383h2.627c.38-2.474 2.504-4.38 5.084-4.38 2.85 0 5.166 2.316 5.166 5.165 0 .304-.038.598-.088.887l1.648 1.11v-7.864zM1.5 20.12c0 1.05.41 2.005.965 2.414v-4.817c-.523.39-.965 1.268-.965 2.403m12.36.144c0-2.02-1.644-3.666-3.665-3.666-2.022 0-3.666 1.645-3.666 3.666 0 2.023 1.642 3.668 3.664 3.668 2.02 0 3.666-1.645 3.666-3.668m12.8 0c0-2.02-1.643-3.666-3.665-3.666-2.02 0-3.666 1.645-3.666 3.666 0 2.023 1.643 3.668 3.664 3.668 2.022 0 3.666-1.645 3.666-3.668m-22.117 7.81c.072.005.144.01.21.018 3.817.426 7.914 1.463 12.362 1.467.576-.004 1.417-.076 1.73.11.187.115.273.52.24.67-.144.63-.273 1.268-.373 1.908-.074.48-.184.94-.18 1.427.008.756.266.07.37-.264.456-1.48.82-3.124 2.287-3.84.76-.373 3.58-1.47 7.942-1.473.02-.06.032-.125.05-.186.346-1.16.537-2.386.537-3.657v-.185l-2.154-1.45c-.86 1.662-2.576 2.812-4.572 2.812-2.603 0-4.74-1.942-5.093-4.45h-2.613c-.352 2.508-2.49 4.45-5.093 4.45-1.85 0-3.463-.985-4.376-2.45l-1.855 1.247v.024c0 1.27.19 2.498.534 3.66.015.052.027.107.043.16m26.677-3.92v.1c0 1.267-.18 2.49-.488 3.66-.04.143-.07.29-.115.433 1.138.44 2.24 1.36 1.678 2.09-.563.733-.112-.704-4.61 3.23-1.745 2.01-4.03 3.54-6.638 4.344 1.17 1.3 1.9 3.104 1.9 5.036 0 3.764-2.755 6.812-6.156 6.812-3.4 0-6.157-3.048-6.157-6.812 0-1.944.74-3.756 1.92-5.058-2.553-.8-4.798-2.31-6.523-4.285-.175-.15-.365-.29-.53-.45C2.55 30.385.63 30.256.49 29.605c-.217-1.018 1.14-1.43 2.505-1.535-.014-.052-.024-.106-.04-.158-.308-1.17-.49-2.392-.49-3.658v-.087C1.045 23.807 0 22.16 0 20.12c0-2.04 1.044-3.688 2.465-4.048v-1.676C2.465 6.59 11.173 0 16.643 0l.173.005.227-.005c5.47 0 14.177 6.59 14.177 14.397v1.69c1.39.39 2.405 2.02 2.405 4.033 0 2.012-1.014 3.642-2.405 4.033"/>
    <path d="M18.722 9.426c.206.266.278.624.148.965-.192.506-.768.76-1.272.587-.002 0-.27-.08-.92-.087-.644.006-.943.086-.977.096-.51.178-1.07-.08-1.263-.587-.128-.338-.05-.69.154-.957-.056-.075-.116-.148-.15-.24-.2-.515.055-1.095.57-1.295.127-.05.622-.21 1.65-.222h.072c.988 0 1.486.178 1.617.234.493.21.715.77.522 1.27-.034.09-.092.162-.148.234"/>
  </g>
</svg>
