<svg xmlns="http://www.w3.org/2000/svg" viewBox="0 0 244.69 189.79">
  <defs>
    <style>
      .cls-1{fill:#fff;}.cls-2,.cls-3,.cls-4{fill:none;stroke:#fff;stroke-miterlimit:10;}.cls-2{stroke-width:2px;}.cls-3{stroke-width:3px;}.cls-5{fill:#fff;}
      .cls-1, .cls-2, .cls-3, .cls-4, .cls-5{opacity:.86;}
    </style>
  </defs>
  <path d="M128.08 141.13c.95-.46 1.65-1 1.65-1.61a1.67 1.67 0 0 0-.73-1.34 2.54 2.54 0 0 0-1.75-.44h-4.57a2.54 2.54 0 0 0-1.75.44 1.86 1.86 0 0 0-.73 1.44c0 .6.95 1.29 1.65 1.49a23.5 23.5 0 0 0 3.09.63 28.54 28.54 0 0 0 3.14-.61zm-16.14-27.47a1.6 1.6 0 0 0-1.21.73c-.5-.55-.9-1-.9-1s.27.71.61 1.45a5.67 5.67 0 0 0-.29.58c-.77-.79-1.6-1.74-1.6-1.74a18.34 18.34 0 0 0 1.26 2.67 13.9 13.9 0 0 0-.52 3.89c0 3.63 1.18 6.57 2.65 6.57s2.65-2.94 2.65-6.57-1.19-6.58-2.65-6.58z" class="cls-1"/>
  <path d="M138.26 150.14c6.88-6 11.43-16.13 11.43-27.66a42.92 42.92 0 0 0-.47-6.32 19.83 19.83 0 0 0 2.32-.09c.82-.13 2.85-.69 2.85-.69a25.2 25.2 0 0 1-1.6-2.1 42.94 42.94 0 0 1-2.2-4.73c-.67-1.5-1.35-2.7-2.19-4.75a40 40 0 0 0-2.27-4.52 52.33 52.33 0 0 0-4-5.19c-.55-.61-2.74-2.48-3.84-3.36 2.49-1.8 4-4.11 4-6.62 0-5.75-7.82-10.42-17.46-10.42s-17.46 4.66-17.46 10.42c0 2.31 1.28 4.44 3.42 6.17a20.77 20.77 0 0 0-2.37 1.91 32.94 32.94 0 0 0-4.92 5.54 57.17 57.17 0 0 0-3.06 5.73c-.57 1.23-1.47 3.65-1.79 4.52a29.29 29.29 0 0 1-1.71 3.66 11.38 11.38 0 0 1-1.33 2.17c-.52.57-1.81 1.81-1.81 1.81a9.79 9.79 0 0 0 2 .33 14.29 14.29 0 0 0 2.15-.15 10.85 10.85 0 0 0 1.22-.3 42.82 42.82 0 0 0-.57 7c0 11.78 4.63 22.14 11.76 28a30.87 30.87 0 0 0-20.42 28.85v5.21l1.11.36c9.09 3.24 20.57 4.88 34 4.88 14.06 0 24.51-1.31 32.82-4.12l1-.34v-6a31.61 31.61 0 0 0-20.61-29.2zm-37.65-27.66a40.82 40.82 0 0 1 .74-7.77 22.53 22.53 0 0 0 3.64-2 17.49 17.49 0 0 0 2.89-3.08c.42-.61 3.84-5 3.84-5s.73 3.86 1 4.69c0 .08.08.37.12.37h-3.9a1 1 0 0 0 0 2h5.16c.56 0 1.18 1.07 1.66 1.36a18.68 18.68 0 0 0 6.1 1.86 61 61 0 0 0 7.87.23 19.29 19.29 0 0 0 5.56-1.19 38.69 38.69 0 0 1-3.06-2.8c-.55-.76-1.87-2.54-2.28-3.26-.26-.46-1.21-2.53-1.21-2.53a11.16 11.16 0 0 1 3.6 1.38 8.15 8.15 0 0 1 3.07 2.95h-2a1 1 0 0 0 0 2h3.63c.44 0 .88.68 1.38 1.18a8.55 8.55 0 0 0 1.08.83c-.38.42-.93 1-1.43 1.48-.05-.11-.11-.24-.17-.34.34-.75.62-1.49.62-1.49s-.41.47-.92 1a1.61 1.61 0 0 0-1.22-.75c-1.46 0-2.65 2.94-2.65 6.56s1.18 6.57 2.65 6.57 2.65-2.94 2.65-6.57a13.65 13.65 0 0 0-.58-4.1l.13-.15a11.74 11.74 0 0 0 1.11-2.19 6.87 6.87 0 0 0 2.25 1.12 39.84 39.84 0 0 0 4.81 1.19h.42a41.05 41.05 0 0 1 .5 6.41c0 17.21-10.56 31.21-23.54 31.21s-23.52-13.91-23.52-31.17zm12.8 30.26v-.14a20.27 20.27 0 0 0 22.41-.55l-.12.4a27.39 27.39 0 0 1 9.48 5 30.29 30.29 0 0 1-41.13.05 27.54 27.54 0 0 1 9.36-4.76zm42.53 30.42a81 81 0 0 1-12 2.58c0-.42.05-.86.05-1.33 0-2.34-.42-4.23-.93-4.23s-.93 1.89-.93 4.23c0 .55 0 1.07.07 1.55a151 151 0 0 1-17 .85 123.93 123.93 0 0 1-20.39-1.55 17.34 17.34 0 0 0 .1-1.84c0-2.34-.42-4.23-.93-4.23s-.93 1.89-.93 4.23c0 .55-.09 1.07 0 1.55a74.21 74.21 0 0 1-10-2.51v-3.08a27.78 27.78 0 0 1 8.67-19.95 33.37 33.37 0 0 0 45.76 0 28.33 28.33 0 0 1 8.57 20z" class="cls-1"/>
  <path d="M100.03 129.15a1.57 1.57 0 0 1-.33 0c-1.73 0-3.12-2.85-3.12-6.37s1.4-6.37 3.13-6.37m48.4.16a1.63 1.63 0 0 1 .63-.13c1.73 0 3.13 2.85 3.13 6.37s-1.4 6.37-3.12 6.37a1.6 1.6 0 0 1-.5-.08" class="cls-2"/>
  <path d="M98.14 63.74h-6l-.2 19.17-9.83-19.17H40.06a10.44 10.44 0 0 1-10.41-10.41v-35a7.6 7.6 0 0 1 7.57-7.57h60.92a10.44 10.44 0 0 1 10.41 10.41v32.21a10.44 10.44 0 0 1-10.41 10.36zm52.73-1.33h4.86l.13 15.47 7.94-15.47h33.94a8.42 8.42 0 0 0 8.4-8.4V25.74a6.13 6.13 0 0 0-6.11-6.11h-49.16a8.42 8.42 0 0 0-8.4 8.4v26a8.42 8.42 0 0 0 8.4 8.38zm41.07 58.26h43.48c4.29 0 7.79-3.78 7.79-8.4V83.99a5.92 5.92 0 0 0-5.67-6.11h-45.6c-4.29 0-7.79 3.78-7.79 8.4v3.8L167.94 100l16.2-3v15.31c-.01 4.58 3.5 8.36 7.8 8.36zM9.3 122.81h43.48c4.29 0 7.79-3.78 7.79-8.4V97.74l17.25.5-17.25-8.25v-3.86a5.92 5.92 0 0 0-5.67-6.11H9.3c-4.29 0-7.79 3.78-7.79 8.4v26c-.01 4.61 3.5 8.39 7.79 8.39z" class="cls-3"/>
  <path d="M29.06 54.5a10.44 10.44 0 0 1-9.65-10.38v-35a7.6 7.6 0 0 1 7.57-7.57h60.96a10.44 10.44 0 0 1 10.34 9.2m108.43 43.86a8.43 8.43 0 0 0 6.95-8.27V18.06a6.13 6.13 0 0 0-6.11-6.11h-49.17a8.43 8.43 0 0 0-8.37 7.67" class="cls-3"/>
  <path d="M36.56 18.99h9.5v13.25h-9.5zm14.5 0h9.5v13.25h-9.5zm14.5 0h9.5v13.25h-9.5zm14.5 0h9.5v13.25h-9.5zm14.5 0h9.5v13.25h-9.5zm-48.5 7.25h5m9.19 0h5m9.56 0h5m9.56 0h5m-39.7 6l-4.3 9.18" class="cls-4"/>
  <circle cx="47.6" cy="47.35" r="6.56" class="cls-4"/>
  <path d="M57.21 32.24l4.29 9.18" class="cls-4"/>
  <circle cx="64.28" cy="47.35" r="6.56" class="cls-4"/>
  <path d="M70.51 45.31l11.43-4.06m0-2.6h21.67v6.25H81.94zM70.51 49.64l11.43 4.05m0-3.65h21.67v6.25H81.94zm66.16-23.8h8.92v8.92h-8.92zm23.09-.63h8.92v8.92h-8.92zm0 11.27h8.92v8.92h-8.92zm0 10.63h8.92v8.92h-8.92zM148.1 36.88h8.92v8.92h-8.92zm0 10.63h8.92v8.92h-8.92z" class="cls-4"/>
  <path d="M159.94 31.47h5.26l-.7 3.03 4.69-3.81-4.69-3.8.7 3.02h-5.26v1.56zm0 10.65h5.26l-.7 3.03 4.69-3.81-4.69-3.81.7 3.03h-5.26v1.56zm0 10.62h5.26l-.7 3.03 4.69-3.8-4.69-3.81.7 3.02h-5.26v1.56z" class="cls-5"/>
  <path d="M180.1 29.74l5.59-2.09m-.17-3h13.58v4.92h-13.58zm-5.42 6.08l5.59 2.09m-.17-1.92h13.58v4.92h-13.58zm-5 20.57l5.58-2.09m-.16-3h13.58v4.92h-13.58zm-5.42 6.08l5.58 2.09m-.16-1.92h13.58v4.92h-13.58zm-5.5-11.29h7.66m0-2.69h9.5v5.58h-9.5z" class="cls-4"/>
  <ellipse cx="31.31" cy="91.9" class="cls-4" rx="14.75" ry="5.83"/>
  <path d="M19.41 99.27l-4.14 5.4m31.79 0l-4.14-5.4m-11.61 8.1v-6.8M7.39 106.9h8.54v8.54H7.39zm38.67 0h8.54v8.54h-8.54zm-19.33 2.59h8.54v8.54h-8.54z" class="cls-4"/>
  <circle cx="214.89" cy="99.27" r="6.44" class="cls-4"/>
  <path d="M207.85 95.24l-3.66-3m21.41 0l-3.66 3m-14.09 8.43l-3.66 3m21.41 0l-3.66-3m-30.09-21.43h9.42v9.42h-9.42zm36.34 0h9.42v9.42h-9.42zm0 24.75h9.42v9.42h-9.42zm-36.34.33h9.42v9.42h-9.42z" class="cls-4"/>
</svg>
