<svg xmlns="http://www.w3.org/2000/svg" viewBox="0 0 230.205 241.692" width="280" height="294">
  <defs>
    <clipPath id="a">
      <path d="M0 181.27h172.654V0H0z"/>
    </clipPath>
    <clipPath id="b">
      <path d="M0 181.27h172.654V0H0z"/>
    </clipPath>
    <clipPath id="c">
      <path d="M0 181.27h172.654V0H0z"/>
    </clipPath>
    <clipPath id="d">
      <path d="M0 181.27h172.654V0H0z"/>
    </clipPath>
  </defs>
  <g clip-path="url(#a)" transform="matrix(1.3 0 0 -1.3 0 241.7)" fill="#fff">
    <path d="M136.447 8.37l.995-.113h-76.93l.5.06-3.48 28.804c.03 3.43 2.708 6.1 6.122 6.1h72.308c2.003 0 3.76-2.8 3.78-6.01zM77.81 51.163c.804-.272 1.822-.116 2.82.043.685.11 1.833.294 2.098.082.25-.198.395-1.433.472-2.097.17-1.46.348-2.98 1.445-3.57 1.073-.58 2.342.13 3.57.81.615.35 1.648.92 1.966.81.3-.1.81-1.22 1.09-1.82l.09-.19H73.83c1.056 2.17 2.39 4.18 3.987 5.95m21.59-5.94h-1.8c.353.35.702.64.897.64.198 0 .548-.29.903-.64M88.46 58.02c2.86-2.136 6.126-3.35 9.594-3.35 3.674 0 7.12 1.366 10.097 3.742v-.02c3.48-1.052 6.63-2.94 9.28-5.407-.28.035-.55.077-.75.108-1.27.2-2.58.405-3.45-.285-.85-.68-1.01-2.046-1.16-3.367-.07-.64-.23-1.99-.49-2.15-.28-.1-1.35.48-1.92.8-1.14.64-2.32 1.29-3.36.93-1.02-.35-1.59-1.59-2.14-2.78-.11-.24-.3-.64-.49-1.01h-1.73c-.18.19-.35.37-.48.52-.9.99-1.83 2-2.93 2s-2.03-1.02-2.93-2l-.47-.51H93.4c-.193.37-.376.76-.49 1.01-.55 1.2-1.12 2.44-2.14 2.79-1.04.36-2.22-.3-3.36-.93-.566-.31-1.624-.9-1.906-.8-.266.17-.42 1.5-.497 2.15-.154 1.32-.313 2.69-1.17 3.37-.87.69-2.18.48-3.446.28-.21-.03-.49-.08-.76-.11 2.53 2.28 5.53 4.04 8.86 5.07M78.92 82.9c0 3.6.507 7.034 1.42 10.177 5.062 2.715 10.977 4.15 17.162 4.15 6.77 0 13.148-1.695 18.486-4.9.776-2.936 1.205-6.112 1.205-9.427 0-14.877-8.585-26.98-19.14-26.98-3.5 0-6.783 1.34-9.61 3.664l-.22.178c-.083-.023-.04.128-.12.103-5.51 4.74-9.19 13.29-9.19 23.03m40.255-31.706c1.58-1.79 2.906-3.81 3.965-5.98h-17.48l.09.2c.278.6.793 1.72 1.088 1.82.32.11 1.36-.46 1.98-.81 1.23-.69 2.5-1.39 3.58-.81 1.1.6 1.28 2.11 1.45 3.58.08.66.22 1.9.47 2.1.27.21 1.42.03 2.11-.07.97-.16 1.97-.3 2.76-.06m16.8-5.97h-10.83c-3.02 6.72-8.57 12.17-15.39 14.61 1.51 1.47 2.87 3.22 4.04 5.2 1.59-1.02 3.28-1.55 5.03-1.55 3.36 0 8.05 3.21 8.97 5.51.15.37.06.6-.05.72-.35.41-1.16.18-2.57-.26-.72-.22-1.61-.5-1.9-.43-1.39.37-3.25 2.15-3.34 13.17 0 8.64-2.65 16.44-6.89 21.94v12.97l-7.44-4.99-7.45 4.99-7.44-4.99-7.44 4.99v-13c-4.22-5.5-6.85-13.28-6.85-21.9-.09-11.02-1.95-12.795-3.35-13.17-.285-.08-1.18.2-1.9.423-1.41.435-2.224.662-2.573.255-.105-.13-.2-.35-.05-.73.92-2.31 5.61-5.52 8.97-5.52 1.7 0 3.34.49 4.89 1.46 1.263-2.13 2.75-3.99 4.404-5.53-6.715-2.46-12.05-7.68-14.96-14.2H63.7c-4.554 0-8.12-3.58-8.12-8.16L59 8.26h-.68c-.825 0-1.5-.676-1.5-1.5V1.5c0-.825.675-1.5 1.5-1.5h80.956c.824 0 1.5.675 1.5 1.5v5.257c0 .824-.676 1.5-1.5 1.5h-.835l3.29 28.775.01.113c0 4.45-2.59 8.07-5.78 8.07"/>
    <path d="M99.133 29.373c-1.696 0-3.076 1.38-3.076 3.076 0 1.69 1.38 3.07 3.076 3.07 1.696 0 3.076-1.38 3.076-3.08s-1.38-3.08-3.08-3.08m0 8.15c-2.8 0-5.08-2.28-5.08-5.08 0-2.8 2.27-5.08 5.07-5.08 2.8 0 5.07 2.27 5.07 5.07 0 2.8-2.28 5.07-5.08 5.07M88.52 77c1.137 0 2.06 2.395 2.06 5.352 0 2.956-.923 5.353-2.06 5.353-.34 0-.66-.217-.94-.594-.39.45-.703.83-.703.83s.212-.58.473-1.18c-.08-.14-.154-.3-.225-.47-.596.65-1.24 1.43-1.24 1.43s.56-1.53.98-2.18c-.25-.88-.4-1.98-.4-3.16 0-2.95.92-5.35 2.06-5.35M91.555 90v.67c0 .23-.18.42-.4.42h-5.27c-.22 0-.4-.186-.4-.416V90c0-.23.18-.42.4-.42h5.273c.22 0 .4.19.4.42m13.37-.42h5.277c.22 0 .39.19.39.42v.67c0 .233-.18.42-.4.42h-5.275c-.22 0-.4-.187-.4-.42V90c0-.23.18-.42.4-.42m-9.015-25.31c.654-.25 2.423-.52 2.423-.52s1.65.22 2.42.47c.74.375 1.285.82 1.285 1.31 0 .49-.217.934-.566 1.26-.35.32-.83.52-1.36.52h-3.56c-.53 0-1.01-.2-1.36-.526-.35-.32-.566-.77-.566-1.26s.74-1.092 1.29-1.254m14.42 23.865s-.81-.98-1.45-1.65c-.04.09-.08.173-.13.256.27.61.49 1.21.49 1.21l-.71-.84c-.28.39-.61.61-.95.61-1.13 0-2.06-2.39-2.06-5.35s.93-5.35 2.07-5.35 2.06 2.4 2.06 5.36c0 1.27-.17 2.43-.45 3.34l.1.12c.43.56 1.06 2.3 1.06 2.3m-41.26 41.1l-.47-.33.98-11.92-11.91 6.72-.41-.13c-4.91-1.52-10.14-2.3-15.52-2.3-21.91 0-39.75 13.01-39.75 29s17.84 29 39.75 29c21.92 0 39.75-13.01 39.75-29 0-8.02-4.4-15.49-12.4-21.03m14.4 21.04c0 17.09-18.73 31-41.75 31S0 167.36 0 150.27c0-17.094 18.73-31 41.75-31 5.436 0 10.717.76 15.704 2.263L71.9 113.39l-1.19 14.535c8.136 5.817 12.79 13.933 12.79 22.344m56.348-20.39c-4.182 0-8.236.6-12.052 1.78l-.412.12-9.02-5.09.74 9.02-.476.32c-6.182 4.28-9.587 10.05-9.587 16.24 0 12.36 13.82 22.41 30.81 22.41s30.81-10.06 30.81-22.42-13.82-22.42-30.8-22.42m0 46.83c-18.09 0-32.8-10.96-32.8-24.42 0-6.61 3.63-12.97 9.98-17.55l-.95-11.64 11.56 6.51c3.89-1.16 8-1.75 12.23-1.75 18.09 0 32.81 10.95 32.81 24.41s-14.72 24.41-32.81 24.41"/>
    <path fill="none" stroke="#fff" stroke-miterlimit="10" d="M16.846 155.99c1.16-2.61-.015-5.67-2.626-6.83-2.612-1.162-5.67.014-6.832 2.626-1.16 2.612.015 5.67 2.626 6.83 2.612 1.163 5.67-.013 6.832-2.625zm15.584 8.825c1.162-2.612-.014-5.67-2.625-6.832-2.612-1.16-5.67.015-6.832 2.627-1.16 2.612.015 5.67 2.626 6.83 2.61 1.163 5.67-.013 6.83-2.625z"/>
  </g>
  <text fill="#fff" transform="matrix(1.2 -.5 .5 1.2 14.6 39.7)" font-size="6.717" font-family="Arial, sans-serif">
    <tspan x="0 1.632" y="0">js</tspan>
  </text>
  <g clip-path="url(#b)" transform="matrix(1.3 0 0 -1.3 0 241.7)">
    <path fill="none" stroke="#fff" stroke-miterlimit="10" d="M144.577 156.13c1.16-2.612-.015-5.67-2.626-6.832-2.61-1.16-5.67.015-6.83 2.627-1.16 2.612.02 5.67 2.63 6.83 2.61 1.163 5.67-.013 6.83-2.625z"/>
  </g>
  <text fill="#fff" transform="matrix(1.2 -.5 .5 1.2 184.8 39.5)" font-size="6.717" font-family="Arial, sans-serif">
    <tspan x="0 1.632" y="0">js</tspan>
  </text>
  <text fill="#fff" transform="matrix(1.3 .3 -.3 1.3 168.5 51.3)" font-size="5.389" font-family="Arial, sans-serif">
    <tspan x="0 1.309" y="0">js</tspan>
  </text>
  <text fill="#fff" transform="matrix(1.2 -.6 .6 1.2 25.5 33.8)" font-weight="bold" font-size="5" font-family="Arial, sans-serif">
    <tspan x="0" y="0">+</tspan>
  </text>
  <text fill="#fff" transform="matrix(1.3 .4 -.4 1.3 185.6 25.1)" font-weight="bold" font-size="5" font-family="Arial, sans-serif">
    <tspan x="0" y="0">+</tspan>
  </text>
  <text fill="#fff" transform="matrix(1.3 .4 -.4 1.3 163.2 49.8)" font-weight="bold" font-size="3.618" font-family="Arial, sans-serif">
    <tspan x="0" y="0">+</tspan>
  </text>
  <text fill="#fff" transform="matrix(1.3 0 0 1.3 67.5 46.1)" font-weight="bold" font-size="4.425" font-family="Arial, sans-serif">
    <tspan x="0" y="0">+</tspan>
  </text>
  <text fill="#fff" transform="matrix(1.3 -.5 .5 1.3 33.6 27.1)" font-size="2.666" font-family="Arial, sans-serif">
    <tspan x="0 1.738 3.063 5.207" y="0">HTML</tspan>
  </text>
  <g clip-path="url(#c)" transform="matrix(1.3 0 0 -1.3 0 241.7)">
    <path fill="none" stroke="#fff" stroke-miterlimit="10" d="M157.892 143.45c1.117-3.43-.758-7.114-4.188-8.23-3.43-1.118-7.115.757-8.232 4.187-1.117 3.43.758 7.115 4.188 8.232 3.43 1.11 7.115-.76 8.232-4.19z"/>
  </g>
  <text fill="#fff" transform="matrix(1.3 -.3 .3 1.3 197.8 55.7)" font-size="3.364" font-family="Arial, sans-serif">
    <tspan x="0 2.193 3.866 6.57" y="0">HTML</tspan>
  </text>
  <text fill="#fff" transform="matrix(1.2 -.6 .6 1.2 47.9 22.2)" font-weight="bold" font-size="5" font-family="Arial, sans-serif">
    <tspan x="0" y="0">=</tspan>
  </text>
  <text fill="#fff" transform="matrix(1.3 .4 -.4 1.3 209.6 32.5)" font-weight="bold" font-size="5" font-family="Arial, sans-serif">
    <tspan x="0" y="0">=</tspan>
  </text>
  <text fill="#fff" transform="matrix(1.3 .3 -.3 1.3 175.1 52.5)" font-weight="bold" font-size="3.555" font-family="Arial, sans-serif">
    <tspan x="0" y="0">=</tspan>
  </text>
  <text fill="#fff" transform="matrix(1.3 -.4 .4 1.3 53.7 19.3)" font-weight="bold" font-size="8.699" font-family="Arial, sans-serif">
    <tspan x="0" y="0">$</tspan>
  </text>
  <text fill="#fff" transform="matrix(1.3 0 0 1.3 90.2 49.8)" font-weight="bold" font-size="5" font-family="Arial, sans-serif">
    <tspan x="0" y="0">=</tspan>
  </text>
  <text fill="#fff" transform="matrix(1.3 0 0 1.3 96.5 50.6)" font-weight="bold" font-size="8.699" font-family="Arial, sans-serif">
    <tspan x="0" y="0">$</tspan>
  </text>
  <text fill="#fff" transform="matrix(1.3 .4 -.4 1.3 215.2 33.8)" font-weight="bold" font-size="7.12" font-family="Arial, sans-serif">
    <tspan x="0" y="0">$</tspan>
  </text>
  <text fill="#fff" transform="matrix(1.3 .3 -.3 1.3 179.3 55.1)" font-weight="bold" font-size="6.426" font-family="Arial, sans-serif">
    <tspan x="0" y="0">$</tspan>
  </text>
  <g clip-path="url(#d)" transform="matrix(1.3 0 0 -1.3 0 241.7)">
    <text fill="#fff" transform="matrix(1 .1 .1 -1 129.1 154)" font-weight="bold" font-size="5.98" font-family="Arial, sans-serif">
      <tspan x="0" y="0">$</tspan>
    </text>
    <path fill="none" stroke="#fff" stroke-miterlimit="10" d="M42.022 130.076c-1.748-4.17-6.545-6.13-10.714-4.383-4.17 1.748-6.13 6.544-4.383 10.713 1.748 4.17 6.545 6.132 10.714 4.384 4.16-1.748 6.13-6.545 4.38-10.714z"/>
  </g>
  <text fill="#fff" transform="matrix(1.2 .5 -.5 1.2 38 63.2)" font-size="4.65" font-family="Arial, sans-serif">
    <tspan x="0 4.008 8.017" y="0">WWW</tspan>
  </text>
  <text fill="#fff" transform="matrix(1.3 .3 -.3 1.3 150.6 46.1)" font-size="3.151" font-family="Arial, sans-serif">
    <tspan x="0 2.717 5.433" y="0">WWW</tspan>
  </text>
  <text fill="#fff" transform="matrix(1.3 0 0 1.3 46 45.2)" font-size="8.255" font-family="Arial, sans-serif">
    <tspan x="0 4.392 9.774" y="0">PHP</tspan>
  </text>
  <text fill="#fff" transform="matrix(1.3 .4 -.4 1.3 192.5 27.2)" font-size="6.851" font-family="Arial, sans-serif">
    <tspan x="0 3.645 8.112" y="0">PHP</tspan>
  </text>
  <text fill="#fff" transform="matrix(1.3 0 0 1.3 72 47)" font-size="6.491" font-family="Arial, sans-serif">
    <tspan x="0 1.344 5.615 8.913" y="0">.NET</tspan>
  </text>
  <text fill="#fff" transform="matrix(1.3 -.4 .4 1.3 152.5 36.8)" font-size="5.21" font-family="Arial, sans-serif">
    <tspan x="0 1.078 4.507 7.153" y="0">.NET</tspan>
  </text>
  <text fill="#fff" transform="matrix(1.3 -.3 .3 1.3 64.2 29.6)" font-size="8.795" font-family="Arial, sans-serif">
    <tspan x="0 1.821 6.737 12.797" y="0">.COM</tspan>
  </text>
  <text fill="#fff" transform="matrix(1.3 .4 -.4 1.3 169 19.3)" font-size="4.752" font-family="Arial, sans-serif">
    <tspan x="0 .984 3.639 6.913" y="0">.COM</tspan>
  </text>
</svg>
