<svg id="Слой_1" data-name="Слой 1" xmlns="http://www.w3.org/2000/svg" viewBox="0 0 760.47 359.47">
  <defs>
    <style>
      .cls-1,.cls-2,.cls-3,.cls-4,.cls-5,.cls-6,.cls-7{fill:#ffffff;}.cls-2{font-size:33.44px;}.cls-2,.cls-3,.cls-4,.cls-5,.cls-6,.cls-7{font-family:ClearSansBold, Clear Sans;font-weight:normal;}.cls-3{font-size:33.12px;}.cls-4{font-size:39.96px;}.cls-5{font-size:25.41px;}.cls-6{font-size:41.86px;}.cls-7{font-size:28.25px;}.cls-8{fill:none;stroke:#ffffff;stroke-miterlimit:10;}
    </style>
  </defs>
  <rect class="cls-1" x="726.7" width="2.19" height="97.23"/>
  <path class="cls-1" d="M879.73,392.49H838.11a4.18,4.18,0,0,0-4.17,4.17v41.62a4.18,4.18,0,0,0,4.17,4.17h41.62a4.18,4.18,0,0,0,4.17-4.17V396.67A4.18,4.18,0,0,0,879.73,392.49ZM878.25,435a1.8,1.8,0,0,1-1.8,1.8H840.93a1.8,1.8,0,0,1-1.8-1.8V399.49a1.8,1.8,0,0,1,1.8-1.8h35.52a1.8,1.8,0,0,1,1.8,1.8Z" transform="translate(-131.19 -280.89)"/>
  <polygon class="cls-1" points="695.86 99.99 700.54 94.99 715.03 107.79 695.86 99.99"/><polygon class="cls-1" points="760.47 99.99 755.63 94.99 740.67 107.79 760.47 99.99"/>
  <path class="cls-1" d="M876.36,373.12c-2.31-2.6-7.83-1.45-12.33,2.55s-4.29,13-4.29,13,8.16.4,12.66-3.6S878.67,375.71,876.36,373.12Zm-5.35,10c-3.26,2.9-8.77,3.06-8.77,3.06s.33-6,3.59-8.88,7.06-4,8.49-2.35S874.27,380.22,871,383.13Z" transform="translate(-131.19 -280.89)"/>
  <path class="cls-1" d="M853.71,375.67c-4.5-4-10-5.15-12.33-2.55s-.54,7.95,4,12,12.66,3.6,12.66,3.6S858.21,379.67,853.71,375.67Zm-7,7.06c-3.26-2.9-4.74-6.56-3.31-8.16s5.23-.55,8.49,2.35,3.59,8.88,3.59,8.88S850,385.63,846.73,382.73Z" transform="translate(-131.19 -280.89)"/>
  <text class="cls-2" transform="translate(699.13 147.45) scale(0.43 1)"><tspan xml:space="preserve">    60% </tspan></text>
  <rect class="cls-1" x="30.55" y="2.24" width="2.17" height="96.3"/>
  <path class="cls-1" d="M183.37,393.67H142.15A4.14,4.14,0,0,0,138,397.8V439a4.14,4.14,0,0,0,4.13,4.13h41.22A4.14,4.14,0,0,0,187.5,439V397.8A4.14,4.14,0,0,0,183.37,393.67Zm-1.46,42.11a1.79,1.79,0,0,1-1.78,1.78H144.94a1.79,1.79,0,0,1-1.78-1.78V400.59a1.79,1.79,0,0,1,1.78-1.78h35.18a1.79,1.79,0,0,1,1.78,1.78Z" transform="translate(-131.19 -280.89)"/>
  <polygon class="cls-1" points="0 101.27 4.64 96.32 18.99 109 0 101.27"/>
  <polygon class="cls-1" points="63.99 101.27 59.2 96.32 44.38 109 63.99 101.27"/>
  <path class="cls-1" d="M180,374.47c-2.29-2.57-7.76-1.44-12.21,2.53s-4.25,12.88-4.25,12.88,8.08.4,12.54-3.57S182.32,377,180,374.47Zm-5.29,9.91c-3.23,2.87-8.68,3-8.68,3s.33-5.92,3.56-8.79,7-3.92,8.41-2.33S178,381.51,174.74,384.39Z" transform="translate(-131.19 -280.89)"/>
  <path class="cls-1" d="M157.6,377c-4.45-4-9.92-5.1-12.21-2.53s-.54,7.87,3.92,11.84,12.54,3.57,12.54,3.57S162.05,381,157.6,377Zm-6.92,7c-3.23-2.87-4.7-6.49-3.28-8.08s5.18-.55,8.41,2.33,3.56,8.79,3.56,8.79S153.91,386.87,150.68,384Z" transform="translate(-131.19 -280.89)"/>
  <text class="cls-3" transform="translate(2.62 148.28) scale(0.43 1)"><tspan xml:space="preserve">    70% </tspan></text><rect class="cls-1" x="152.43" y="3.92" width="2.61" height="116.17"/>
  <path class="cls-1" d="M309.71,418.16H260a5,5,0,0,0-5,5v49.73a5,5,0,0,0,5,5h49.73a5,5,0,0,0,5-5V423.14A5,5,0,0,0,309.71,418.16ZM307.95,469a2.15,2.15,0,0,1-2.15,2.15H263.36a2.15,2.15,0,0,1-2.15-2.15V426.52a2.15,2.15,0,0,1,2.15-2.15H305.8a2.15,2.15,0,0,1,2.15,2.15Z" transform="translate(-131.19 -280.89)"/>
  <polygon class="cls-1" points="115.58 123.39 121.18 117.41 138.49 132.71 115.58 123.39"/>
  <polygon class="cls-1" points="192.78 123.39 186.99 117.41 169.12 132.71 192.78 123.39"/>
  <path class="cls-1" d="M305.69,395c-2.76-3.1-9.36-1.74-14.73,3s-5.12,15.53-5.12,15.53,9.75.48,15.13-4.3S308.45,398.11,305.69,395Zm-6.39,12c-3.89,3.47-10.48,3.66-10.48,3.66s.4-7.14,4.29-10.61,8.43-4.72,10.14-2.81S303.2,403.5,299.3,407Z" transform="translate(-131.19 -280.89)"/>
  <path class="cls-1" d="M278.62,398.05c-5.37-4.79-12-6.15-14.73-3s-.65,9.49,4.73,14.28,15.13,4.3,15.13,4.3S284,402.84,278.62,398.05Zm-8.34,8.43c-3.89-3.47-5.67-7.83-4-9.75s6.25-.66,10.14,2.81,4.29,10.61,4.29,10.61S274.18,410,270.28,406.49Z" transform="translate(-131.19 -280.89)"/>
  <text class="cls-4" transform="translate(118.74 180.1) scale(0.43 1)"><tspan xml:space="preserve">    20% </tspan></text>
  <rect class="cls-1" x="266.8" y="3.92" width="1.66" height="73.88"/>
  <path class="cls-1" d="M414.58,369.61H383a3.18,3.18,0,0,0-3.17,3.17v31.62a3.18,3.18,0,0,0,3.17,3.17h31.62a3.18,3.18,0,0,0,3.17-3.17V372.78A3.18,3.18,0,0,0,414.58,369.61Zm-1.12,32.31a1.37,1.37,0,0,1-1.37,1.37h-27a1.37,1.37,0,0,1-1.37-1.37v-27a1.37,1.37,0,0,1,1.37-1.37h27a1.37,1.37,0,0,1,1.37,1.37Z" transform="translate(-131.19 -280.89)"/>
  <polygon class="cls-1" points="243.36 79.9 246.93 76.1 257.93 85.83 243.36 79.9"/>
  <polygon class="cls-1" points="292.46 79.9 288.78 76.1 277.41 85.83 292.46 79.9"/>
  <path class="cls-1" d="M412,354.89c-1.76-2-6-1.1-9.37,1.94s-3.26,9.88-3.26,9.88,6.2.31,9.62-2.74S413.78,356.86,412,354.89ZM408,362.5c-2.48,2.21-6.66,2.33-6.66,2.33s.25-4.54,2.73-6.74,5.36-3,6.45-1.79S410.44,360.29,408,362.5Z" transform="translate(-131.19 -280.89)"/>
  <path class="cls-1" d="M394.81,356.83c-3.42-3-7.61-3.91-9.37-1.94s-.41,6,3,9.08,9.62,2.74,9.62,2.74S398.23,359.87,394.81,356.83Zm-5.31,5.36c-2.48-2.21-3.6-5-2.52-6.2s4-.42,6.45,1.79,2.73,6.74,2.73,6.74S392,364.4,389.51,362.19Z" transform="translate(-131.19 -280.89)"/>
  <text class="cls-5" transform="translate(245.38 115.97) scale(0.43 1)"><tspan xml:space="preserve">    10% </tspan></text><rect class="cls-1" x="511.44" width="2.74" height="121.69"/>
  <path class="cls-1" d="M670,420.57H617.87a5.24,5.24,0,0,0-5.22,5.22v52.09a5.24,5.24,0,0,0,5.22,5.22H670a5.24,5.24,0,0,0,5.22-5.22V425.79A5.24,5.24,0,0,0,670,420.57Zm-1.85,53.21a2.26,2.26,0,0,1-2.25,2.25H621.41a2.26,2.26,0,0,1-2.25-2.25V429.33a2.26,2.26,0,0,1,2.25-2.25h44.46a2.26,2.26,0,0,1,2.25,2.25Z" transform="translate(-131.19 -280.89)"/>
  <polygon class="cls-1" points="472.84 125.14 478.71 118.88 496.84 134.91 472.84 125.14"/>
  <polygon class="cls-1" points="553.7 125.14 547.64 118.88 528.92 134.91 553.7 125.14"/>
  <path class="cls-1" d="M665.75,396.32c-2.89-3.25-9.8-1.82-15.43,3.19S645,415.78,645,415.78s10.22.51,15.84-4.51S668.64,399.57,665.75,396.32Zm-6.69,12.53c-4.08,3.63-11,3.84-11,3.84s.42-7.48,4.5-11.11,8.83-4.95,10.62-2.94S663.14,405.21,659.06,408.85Z" transform="translate(-131.19 -280.89)"/>
  <path class="cls-1" d="M637.4,399.51c-5.63-5-12.54-6.44-15.43-3.19s-.68,9.95,5,15,15.84,4.51,15.84,4.51S643,404.53,637.4,399.51Zm-8.74,8.83c-4.08-3.63-5.93-8.21-4.15-10.21s6.55-.69,10.62,2.94,4.5,11.11,4.5,11.11S632.74,412,628.66,408.35Z" transform="translate(-131.19 -280.89)"/>
  <text class="cls-6" transform="translate(476.16 184.55) scale(0.43 1)"><tspan xml:space="preserve">    30% </tspan></text>
  <rect class="cls-1" x="618.86" y="2.58" width="1.85" height="82.14"/>
  <path class="cls-1" d="M768.49,377.75H733.33a3.53,3.53,0,0,0-3.52,3.52v35.16a3.53,3.53,0,0,0,3.52,3.52h35.16a3.53,3.53,0,0,0,3.52-3.52V381.28A3.53,3.53,0,0,0,768.49,377.75Zm-1.25,35.92a1.52,1.52,0,0,1-1.52,1.52h-30a1.52,1.52,0,0,1-1.52-1.52v-30a1.52,1.52,0,0,1,1.52-1.52h30a1.52,1.52,0,0,1,1.52,1.52Z" transform="translate(-131.19 -280.89)"/>
  <polygon class="cls-1" points="592.8 87.05 596.76 82.82 609 93.64 592.8 87.05"/>
  <polygon class="cls-1" points="647.38 87.05 643.29 82.82 630.65 93.64 647.38 87.05"/>
  <path class="cls-1" d="M765.65,361.38c-2-2.19-6.62-1.23-10.42,2.16s-3.62,11-3.62,11,6.9.34,10.7-3S767.6,363.57,765.65,361.38Zm-4.52,8.46c-2.75,2.45-7.41,2.59-7.41,2.59s.28-5,3-7.5,6-3.34,7.17-2S763.89,367.39,761.13,369.84Z" transform="translate(-131.19 -280.89)"/>
  <path class="cls-1" d="M746.51,363.54c-3.8-3.38-8.46-4.35-10.42-2.16s-.46,6.71,3.34,10.1,10.7,3,10.7,3S750.31,366.92,746.51,363.54Zm-5.9,6c-2.75-2.45-4-5.54-2.8-6.89s4.42-.47,7.17,2,3,7.5,3,7.5S743.36,372,740.61,369.5Z" transform="translate(-131.19 -280.89)"/>
  <text class="cls-7" transform="translate(599.79 127.15) scale(0.43 1)"><tspan xml:space="preserve">    5% </tspan></text>
  <path class="cls-1" d="M488.77,526.18h-2.4A39.19,39.19,0,0,1,447.22,487V456.94a39.19,39.19,0,0,1,39.15-39.15h2.4a39.19,39.19,0,0,1,39.15,39.15V487A39.19,39.19,0,0,1,488.77,526.18Zm-2.4-104.47a35.27,35.27,0,0,0-35.23,35.23V487a35.27,35.27,0,0,0,35.23,35.23h2.4A35.27,35.27,0,0,0,524,487V456.94a35.27,35.27,0,0,0-35.23-35.23Z" transform="translate(-131.19 -280.89)"/>
  <path fill="#fff" d="M531.9,501.84a6,6,0,0,0-2.26-4.68,6,6,0,1,0-8.42-8.36,4.2,4.2,0,0,0-7.67.52,5.67,5.67,0,0,0-10.53.35c-.55-2.08-4.08-4.3-6.12-4.3a9.14,9.14,0,0,0-5.66,2.8,3.92,3.92,0,0,0-7.58.27,6.88,6.88,0,0,0-12,.81,5.47,5.47,0,0,0-10.2-.79,4.47,4.47,0,0,0-7.86.2,6,6,0,1,0-8.27,8.53,6,6,0,0,0,3.74,10.64l.2,0a4.56,4.56,0,0,0-.2,1,4.74,4.74,0,0,0,6.69,4.35c0,.14,0,.28,0,.42a5.89,5.89,0,0,0,7.24,5.78c0,.06,0,.12,0,.19a6.81,6.81,0,0,0,11.57,4.88,6,6,0,0,0,9.9,3.5,3.53,3.53,0,0,0,7-.4,5.55,5.55,0,0,0,9.67-2.88,7.11,7.11,0,0,0,10.87-5,5,5,0,0,0,2.48.73,5.12,5.12,0,0,0,4.76-7.09,5.12,5.12,0,0,0,7.22-4.7,4.86,4.86,0,0,0-.14-.7A6,6,0,0,0,531.9,501.84Zm-31.56,1.4a2,2,0,0,1-1.44.6s-8.33,2.53-11.32,2.53-11.32-2.53-11.32-2.53a2,2,0,0,1,0-4.08s8.33,2.53,11.32,2.53,11.32-2.53,11.32-2.53a2,2,0,0,1,1.44,3.48Zm15.22,7,.79-.8a5.27,5.27,0,0,0,.21,1A5.22,5.22,0,0,0,515.56,510.24Z" transform="translate(-131.19 -280.89)"/>
  <ellipse fill="#fff" cx="337.45" cy="187.88" rx="3.79" ry="9.3"/>
  <ellipse fill="#fff" cx="375.29" cy="188.45" rx="3.79" ry="9.3"/>
  <rect fill="#fff" x="331.21" y="167.41" width="13.37" height="3.91" rx="0.5" ry="0.5"/>
  <rect fill="#fff" x="368.6" y="167.74" width="13.37" height="3.91" rx="0.5" ry="0.5"/>
  <circle fill="#fff" cx="326.62" cy="162.06" r="1.96"/>
  <circle fill="#fff" cx="336.38" cy="162.06" r="1.96"/>
  <circle fill="#fff" cx="346.54" cy="162.06" r="1.96"/>
  <circle fill="#fff" cx="356.31" cy="162.06" r="1.96"/>
  <circle fill="#fff" cx="366.62" cy="162.06" r="1.96"/>
  <circle fill="#fff" cx="376.38" cy="162.06" r="1.96"/>
  <circle fill="#fff" cx="386.42" cy="162.06" r="1.96"/>
  <circle fill="#fff" cx="331.78" cy="156.03" r="1.96"/>
  <circle fill="#fff" cx="341.54" cy="156.03" r="1.96"/>
  <circle fill="#fff" cx="351.7" cy="156.03" r="1.96"/>
  <circle fill="#fff" cx="361.46" cy="156.03" r="1.96"/>
  <circle fill="#fff" cx="371.77" cy="156.03" r="1.96"/>
  <circle fill="#fff" cx="336.71" cy="150.23" r="1.96"/>
  <circle fill="#fff" cx="346.47" cy="150.23" r="1.96"/>
  <circle fill="#fff" cx="356.63" cy="150.23" r="1.96"/>
  <circle fill="#fff" cx="366.39" cy="150.23" r="1.96"/>
  <circle fill="#fff" cx="341.79" cy="144.28" r="1.96"/>
  <circle fill="#fff" cx="351.55" cy="144.28" r="1.96"/>
  <circle fill="#fff" cx="361.71" cy="144.28" r="1.96"/>
  <circle fill="#fff" cx="371.47" cy="144.28" r="1.96"/>
  <circle fill="#fff" cx="376.7" cy="150.23" r="1.96"/>
  <circle fill="#fff" cx="381.54" cy="156.03" r="1.96"/>
  <path fill="#fff" d="M448.71,482.19c-4-.39-6.88-5.58-6.88-12.33,0-6.59,2.81-11.76,6.67-12.3l.54,3.88c-1.38.19-3.3,3.49-3.3,8.42s2,8.3,3.34,8.43Z" transform="translate(-131.19 -280.89)"/>
  <path fill="#fff" d="M526,481.69v-3.91c1.36,0,3.43-3.36,3.43-8.43s-2.06-8.43-3.43-8.43V457c4.19,0,7.34,5.31,7.34,12.35S530.14,481.69,526,481.69Z" transform="translate(-131.19 -280.89)"/>
  <path fill="#fff" d="M542.05,560.68h-3.91V548.61a37.07,37.07,0,0,0-37-37H477.8a37.07,37.07,0,0,0-37,37v12.07h-3.91V548.61a41,41,0,0,1,40.95-40.95h23.31a41,41,0,0,1,40.94,40.95Z" transform="translate(-131.19 -280.89)"/>
  <polygon fill="#fff" points="356.89 274.16 321.19 238.46 323.96 235.7 356.89 268.63 390.99 234.52 393.76 237.29 356.89 274.16"/>
  <path class="cls-8" d="M412.63,573.57l6.27,51.87-.52.06H556.84l-1.4-.16,5.94-51.91c0-6.1-3.31-11.24-7.2-11.24H424A11.31,11.31,0,0,0,412.63,573.57Zm75.26-.36a8.74,8.74,0,1,1-8.74,8.74A8.75,8.75,0,0,1,487.89,573.21Z" transform="translate(-131.19 -280.89)"/>
  <path  fill="#fff"  d="M424,559.37a14.1,14.1,0,0,0-14.23,14.28l6.25,51.85h-2.21a2.12,2.12,0,0,0-2.11,2.11v10.63a2.12,2.12,0,0,0,2.11,2.11H560.74a2.12,2.12,0,0,0,2.11-2.11V627.61a2.12,2.12,0,0,0-2.11-2.11h-2.48l5.93-51.83v-.16c0-7.79-4.49-14.13-10-14.13H534.35l0-.1h-3.83l0,.1H443.27l0-.1h-3.82l0,.1Zm130.14,2.82c3.88,0,7.17,5.14,7.2,11.24l-5.94,51.91,1.4.16H418.38l.52-.06-6.27-51.87A11.31,11.31,0,0,1,424,562.19Z" transform="translate(-131.19 -280.89)"/>
  <path fill="#fff" d="M487.89,590.7a8.74,8.74,0,1,0-8.74-8.74A8.75,8.75,0,0,0,487.89,590.7Zm0-14.67A5.93,5.93,0,1,1,482,582,5.93,5.93,0,0,1,487.89,576Z" transform="translate(-131.19 -280.89)"/>
</svg>