<svg xmlns="http://www.w3.org/2000/svg" viewBox="0 0 17.288 23.461" style="max-width:72px; height:auto">
  <defs>
    <clipPath id="a">
      <path d="M0 17.596h12.966V0H0z"/>
    </clipPath>
  </defs>
  <path fill="#fff" d="M6.29 14.815v2.235l2.667-.64 2.666.64v-2.235l-2.666.643z"/>
  <g fill="#fff" clip-path="url(#a)" transform="matrix(1.33333 0 0 -1.33333 0 23.46)">
    <path d="M6.51 3.99c.15 0 .272.12.272.27 0 .15-.12.272-.27.272-.15 0-.272-.12-.272-.27 0-.15.12-.272.27-.272m0-.713c.15 0 .272.12.272.27 0 .15-.12.272-.27.272-.15 0-.272-.13-.272-.28 0-.15.12-.27.27-.27m.107-.19c-.138.06-.297-.01-.356-.14-.05-.14.01-.3.15-.36.14-.06.3 0 .36.14s0 .29-.14.35M4.53 13.1c-.22 0-.403-.452-.403-1.01 0-.556.18-1.01.407-1.01.225 0 .407.454.407 1.01 0 .558-.18 1.01-.4 1.01m3.947 0c-.224 0-.406-.452-.406-1.01 0-.556.18-1.01.406-1.01.222 0 .404.454.404 1.01 0 .558-.18 1.01-.407 1.01m-4.51.6h1.12c.106 0 .19.14.19.24 0 .106-.084.244-.19.244H3.96c-.103 0-.187-.138-.187-.24 0-.105.087-.24.19-.24m3.945 0h1.13c.103 0 .188.136.188.24 0 .103-.085.24-.19.24h-1.13c-.105 0-.19-.137-.19-.24 0-.104.085-.24.19-.24M5.086 8.88c-.01 0-.02-.004-.028-.01-.01-.002-.018-.006-.026-.012s-.015-.01-.022-.02c-.007-.006-.013-.013-.018-.02l-.014-.027-.01-.023-.002-.03c0-.01 0-.02.003-.03v-.03l.01-.027s.01-.017.02-.024l.02-.017.03-.01h.03l.03-.006s.22-.04.31-.04c.08 0 .26-.013.35-.013h.99c.08 0 .25.01.33.01.083 0 .244.016.326.016.08 0 .3.037.3.037.01 0 .02 0 .03.006.01.002.02.004.03.01.01.002.02.01.03.012l.02.014c.008.006.014.014.02.022.01.006.01.014.017.023l.01.03.002.03c0 .01 0 .02-.007.03 0 .01-.003.02-.01.03 0 .01-.005.02-.01.026-.005.007-.01.014-.018.02-.006.008-.013.014-.022.02l-.024.013-.03.01h-.03s-.22-.04-.3-.04c-.083 0-.244-.16-.326-.16-.08 0-.25-.156-.333-.156h-.64c-.08 0-.27.15-.35.15-.08 0-.27.094-.35.094-.08 0-.31.072-.31.072-.01 0-.02.03-.03.03"/>
    <path d="M12.473 1.604l-.002-.024c-.63-.27-1.31-.493-2.04-.666.03.145.05.355.05.592 0 .438-.05.793-.12.793s-.123-.36-.123-.8c0-.26.02-.48.05-.63C9.107.62 7.84.48 6.51.48c-1.262 0-2.47.128-3.594.37.025.15.042.37.042.616 0 .46-.056.83-.126.83s-.125-.37-.125-.83c0-.23.013-.43.035-.58-.806.18-1.567.42-2.265.72-.114 2.378.688 4.243 2.26 5.253h-.002c.224.15.51.28 1.01.412.762-.62 1.705-.98 2.765-.98s2.01.36 2.78.99c.47-.138.7-.27.92-.43 1.574-1.01 2.376-2.88 2.26-5.26M3.5 15.7c.075-.115.18-.28.244-.35.262-.3.594-.544.964-.697.56-.232 1.356-.11 1.934.08-.006.145-.308.32-.392.438-.165.24-.156.61-.156.61s.32-.16.905-.3c.42-.1 1.3-.14 1.73-.15.1 0 .64.05 1 .09.64-.893 1.02-2.09 1.02-3.46 0-2.99-1.79-5.163-4.258-5.163s-4.253 2.17-4.253 5.16c0 1.525.466 2.835 1.25 3.755m-1.948-3.22c.022.267.136.498.313.69-.06-.39-.1-.8-.1-1.222 0-.12.01-.24.016-.357-.17.276-.255.584-.23.887m9.89-.194c.01-.26-.074-.514-.216-.736.003.13.012.26.012.396 0 .356-.03.702-.076 1.04.167-.198.27-.435.278-.7m-.89-5.084l.003.005c-.26.19-.5.33-.87.46.747.776 1.266 1.844 1.46 3.103.5.36.795.938.776 1.53-.02.6-.34 1.11-.88 1.41l-.006-.014c-.576 2.33-2.306 3.89-4.526 3.89-2.168 0-3.86-1.48-4.48-3.71l-.002.01c-.55-.29-.896-.79-.95-1.37-.054-.636.24-1.276.786-1.737.198-1.27.84-2.34 1.59-3.12-.347-.11-.733-.238-.733-.4 0-.005-.14-.01-.14-.015-.04-.026-.14-.047-.177-.074h-.02C.743 6.05-.11 4.07.013 1.576L.02 1.29l.13-.06C1.945.43 4.145 0 6.51 0c2.36 0 4.534.414 6.288 1.198l.13.06.025.316c.125 2.52-.73 4.513-2.397 5.634"/>
  </g>
</svg>
