<svg xmlns="http://www.w3.org/2000/svg" viewBox="0 0 356 254.667">
  <defs>
    <clipPath id="a">
      <path d="M0 191h267V0H0z"/>
    </clipPath>
  </defs>
  <path fill="#fff" d="M60.64 105.627H48.304l9.437 18.712-15.39 29.82 18.29 15.59 18.29-15.6-15.39-29.83 9.44-18.72z"/>
  <g clip-path="url(#a)" transform="matrix(1.33333 0 0 -1.33333 0 254.667)" fill="#fff">
    <path d="M74.91 150.146v8.893c.895-.86 1.604-2.45 1.604-4.45s-.71-3.59-1.605-4.45m0 12.28v.17c0 2.54-.38 4.99-1.01 7.34h-3.07c.71-2.32 1.1-4.78 1.1-7.34V143.6h2.97v3.154c2.65.857 4.57 3.977 4.57 7.83 0 3.856-1.92 6.975-4.57 7.834M17.97 150.1c-.92.844-1.656 2.45-1.656 4.492s.736 3.648 1.657 4.493zm0 12.497v-.15c-2.678-.832-4.623-3.973-4.623-7.855 0-3.88 1.945-7.022 4.624-7.856v-3.128h2.97v18.99c0 2.555.42 5.013 1.13 7.336h-3.09c-.63-2.342-1.01-4.796-1.01-7.337m12.15-1.233c-1.61 0-2.92-2.966-2.92-6.618 0-3.66 1.31-6.62 2.92-6.62 1.61 0 2.92 2.96 2.92 6.62 0 3.652-1.3 6.618-2.91 6.618m32.2 0c-1.61 0-2.92-2.966-2.92-6.618 0-3.66 1.31-6.62 2.92-6.62 1.61 0 2.92 2.96 2.92 6.62 0 3.652-1.3 6.618-2.91 6.618m-29.4 6.418h-5.77c-1.09 0-1.97-.877-1.97-1.96 0-1.084.89-1.962 1.98-1.962h5.77c1.1 0 1.98.878 1.98 1.96 0 1.085-.88 1.962-1.98 1.962m32.34 0H59.5c-1.095 0-1.98-.877-1.98-1.96 0-1.084.885-1.962 1.98-1.962h5.77c1.09 0 1.976.878 1.976 1.96 0 1.085-.884 1.962-1.977 1.962"/>
    <path d="M74.91 143.27v.338h-2.97v-.337c0-7.7-3.498-14.61-9-19.25 1.01-.4 1.992-.85 2.96-1.32 5.538 5.16 9.007 12.47 9.007 20.58m-28.465-25.29c-5.305 0-10.236 1.62-14.322 4.38-1.14-.35-2.26-.74-3.36-1.18 4.86-3.83 11.004-6.13 17.682-6.13 6.332 0 12.186 2.06 16.92 5.54-1.085.49-2.192.92-3.32 1.31-3.938-2.47-8.6-3.91-13.6-3.91m-25.504 25.28v.34H17.97v-.33c0-7.75 3.176-14.79 8.305-19.9.986.44 1.99.84 3.014 1.21-5.13 4.63-8.36 11.3-8.36 18.7"/>
    <path d="M65.903 122.698c-.97.47-1.952.916-2.96 1.318-.914-.77-1.882-1.478-2.9-2.117 1.127-.4 2.234-.83 3.318-1.32 4.44-1.98 8.5-4.7 12-8.1 7.99-7.76 12.38-18.41 12.38-30.01v-.36c.89 1.44 1.84 2.85 2.85 4.2-1.31 16.5-10.99 29.74-24.68 36.38M45.37 46.87C23.836 46.87 6.007 57.102 3 60.295V82.48c0 11.595 4.396 22.252 12.38 30.007 3.866 3.757 8.405 6.68 13.38 8.686 1.098.443 2.22.836 3.36 1.19-.996.67-1.942 1.41-2.83 2.212-1.024-.368-2.03-.77-3.015-1.207C10.76 116.508 0 101.35 0 82.478V59.523C0 57.118 20.312 43.87 45.37 43.87c13.354 0 25.36 3.91 33.66 7.846.024 1.145.076 2.28.157 3.403-7.756-3.9-19.865-8.25-33.818-8.25"/>
    <path d="M190.985 21.23c-3.258-3.457-25.746-18.237-54.493-18.237-15.75 0-29.19 4.358-37.692 8.014C88.612 15.39 83.21 19.66 82 21.074V50.41c0 .95.022 1.893.065 2.83.055 1.2.155 2.387.278 3.568.707 6.766 2.54 13.2 5.395 19.07.9 1.85 1.9 3.645 3 5.376 2.07 3.25 4.476 6.283 7.224 9.034 10.124 10.136 23.808 15.718 38.53 15.718 14.723 0 28.407-5.582 38.53-15.718 5.735-5.74 10.03-12.68 12.712-20.362.782-2.24 1.416-4.545 1.92-6.9.87-4.07 1.33-8.29 1.33-12.615zm2.158 39.507c-.22 1.345-.48 2.67-.78 3.976-.454 1.954-.998 3.862-1.63 5.72-.846 2.494-1.85 4.895-3 7.2-9.503 19.09-28.873 31.373-51.24 31.373-18.76 0-35.418-8.636-45.912-22.685-1-1.34-1.95-2.75-2.84-4.2-4.79-7.78-7.82-16.93-8.55-27-.08-1.12-.13-2.26-.15-3.4-.01-.43-.03-.86-.03-1.3V20.44C79.01 17.3 104.75 0 136.5 0s57.493 17.97 57.493 20.44v29.97c0 3.552-.3 6.995-.842 10.327M36.7 132.06c.11-.035 2.85-.847 9.36-.91.193-.002.384-.002.57-.002 6.02 0 8.673.89 8.785.93.77.265 1.176 1.095.914 1.86-.27.768-1.11 1.176-1.88.92-.03-.01-2.49-.832-8.37-.767-5.93.06-8.45.77-8.52.79-.78.23-1.61-.2-1.85-.97s.19-1.6.98-1.83m9.75 58.76c-13.14 0-24.19-8.87-27.46-20.88h3.08c1.39 4.51 4 8.5 7.48 11.56.49-1.52 1.9-4.06 4.78-5.75 2.03-1.2 5.33-1.81 9.78-1.81 3.24 0 5.88.33 5.99.34.39.05.72.33.83.71.1.38-.03.79-.34 1.03-2.35 1.85-4.43 4.15-4.43 4.73.03.02.19.12.76.12.79 0 1.91-.18 3.33-.41 2.34-.38 5.55-.89 9.38-.89 1.78 0 3.56.14 5.32.37 2.67-2.81 4.7-6.21 5.87-9.99h3.06c-3.27 12.02-14.33 20.89-27.46 20.89m165.65-30.1h4.46c.81 0 1.47.66 1.47 1.47 0 .81-.66 1.466-1.48 1.466h-4.46c-.814 0-1.475-.655-1.475-1.46 0-.81.66-1.466 1.48-1.466m23.59 0h4.456c.81 0 1.47.653 1.47 1.462 0 .81-.66 1.467-1.476 1.467h-4.46c-.82 0-1.48-.66-1.48-1.468 0-.81.66-1.46 1.477-1.46m-21.28-2.24c-.76 0-1.45-.43-2.02-1.165-.64-.02-1.23.037-1.512.087-.526.09-1.05-.25-1.145-.782-.1-.525.25-1.033.783-1.13.09-.02.42-.07.88-.107-.4-1.18-.63-2.62-.63-4.21 0-4.17 1.56-7.32 3.64-7.32 2.072 0 3.64 3.147 3.64 7.317 0 4.175-1.567 7.32-3.644 7.32m23.87 0c-2.07 0-3.64-3.145-3.64-7.32 0-4.17 1.57-7.313 3.64-7.313 2.08 0 3.64 3.145 3.64 7.315 0 1.6-.23 3.042-.63 4.22.414.033.716.08.8.1.533.092.885.6.79 1.13-.1.53-.63.87-1.15.782-.27-.05-.814-.11-1.42-.1-.574.747-1.264 1.177-2.027 1.177m-40.29.5v-19.05h2.95V159c0 2.48.38 4.877 1.06 7.14h-3.04c-.61-2.282-.97-4.67-.97-7.14m53.64-19.05h2.95V159c0 2.47-.36 4.86-.965 7.14h-3.06c.68-2.27 1.07-4.66 1.07-7.14zm-28.95-12.84c.25-.094 1.224-.41 3.246-.43h.14c1.94 0 2.92.35 3.18.456.97.41 1.41 1.5 1.03 2.478-.07.18-.186.32-.297.46.4.52.55 1.22.29 1.88-.38.98-1.51 1.48-2.5 1.145-.01-.01-.53-.18-1.81-.17-1.27.01-1.85.17-1.92.19-1.01.34-2.11-.16-2.49-1.15-.25-.66-.1-1.35.3-1.87-.11-.15-.23-.29-.297-.47-.39-1.01.11-2.14 1.12-2.53"/>
    <path d="M187.734 84.07v-6.438c1.147-2.304 2.153-4.705 3-7.2V84.07c0 9.422 3.58 18.08 10.084 24.377 3.512 3.4 7.705 5.96 12.313 7.585-1 .632-1.98 1.327-2.94 2.074-13.21-5.508-22.45-18.183-22.45-34.036m62.01 24.377c6.5-6.297 10.09-14.955 10.09-24.377V66.144c-2.88-2.456-17.18-10.926-34.54-10.926-15.14 0-28 6.116-32.91 9.495.3-1.305.56-2.63.78-3.976 6.58-3.8 18.51-8.52 32.14-8.52 20.74 0 37.55 11.352 37.55 12.914v18.94c0 15.38-8.68 27.77-21.26 33.53-.97-.72-1.97-1.38-2.98-1.98 4.16-1.63 7.95-4.04 11.16-7.16m-39.68 13.65c-3.41 3.06-9.13 9.41-9.13 17.66v.18H198v-.18c0-.03.007-.06.007-.09-.014-.05-.04-.1-.045-.16-.197-2.35-1.325-10.02-7.61-10.02-1.08 0-2.285.22-3.58.66-.28.09-.582.06-.834-.09-.25-.15-.42-.41-.454-.7-.25-1.81.808-5.31 3.255-8.21 1.84-2.18 5.15-4.83 10.51-5.06l.44-.01c3.84 0 7.39 2.09 9.13 3.17.45-.38.91-.75 1.37-1.11 1.1.46 2.23.87 3.39 1.23-1.22.84-2.4 1.76-3.51 2.76"/>
    <path d="M266.962 129.327c-.038.29-.207.544-.458.698-.252.152-.557.186-.834.094-1.294-.44-2.497-.66-3.577-.66-5.907 0-7.255 6.75-7.556 9.53.007.25.03.5.03.75v.18h-2.952v-.18c0-8.25-5.72-14.61-9.13-17.66-1.312-1.18-2.717-2.25-4.155-3.19-1.176-.78-2.374-1.46-3.563-2.05-2.91-1.44-5.765-2.27-8.097-2.27h-.45l-.34-.01c-2.51 0-5.622.96-8.758 2.59-1.36-.31-2.692-.69-3.992-1.15 4.355-2.76 8.946-4.38 12.75-4.38l.34.01.448-.01h.002c3.495 0 7.78 1.47 11.912 3.95 1.01.6 2.01 1.26 2.986 1.98.7.51 1.386 1.05 2.057 1.62 1.748-1.09 5.29-3.17 9.132-3.17h.446c5.35.23 8.665 2.876 10.507 5.06 2.446 2.9 3.5 6.394 3.25 8.21"/>
    <path d="M213.575 119.332c-1.156-.357-2.287-.767-3.39-1.226.96-.747 1.947-1.442 2.946-2.074 1.3.458 2.64.843 4 1.15-1.19.622-2.38 1.347-3.55 2.15m12.7 67.726c-13.1-.016-24.13-8.924-27.33-20.936H202c.033.115.058.232.094.345h.726c7.33 1.814 15.58 2.855 24.33 2.863 1.132-.005 2.79-.146 3.403.22.37.22.54 1.016.474 1.305-.285 1.23-.54 2.474-.735 3.724-.147.93-.36 1.83-.354 2.78.015 1.47.52.13.726-.52.9-2.89 1.615-6.1 4.5-7.5 1.43-.7 10.14-1.57 15.223-2.64.063-.2.11-.4.17-.59h3.058c-3.2 12.01-14.22 20.92-27.33 20.93"/>
    <path d="M226.21 76.017l-15.485 39.44 5.67 2.187 9.822-25.017 9.502 24.14 5.66-2.196zm-104.53 75.336c-2.167 0-3.923-3.983-3.923-8.903 0-4.916 1.756-8.906 3.924-8.906s3.93 3.99 3.93 8.906c0 4.92-1.75 8.903-3.92 8.903m29.17 0c-2.16 0-3.92-3.983-3.92-8.903 0-4.916 1.76-8.906 3.93-8.906s3.93 3.99 3.93 8.906c0 4.92-1.75 8.903-3.92 8.903m-25.3 8.64h-7.76c-1.47 0-2.66-1.18-2.66-2.637s1.19-2.638 2.66-2.638h7.76c1.47 0 2.66 1.18 2.66 2.638 0 1.46-1.19 2.638-2.66 2.638m29.19 0H147c-1.47 0-2.66-1.18-2.66-2.638s1.19-2.638 2.66-2.638h7.762c1.47 0 2.66 1.18 2.66 2.638 0 1.46-1.19 2.638-2.66 2.638m19.768-23.92v12.154c1.252-1.125 2.263-3.3 2.263-6.078 0-2.778-1.01-4.952-2.266-6.077m0 16.662v.284c0 3.37-.49 6.63-1.33 9.74h-4.113c.94-3.09 1.45-6.36 1.45-9.75v-25.67h3.997v4.22c3.62 1.1 6.26 5.34 6.26 10.58s-2.63 9.48-6.25 10.58M97.92 136.2c-1.182 1.16-2.112 3.28-2.112 5.94s.93 4.78 2.115 5.943zm0 16.81v-.348c-3.54-1.174-6.104-5.356-6.104-10.52s2.564-9.35 6.106-10.52v-4.287h3.993v25.673c0 3.39.51 6.66 1.45 9.75h-4.12c-.837-3.116-1.326-6.373-1.326-9.75m38.29 37.985c-17.72 0-32.62-12.004-36.98-28.228h4.12l.06.235c1.74 1.156 5.04 3.256 7.25 4.038 2.27.808-.45 4.696.56 9.225 2.74 2.896 5.98 5.31 9.59 7.116 1.19-4.2 4.76-11.41 15.34-11.49h.17c10.77 0 14.13 7.29 15.18 11.54 3.67-1.82 6.96-4.27 9.73-7.22.97-4.5-1.72-8.36.55-9.16 2.18-.77 5.44-2.83 7.19-4 .03-.09.04-.18.07-.27h4.11C168.82 179 153.91 191 136.2 191m12.3-78.993c-.387-.16-3.95-1.56-12.02-1.56-.232 0-.464 0-.703.002-8.828.08-12.568 1.47-12.723 1.53-1.03.39-1.54 1.54-1.145 2.56.39 1.01 1.53 1.52 2.57 1.14.1-.04 3.45-1.2 11.33-1.28 7.72-.1 11.1 1.23 11.14 1.24 1.01.42 2.18-.07 2.6-1.07.42-1-.05-2.15-1.06-2.58M170.5 127c0-1.457-.13-2.88-.308-4.288h-68c-.18 1.406-.304 2.83-.304 4.285v.33H97.9V127c0-20.94 17.184-37.98 38.306-37.98 21.12 0 38.302 17.038 38.302 37.978v.33h-3.993zm-34.53-41.81h-11.48l8.782-17.42-14.33-27.768L135.98 25.5l17.026 14.516-14.33 27.766 8.787 17.425z"/>
  </g>
</svg>
