<svg xmlns="http://www.w3.org/2000/svg" viewBox="0 0 614.311 231.996">
  <defs>
    <clipPath id="a">
      <path d="M0 174.068h470V0H0z"/>
    </clipPath>
  </defs>
  <g transform="matrix(1.33333 0 0 -1.33333 -4.132 232.09)" clip-path="url(#a)" fill="#fff" opacity=".4">
    <path d="M450.833 174.068c-7.18 0-13-5.82-13-13s5.82-13 13-13 13 5.82 13 13-5.82 13-13 13m0-1.5c6.34 0 11.5-5.16 11.5-11.5s-5.16-11.5-11.5-11.5-11.5 5.16-11.5 11.5 5.16 11.5 11.5 11.5"/>
    <path d="M450.833 169.75c-4.795 0-8.682-3.887-8.682-8.682s3.89-8.683 8.69-8.683c4.8 0 8.68 3.888 8.68 8.683s-3.88 8.682-8.68 8.682m0-1.5c3.96 0 7.18-3.222 7.18-7.182 0-3.96-3.22-7.183-7.18-7.183-3.96 0-7.18 3.222-7.18 7.183 0 3.96 3.23 7.182 7.19 7.182"/>
    <path d="M450.677 157.01c-2.013 0-3.65 1.64-3.65 3.652h-1.5c0-2.845 2.305-5.15 5.15-5.15l.034.002v1.5l-.03-.003m-8.53-4.91c-.98 0-1.83-.36-2.3-1.09l-8.49-13.02c-.88-1.35-.08-3.44 1.8-4.66.88-.57 1.83-.85 2.68-.85.98 0 1.84.37 2.31 1.09l8.49 13.02c.89 1.36.08 3.44-1.79 4.66-.87.57-1.82.85-2.68.85m0-1.5c.61 0 1.27-.21 1.87-.6 1.23-.79 1.73-2.02 1.36-2.58l-8.49-13.02c-.24-.36-.81-.4-1.05-.4-.6 0-1.26.22-1.86.61-1.22.8-1.72 2.03-1.35 2.59l8.5 13.02c.24.37.82.41 1.05.41m-60.33-79.58l-9.34 9.05h9.34zm24.25 24.01L405 96.18l-8.62-8.62-8.63 8.625-1.12-1.12 9.745-9.746z"/>
    <path d="M396.125 71.776h-13.988l-8.887 8.61v22.39h22.875v-6.54l1.5-.002v8.043H371.75V79.75l9.78-9.474h16.095v9.71l-1.5-.002z"/>
    <path d="M397.625 96.235H385.5V80.97l1.5 1.5v12.265h18.333v-13.25h-17.08l-1.5-1.5h20.08v16.25z"/>
    <path d="M388.253 81.484l6.18 6.18-1.12 1.118-6.313-6.31v-.987zm15.827 0l-6.18 6.18 1.12 1.118 6.313-6.31v-.987z"/>
    <path d="M387 81.484v.987l-1.5-1.5v-.98h1.253l1.5 1.5zM154.074 54.026l-9.333 9.042h9.34zm24.25 24.012l-1.12 1.12-8.624-8.625-8.625 8.625-1.12-1.12 9.744-9.744z"/>
    <path d="M168.366 54.776h-13.988l-8.887 8.61v22.39h22.88v-6.54l1.5-.002v8.043h-25.88V62.75l9.78-9.474h16.1v9.708h-1.5z"/>
    <path d="M169.866 79.235H157.74V63.97l1.5 1.5v12.265h18.334v-13.25h-17.08l-1.5-1.5h20.08v16.25z"/>
    <path d="M160.494 64.484l6.18 6.18-1.12 1.118-6.313-6.31v-.987zm15.826 0l-6.178 6.18 1.12 1.118 6.312-6.31v-.987z"/>
    <path d="M159.24 64.484v.987l-1.5-1.5v-.98h1.254l1.5 1.5zm248.783 75.69c-.846 0-1.53.687-1.53 1.53 0 .848.684 1.534 1.53 1.534s1.53-.686 1.53-1.532c0-.845-.684-1.53-1.53-1.53m-4.844 0c-.85 0-1.54.685-1.54 1.53 0 .846.68 1.532 1.53 1.532.84 0 1.53-.686 1.53-1.532 0-.845-.69-1.53-1.53-1.53m-4.85 0c-.85 0-1.53.685-1.53 1.53 0 .846.68 1.532 1.53 1.532.84 0 1.53-.686 1.53-1.532 0-.845-.69-1.53-1.54-1.53m4.84 12.21c-5.9 0-10.68-4.78-10.68-10.68 0-5.898 4.78-10.68 10.68-10.68 5.9 0 10.68 4.782 10.68 10.68 0 5.9-4.78 10.68-10.68 10.68"/>
    <path fill="none" stroke="#fff" stroke-width="1.5" stroke-miterlimit="10" d="M408.188 130.15c0-2.998-1.447-5.66-3.68-7.322-.424-1.584-.757-6.74-.757-6.74l-4.68 4.94-9.06-.002c-5.04 0-9.12 4.086-9.12 9.126 0 5.04 4.09 9.125 9.13 9.125h9.07c5.04 0 9.13-4.085 9.13-9.125z"/>
    <path d="M341.432 71.92l.48.068c3.01.434 6.008-.937 7.64-3.492 1.277-1.998 1.55-4.405.838-6.575l-1.667 2.61c-1.718 2.69-4.96 3.71-7.225 2.26-2.266-1.44-2.71-4.81-.992-7.5l1.967-3.08c-.17.02-.335.04-.483.07-2.003.4-4.316 2.03-5.5 3.88-1.57 2.46-1.63 5.55-.156 8.08l.23.4-6.21 9.73-1.27-.8 5.73-8.97c-1.523-2.93-1.378-6.43.412-9.23 1.406-2.2 4.07-4.07 6.474-4.54 1.274-.25 2.38-.08 3.197.5l-3.127 4.79c-1.273 2-1.033 4.43.535 5.43s3.88.2 5.154-1.8l3.11-4.74c.27.39.51.79.72 1.2l.09.17-.01.01c1.35 2.85 1.17 6.21-.57 8.93-1.86 2.92-5.21 4.54-8.64 4.23l-5.6 8.76-1.27-.8zm-19.937 20.3l-.456-.044c-2.92-.274-5.7 1.082-7.27 3.538-1.28 2.005-1.56 4.464-.8 6.674l1.7-2.664c1.72-2.69 4.96-3.703 7.22-2.256s2.71 4.814.99 7.505l-1.66 2.603c2.28-.275 4.35-1.55 5.61-3.518 1.63-2.555 1.61-5.853-.05-8.4l-.26-.407 4.07-6.38 1.26.81-3.57 5.59c1.72 2.98 1.65 6.7-.21 9.61-1.8 2.81-4.98 4.44-8.31 4.26l-1.29-.07 3.12-4.88c1.27-1.99 1.03-4.43-.54-5.43s-3.88-.19-5.15 1.8l-3.14 4.91-.61-1.11c-1.63-2.96-1.5-6.57.31-9.42 1.79-2.8 4.9-4.4 8.2-4.26l3.67-5.73 1.26.8z"/>
    <path d="M345.922 87.384c-1.118-1.06-2.692-1.28-3.816-1.28-.933 0-1.62.152-1.627.154l-.31.068-4.4-2.773-1.27-.8-4.97-3.138-1.27-.8-5.59-3.53 1.75-2.55c-2.56-1.667-11.93-7.767-13.81-8.8-.96-.53-1.89-.797-2.77-.797-2.13 0-3.62 1.59-4.49 2.925-1.46 2.232-1.58 4.585-1.24 5.92.19.742.53 1.277.96 1.506 1.66.88 11.97 7.63 14.76 9.46l1.62-2.94 5.71 3.62 1.26.8 4.96 3.15 1.26.8 4.13 2.62h.38c.57 0 .73.47.91 1.02l.19.63c.37.83.91 1.64 1.46 1.95.64.36 7.03 2.7 11.3 4.24l2.35-4.01c-1.45-1.46-6.35-6.41-7.48-7.47m5.79 13.31l-.59-.21c-1.14-.41-11.12-3.99-12.12-4.55-1.26-.71-2.03-2.41-2.33-3.21l-4.8-3.05-1.27-.8-4.96-3.15-1.27-.81-4.36-2.77-1.63 2.96-.68-.44c-.14-.09-13.49-8.87-15.32-9.84-.82-.44-1.41-1.29-1.71-2.46-.55-2.15.01-4.94 1.43-7.11 1.54-2.36 3.53-3.6 5.743-3.6 1.14 0 2.31.33 3.49.98 2.22 1.22 14.05 8.95 14.55 9.28l.645.42-1.75 2.53 4.27 2.7 1.27.8 4.96 3.14 1.27.8 3.88 2.45c1.01-.17 4.26-.55 6.49 1.55 1.33 1.26 7.644 7.64 7.91 7.91l.406.41zM44.12 131.72l.48.068c3.008.435 6.008-.936 7.64-3.49 1.276-2 1.55-4.406.837-6.576l-1.666 2.61c-1.72 2.69-4.96 3.7-7.22 2.254-2.26-1.447-2.7-4.814-.99-7.504l1.97-3.08c-.17.014-.33.04-.48.07-2 .392-4.31 2.024-5.5 3.88-1.57 2.453-1.63 5.55-.15 8.076l.23.397-6.21 9.722-1.27-.8 5.73-8.97c-1.52-2.936-1.38-6.434.41-9.235 1.41-2.202 4.07-4.07 6.48-4.544 1.28-.25 2.38-.08 3.2.497l-3.12 4.792c-1.27 1.994-1.03 4.43.54 5.433 1.57 1.002 3.88.195 5.16-1.798l3.12-4.736v.004c.28.388.52.79.72 1.203l.09.17v.01c1.36 2.85 1.18 6.21-.56 8.936-1.86 2.91-5.2 4.53-8.63 4.23l-5.59 8.75-1.27-.8zm-19.94 20.3l-.454-.044c-2.913-.274-5.697 1.082-7.266 3.538-1.28 2.006-1.556 4.465-.802 6.675l1.702-2.67c1.72-2.69 4.96-3.7 7.225-2.26 2.265 1.44 2.71 4.81.99 7.5l-1.66 2.6c2.28-.28 4.35-1.55 5.607-3.52 1.632-2.56 1.615-5.86-.044-8.4l-.263-.41 4.078-6.39 1.268.8-3.56 5.58c1.72 2.98 1.66 6.7-.2 9.61-1.79 2.81-4.97 4.44-8.31 4.25l-1.28-.07 3.12-4.88c1.28-1.99 1.04-4.43-.53-5.43s-3.88-.2-5.15 1.8l-3.13 4.91-.6-1.12c-1.62-2.97-1.5-6.58.32-9.43 1.79-2.8 4.9-4.41 8.21-4.26l3.67-5.74 1.27.8z"/>
    <path d="M48.615 147.18c-1.118-1.06-2.692-1.28-3.816-1.28-.94 0-1.63.152-1.63.154l-.31.068-4.4-2.773-1.27-.81-4.97-3.14-1.27-.8-5.59-3.53 1.75-2.55c-2.56-1.67-11.93-7.77-13.81-8.8-.96-.53-1.89-.8-2.77-.8-2.14 0-3.62 1.59-4.49 2.92-1.47 2.23-1.58 4.58-1.24 5.92.19.74.53 1.27.96 1.5 1.66.88 11.96 7.63 14.75 9.46l1.62-2.93 5.71 3.62 1.26.81 4.95 3.15 1.27.8 4.11 2.61h.37c.57 0 .73.47.91 1.02l.19.63c.37.83.91 1.64 1.46 1.95.64.36 7.03 2.7 11.3 4.24l2.35-4.01c-1.45-1.46-6.35-6.41-7.48-7.47m5.78 13.31l-.59-.21c-1.133-.41-11.11-4-12.11-4.56-1.26-.71-2.03-2.41-2.33-3.21l-4.8-3.05-1.264-.81-4.96-3.15-1.267-.81-4.36-2.77-1.63 2.96-.68-.45c-.13-.09-13.49-8.86-15.31-9.84-.82-.43-1.41-1.28-1.71-2.45-.55-2.15.01-4.95 1.43-7.12 1.54-2.36 3.53-3.61 5.75-3.61 1.14 0 2.31.33 3.5.98 2.212 1.22 14.042 8.95 14.55 9.28l.64.42-1.744 2.53 4.274 2.7 1.27.8 4.97 3.14 1.27.8 3.88 2.45c1.01-.17 4.26-.55 6.49 1.56 1.33 1.26 7.65 7.64 7.91 7.91l.41.41zm51.092-27.01l-.865 2.08c-.89 2.15-3.09 3.28-4.9 2.53-1.81-.75-2.555-3.11-1.66-5.26l1.02-2.46c-.12.03-.234.07-.34.11-1.38.54-2.84 2-3.45 3.48-.81 1.96-.46 4.19.917 5.82l.213.25-6.01 14.48-.01-.01-1.81 4.37-.33.03c-2.12.17-3.95 1.5-4.77 3.46-.66 1.6-.55 3.4.27 4.89l.89-2.13c.9-2.15 3.09-3.29 4.9-2.54 1.81.75 2.56 3.11 1.67 5.26l-.86 2.08c1.6-.49 2.93-1.67 3.58-3.24.85-2.04.42-4.4-1.1-6.02l-.24-.26 2.12-5.1.01.004 5.61-13.54.358-.01c2.21-.07 4.19-1.433 5.04-3.474.66-1.6.552-3.36-.23-4.83m1.24 5.25c-.968 2.33-3.165 3.92-5.66 4.13l-5.68 13.71h-.01l-1.51 3.64c1.61 1.92 2.033 4.6 1.07 6.92-.93 2.244-3.01 3.82-5.43 4.11l-.93.11 1.62-3.9c.664-1.595.18-3.315-1.07-3.835s-2.81.36-3.47 1.95l-1.6 3.95-.574-.72c-1.54-1.926-1.91-4.53-.966-6.806.93-2.24 2.96-3.787 5.35-4.1l1.903-4.58h.01l5.41-13.05c-1.47-1.915-1.81-4.444-.88-6.68.73-1.76 2.403-3.44 4.07-4.084.88-.342 1.697-.36 2.356-.05l-1.63 3.837c-.66 1.59-.18 3.31 1.07 3.83s2.81-.35 3.47-1.945l1.64-3.796c.25.24.47.5.67.77l.09.11c1.33 1.87 1.63 4.31.73 6.484"/>
    <path fill="none" stroke="#fff" stroke-width="1.5" stroke-miterlimit="10" d="M279.214 132.776c0-4.694.105-8.5-4.59-8.5h-17.25c-4.694 0-4.625 3.807-4.625 8.5 0 4.694-.2 8.5 4.5 8.5h17.37c4.69 0 4.59-3.806 4.59-8.5z"/>
    <path fill="none" stroke="#fff" stroke-width="1.5" stroke-miterlimit="10" d="M266.798 125.485c0-4.694.105-8.5-4.59-8.5h-10.666l-6.584-6.5v6.5c-4.694 0-4.625 3.806-4.625 8.5s-.194 8.5 4.5 8.5h17.375c4.695 0 4.59-3.806 4.59-8.5zm-96.144-100.88c1.265-5.372 2.41-9.698-2.96-10.963l-12.206-2.874-5.74-7.492-1.794 5.718c-5.372-1.265-6.318 3.11-7.583 8.48-1.26 5.372-2.51 9.674 2.86 10.94l19.89 4.68c5.37 1.265 6.28-3.117 7.54-8.49z"/>
    <path d="M164.694 26.89l-20.36-4.794-.344 1.46 20.36 4.794zm.803-3.407l-20.36-4.794-.344 1.46 20.36 4.79zm.803-3.407l-20.36-4.794-.345 1.46 20.36 4.794z"/>
    <path fill="none" stroke="#fff" stroke-width="1.5" stroke-miterlimit="10" d="M278.1 165.887c-1.265-5.372-2.41-9.698 2.96-10.963l12.206-2.874 5.738-7.492 1.795 5.718c5.37-1.265 6.31 3.11 7.58 8.48 1.26 5.372 2.51 9.674-2.86 10.94l-19.88 4.68c-5.37 1.265-6.28-3.117-7.54-8.49z"/>
    <path d="M284.06 168.172l20.36-4.794.343 1.46-20.36 4.794zm-.803-3.407l20.36-4.794.344 1.46-20.36 4.8zm-.802-3.407l20.36-4.794.344 1.46-20.36 4.794z"/>
    <path fill="none" stroke="#fff" stroke-width="1.5" stroke-miterlimit="10" d="M199.282 123.49c.958-2.383-.196-5.09-2.578-6.05-2.382-.957-5.09.198-6.048 2.58-.958 2.382.197 5.09 2.578 6.047 2.382.958 5.09-.196 6.048-2.578z"/>
    <path d="M205.355 105.475c-.137-.444-.268-.864-.39-1.253 5.793 1.978 10.08 2.202 10.552 1.028.54-1.34-3.776-4.812-10.833-7.65-7.056-2.838-12.573-3.322-13.113-1.98-.47 1.18 2.81 4.006 8.41 6.602-.36.195-.74.408-1.15.634-5.9-2.823-9.56-6.003-8.81-7.865.88-2.17 7.36-1.48 15.07 1.63 7.72 3.11 12.88 7.09 12 9.27-.74 1.86-5.55 1.62-11.72-.4"/>
    <path d="M202.617 106.5c-.05-.544-.1-1.043-.145-1.5-.054-.54-.106-1.038-.148-1.43-.302.254-.683.577-1.097.93-.35.3-.732.626-1.147.985-4.436 3.836-12.045 10.722-13.324 13.902-1.757 4.37.368 9.355 4.737 11.112 4.37 1.75 9.355-.37 11.112-4.74 1.28-3.18.557-13.43.012-19.26m-11.632 25.26c-5.065-2.04-7.53-7.82-5.49-12.88 1.348-3.36 8.688-10.08 13.257-14.05l1.11-.96c1.43-1.23 2.416-2.04 2.567-2.16l.95-.79.15 1.23c.02.19.17 1.46.35 3.33l.14 1.45c.54 6.02 1.18 15.97-.17 19.32-2.04 5.06-7.82 7.53-12.88 5.49m174.66 24.43l-.01.87c-.04 5.17-.08 10.05-6.13 10.05l-20.43-.18c-2.31-.02-3.91-.78-4.87-2.3.52.11 1.08.17 1.7.18h.57c.59.36 1.41.6 2.61.61l20.5.17c4.27 0 4.49-2.94 4.53-8.57v-.88c.02-2.57.04-5-.57-6.64-.25-.66-.66-1.37-1.52-1.84-.07-.28-.15-.55-.25-.81-.15-.39-.34-.74-.54-1.07 1.83.4 3.05 1.45 3.71 3.19.71 1.9.69 4.47.67 7.18"/>
    <path d="M368.562 159.038l-.007.874c-.036 5.17-.07 10.056-6.128 10.055l-20.424-.175c-2.312-.02-3.91-.784-4.87-2.304.522.112 1.084.178 1.705.184l.57.005c.593.357 1.412.605 2.61.615l20.502.176c4.275 0 4.495-2.938 4.535-8.567l.007-.87c.022-2.57.044-5-.57-6.64-.248-.65-.654-1.36-1.515-1.84-.07-.28-.152-.55-.248-.8-.15-.39-.34-.74-.55-1.07 1.82.4 3.05 1.45 3.7 3.19.71 1.9.69 4.47.67 7.18"/>
    <path d="M360.41 146.416c-.03-.076-.066-.153-.1-.23-.27-.63-.702-1.282-1.578-1.706-.574-.277-1.333-.458-2.362-.467l-.696-.006-.052-.8-.118-1.83-.168-2.605-6.437 5.177-12.89-.11c-4.37 0-4.6 3.03-4.64 8.84l-.01.71c-.03 2.54-.05 4.94.56 6.56.24.64.64 1.34 1.5 1.81.44.24 1.01.42 1.74.49.23.02.48.05.75.05l20.5.17c4.28 0 4.49-2.94 4.53-8.57v-.88c.02-2.58.04-5.01-.57-6.64m2.07 6.65l-.01.87c-.04 5.17-.07 10.06-6.13 10.05l-19.86-.17-.57-.01c-.62-.01-1.18-.08-1.7-.19-1.82-.39-3.04-1.43-3.69-3.16-.71-1.88-.69-4.3-.66-7.11v-.71c.04-5.31.08-10.34 6.23-10.34l12.27.1 8.27-6.65.29 4.43.12 1.83.03.484c.56.05 1.07.147 1.54.29.59.18 1.1.44 1.55.78.43.33.79.73 1.09 1.2.21.33.39.68.54 1.07.1.26.18.53.25.81.46 1.79.44 4.03.42 6.38"/>
    <path d="M355.167 155.818h-18.333v1.5h18.333zM348 151.636h-11.167v1.5H348zm3.167-4.5h-14.333v1.5h14.333zM107.8 98.036l-.007.874c-.036 5.17-.07 10.056-6.128 10.055l-20.424-.175c-2.31-.02-3.9-.784-4.86-2.304.52.112 1.09.178 1.71.184l.57.005c.6.357 1.41.605 2.61.615l20.5.176c4.28 0 4.5-2.938 4.54-8.567l.01-.88c.03-2.57.05-5-.57-6.64-.24-.66-.65-1.37-1.51-1.84-.07-.28-.15-.55-.25-.81-.15-.4-.33-.75-.54-1.07 1.83.39 3.05 1.44 3.71 3.19.72 1.9.69 4.46.67 7.18"/>
    <path d="M110.716 100.885l-.006.874c-.037 5.17-.072 10.05-6.13 10.05l-20.423-.18c-2.31-.02-3.908-.79-4.868-2.31.52.11 1.08.18 1.7.18h.57c.59.35 1.41.6 2.61.61l20.5.17c4.27 0 4.49-2.94 4.53-8.57v-.88c.02-2.58.04-5.01-.57-6.64-.25-.66-.66-1.37-1.52-1.85-.07-.28-.15-.55-.25-.81-.15-.4-.34-.75-.55-1.07 1.83.39 3.05 1.44 3.71 3.19.71 1.9.69 4.46.66 7.18"/>
    <path d="M102.564 88.263c-.028-.076-.065-.153-.098-.23-.27-.63-.703-1.282-1.58-1.706-.573-.277-1.332-.458-2.36-.467l-.697-.006-.06-.8-.12-1.83-.17-2.605-6.44 5.17-12.89-.11c-4.37 0-4.6 3.03-4.65 8.85l-.01.71c-.02 2.54-.04 4.94.57 6.56.24.65.64 1.35 1.5 1.82.44.24 1.01.42 1.74.49.24.02.48.04.75.05l20.5.17c4.28 0 4.5-2.94 4.54-8.57v-.88c.02-2.58.04-5.01-.57-6.64m2.07 6.65l-.01.87c-.04 5.17-.07 10.06-6.13 10.05l-19.86-.17-.57-.01c-.62-.01-1.19-.07-1.71-.18-1.82-.39-3.04-1.43-3.69-3.16-.71-1.87-.69-4.3-.66-7.1v-.71c.04-5.31.08-10.34 6.23-10.34l12.27.1 8.27-6.65.29 4.43.12 1.83.03.48c.56.04 1.07.14 1.54.29.59.18 1.1.44 1.55.78.43.32.79.73 1.09 1.2.21.32.4.67.54 1.07.1.25.18.52.25.8.46 1.79.44 4.02.42 6.37"/>
    <path d="M97.32 97.665H78.99v1.5h18.33zm-7.166-4.183H78.987v1.5h11.167zm3.166-4.5H78.99v1.5h14.33zm207.97-52.577l16.558 7.676 9.246-19.94 1.018 1.37-9.534 20.57-19.28-8.94 9.48-20.44 1.71-.12zm20.322-22.145l.175.234-.462-.214z"/>
    <path d="M338.342 14.56c-.39-1.098-1.458-2.04-3.266-2.877l-20.15-9.342c-1.815-.84-3.23-1.04-4.33-.63-1.814.69-2.896 3.14-4.147 5.97-.27.61-.55 1.24-.85 1.88-1.18 2.55-2.24 4.78-2.85 6.07l6.74-.48 1.71-.12 10.11-.73.46.22 6.03 8.09 1.02 1.37 4.01 5.4c.62-1.37 1.69-3.75 2.7-5.92.31-.66.62-1.3.92-1.93 1.35-2.75 2.51-5.14 1.87-6.94m-1.43 9.5c-1.53 3.3-3.22 7.07-3.22 7.07l-.53 1.17-5.05-6.78-1.02-1.37-6.19-8.32-10.42.76-1.71.12-8.49.62.56-1.16s1.54-3.21 3.4-7.21c.29-.63.56-1.25.83-1.85 1.39-3.15 2.58-5.86 4.99-6.77 1.49-.56 3.29-.34 5.49.68l20.15 9.34c2.19 1.02 3.51 2.24 4.05 3.73.85 2.4-.45 5.05-1.94 8.11-.3.62-.61 1.25-.92 1.91"/>
    <path fill="none" stroke="#fff" stroke-width="1.5" stroke-miterlimit="10" d="M305.368 25.826l-4.408-8.907m22.326 17.21l9.646-2.39"/>
    <path d="M318.47 37.94l-12.59-5.836-.63 1.36 12.588 5.837zm2.085-4.5l-12.588-5.835-.63 1.36 12.587 5.837zm2.375-5.12l-12.588-5.837-.63 1.36L322.3 29.68zM217.823 165.23c-.312-.022-.832-.092-1.477-.338-2.464-.943-3.565-4.03-2.526-6.747.47-1.233 1.43-1.894 2.663-1.423 1.625.62 2.318 3.262 1.96 5.118zm6.17-11.515c-1.233-1.402-2.684-2.31-4.56-3.028-4.596-1.756-9.776.117-11.833 5.498-2.207 5.772-.107 12.292 6.114 14.67 4.876 1.863 9.46-.302 11.25-4.982 1.607-4.203.196-7.57-2.44-8.576-1.12-.428-2.445-.067-3.014 1.674l-.113-.04c-.35-2.03-1.327-3.33-3.008-3.97-1.63-.62-3.53.16-4.38 2.38-1.33 3.48.21 7.69 4.1 9.18 1.2.46 2.36.62 3.22.56l.98-5.43c.39-2.29 1.1-3.14 2.04-2.81 1.44.52 2.31 3.04 1.06 6.29-1.55 4.07-5.11 6.05-9.45 4.39-4.57-1.74-7.03-6.83-4.85-12.51 1.79-4.68 5.94-6.4 10.09-4.81 1.59.61 2.95 1.51 3.85 2.59zm55.65-52.245c-.312-.024-.832-.094-1.477-.34-2.464-.943-3.565-4.03-2.526-6.747.47-1.233 1.43-1.894 2.663-1.423 1.625.62 2.318 3.262 1.96 5.118zm6.17-11.517c-1.233-1.403-2.684-2.31-4.56-3.03-4.596-1.755-9.776.118-11.833 5.5-2.207 5.77-.107 12.29 6.114 14.67 4.876 1.862 9.46-.303 11.25-4.983 1.607-4.202.196-7.568-2.44-8.575-1.12-.428-2.445-.067-3.014 1.674l-.113-.05c-.35-2.03-1.327-3.34-3.008-3.98-1.63-.62-3.53.16-4.38 2.37-1.33 3.47.21 7.69 4.1 9.18 1.2.46 2.36.61 3.22.55l.98-5.44c.39-2.29 1.1-3.15 2.04-2.82 1.44.52 2.31 3.03 1.06 6.28-1.55 4.06-5.11 6.04-9.45 4.38-4.57-1.75-7.03-6.83-4.85-12.52 1.79-4.68 5.94-6.4 10.09-4.82 1.59.61 2.95 1.51 3.85 2.59zm-172.33-61.315l1.346-.64c.81-.386 1.78-.04 2.17.773l3.84 8.11c.38.82.04 1.79-.78 2.17l-1.35.64c-.82.39-1.79.04-2.18-.77l-3.85-8.11c-.39-.81-.04-1.78.78-2.17"/>
    <path d="M102.84 17.292l-.84.4.465.98.84-.4c2.47-1.17 5.426-.12 6.593 2.343l4.685 9.874 1.902-.91c1.982-.94 4.358-.1 5.296 1.88.94 1.98.09 4.35-1.89 5.29l-1.41.67.47.98 1.41-.67c2.53-1.2 3.61-4.22 2.41-6.74-1.19-2.52-4.22-3.6-6.74-2.4l-.92.43-4.21-8.9c-1.42-3.01-5.03-4.29-8.04-2.86m-11.57 21.9l-1.34.64c-.81.38-1.16 1.36-.77 2.17l3.85 8.1c.39.81 1.36 1.16 2.18.77l1.35-.64c.82-.39 1.17-1.36.78-2.17l-3.84-8.11c-.38-.81-1.35-1.16-2.17-.77"/>
    <path d="M97.26 22.09c-.395.19-.868.02-1.056-.374l-.522-1.102c-.187-.394-.018-.868.378-1.056l4.397-2.086c.395-.187.87-.02 1.057.376l.522 1.102c.187.394.018.867-.378 1.055zm2.732-5.6l-4.398 2.087c-.937.445-1.34 1.568-.895 2.504l.52 1.11c.44.94 1.57 1.34 2.5.89l4.4-2.08c.93-.44 1.34-1.56.89-2.5l-.53-1.1c-.45-.93-1.57-1.33-2.51-.89M116 29.12l-.984.464 4.324 9.113c3.04 6.402.29 14.09-6.13 17.133-6.42 3.047-14.11.314-17.15-6.09l-4.32-9.115-.982.468 4.322 9.11c3.294 6.94 11.637 9.9 18.597 6.6 6.96-3.3 9.944-11.64 6.65-18.58zm15.423 115.52l-.07-.103zm23.554 28.99c-2.335 0-4.688-1.167-6.45-3.4l-.033.03-17.07-25.62c1.09 1.614 3.19 3.725 4.622 4.39l13.52 20.455c1.526 1.806 3.502 2.75 5.455 2.75 1.6 0 3.18-.63 4.49-1.938l10.93-10.932-12.54-22.803.9-.9 13.24 23.875-11.83 11.83c-1.52 1.528-3.37 2.267-5.23 2.267"/>
    <path d="M144.486 123.12l-10.932 10.932c-3.163 3.163-2.914 8.557.554 12.025.34.34.704.64 1.077.92 1.648 1.225 3.58 1.847 5.456 1.848 2.04 0 4.01-.73 5.5-2.214l10.93-10.93-5.29-5.29-1-1zm-3.842 26.99c-.912 0-1.832-.127-2.733-.38-1.7-.475-3.33-1.388-4.7-2.755-3.96-3.963-4.21-10.164-.55-13.822l11.83-11.83 7.19 7.188 7.19 7.19-.9.9-10.93 10.93c-1.73 1.73-4.02 2.58-6.38 2.58m16.79 15.05l-8.84-13.45-1.04 1.05 8.84 13.45z"/>
    <path d="M156.602 165.992l-3.37-5.126 5.394-5.394 3.37 5.127zm.242-2.363l3.227-3.23-1.68-2.57-3.23 3.23zm10.158-37.07l-1.198-1.2-8.985 8.98 1.19 1.2zm2.462 6.2l-1.198-1.2-8.236 8.23 1.198 1.2zm2.826 2.82l-1.197-1.2-8.985 8.98 1.198 1.19z"/>
  </g>
</svg>
