<svg xmlns="http://www.w3.org/2000/svg" viewBox="0 0 92 154.795" style="max-width:56px; height:auto">
  <defs>
    <clipPath id="a">
      <path d="M0 116.096h69V0H0z"/>
    </clipPath>
  </defs>
  <g fill="#fff" clip-path="url(#a)" transform="matrix(1.33333 0 0 -1.33333 0 154.795)">
    <path d="M38.14 48.66c.95.464 1.65 1.01 1.65 1.61 0 .6-.278.945-.726 1.34-.45.397-1.067.442-1.748.442H32.74c-.68 0-1.3-.046-1.748-.44-.45-.397-.727-.843-.727-1.443 0-.6.95-1.3 1.65-1.5.84-.31 3.112-.62 3.112-.62s2.12.292 3.11.6m-16.14 27.47c-.436 0-.846-.27-1.208-.73-.5.543-.91 1.01-.91 1.01s.27-.71.61-1.45c-.1-.175-.2-.37-.29-.58-.77.792-1.6 1.745-1.6 1.745s.72-1.88 1.26-2.675c-.33-1.09-.52-2.43-.52-3.89 0-3.625 1.18-6.565 2.64-6.565 1.46 0 2.646 2.94 2.646 6.566s-1.186 6.567-2.647 6.567"/>
    <path d="M66 6.633c-4-1.125-7.53-1.975-12.038-2.57.03.422.055.864.055 1.333 0 2.338-.416 4.232-.93 4.232-.516 0-.932-1.894-.932-4.232 0-.548.025-1.068.067-1.55C47.232 3.28 41.608 3 35.192 3c-7.48 0-14.286.53-20.394 1.552.06.56.096 1.18.096 1.844 0 2.338-.417 4.232-.932 4.232-.514 0-.932-1.894-.932-4.232 0-.547-.088-1.065-.047-1.545C9.44 5.52 6 6.35 3 7.37v3.084c0 7.694 3.35 14.845 8.67 19.95 5.927-5.784 14.218-9.076 22.892-9.076 8.683 0 16.943 3.295 22.87 9.086C62.706 25.2 66 17.994 66 10.444zM34.21 34.1c4.188 0 8.14 1.325 11.632 3.66l-.115-.4c3.497-1.01 6.698-2.734 9.485-4.96-5.358-5.153-12.77-8.08-20.593-8.08-7.8 0-15.19 2.91-20.54 8.027 2.75 2.117 5.91 3.754 9.39 4.727l-.04.136c3.27-1.99 6.92-3.11 10.77-3.11M10.66 67.31c0 2.68.256 5.284.74 7.77 1.163.5 3.11 1.505 3.642 1.952.96.804 2.18 2.05 2.886 3.082.42.614 3.845 5 3.845 5s.728-3.857 1.013-4.687c.03-.082.077-.375.12-.375h-3.89c-.51 0-.927-.49-.927-1s.41-1 .92-1h5.16c.56 0 1.176-1.073 1.653-1.358 1.403-.84 4.476-1.714 6.103-1.856 1.273-.112 5.76-.43 7.876-.226 3.707.354 5.56 1.19 5.56 1.19s-2.65 2.225-3.06 2.8c-.547.763-1.876 2.538-2.283 3.257-.254.45-1.2 2.52-1.2 2.52s2.18-.41 3.6-1.38c.62-.426 1.82-.95 3.07-2.95h-2c-.51 0-.928-.49-.928-1s.417-1 .926-1h3.63c.45 0 .89-.68 1.38-1.18.34-.338.71-.548 1.09-.827-.38-.423-.93-.99-1.424-1.478-.05.112-.11.24-.17.34.34.747.628 1.493.628 1.493s-.413-.47-.92-1.025c-.366.475-.78.75-1.223.75-1.46 0-2.645-2.938-2.645-6.564s1.185-6.565 2.646-6.565c1.46 0 2.648 2.94 2.648 6.566 0 1.555-.22 2.98-.58 4.104.044.048.1.105.132.145.36.45.825 1.506 1.11 2.192.69-.477 1.435-.854 2.25-1.056 1.344-.334 2.965-.94 4.812-1.188.128-.018.274-.03.418-.045.325-2.07.5-4.212.5-6.408 0-17.21-10.56-31.21-23.54-31.21-12.98 0-23.543 14-23.543 31.21m37.65-27.66c6.88 5.95 11.43 16.12 11.43 27.66 0 2.16-.166 4.27-.47 6.32 1.02-.01 1.97.03 2.324.08.82.13 2.845.69 2.845.69s-1.127 1.334-1.6 2.097c-.81 1.313-1.53 3.23-2.196 4.73-.67 1.5-1.35 2.7-2.19 4.75-.8 1.95-1.72 3.52-2.275 4.517-.62 1.12-3.3 4.435-3.99 5.19-.553.61-2.74 2.485-3.84 3.36 2.487 1.8 3.98 4.11 3.98 6.623 0 5.755-7.815 10.42-17.46 10.42-9.64 0-17.455-4.66-17.455-10.415 0-2.315 1.28-4.446 3.42-6.175-.87-.61-1.682-1.254-2.37-1.91-1.538-1.46-3.817-3.73-4.92-5.54-.91-1.49-2.014-3.455-3.062-5.73-.57-1.23-1.47-3.645-1.79-4.52-.52-1.43-1.407-3.055-1.73-3.646-.21-.38-.73-1.5-1.334-2.168-.518-.573-1.814-1.814-1.814-1.814s1.26-.344 2.04-.334c.78.01 1.51.05 2.15.156.364.06.785.17 1.22.298-.375-2.253-.576-4.59-.576-6.99 0-11.777 4.63-22.136 11.76-28.033C8.364 34.93 0 23.387 0 10.447v-5.21l1.11-.353C10.195 1.644 21.68 0 35.134 0 49.196 0 59.64 1.31 67.957 4.124L69 4.47v5.976c0 12.886-8.596 24.863-20.68 29.203"/>
  </g>
</svg>
