<svg xmlns="http://www.w3.org/2000/svg" viewBox="0 0 762.667 184.988">
  <defs>
    <clipPath id="a">
      <path d="M0 138.74h572V0H0z"/>
    </clipPath>
  </defs>
  <g clip-path="url(#a)" transform="matrix(1.33333 0 0 -1.33333 0 184.988)" fill="#fff" opacity=".4">
    <path fill-rule="evenodd" d="M478.267 106.762c-.554-1.886-1.762-4.225-3.364-6.41 1.198-.952 2.25-1.91 3.016-2.843 2.69 1.74 4.77 4.43 5.81 7.78zm5.83-.11c.773 3.425.32 6.792-1.142 9.653-1.13-.424-2.52-.73-4.033-.953.25-2.682.14-5.267-.292-7.234zM470.303 95.29c2.257-.074 4.445.502 6.414 1.524-.69.863-1.57 1.73-2.612 2.54-1.093-1.547-2.388-2.943-3.802-4.065m11.96 22.21c-1.195 1.87-2.802 3.46-4.78 4.57.63-1.62 1.086-3.54 1.303-5.44 1.308.18 2.505.49 3.476.86m-15.325-21.94c.453-.12.917-.2 1.438-.24 1.712 1.33 3.33 3.03 4.688 4.84-1.39.95-2.887 1.69-4.31 2.17zm3.56 13.28l-1.368-5.11c1.51-.51 3.15-1.43 4.67-2.61 1.39 1.95 2.47 3.98 3.11 5.99zm.363 1.35l6.415-1.72c.48 2.14.55 4.4.306 6.74-1.91-.27-3.79-.24-5.35.08zm1.742 6.5c1.516-.31 3.24-.38 4.875-.24-.3 2.31-.922 4.51-1.694 6.51-.472.22-.912.39-1.365.51zm-5.205-14c-1.47.29-3.136.4-4.817.27.267-2.25.82-4.53 1.636-6.54.474-.23.913-.39 1.365-.51zm5.666 21.14c-.452.12-.916.19-1.437.24-1.667-1.35-3.307-2.94-4.72-4.79 1.344-.95 2.874-1.74 4.34-2.23zm-10.34-12.92c-.452-2.06-.537-4.36-.305-6.75 1.91.27 3.794.25 5.354-.07l1.368 5.1zm8.148 4.74c-1.51.5-3.15 1.42-4.67 2.6-1.38-1.91-2.45-3.9-3.11-6l6.42-1.72zm-13.13-13.77c1.2-1.87 2.81-3.47 4.8-4.53-.66 1.68-1.08 3.53-1.26 5.42-1.31-.19-2.5-.49-3.53-.9m11.98 22.26c-2.27.02-4.46-.55-6.42-1.57.66-.81 1.54-1.68 2.58-2.49 1.14 1.53 2.49 2.96 3.85 4.05m-13.81-11.41c-.77-3.43-.31-6.79 1.15-9.65 1.13.42 2.52.73 4.04.95-.29 2.69-.17 5.32.3 7.23zm5.84-.11c.61 1.92 1.81 4.21 3.37 6.41-1.2.95-2.25 1.91-3.01 2.84-2.69-1.75-4.77-4.44-5.81-7.79zm12.39 12.42c8.59-2.3 13.55-10.89 11.25-19.48-2.3-8.58-10.9-13.54-19.48-11.24-8.58 2.3-13.54 10.89-11.24 19.48 2.3 8.58 10.9 13.54 19.48 11.24"/>
    <path d="M378.083 65.735c-7.18 0-13-5.82-13-13s5.82-13 13-13 13 5.82 13 13-5.82 13-13 13m0-1.5c6.34 0 11.5-5.16 11.5-11.5s-5.16-11.5-11.5-11.5-11.5 5.16-11.5 11.5 5.16 11.5 11.5 11.5"/>
    <path d="M378.083 61.417c-4.795 0-8.682-3.887-8.682-8.682s3.89-8.683 8.69-8.683 8.68 3.888 8.68 8.683-3.88 8.682-8.68 8.682m0-1.5c3.96 0 7.18-3.222 7.18-7.182 0-3.96-3.22-7.183-7.18-7.183s-7.18 3.222-7.18 7.183c0 3.96 3.23 7.182 7.19 7.182"/>
    <path d="M377.927 48.678c-2.013 0-3.65 1.638-3.65 3.65h-1.5c0-2.844 2.305-5.15 5.15-5.15.012 0 .022.003.034.003v1.5h-.03m-8.53-4.91c-.98 0-1.83-.36-2.3-1.09l-8.49-13.02c-.88-1.35-.08-3.44 1.8-4.66.88-.57 1.83-.85 2.69-.85.98 0 1.84.37 2.31 1.09l8.5 13.02c.88 1.36.08 3.44-1.79 4.66-.87.57-1.82.85-2.68.85m0-1.5c.61 0 1.27-.21 1.87-.6 1.22-.79 1.72-2.02 1.36-2.58l-8.49-13.02c-.24-.36-.81-.4-1.05-.4-.6 0-1.26.22-1.86.61-.63.42-1.12.99-1.35 1.57-.07.2-.22.69 0 1.03l8.49 13.02c.24.37.82.41 1.05.41"/>
    <path fill="none" stroke="#fff" stroke-width="1.5" stroke-miterlimit="10" d="M124.768 117.64c.958-2.382-.196-5.09-2.578-6.048-2.382-.958-5.09.197-6.048 2.58-.958 2.38.197 5.088 2.578 6.046 2.382.958 5.09-.196 6.048-2.578z"/>
    <path d="M130.84 99.626c-.136-.444-.267-.864-.39-1.253 5.794 1.978 10.08 2.202 10.553 1.028.54-1.34-3.776-4.81-10.833-7.65-7.056-2.83-12.573-3.32-13.113-1.98-.474 1.18 2.81 4.01 8.41 6.61-.36.2-.747.41-1.154.64-5.898-2.82-9.566-6-8.817-7.86.876-2.18 7.355-1.48 15.07 1.62 7.717 3.11 12.875 7.09 12 9.27-.747 1.86-5.555 1.62-11.725-.4"/>
    <path d="M128.102 100.65c-.05-.543-.1-1.042-.145-1.5-.054-.54-.106-1.037-.148-1.43-.31.255-.69.578-1.1.93l-1.15.986c-4.44 3.836-12.05 10.722-13.33 13.902-1.76 4.37.37 9.355 4.73 11.112 4.37 1.758 9.35-.367 11.11-4.737 1.28-3.18.55-13.423.01-19.262m-11.63 25.27c-5.07-2.04-7.53-7.81-5.49-12.88 1.34-3.35 8.68-10.08 13.25-14.05l1.11-.96c1.43-1.22 2.41-2.03 2.56-2.16l.96-.78.14 1.23c.02.2.17 1.46.35 3.33l.14 1.46c.55 6.03 1.19 15.97-.16 19.33-2.04 5.07-7.82 7.53-12.89 5.5"/>
    <path fill="none" stroke="#fff" stroke-width="1.5" stroke-miterlimit="10" d="M528.61 101.314c.006-2.72-2.194-4.93-4.915-4.937-2.72-.006-4.93 2.194-4.937 4.915-.006 2.72 2.194 4.93 4.915 4.937 2.72 0 4.93-2.2 4.937-4.92z"/>
    <path d="M525.212 83.286c-.264-.516-.508-.987-.733-1.42-.27-.51-.52-.98-.71-1.348-.2.37-.45.837-.72 1.346-.23.433-.48.905-.74 1.42-2.86 5.52-7.64 15.287-7.65 18.92-.01 4.99 4.04 9.06 9.03 9.07 4.99.013 9.06-4.04 9.07-9.03 0-3.632-4.73-13.427-7.57-18.958m-1.51 29.43c-5.79-.012-10.49-4.73-10.47-10.516.01-3.83 4.58-13.335 7.52-19.038.25-.49.49-.952.71-1.38.92-1.765 1.57-2.953 1.67-3.133l.63-1.16.62 1.15c.1.18.74 1.37 1.66 3.13.22.42.46.89.71 1.38 2.91 5.71 7.45 15.25 7.44 19.08-.02 5.78-4.73 10.48-10.52 10.47"/>
    <path fill="none" stroke="#fff" stroke-width="1.5" stroke-miterlimit="10" d="M564.866 129.765c.005-2.14-1.727-3.88-3.87-3.886-2.14-.01-3.88 1.72-3.885 3.86 0 2.14 1.73 3.88 3.87 3.88s3.88-1.73 3.89-3.87z"/>
    <path d="M562.19 115.574c-.208-.406-.4-.777-.577-1.118-.21-.4-.403-.77-.557-1.06-.155.29-.35.658-.56 1.06-.18.34-.374.71-.584 1.117-2.25 4.344-6.01 12.033-6.018 14.892-.01 3.93 3.18 7.132 7.108 7.14 3.93.01 7.132-3.18 7.14-7.107.007-2.86-3.723-10.57-5.952-14.924M561 138.74c-4.555-.01-8.252-3.723-8.242-8.277.007-3.016 3.61-10.497 5.92-14.986l.565-1.087c.728-1.39 1.24-2.324 1.32-2.466l.5-.907.494.91c.078.14.586 1.077 1.307 2.468.174.336.36.7.557 1.086 2.29 4.5 5.87 12.01 5.86 15.02-.01 4.56-3.72 8.25-8.28 8.24m-94.06-97.97H461v7.94h5.937zm10 0H471v8.94h5.937zm10.07 0h-5.93v12.94H487zm9.75 0h-5.93v19.94h5.94z"/>
    <path fill="none" stroke="#fff" stroke-width="1.5" stroke-miterlimit="10" d="M461 52.766c15.625 0 28.062 5.937 32.78 18.562"/>
    <path d="M494.807 73.895l-.014.074-6.928-4.14.928-1.55 4.802 2.87.994-5.4 1.65.3z"/>
    <path fill="none" stroke="#fff" stroke-miterlimit="10" d="M561.232 111.33h-1.5"/>
    <path fill="none" stroke="#fff" stroke-miterlimit="10" d="M556.674 111.33h-11.84c-4.584 0-4.96-5.584 0-5.584h21.25c6.166 0 6.666-8.96.416-8.96h-19.792c-6 0-6.958-9.04-.04-9.04h15.54c6.21 0 6.792-9.98-.666-9.98H528.14" stroke-dasharray="3.054 3.054"/>
    <path fill="none" stroke="#fff" stroke-miterlimit="10" d="M526.62 77.766h-1.495"/>
    <path fill-rule="evenodd" d="M351.322 117.68l-2.317-32.223-1.616.053 2.31 32.223zm-22.397 8.35L311.11 95.614l-1.424.767 17.816 30.42z"/>
    <path fill-rule="evenodd" d="M347.21 120.29l-32.796-5.494-.247 1.595 32.795 5.5z"/>
    <path fill-rule="evenodd" d="M331.802 127.49l26.602-24.25-1.152-1.13-26.602 24.248z"/>
    <path d="M313.995 87.09c.276.44.57.864.89 1.265l-3.053 2.832c-.29-.437-.653-.804-1.077-1.092zm36.093-1.48c.465-.245.882-.554 1.243-.914l7.07 12.214c-.5.177-.94.44-1.32.774zm-10.103-5.124c.033-.513.038-1.03.012-1.548l2.738.41c-.165.48-.26.988-.278 1.507zm6.8 44.09l-13.772 4.14c-.026-.24-.068-.482-.14-.72-.08-.264-.185-.513-.31-.747l13.634-4.1c.02.08.037.17.063.25.127.42.31.81.526 1.17m-37.776-14.12l-.985-13.13c.5.06 1.016.02 1.53-.12l.974 13.01c-.5 0-1 .07-1.5.22l-.02.01m4.74 9.04c.41-.33.77-.71 1.06-1.14l11.68 7.71c-.41.33-.74.73-.98 1.19zm45.44-14.89l-5.09 12.94c-.43-.28-.9-.5-1.4-.65l5.03-12.79c.44.25.94.42 1.45.48"/>
    <path d="M328.332 126.804c-.16.048-.31.112-.453.19-.48.255-.85.66-1.07 1.135-.25.52-.32 1.14-.14 1.74.39 1.29 1.77 2.02 3.07 1.63 1.05-.32 1.73-1.29 1.74-2.34 0-.25-.02-.49-.1-.73-.08-.28-.22-.52-.38-.73-.6-.82-1.67-1.22-2.7-.91m4.68 1.91c.2 1.87-.94 3.69-2.82 4.26-2.11.64-4.35-.56-4.99-2.66-.32-1.05-.18-2.14.31-3.04.24-.45.57-.86.97-1.19.4-.33.86-.59 1.39-.75 1.84-.56 3.79.28 4.67 1.91.12.23.23.48.31.74.07.23.11.48.14.72m-23.42-37.54c-.54-.27-1.18-.34-1.8-.15-1.31.39-2.05 1.76-1.65 3.06.25.85.95 1.46 1.76 1.66.42.1.87.11 1.31-.03.08-.02.15-.06.22-.09 1.16-.48 1.8-1.76 1.43-2.97-.04-.15-.1-.29-.17-.42-.25-.48-.64-.85-1.1-1.07m.07 6.01c-.04.01-.07.01-.11.02-.51.14-1.03.17-1.53.11-1.53-.19-2.88-1.24-3.35-2.8-.64-2.11.56-4.34 2.67-4.98 1.2-.37 2.44-.12 3.4.54.42.28.78.65 1.07 1.09.2.31.39.65.5 1.02.63 2.11-.57 4.34-2.68 4.98m49.52 1.08l-.18.03c-.46.14-.85.4-1.14.74-.54.62-.77 1.48-.51 2.32.16.55.51.99.96 1.3.42.29.94.45 1.47.43.21-.01.42-.03.63-.09 1.3-.39 2.04-1.77 1.65-3.06-.37-1.24-1.64-1.95-2.89-1.67m1.68 6.2c-.56.17-1.13.2-1.67.13-.52-.07-1.01-.23-1.46-.49-.86-.48-1.55-1.28-1.86-2.3-.47-1.54.05-3.13 1.19-4.14.37-.34.82-.6 1.32-.77.05-.02.1-.05.16-.07 2.11-.64 4.35.55 4.98 2.66.63 2.1-.57 4.34-2.68 4.97m-8.72 13.88c-.63-.16-1.3-.17-1.97.03-1.86.56-2.93 2.46-2.51 4.32.02.09.02.17.05.25.13.43.34.81.6 1.15.9 1.18 2.47 1.75 3.98 1.29 1.94-.59 3.04-2.64 2.46-4.57-.23-.74-.67-1.36-1.24-1.81-.4-.32-.88-.55-1.38-.68m.61 8.52c-2.33.71-4.77-.3-5.96-2.29-.22-.36-.4-.75-.53-1.17-.03-.08-.05-.17-.07-.25-.67-2.67.88-5.43 3.54-6.23 1.01-.31 2.03-.29 2.97-.01.5.14.97.36 1.4.64.98.64 1.75 1.62 2.12 2.83.83 2.74-.73 5.65-3.48 6.48m-6.15-49.37c-1.08.33-1.89 1.12-2.3 2.08-.21.47-.31.98-.3 1.51 0 .33.04.66.14.99.58 1.93 2.64 3.03 4.58 2.44.21-.06.4-.15.59-.25.47-.24.88-.57 1.2-.97.73-.92 1.02-2.16.66-3.36-.59-1.93-2.64-3.03-4.58-2.44m4.73 7.19c-.36.36-.78.67-1.24.91-.29.15-.6.28-.93.38-2.75.83-5.66-.72-6.49-3.47-.17-.56-.24-1.12-.22-1.67.02-.52.11-1.03.28-1.51.53-1.53 1.75-2.8 3.42-3.31 2.75-.84 5.66.72 6.5 3.46.57 1.9 0 3.88-1.32 5.19m-40.69 27.08c-.38-.01-.78.02-1.17.14-.12.04-.23.1-.34.14-1.72.72-2.66 2.62-2.11 4.43.59 1.94 2.64 3.03 4.58 2.44.28-.08.53-.21.78-.35.47-.28.85-.65 1.16-1.08.62-.89.86-2.03.52-3.15-.47-1.54-1.87-2.53-3.41-2.58m4.18 6.59c-.3.43-.66.81-1.07 1.14-.5.39-1.07.7-1.71.9-2.75.83-5.66-.73-6.49-3.47-.83-2.74.72-5.64 3.46-6.48l.02-.01c.5-.15 1.01-.22 1.5-.22 2.24-.01 4.32 1.44 4.99 3.69.48 1.57.17 3.19-.7 4.45m12.71-34.63l-2.42.73.74-4.22-4.79-4.91 2.67-4.13 4.52 1.96-1.26 6.74 2.96 3.1zm.61 18.81c-.54.17-1.29-.69-1.66-1.92-.37-1.23-.23-2.36.31-2.526.55-.16 1.29.7 1.66 1.93.38 1.23.24 2.36-.31 2.53m9.14-2.77c-.55.16-1.29-.7-1.66-1.93-.37-1.23-.23-2.36.31-2.52.54-.17 1.29.69 1.66 1.92.37 1.23.23 2.36-.31 2.52m-7.21 5.27l-1.9.58c-.37.11-.76-.1-.87-.46-.11-.37.1-.75.47-.865l1.89-.57c.37-.12.75.09.86.45.11.362-.1.75-.47.86m8.97-2.71l-1.9.57c-.37.11-.76-.096-.87-.46-.11-.36.1-.75.47-.86l1.89-.57c.37-.11.75.09.86.456.11.367-.1.75-.47.86m-17.04-2.06c-.21.38-.29.99-.09 1.665.21.68.61 1.14 1 1.33zm1.27 4.2l-.02-.064c-.98-.02-1.95-.87-2.34-2.17-.39-1.3-.06-2.55.75-3.11l-.32-1.06 1-.31 1.94 6.4c.26.854.64 1.64 1.11 2.343l-1.03.32c-.45-.72-.83-1.5-1.08-2.35m17.97-10.03l.91 3.02c.22-.38.31-.99.1-1.68-.21-.68-.62-1.15-1.01-1.34m1.25 4.15l.02.06c.26.85.38 1.71.41 2.56l-1.04.32c0-.85-.113-1.71-.37-2.57l-1.94-6.4 1.01-.3.32 1.06c.99.01 1.96.87 2.36 2.17.39 1.31.056 2.56-.763 3.115"/>
    <path d="M339.998 78.938c.025.52.02 1.035-.012 1.548-.138 2.124-.767 4.173-1.806 5.998-.306-.28-.75-.4-1.18-.27-.123.037-.23.096-.33.163-.012-.048-.015-.097-.03-.145-.01-.035-.028-.066-.04-.1 1.088-1.76 1.745-3.778 1.855-5.874.028-.514.03-1.032-.01-1.552-.066-.872-.22-1.75-.483-2.62l-1.632-5.392c-8.69-2.673-18.258.228-24 7.262l1.632 5.394c.29.958.698 1.845 1.187 2.67.26.45.55.877.87 1.283 1.29 1.663 3 2.95 4.91 3.773-.57.182-.91.735-.84 1.302-2.02-.906-3.82-2.273-5.21-4.022-.32-.402-.62-.825-.89-1.265-.63-1-1.16-2.1-1.52-3.29l-1.86-6.15.24-.31c3.1-3.93 7.3-6.71 11.92-8.11 4.56-1.38 9.52-1.42 14.23.08l.56.18 1.86 6.16c.33 1.1.5 2.2.55 3.3"/>
    <path d="M329.818 90.883l-.176.054c-1.42.444-2.266.86-2.703 1.11-.25.14-.37.23-.38.24-.23.177-.27.502-.1.727.17.223.5.264.73.09.02-.018.77-.563 2.75-1.18 1.95-.615 2.88-.536 2.89-.536.28.027.54-.184.57-.465.03-.282-.18-.534-.46-.564-.05-.01-.29-.02-.7.01-.52.04-1.32.17-2.44.51m11.22-.68c.19.63-.08 1.28-.61 1.64.03.1.08.2.11.31l.03.1-1.01.3-.03-.1c-.04-.13-.09-.25-.14-.38-.19-.03-.36-.08-.52-.17-.14.32-.41.59-.78.7-.39.11-.79.03-1.09-.19-.12.5-.49.93-1.02 1.09-.63.19-1.28-.06-1.64-.56-.16.67-.66 1.25-1.38 1.46-.47.14-.94.1-1.36-.08-.16.3-.41.54-.74.69-.36.06-.7 0-1-.17-.25.37-.62.67-1.09.81-.72.21-1.45.01-1.96-.46-.02.61-.42 1.18-1.05 1.37-.53.16-1.08.01-1.45-.35-.13.35-.41.64-.79.76-.37.11-.74.04-1.04-.16-.08.16-.2.3-.34.42.03.13.05.26.09.39l.03.1-1 .3-.03-.1c-.03-.11-.05-.21-.08-.32-.64 0-1.22-.4-1.41-1.03-.11-.37-.07-.74.09-1.06-.32-.21-.57-.53-.69-.92-.25-.83.16-1.69.93-2.05l-.01-.02c-.02-.07-.03-.14-.04-.2-.07-.57.27-1.12.84-1.3l.02-.01c.12-.04.24-.05.36-.05-.02-.05-.04-.09-.06-.14-.23-.77.21-1.59 1-1.83.1-.03.2-.05.3-.06-.08-.92.49-1.8 1.42-2.08.37-.11.74-.11 1.09-.02.02-.61.43-1.16 1.05-1.35.31-.09.61-.07.9.02.02-.44.32-.84.77-.98.43-.13.88.01 1.15.34.17-.2.4-.37.68-.45.62-.19 1.26.05 1.62.54.23-.27.54-.48.91-.59.93-.28 1.9.13 2.34.94.09-.05.18-.09.28-.12.75-.23 1.53.16 1.81.87.01.03.03.06.04.1.02.04.02.09.03.14.1-.07.21-.13.33-.16.43-.13.88-.01 1.18.27.15.14.28.32.34.53v.02c.84-.13 1.66.36 1.91 1.19.12.39.08.79-.07 1.15.31.18.55.46.66.83M335.69 111c-4.445 1.35-9.09-.51-11.414-4.22l1.03-.316c1.333 1.99 3.43 3.35 5.77 3.79-.046-.22.082-.45.31-.52.24-.07.496.06.57.3.035.12.006.24-.05.34 1.135.11 2.313 0 3.475-.35 1.17-.35 2.21-.92 3.1-1.646-.1-.058-.18-.14-.22-.258-.07-.24.07-.496.31-.57.23-.07.45.044.54.25 1.69-1.665 2.68-3.947 2.69-6.33l1.04-.317c.12 4.38-2.71 8.5-7.16 9.845"/>
    <path d="M326.835 107.6c-.242.073-.498-.06-.57-.3-.072-.238.066-.493.308-.566.242-.073.498.062.57.3.072.24-.067.493-.308.566m2.395-.725c-.242.073-.497-.062-.57-.3-.072-.238.067-.493.308-.566.243-.08.498.06.57.3.072.23-.065.49-.308.56m2.396-.73c-.242.07-.498-.07-.57-.3-.072-.24.066-.5.308-.57.242-.08.498.06.57.3.072.24-.067.49-.308.56m2.396-.73c-.24.07-.497-.06-.57-.3-.072-.24.067-.49.308-.57.242-.08.498.06.57.3.072.24-.066.49-.308.56m2.396-.73c-.242.07-.498-.06-.57-.3-.072-.24.066-.49.308-.56.242-.08.498.06.57.3.072.24-.066.49-.308.56m2.394-.73c-.24.07-.497-.07-.57-.3-.072-.24.067-.5.308-.57.243-.08.498.06.57.3.072.24-.065.49-.308.56m2.396-.72c-.242.07-.498-.07-.57-.3-.072-.24.067-.5.308-.57.242-.07.498.06.57.3.072.24-.067.49-.308.57m-12.708 5.4c-.24.07-.497-.07-.57-.3-.07-.24.067-.5.31-.57.24-.08.497.06.57.3.07.23-.067.49-.31.56m2.397-.73c-.242.07-.498-.06-.57-.3-.072-.24.066-.49.308-.57.242-.07.497.06.57.3.072.24-.066.49-.308.57m2.396-.72c-.242.08-.498-.06-.57-.3-.072-.23.066-.49.308-.56.25-.07.5.06.57.3.08.24-.06.5-.3.57m2.4-.72c-.24.07-.5-.06-.57-.3-.07-.24.07-.49.31-.57.25-.08.5.06.57.3.08.24-.06.49-.3.56m2.4-.73c-.24.07-.5-.06-.57-.3-.07-.24.07-.5.31-.57.25-.08.5.06.57.3.08.23-.06.49-.3.56m2.4-.73c-.24.07-.5-.06-.57-.3-.07-.24.07-.5.31-.57.24-.07.5.06.57.3.07.24-.07.49-.31.57m-10.42 4.62c-.24.07-.49-.06-.57-.3-.07-.24.07-.49.31-.57.24-.07.5.06.57.3.07.24-.07.49-.31.57m9.59-2.9c-.24.07-.5-.06-.57-.3-.07-.24.07-.49.31-.57.25-.07.5.06.57.3.08.24-.06.49-.3.57m-5.52 3.2c-.24.08-.5-.06-.57-.3-.07-.23.07-.49.31-.56.24-.07.5.06.57.3.07.24-.06.49-.31.56m2.4-.73c-.24.07-.5-.06-.57-.3-.07-.24.07-.49.31-.57.24-.07.5.07.57.3.07.24-.07.5-.31.57m-4.06-.29c-.24.07-.5-.06-.57-.3-.07-.24.07-.49.31-.56.24-.07.49.06.57.3.07.24-.07.49-.31.56m2.4-.73c-.24.07-.49-.06-.57-.3-.07-.24.07-.49.31-.57.24-.08.5.06.57.3.07.24-.06.49-.31.57m2.4-.72c-.24.07-.49-.07-.57-.3-.07-.24.07-.5.31-.57.25-.07.5.06.57.3.08.24-.06.49-.3.57M162.77 64.5c8.21-5.525 19.11-5.53 27.33 0v6.14c0 7.43-6.13 13.48-13.66 13.48s-13.66-6.05-13.66-13.48zm13.67-5.81c-5.26 0-10.51 1.568-14.99 4.697l-.35.25v7.004c0 8.35 6.89 15.14 15.35 15.14S191.8 79 191.8 70.65v-7.01l-.53-.36c-4.44-3.06-9.63-4.58-14.82-4.58"/>
    <path d="M176.773 75.38h-2.76l2.112-4.166-3.444-6.64 4.1-3.47 4.09 3.47-3.44 6.64 2.12 4.166zm-5.3 19.82c-.62 0-1.124-1.136-1.124-2.536 0-1.4.5-2.533 1.12-2.533.62 0 1.12 1.14 1.12 2.54s-.51 2.54-1.13 2.54m10.4 0c-.62 0-1.13-1.13-1.13-2.53s.5-2.53 1.12-2.53 1.13 1.13 1.13 2.53-.51 2.54-1.13 2.54m-9.19 3.23h-2.16c-.42 0-.76-.33-.76-.75s.34-.75.76-.75h2.15c.42 0 .76.34.76.75 0 .42-.34.76-.76.76m10.21 0h-2.16c-.42 0-.76-.33-.76-.75s.34-.75.76-.75h2.16c.42 0 .76.34.76.75s-.34.75-.76.75m-17.11-7.54c-.35.33-.62.94-.62 1.71s.27 1.38.62 1.71zm0 4.78v-.08c-1.02-.32-1.76-1.52-1.76-3s.74-2.67 1.76-3V88.4h1.14v7.285c0 .98.15 1.91.42 2.8h-1.18c-.25-.89-.39-1.822-.39-2.79m21.92-4.797v3.437c.35-.326.64-.94.64-1.72s-.28-1.395-.64-1.72m0 4.724v.07c0 .97-.15 1.91-.39 2.8h-1.18c.27-.89.42-1.82.42-2.79v-7.3h1.14v1.2c1.03.32 1.77 1.52 1.77 3s-.75 2.68-1.78 3.01M180.35 84c-.11-.047-1.13-.445-3.44-.445h-.2c-2.526.025-3.595.42-3.64.437-.294.113-.44.438-.33.73.116.29.44.432.737.323.03-.01.987-.34 3.243-.362 2.23-.023 3.18.353 3.188.356.29.11.625-.02.745-.31s-.012-.61-.3-.73m8.477 2.39c0 .72-.486 1.32-1.148 1.52.003.12.017.23.017.35v.11h-1.15v-.12c0-.15-.02-.29-.02-.43-.18-.09-.35-.2-.49-.34-.25.29-.61.48-1.03.48-.44 0-.83-.22-1.07-.54-.28.48-.8.82-1.41.82-.72 0-1.32-.47-1.53-1.1-.38.65-1.08 1.1-1.9 1.1-.54 0-1.02-.2-1.4-.51-.26.26-.6.44-.99.48-.39-.05-.74-.22-.99-.49-.38.31-.86.5-1.39.5-.82 0-1.52-.44-1.9-1.1-.22.63-.82 1.1-1.53 1.1-.61 0-1.13-.33-1.41-.82-.25.32-.63.53-1.07.53-.42 0-.79-.2-1.03-.49-.14.14-.3.25-.49.34-.01.14-.03.28-.03.43v.11h-1.14v-.12c0-.12.01-.24.02-.36-.66-.2-1.15-.8-1.15-1.52 0-.42.16-.79.43-1.08-.27-.32-.43-.73-.43-1.17 0-.95.7-1.72 1.62-1.85l-.01-.03c0-.73.6-1.32 1.33-1.32.14 0 .27.03.39.06-.01-.06-.02-.11-.02-.16 0-.88.72-1.6 1.62-1.6.11 0 .22.01.33.03.2-.98 1.08-1.72 2.14-1.72.42 0 .81.12 1.14.33.21-.63.81-1.08 1.52-1.08.35 0 .66.12.93.3.17-.46.6-.78 1.11-.78.49 0 .92.3 1.1.72.24-.15.53-.25.85-.25.71 0 1.3.46 1.52 1.08.33-.2.72-.32 1.14-.32 1.06 0 1.94.74 2.15 1.72.1-.02.22-.03.33-.03.89 0 1.62.72 1.62 1.6 0 .05-.02.1-.02.16.12-.04.25-.07.39-.07.73 0 1.33.59 1.33 1.31l-.01.03c.92.13 1.62.91 1.62 1.85 0 .44-.16.85-.43 1.17.27.28.43.66.43 1.07m-12.05 20.12c-5.06 0-9.32-3.4-10.57-8.01h1.18c.77 2.49 2.53 4.57 4.83 5.77.02-.25.23-.45.49-.45.27 0 .5.22.5.49 0 .14-.07.25-.16.34 1.15.47 2.41.73 3.74.73s2.6-.27 3.76-.74c-.08-.09-.14-.2-.14-.34 0-.27.23-.49.5-.49.26 0 .46.19.49.43 2.29-1.2 4.04-3.27 4.8-5.76h1.18c-1.25 4.61-5.51 8.01-10.57 8.01"/>
    <path d="M168.52 100.052c-.275 0-.5-.222-.5-.494 0-.27.225-.492.5-.492s.5.222.5.493c0 .27-.225.49-.5.49m2.727 0c-.275 0-.5-.22-.5-.5 0-.27.225-.49.5-.49.277 0 .5.22.5.49s-.223.49-.5.49m2.73 0c-.276 0-.5-.23-.5-.5s.224-.49.5-.49.5.22.5.49-.226.49-.5.49m2.727 0c-.275 0-.5-.23-.5-.5s.225-.49.5-.49.5.22.5.49-.225.49-.5.49m2.73 0c-.276 0-.5-.22-.5-.5 0-.27.224-.49.5-.49s.5.22.5.49-.226.49-.5.49m2.726 0c-.275 0-.5-.23-.5-.5s.225-.49.5-.49c.277 0 .5.22.5.49s-.223.49-.5.49m2.73 0c-.276 0-.5-.23-.5-.5s.224-.49.5-.49c.274 0 .5.22.5.49s-.226.49-.5.49m-14.956 1.59c-.275 0-.5-.22-.5-.49s.225-.5.5-.5.5.22.5.49-.225.49-.5.49m2.73 0c-.276 0-.5-.22-.5-.49s.224-.5.5-.5.5.22.5.49-.226.49-.5.49m2.726 0c-.274 0-.5-.22-.5-.49s.226-.5.5-.5c.276 0 .5.22.5.49s-.224.49-.5.49m2.728 0c-.275 0-.5-.22-.5-.5 0-.27.225-.49.5-.49.277 0 .5.22.5.49s-.223.49-.5.49m2.73 0c-.276 0-.5-.23-.5-.5s.224-.5.5-.5.5.23.5.5-.226.49-.5.49m2.728 0c-.275 0-.5-.22-.5-.49s.225-.49.5-.49.5.22.5.49-.225.5-.5.5m-12.33 1.53c-.274 0-.5-.22-.5-.49s.226-.5.5-.5c.278 0 .5.23.5.5s-.222.49-.5.49m10.914 0c-.275 0-.5-.22-.5-.5 0-.27.225-.49.5-.49.277 0 .5.22.5.49s-.223.5-.5.5m-6.77 1.6c-.274 0-.5-.22-.5-.49s.226-.5.5-.5c.276 0 .5.22.5.49s-.224.49-.5.49m2.728 0c-.275 0-.5-.22-.5-.49s.225-.49.5-.49c.277 0 .5.22.5.5s-.223.5-.5.5m-4.142-1.58c-.275 0-.5-.22-.5-.49s.225-.49.5-.49.5.22.5.49-.225.49-.5.49m2.728 0c-.275 0-.5-.22-.5-.49s.225-.49.5-.49.5.22.5.49-.225.49-.5.49m2.73 0c-.276 0-.5-.22-.5-.49s.224-.49.5-.49.5.22.5.49-.226.49-.5.49M176.2 55.7c.36-.35.954-.35 1.312 0 .357.354.357.94 0 1.294-.358.352-.953.352-1.31 0-.358-.353-.358-.94 0-1.293m1.905-1.88c.358-.35.954-.35 1.31 0 .358.36.358.94 0 1.3-.356.35-.952.35-1.31 0-.357-.35-.357-.94 0-1.29m1.966-1.94c.358-.35.953-.35 1.31 0 .358.36.358.94 0 1.3-.357.36-.952.36-1.31 0-.357-.35-.357-.94 0-1.29m1.907-1.88c.357-.35.953-.35 1.31 0 .358.36.358.94 0 1.3-.357.35-.953.35-1.31 0-.358-.35-.358-.94 0-1.29m3.812-3.76c.358-.35.953-.35 1.31 0 .358.36.358.94 0 1.3-.357.35-.952.35-1.31 0-.357-.35-.357-.94 0-1.29m1.907-1.88c.35-.35.95-.35 1.31 0 .35.36.35.94 0 1.3-.36.35-.96.35-1.31 0-.36-.35-.36-.94 0-1.29m-3.82 5.06c-.36-.35-.36-.94 0-1.29.35-.35.95-.35 1.31 0 .36.36.36.94 0 1.3-.36.35-.96.35-1.31 0m-7.69 6.28c.36-.35.95-.35 1.31 0 .36.36.36.94 0 1.3-.36.36-.95.36-1.31 0-.36-.35-.36-.94 0-1.29m-.42-2.59c0-.5.42-.91.92-.91s.93.42.93.92-.42.91-.93.91-.93-.42-.93-.91m0-2.66c0-.5.42-.91.92-.91s.92.42.92.92-.42.92-.93.92-.93-.41-.93-.91m0-2.74c0-.5.42-.91.92-.91s.92.42.92.91c0 .5-.42.92-.93.92-.5 0-.92-.41-.92-.91m0-2.66c0-.5.42-.91.93-.91s.93.42.93.92-.42.92-.93.92-.93-.42-.93-.92m0 8.06c0-.5.42-.91.93-.91.5 0 .92.42.92.92s-.42.91-.93.91-.93-.42-.93-.92"/>
    <path d="M177.096 57.014c-.357.352-.953.352-1.31 0-.358-.353-.358-.94 0-1.294.357-.35.953-.35 1.31 0 .357.354.357.942 0 1.294m-1.906-1.88c-.358.35-.953.35-1.31 0-.358-.354-.358-.942 0-1.294.357-.353.952-.353 1.31 0 .357.352.357.94 0 1.293m-1.966-1.94c-.358.354-.953.354-1.31 0-.358-.35-.358-.94 0-1.292.357-.35.952-.35 1.31 0 .357.36.357.95 0 1.3m-1.906-1.88c-.358.35-.954.35-1.31 0-.36-.35-.36-.94 0-1.29.356-.35.952-.35 1.31 0 .357.36.357.94 0 1.3m-3.813-3.76c-.358.35-.953.35-1.31 0-.358-.35-.358-.94 0-1.29.357-.35.952-.35 1.31 0 .357.35.357.94 0 1.29m-1.906-1.88c-.36.36-.96.36-1.32 0-.36-.35-.36-.94 0-1.29.35-.35.95-.35 1.31 0 .36.35.36.94 0 1.29m2.5 3.76c-.36-.35-.36-.94 0-1.29.35-.35.95-.35 1.31 0 .36.35.36.94 0 1.29-.36.35-.96.35-1.31 0m8.99 7.58c-.36.36-.96.36-1.31 0-.36-.35-.36-.94 0-1.29.35-.35.95-.35 1.31 0 .35.35.35.94 0 1.29m10.81-16.39c-.79 0-1.43-.63-1.43-1.4v-3.2c0-.77.64-1.4 1.42-1.4h3.24c.78 0 1.42.63 1.42 1.41v3.2c0 .78-.64 1.41-1.43 1.41zm3.24-7.67h-3.24c-1.72 0-3.11 1.37-3.11 3.06v3.21c0 1.69 1.39 3.07 3.1 3.07h3.24c1.71 0 3.1-1.37 3.1-3.06v-3.21c0-1.69-1.4-3.06-3.11-3.06m-16.06 7.67c-.79 0-1.42-.63-1.42-1.4v-3.2c0-.77.63-1.4 1.42-1.4h3.25c.78 0 1.42.63 1.42 1.4v3.21c0 .78-.64 1.41-1.42 1.41zm3.25-7.67h-3.25c-1.72 0-3.11 1.38-3.11 3.07v3.21c0 1.69 1.4 3.07 3.11 3.07h3.25c1.72 0 3.11-1.37 3.11-3.06v-3.21c0-1.69-1.39-3.06-3.11-3.06m-16.06 7.67c-.78 0-1.42-.63-1.42-1.4v-3.2c0-.77.64-1.4 1.42-1.4h3.25c.78 0 1.42.63 1.42 1.41v3.21c0 .77-.64 1.4-1.42 1.4zm3.25-7.67h-3.25c-1.71 0-3.1 1.38-3.1 3.07v3.2c0 1.69 1.39 3.07 3.1 3.07h3.25c1.71 0 3.11-1.37 3.11-3.06v-3.21c0-1.69-1.4-3.06-3.11-3.06"/>
    <path fill="none" stroke="#fff" stroke-width="2" stroke-miterlimit="10" d="M275.667 81.086h-47.833v35.61h47.833z"/>
    <path fill="none" stroke="#fff" stroke-width="2" stroke-miterlimit="10" d="M279.875 76.33h-56.25v4.757h56.25z"/>
    <path d="M254.375 116.698h-5.25v3.516h5.25zm7.937-46.994H241.25v2.063h21.062z"/>
    <path d="M244.72 76.017l-4.317-13.298-2.497.81 4.317 13.29zm13.623 0l4.317-13.298 2.497.81-4.317 13.29zM240.03 101.83c-4.843 0-5.405-6.063-5.405-6.063h10.812s-.396 6.062-5.406 6.062m0-1c2.89 0 3.9-2.56 4.24-4.07h-8.45c.38 1.51 1.43 4.06 4.22 4.06m.06 8.64c-1.84 0-3.34-1.5-3.34-3.35s1.5-3.34 3.35-3.34 3.35 1.49 3.35 3.34c0 1.85-1.49 3.34-3.34 3.34m0-1c1.29 0 2.34-1.05 2.34-2.35 0-1.29-1.05-2.35-2.34-2.35-1.29 0-2.34 1.05-2.34 2.34 0 1.29 1.06 2.34 2.35 2.34m23.52-6.65c-4.84 0-5.4-6.06-5.4-6.06h10.81s-.39 6.06-5.4 6.06m0-1c2.89 0 3.9-2.56 4.24-4.07h-8.45c.38 1.51 1.42 4.06 4.21 4.06m.06 8.65c-1.84 0-3.34-1.5-3.34-3.35s1.5-3.34 3.34-3.34c1.85 0 3.35 1.49 3.35 3.34 0 1.85-1.49 3.34-3.34 3.34m0-1c1.29 0 2.35-1.05 2.35-2.34 0-1.29-1.05-2.35-2.34-2.35s-2.34 1.05-2.34 2.35 1.06 2.35 2.35 2.35m-11.78-13.57c-6.61 0-7.37-8.27-7.37-8.27h14.75s-.54 8.27-7.37 8.27m0-1c4.5 0 5.84-4.23 6.23-6.27h-12.43c.46 2.05 1.91 6.27 6.19 6.27m.08 11.43c-2.51 0-4.56-2.04-4.56-4.56 0-2.52 2.05-4.57 4.56-4.57 2.52 0 4.57 2.04 4.57 4.56 0 2.52-2.04 4.56-4.56 4.56m0-1c1.96 0 3.56-1.59 3.56-3.56 0-1.96-1.6-3.56-3.56-3.56-1.97 0-3.56 1.6-3.56 3.56 0 1.97 1.6 3.56 3.56 3.56"/>
    <path fill="none" stroke="#fff" stroke-width="2" stroke-miterlimit="10" d="M49.386 96.802l-39.37-11.298-8.41 29.31 39.37 11.3zm4.588-2.922L7.677 80.594 6.553 84.51 52.85 97.796z"/>
    <path d="M23.45 121.084l-4.32-1.24-.83 2.894 4.32 1.24zM41.083 84.28l-17.336-4.976-.487 1.698 17.336 4.975z"/>
    <path d="M25.112 85.32L24.7 73.356l-2.247.077.413 11.964zm11.213 3.218l6.694-9.925 1.86 1.257-6.7 9.925zM16.41 105.642c-.39 0-.808-.057-1.253-.185-3.987-1.144-3.018-6.266-3.018-6.266l8.89 2.56s-1.4 3.9-4.63 3.9m0-1c1.58 0 2.65-1.31 3.21-2.26l-6.6-1.89c-.02 1.32.3 3.41 2.41 4.01.33.1.66.15.97.15m-2.22 7.24c-.26 0-.53-.03-.79-.11-1.52-.43-2.4-2.02-1.97-3.54.36-1.25 1.5-2.07 2.75-2.07.26 0 .53.04.79.11 1.52.44 2.4 2.03 1.96 3.55-.36 1.26-1.51 2.07-2.75 2.07m0-1c.82 0 1.56-.55 1.79-1.35.13-.48.08-.98-.16-1.42-.24-.44-.64-.75-1.12-.89-.17-.05-.35-.07-.52-.07-.83 0-1.56.56-1.79 1.35-.29.99.29 2.02 1.27 2.31.16.05.34.08.51.08m21.62.34c-.39 0-.81-.05-1.26-.18-3.99-1.14-3.02-6.26-3.02-6.26l8.9 2.56s-1.4 3.9-4.63 3.9m0-1c1.59 0 2.65-1.31 3.21-2.26l-6.59-1.89c-.02 1.32.3 3.41 2.41 4.01.33.1.66.15.97.15m-2.22 7.24c-.26 0-.53-.04-.79-.11-1.52-.44-2.4-2.02-1.96-3.54.36-1.26 1.5-2.07 2.75-2.07.26 0 .53.04.79.11 1.52.44 2.4 2.03 1.96 3.55-.36 1.26-1.5 2.07-2.75 2.07m0-1c.83 0 1.56-.55 1.79-1.35.14-.48.08-.98-.16-1.41-.24-.43-.63-.75-1.11-.88-.17-.05-.34-.07-.52-.07-.82 0-1.56.56-1.78 1.35-.14.48-.08.99.16 1.42.24.44.64.75 1.12.89.17.05.34.07.51.07m-5.34-13.63c-.53 0-1.1-.08-1.71-.25-5.44-1.56-4.11-8.55-4.11-8.55l12.14 3.48s-1.91 5.32-6.32 5.32m0-1c2.58 0 4.19-2.31 4.92-3.68l-9.87-2.83c-.1 1.82.18 5.34 3.53 6.3.49.14.97.21 1.43.21m-3.02 9.5c-.36 0-.72-.05-1.08-.15-2.07-.59-3.27-2.75-2.68-4.83.49-1.71 2.05-2.83 3.75-2.83.36 0 .72.05 1.08.16 2.07.6 3.27 2.76 2.67 4.83-.49 1.72-2.06 2.83-3.76 2.83m0-1c1.29 0 2.44-.86 2.79-2.1.22-.74.13-1.53-.25-2.21-.37-.68-.99-1.17-1.74-1.38-.26-.08-.53-.12-.8-.12-1.29 0-2.44.87-2.79 2.11-.22.75-.13 1.53.25 2.21.37.68.99 1.17 1.74 1.39.26.08.53.12.8.12M127.62 18c-1.36-.603-2.95.007-3.55 1.36-.6 1.358.01 2.947 1.36 3.55 1.36.604 2.95-.006 3.55-1.362.608-1.356-.002-2.944-1.36-3.55m-3.29 7.256c-2.71-1.208-3.93-4.385-2.72-7.097 1.207-2.716 9.536-8.21 9.536-8.21s1.49 9.864.283 12.576c-1.2 2.712-4.38 3.932-7.09 2.725"/>
    <path d="M145.03 9.996c-.323 2.09-.948 4.05-1.683 5.396l3.827 2.21c1.275-2.427 1.612-5.057 1.09-7.51-.94.09-2.05.04-3.235-.096m.25-5.334c.16 1.4.1 2.885-.15 4.343 1.02.127 1.98.135 2.84.04-.52-1.652-1.41-3.178-2.7-4.383m-1.08-1.048c-.31-.263-.61-.477-.93-.66l-2.74 4.744c1.05.52 2.28.94 3.58 1.18.25-1.752.29-3.582.08-5.264m-2.91-1.68c-1.56.66-3.12 1.613-4.51 2.708.85 1 1.83 1.86 2.81 2.508l2.74-4.744c-.32-.183-.65-.334-1.04-.472m-6.59-.56c.34.79.84 1.622 1.46 2.445 1.13-.95 2.39-1.74 3.68-2.3-1.69-.51-3.46-.52-5.15-.15m-7.01 4.98l3.82 2.21c.79-1.31 2.18-2.83 3.83-4.16-.71-.96-1.31-1.9-1.7-2.75-2.39.77-4.5 2.38-5.96 4.7m10.21 5.9l4.49 2.59c.76-1.46 1.28-3.18 1.59-5.03-1.49-.19-2.91-.59-4.02-1.14zm-2.61 4.52c1.03.68 2.09 1.71 2.99 2.91 1.43-1.16 2.63-2.45 3.55-3.9l-4.49-2.59zm-.84 6.64c1.7.48 3.47.48 5.16.11-.34-.74-.83-1.57-1.45-2.4-1.17.93-2.48 1.73-3.72 2.28m12.17-4.87l-3.83-2.21c-.85 1.32-2.22 2.81-3.84 4.15.71.96 1.31 1.89 1.7 2.75 2.38-.78 4.49-2.39 5.96-4.7m1.28.11c-2.92 5.04-8.66 7.25-13.98 5.78l-.16-1.83c1.28-.62 2.57-1.38 3.78-2.31-.82-.98-1.81-1.89-2.82-2.56l-1.19 2.06-.16-1.91.4-.7c-.16-.08-.32-.14-.48-.21l-.1-1.24c.4.14.79.3 1.14.47l2.06-3.58-3.65-2.11-.11-1.33 4.3 2.49 2.1-3.54c-1.04-.69-2.09-1.72-3-2.92-1.37 1.12-2.53 2.37-3.4 3.67v-.01l-1.79.55-3.69-2.13c-.62 1.18-1.02 2.42-1.2 3.65l-1.17.36c.17-1.73.69-3.46 1.63-5.08 3.47-6.01 10.95-8.02 16.96-4.55 6.01 3.47 8.02 10.95 4.55 16.96"/>
    <path d="M132.623 8.89l.027.327-.184-.106c.048-.07.107-.14.156-.22M311.817 55.6l-1.2.47-3.29-8.417-.264-.62.018-.01v-.015l.54-.206 8.4-3.583.51 1.18-6.03 4.05zm-1.79-25.75l.64 1.117 7.837-4.502.594-.316-.01-.02.015-.01-.285-.5-4.31-8.06-1.134.6 2.163 6.93z"/>
    <path d="M315.942 26.587c-.677-.135-1.376-.21-2.092-.21-5.872 0-10.65 4.78-10.65 10.65 0 3.533 1.736 6.66 4.39 8.6l-2.257.202.438 1.58.25.78c-3.51-2.47-5.82-6.55-5.82-11.17 0-7.54 6.12-13.65 13.65-13.65.74 0 1.45.07 2.15.18l.86 2.09zm11.558 10.44c0 7.54-6.11 13.65-13.65 13.65-1.543 0-3.02-.267-4.404-.74l-.577-1.99 1.18-.98c1.18.45 2.45.71 3.79.71 5.87 0 10.65-4.777 10.65-10.65 0-4.11-2.46-7.59-5.47-9.29l1.62-.8-.72-2.124c4.26 2.047 7.56 6.6 7.56 12.215M81.15 51.766c-1.913 0-3.47-1.553-3.47-3.47 0-1.914 1.557-3.467 3.47-3.467 1.92 0 3.47 1.55 3.47 3.46s-1.55 3.47-3.47 3.47m0-1.2c1.25 0 2.27-1.02 2.27-2.27s-1.02-2.27-2.27-2.27-2.27 1.02-2.27 2.27 1.02 2.27 2.27 2.27m15.567-1.3c-1.92 0-3.47-1.56-3.47-3.47 0-1.92 1.55-3.47 3.47-3.47 1.91 0 3.46 1.55 3.46 3.46s-1.56 3.47-3.47 3.47m0-1.2c1.25 0 2.27-1.02 2.27-2.27s-1.02-2.27-2.27-2.27-2.27 1.02-2.27 2.27 1.01 2.27 2.27 2.27m-16.73 20.7c-1.27 0-2.31-1.03-2.31-2.3s1.03-2.3 2.3-2.3c1.27 0 2.3 1.03 2.3 2.3 0 1.27-1.03 2.3-2.3 2.3m0-1.2c.607 0 1.1-.5 1.1-1.1 0-.61-.493-1.1-1.1-1.1-.61 0-1.103.49-1.103 1.1 0 .61.494 1.1 1.102 1.1m6.39-4.05c-1.27 0-2.303-1.03-2.303-2.3s1.03-2.3 2.304-2.3c1.27 0 2.303 1.03 2.303 2.3 0 1.27-1.03 2.3-2.303 2.3m0-1.2c.61 0 1.105-.5 1.105-1.11 0-.61-.495-1.1-1.103-1.1s-1.1.49-1.1 1.1c0 .61.49 1.1 1.1 1.1m6.86-3.4c-1.27 0-2.3-1.03-2.3-2.3s1.03-2.31 2.3-2.31c1.27 0 2.3 1.03 2.3 2.3 0 1.27-1.03 2.3-2.3 2.3m0-1.2c.61 0 1.1-.5 1.1-1.1s-.49-1.11-1.1-1.11c-.61 0-1.1.49-1.1 1.1s.49 1.1 1.1 1.1M88.7 38c-1.92 0-3.47-1.55-3.47-3.47 0-1.912 1.55-3.465 3.47-3.465 1.914 0 3.467 1.55 3.467 3.466 0 1.92-1.552 3.47-3.47 3.47m0-1.2c1.253 0 2.27-1.02 2.27-2.27s-1.017-2.27-2.27-2.27c-1.25 0-2.267 1.02-2.267 2.27s1.013 2.27 2.27 2.27"/>
    <path d="M93.956 46.172l-9.874 1.58.212 1.328 9.874-1.58zm-7.18-9.444l-4.737 8.807 1.18.636 4.73-8.8zm19.498 29.062L83.837 81.2c-1.418.974-2.724 1.447-3.992 1.447-3.478 0-5.913-3.603-8.732-7.776l-1.045-1.53L56.71 53.92l-.963-1.41 13.494 4.075 8.05-5.527.71.97-8.55 5.873-10.77-3.25c2.96 4.3 11.71 17.03 12.39 18.01.36.53.71 1.04 1.05 1.55 2.74 4.05 4.9 7.25 7.74 7.25 1.02 0 2.1-.4 3.32-1.23l22.44-15.41c2.37-1.62 3.14-3.43 2.5-5.85-.61-2.32-2.39-4.91-4.46-7.92l-.7-1.01c-.3-.44-.6-.87-.89-1.29l.97-.71c.3.44.6.88.91 1.32l.7 1.02c2.13 3.1 3.97 5.78 4.64 8.3.76 2.91-.21 5.25-2.98 7.15m307.59 37l-9.06 2.53 11.01 4.46zm8.32-9.8l-13.55 3.77.54 1.93 13.55-3.77zm-2.13-3.45l-12.46 3.47.54 1.93 12.47-3.47zm14.09-3.72l-17.55-5.46-1.09 3.52 17.55 5.46z"/>
    <path d="M422.93 80.782l-2.234-8.02-21.514 5.994 7.275 26.11 9.327 4.56 14.04-3.91-4.737-16.996 2.273.707 4.926 17.68-16.697 4.65-10.82-5.29-8.06-28.9 25.36-7.07 3.12 11.193z"/>
    <path d="M415.477 86.63l-8.97 2.5.536 1.927 8.97-2.5zm-.18-6.727l-2.376 1.25 1.25 2.376z"/>
    <path fill="none" stroke="#fff" stroke-miterlimit="10" d="M242.41 30.544l5.777 5.848-8.937 8.936s-7.962 3.197-10.756 2.063c-1.463-.59-5.463-8.9-6.088-10.28-.625-1.37 1.62-4.35 3.75-1.9 2.53 2.91 5.412 6.26 5.412 6.26"/>
    <path d="M212.54 37.245l-.75-.668 5.428-5.442.733.682zm32.212-9.045l-2.342 2.343-2.018 2.018-9.01 9.09-.716-.69 9.018-9.1 2.02-2.01 2.34-2.34c.286-.28.177-1.03-.397-1.6-.487-.48-1.06-.61-1.384-.52l-.3.09-5.623 5.62-.825-.82 5.28-5.28.235-.83c.09-.32-.033-.89-.52-1.38-.504-.5-1.085-.61-1.41-.5l-.526.18-5.445 5.45-.83-.83 5.27-5.27.26-.79c.11-.33-.01-.91-.51-1.41-.32-.32-.72-.52-1.1-.54l-.15-.01-5.9 5.9-.83-.82 5.93-5.93-.01-.07c-.02-.38-.22-.78-.54-1.1-.57-.57-1.32-.68-1.6-.39L230.77 19l-2.02 2.02-.89.89-.06-.063-.67-.62.91-.91 2.02-2.02 2.34-2.34c.72-.723 2.08-.544 3.02.4.52.52.79 1.16.83 1.75.59.037 1.23.315 1.75.83.72.73.99 1.697.75 2.435.73-.24 1.7.02 2.43.75.7.705.98 1.635.78 2.36.72-.2 1.65.075 2.36.78.94.946 1.12 2.3.4 3.02"/>
    <path d="M227.186 22.556c-.012-.013-.016-.032-.03-.044l-.694-.646-1.778-1.653c-.33-.307-.905-.228-1.28.176-.376.4-.412.98-.082 1.28l1.727 1.6.73.68.01.01c.33.3.9.23 1.28-.18.36-.39.4-.93.11-1.25m-4.83.16c-.33-.31-.91-.23-1.28.17-.38.4-.41.98-.08 1.29l1.64 1.52.73.68.1.09c.33.31.9.23 1.28-.18s.41-.98.08-1.29l-.05-.05-.74-.68zm-3.58 2.64c-.38.4-.42.98-.08 1.29l1.55 1.44.73.68.19.17c.33.31.9.23 1.28-.18.37-.41.41-.98.08-1.29l-.14-.13-.74-.68-1.6-1.49c-.33-.31-.91-.23-1.28.17m-.96 2.23c-.33-.31-.91-.23-1.28.17-.38.4-.42.98-.09 1.29l1.46 1.36.73.68.27.25c.33.31.9.23 1.28-.18.37-.4.41-.98.08-1.29l-.22-.2-.73-.68zm9.85-3.24c-.5.53-1.16.77-1.75.7.11.58-.09 1.26-.58 1.79-.49.52-1.14.77-1.71.71.09.57-.11 1.24-.59 1.76-.47.5-1.08.75-1.64.72.06.55-.14 1.18-.6 1.69-.76.8-1.9.96-2.57.35l-.3-.28-.74-.68-1.44-1.34c-.66-.62-.59-1.77.16-2.58.46-.5 1.08-.75 1.64-.72-.07-.56.13-1.19.6-1.69.48-.52 1.13-.77 1.71-.72-.1-.57.1-1.23.59-1.76s1.16-.78 1.74-.71c-.11-.58.08-1.26.58-1.79.75-.81 1.9-.97 2.56-.35l1.8 1.67.67.62c.02.02.03.04.05.06.59.63.51 1.73-.22 2.51m22.25 16.23c-.47.46-.47 1.22 0 1.68.46.46 1.21.46 1.68 0 .46-.46.46-1.22 0-1.68-.47-.46-1.22-.46-1.68 0m4.18 1.68l-7.23 7.23c-1.23 1.23-2.19.19-3.42-1.04s-2.27-2.19-1.04-3.42l7.23-7.23c1.23-1.24 2.07-.08 3.3 1.15s2.39 2.07 1.16 3.3m192.96-.1h-44.67V11.83H447zm-1.5-28.75h-41.67v27.25h41.67z"/>
    <path d="M447.083 18.83h-44.667v-6.92h44.667zm-1-5.918h-42.667v4.917h42.667z"/>
    <path d="M428.875 13.39h-8.333V6.705h8.333zm-1.5-5.186h-5.333v3.688h5.333z"/>
    <path d="M435.083 6.704h-20.667V8.58h20.667zm-7.416 8.186h-5.833v1.105h5.833z"/>
    <path fill="none" stroke="#fff" stroke-miterlimit="10" d="M423.083 34.454l-7.917 3.083V24.87l7.917-3.083L431 24.87v12.667z"/>
    <path d="M423.417 22.162h-.846v12.49h.85z"/>
  </g>
</svg>
