<svg xmlns="http://www.w3.org/2000/svg" viewBox="0 0 287.999 286.666">
  <defs>
    <clipPath id="a">
      <path d="M0 215h216V0H0z"/>
    </clipPath>
  </defs>
  <g transform="matrix(1.33333 0 0 -1.33333 0 286.666)" clip-path="url(#a)" fill="#fff">
    <path fill-rule="evenodd" d="M54.5 22h108c3.59 0 6.5-2.91 6.5-6.5S166.09 9 162.5 9h-108c-3.59 0-6.5 2.91-6.5 6.5s2.91 6.5 6.5 6.5"/>
    <path d="M110.5 66c-4.142 0-7.5-3.358-7.5-7.5 0-4.142 3.358-7.5 7.5-7.5 4.142 0 7.5 3.358 7.5 7.5 0 4.142-3.358 7.5-7.5 7.5m0-3c2.48 0 4.5-2.02 4.5-4.5s-2.02-4.5-4.5-4.5-4.5 2.02-4.5 4.5 2.02 4.5 4.5 4.5M216 12H0V0h216zm-3-9H3v6h210zM97.246 160.147c-.8 0-1.527-.456-2.13-1.24-.68-.025-1.3.035-1.598.09-.553.102-1.105-.27-1.206-.834-.104-.56.267-1.1.83-1.205.092-.017.446-.073.928-.11-.422-1.25-.665-2.777-.665-4.47 0-4.43 1.65-7.77 3.84-7.77s3.842 3.34 3.842 7.77c0 4.428-1.65 7.77-3.84 7.77m28.823-1.152c-.284-.053-.858-.117-1.5-.1-.603.793-1.335 1.25-2.14 1.25-2.19 0-3.84-3.34-3.84-7.77 0-4.428 1.65-7.768 3.84-7.768s3.84 3.34 3.84 7.77c0 1.696-.245 3.226-.667 4.477.436.036.757.087.844.103.564.105.937.644.83 1.207-.102.562-.653.94-1.207.83m13.56-11.777v9.898c1.127-.867 1.956-2.814 1.956-4.963 0-2.316-.89-4.11-1.957-4.935m0 13.315v.143c0 2.654-.37 5.22-1.03 7.67h-3.23c.73-2.434 1.14-5.005 1.14-7.67V140.53h3.11v3.244c2.92.77 5.07 4.173 5.07 8.38 0 4.207-2.15 7.61-5.07 8.38m-59.72-13.29c-1.06.835-1.93 2.615-1.93 4.91 0 2.128.81 4.055 1.92 4.932zm0 13.432v-.147c-2.91-.79-5.04-4.19-5.04-8.38 0-4.2 2.13-7.59 5.04-8.38v-3.25h3.11v20.15c0 2.66.4 5.23 1.13 7.67h-3.22c-.66-2.45-1.03-5.02-1.03-7.67m26.06-33.25c.26-.1 1.29-.43 3.42-.46h.15c2.04 0 3.07.36 3.34.48 1.03.43 1.49 1.59 1.092 2.63-.393 1.04-1.573 1.57-2.64 1.21-.004-.01-.58-.19-1.91-.19-1.338.01-1.958.18-2.03.2-1.054.37-2.224-.16-2.625-1.21-.42-1.07.12-2.27 1.19-2.68M73 86.03c0 13.943 9.252 25.76 21.938 29.647-.99.67-1.964 1.4-2.913 2.18C79.157 113.01 70 100.592 70 86.03V79h3zm75 0c0 14.2-8.708 26.362-21.072 31.45-.958-.755-1.94-1.46-2.937-2.11C136.2 111.202 145 99.63 145 86.03V79h3z"/>
    <path d="M163.02 18.35l-.02-.175V18c0-4.144-3.515-6-7-6H60c-3.484 0-7 1.856-7 6v.176l-.02.175-5.978 50.81C47.088 72.95 50.194 76 54 76h108c3.807 0 6.913-3.054 7-6.84zM162 79H54c-5.522 0-10-4.478-10-10l6-51c0-5.523 4.478-9 10-9h96c5.523 0 10 3.477 10 9l6 51c0 5.522-4.477 10-10 10m-25.486 61.528v-.273c0-8.757-6.037-15.51-9.635-18.755-1.12-1.006-2.3-1.937-3.51-2.788-1.18-.83-2.39-1.577-3.59-2.23-3.43-1.853-6.85-2.948-9.59-2.948l-.48.006-.36-.006c-2.84 0-6.41 1.175-9.96 3.153-1.23.686-2.46 1.464-3.65 2.33-1.06.766-2.09 1.598-3.08 2.485-3.6 3.245-9.64 9.996-9.64 18.753v.273h-3.11v-.273c0-8.82 5.38-16.884 12.11-22.4.95-.777 1.92-1.508 2.91-2.178 4.87-3.3 10.12-5.25 14.42-5.25l.36.008.47-.01c4.03 0 9.07 1.857 13.8 4.945 1 .65 1.98 1.355 2.93 2.11.69.548 1.38 1.118 2.04 1.715 3.98 3.59 10.66 11.102 10.66 21.06v.273zm-15.082 47.587c7.12 2.5 11.93 7.148 11.93 12.473 0 7.956-10.713 14.427-23.88 14.427-13.168 0-23.883-6.47-23.883-14.427 0-5.407 4.95-10.124 12.26-12.594-8.26-3.61-14.56-10.834-16.92-19.65h3.22c.02.06.03.123.05.183h.29c7.73 1.926 16.43 3.03 25.67 3.04 1.19-.005 2.94-.155 3.59.234.39.24.56 1.08.5 1.39-.3 1.31-.57 2.63-.78 3.96-.16 1-.38 1.95-.38 2.96.01 1.57.55.15.77-.54.95-3.07 1.7-6.47 4.75-7.96 1.56-.76 11.4-1.73 16.65-2.93.03-.1.05-.2.08-.31h3.23c-2.39 8.91-8.8 16.2-17.18 19.77"/>
    <path d="M140.67 135.924h3.908c2.362 0 4.276 1.91 4.276 4.267v23.51c0 2.36-1.914 4.27-4.276 4.27h-3.907c-2.36 0-4.27-1.91-4.27-4.26V140.2c0-2.356 1.92-4.266 4.28-4.266"/>
    <path d="M128.225 97.12h-2.44v2.846h2.44c7.154 0 12.974 5.807 12.974 12.944v28.632h5.51c5.75 0 10.42 4.666 10.42 10.4 0 5.735-4.68 10.4-10.43 10.4h-4.09v2.845h4.09c7.32 0 13.27-5.942 13.27-13.245 0-7.302-5.96-13.245-13.28-13.245h-2.67V112.91c0-8.706-7.1-15.79-15.83-15.79m-51.9 38.804h-3.9c-2.366 0-4.28 1.91-4.28 4.267v23.51c0 2.36 1.914 4.27 4.276 4.27h3.91c2.36 0 4.276-1.91 4.276-4.26V140.2c0-2.356-1.915-4.266-4.277-4.266"/>
    <path d="M109.627 102.215c-1.147 0-2.08-.93-2.08-2.074v-3.19c0-1.14.933-2.07 2.08-2.07h12.75c1.147 0 2.08.93 2.08 2.08v3.2c0 1.15-.933 2.08-2.08 2.08zm12.75-10.188h-12.75c-2.72 0-4.93 2.207-4.93 4.92v3.194c0 2.72 2.21 4.92 4.93 4.92h12.75c2.72 0 4.93-2.2 4.93-4.92v-3.19c0-2.71-2.21-4.92-4.93-4.92m23.75 47.85h-2.85v26.42c0 18.57-15.142 33.68-33.753 33.68-18.61 0-33.752-15.1-33.752-33.67v-26.43h-2.85v26.42c0 20.14 16.42 36.52 36.602 36.52 20.183 0 36.603-16.38 36.603-36.52z"/>
  </g>
</svg>
