<svg xmlns="http://www.w3.org/2000/svg" viewBox="0 0 97.828 162.209" style="max-width:60px; height:auto">
  <defs>
    <clipPath id="a">
      <path d="M0 121.657h73.37V0H0z"/>
    </clipPath>
  </defs>
  <g fill="#fff" clip-path="url(#a)" transform="matrix(1.33333 0 0 -1.33333 0 162.21)">
    <path d="M59.418 83.827c.1-.293.2-.584.294-.883.434-1.394.74-2.843.957-4.37-.01 0-.02 0-.02-.002l.04-.133c.36-2.64.46-5.51.46-8.74 0-5.18-.25-9.41-1.44-13.25-1.26-4.04-3.06-7.66-5.34-10.76-2.27-3.08-4.91-5.5-7.83-7.18-3.01-1.73-6.19-2.6-9.47-2.6-3.28 0-6.46.87-9.47 2.59-2.93 1.68-5.56 4.09-7.83 7.17-2.29 3.1-4.09 6.72-5.35 10.76C13.24 60.29 13 64.52 13 69.7s.245 9.41 1.44 13.243c.13.422.27.837.416 1.25 6.756 3.24 14.604 5.1 21.608 5.1 8.63 0 16.554-1.893 22.953-5.467m4.375-13.308c0-1.308-.23-2.415-.55-3.28.015.8.025 1.615.025 2.46 0 1.48-.024 2.883-.08 4.232.35-.88.605-2.037.605-3.413M55.78 33.922c-.032-.056-.058-.115-.09-.17-.145.033-.294.056-.45.056-1.087 0-1.968-.883-1.968-1.97 0-.36.103-.692.27-.982-.292.174-.63.28-.997.28-1.087 0-1.968-.88-1.968-1.968 0-.353.1-.68.262-.965l-.06-.04c-.32.22-.7.35-1.12.35-1.09 0-1.97-.883-1.97-1.97 0-.12.01-.24.03-.355l-.01-.004c-.37.426-.9.702-1.5.702-1.09 0-1.97-.88-1.97-1.97 0-.02 0-.042.01-.064-.36.456-.91.754-1.54.754-1.02 0-1.84-.77-1.95-1.755-.33.63-.98 1.07-1.74 1.07-.91 0-1.67-.62-1.9-1.45h-.15c-.23.84-.99 1.46-1.9 1.46-.81 0-1.49-.48-1.8-1.17-.06 1.04-.91 1.86-1.96 1.86-.67 0-1.26-.33-1.61-.84-.1 1-.93 1.78-1.95 1.78-.61 0-1.15-.28-1.51-.71-.03.01-.05.03-.07.04.03.13.04.26.04.4 0 1.09-.88 1.97-1.97 1.97-.47 0-.9-.17-1.24-.44l-.06.04c.08.22.13.45.13.69 0 1.09-.88 1.97-1.97 1.97-.316 0-.61-.08-.87-.21.246.33.4.74.4 1.18 0 1.09-.88 1.97-1.97 1.97-.255 0-.496-.05-.72-.14 2.403 1.64 5.09 2.92 7.99 3.75.19-.11.37-.23.56-.34 3.326-1.91 6.864-2.88 10.516-2.88 3.65 0 7.19.97 10.52 2.88.336.2.67.4.996.61 2.57-.76 4.98-1.92 7.19-3.37m13.422-23.5V6.64c-4-1.09-7.54-1.925-11.88-2.517.03.407-.08.83-.08 1.28 0 2.34-.48 4.233-.996 4.233s-.966-1.9-.966-4.237c0-.53.01-1.04.05-1.51C50.217 3.29 44.45 3 37.86 3c-7.32 0-13.99.51-19.996 1.49.06.57.1 1.21.1 1.9 0 2.34-.42 4.23-.94 4.23s-.94-1.895-.94-4.23c0-.58.16-1.13.21-1.63-3.7.674-7.14 1.54-10.14 2.595v3.084c0 8.92 4.22 17.1 11.13 22.22 0-.01-.07-.01-.068-.01-.26-.34-.46-.75-.46-1.21 0-1.08.864-1.96 1.95-1.96.275 0 .526.06.763.16l.03-.03c-.21-.31-.34-.69-.34-1.09 0-1.08.88-1.97 1.97-1.97.48 0 .91.18 1.25.47l.04-.02c-.09-.22-.14-.46-.14-.72 0-1.09.88-1.97 1.97-1.97.59 0 1.11.27 1.47.68l.09-.04c-.02-.11-.034-.23-.034-.35 0-1.087.88-1.97 1.97-1.97.67 0 1.255.34 1.61.844.1-.995.93-1.78 1.95-1.78.753 0 1.4.43 1.73 1.047l.08-.014c.123-.97.94-1.72 1.944-1.72.92 0 1.68.63 1.9 1.48.047 0 .09.002.138.003.22-.85.983-1.48 1.9-1.48 1.016 0 1.84.77 1.95 1.754.33-.63.98-1.07 1.74-1.07 1.09 0 1.97.88 1.97 1.97 0 .02-.007.04-.008.068.36-.46.91-.757 1.54-.757 1.09 0 1.97.88 1.97 1.97 0 .126-.01.25-.03.367v.008c.36-.43.9-.71 1.5-.71 1.085 0 1.97.886 1.97 1.97 0 .31-.08.6-.21.86.034.03.07.05.107.08.297-.173.637-.28 1.005-.28 1.09 0 1.97.89 1.97 1.97 0 .34-.09.65-.24.93l.025.026c.28-.158.6-.25.95-.25 1.09 0 1.97.88 1.97 1.97 0 .57-.25 1.08-.64 1.44.02.03.28.06.3.09 7.3-5.2 12.31-13.818 12.31-22.928M10.1 70.52c0 1.73.394 3.12.89 4.03-.08-1.534-.11-3.14-.11-4.85 0-1.066.01-2.09.04-3.085-.46.914-.82 2.257-.82 3.906m51.62 23.39c6.29.85 11.203 6.12 11.62 12.45.53 8.02-5.96 14.67-13.93 14.39-6.81-.23-12.46-5.64-12.98-12.43-.154-2.05.15-4.005.82-5.79-2.635 1.18-5.95 1.99-10.167 1.99-4.44 0-8.4-1.014-11.847-3.02 1.18 2.08 1.83 4.5 1.75 7.083-.23 7.3-6.41 13.18-13.706 13.06-7.703-.12-13.84-6.7-13.23-14.57.5-6.43 5.63-11.69 12.05-12.34 2.34-.23 4.57.13 6.56.96-.192-.24-.386-.48-.573-.73-2.425-3.29-4.33-7.12-5.66-11.38-.492-1.59-.83-3.23-1.065-4.96-2.45-.63-4.246-3.91-4.246-8.09 0-4.08 1.68-7.29 4.05-8.03.22-2.36.606-4.552 1.26-6.66 1.33-4.26 3.233-8.09 5.66-11.38 1.486-2.02 3.267-3.77 5.04-5.25C11.18 34.78 3.18 23.298 3.18 10.44V5.23l.856-.354C13.123 1.642 24.48 0 37.936 0 52 0 62.636 1.31 70.95 4.124l1.232.345v5.97c0 12.71-8.608 24.54-20.43 29.03 1.644 1.41 3.05 3.07 4.445 4.96 2.42 3.29 4.26 7.12 5.59 11.38.663 2.13 1.02 4.36 1.24 6.76 2.23.89 3.774 4 3.774 7.93 0 4.04-1.65 7.21-3.99 8-.23 1.75-.58 3.43-1.08 5.04-1.22 3.93-2.95 7.5-5.12 10.61 1.61-.4 3.33-.52 5.11-.28"/>
    <path d="M24.648 77.733c-.435 0-.845-.266-1.207-.728-.5.545-.9 1.01-.9 1.01s.28-.713.61-1.447c-.1-.175-.2-.37-.29-.58-.76.792-1.59 1.745-1.59 1.745s.72-1.88 1.26-2.674c-.32-1.09-.51-2.44-.51-3.9 0-3.63 1.19-6.57 2.65-6.57s2.65 2.94 2.65 6.56-1.18 6.56-2.64 6.56m2.97 3.89h-5.96c-.5 0-.92-.49-.92-1s.41-1 .92-1h5.96c.51 0 .93.49.93 1s-.41 1-.92 1m18.52-2h5.95c.51 0 .93.49.93 1s-.42 1-.93 1h-5.96c-.51 0-.92-.49-.92-1s.418-1 .927-1M33.22 52.01c-.45-.395-.724-.924-.724-1.524s.95-1.34 1.65-1.537c.84-.31 3.11-.64 3.11-.64s2.12.27 3.11.57c.95.46 1.65 1.01 1.65 1.61 0 .6-.278 1.11-.727 1.51-.45.39-1.07.61-1.75.61h-4.57c-.68 0-1.3-.22-1.75-.61m19.45 26.22s-1.04-1.2-1.87-2.02c-.05.11-.11.21-.17.32.35.74.63 1.48.63 1.48s-.41-.48-.92-1.03c-.37.47-.78.75-1.22.75-1.46 0-2.65-2.94-2.65-6.57s1.18-6.57 2.64-6.57 2.64 2.94 2.64 6.56c0 1.55-.22 2.98-.58 4.1.04.04.1.1.13.14.54.68 1.36 2.82 1.36 2.82"/>
  </g>
</svg>
