<svg xmlns="http://www.w3.org/2000/svg" viewBox="0 0 146.667 305.333">
  <defs>
    <clipPath id="a">
      <path d="M0 229h110V0H0z"/>
    </clipPath>
  </defs>
  <path fill="#fff" d="M73.585 129.138H62.048l8.827 17.297-14.396 27.568 17.1 14.414 17.1-14.414-14.4-27.568 8.83-17.297z"/>
  <g clip-path="url(#a)" transform="matrix(1.33333 0 0 -1.33333 0 305.333)">
    <path fill="#fff" d="M38.567 193.865c-1.944 0-3.52-3.536-3.52-7.893 0-4.362 1.576-7.892 3.52-7.892s3.52 3.53 3.52 7.892c0 4.357-1.576 7.893-3.52 7.893m32.623 0c-1.943 0-3.52-3.536-3.52-7.893 0-4.362 1.577-7.892 3.52-7.892 1.945 0 3.52 3.53 3.52 7.892 0 4.357-1.575 7.893-3.52 7.893M42.38 203.9h-6.76c-1.318 0-2.386-1.047-2.386-2.34s1.068-2.338 2.387-2.338h6.76c1.32 0 2.39 1.045 2.39 2.338 0 1.293-1.07 2.34-2.38 2.34m32.03 0h-6.77c-1.32 0-2.38-1.047-2.38-2.34s1.07-2.338 2.39-2.338h6.76c1.32 0 2.39 1.045 2.39 2.338 0 1.293-1.07 2.34-2.39 2.34m-53.69-23.456c-1.08 1.02-1.94 2.913-1.94 5.31 0 2.395.86 4.287 1.95 5.31zm0 14.892v-.237c-3.2-1.02-5.52-4.75-5.52-9.35s2.32-8.33 5.53-9.35v-3.77h3.58v22.69c0 3.03.47 5.94 1.32 8.7h-3.7c-.76-2.78-1.2-5.69-1.2-8.71m68.71-14.93v10.7c1.11-1.01 1.99-2.92 1.99-5.35 0-2.43-.88-4.34-1.99-5.35m0 14.71v.21c0 3.01-.44 5.92-1.21 8.71h-3.69c.86-2.76 1.32-5.68 1.32-8.71v-22.69h3.58v3.74c3.23 1 5.57 4.74 5.57 9.36s-2.34 8.37-5.57 9.36m-2.1-43.56c-.72-1.23-2.06-2.07-3.6-2.07-.44 0-.85.09-1.25.21.02-.16.05-.33.05-.496 0-.104-.02-.2-.03-.305 8.83-7.7 14.4-18.9 14.4-31.36V98.4c-25.79-17.225-59.96-17.21-85.7 0v19.125c0 12.79 5.88 24.26 15.12 31.964-2.03.05-3.69 1.53-3.99 3.45-10.05-8.65-16.41-21.32-16.41-35.42V95.71l1.12-.773c14.02-9.737 30.51-14.617 47-14.617 16.27 0 32.55 4.75 46.477 14.254l1.654 1.127v21.84c0 13.36-5.707 25.43-14.846 34.02"/>
    <path fill="#fff" d="M55.615 157.597h-.63c-5.117.05-8.32.58-9.988.965-.912.21-1.373.377-1.423.396-.922.35-1.382 1.362-1.028 2.267.357.9 1.38 1.35 2.306 1.01.09-.033 3.097-1.063 10.17-1.128 6.993-.075 9.963 1.095 9.993 1.107.91.367 1.954-.064 2.33-.95.378-.888-.04-1.907-.946-2.283-.16-.06-.89-.35-2.3-.64-1.74-.36-4.49-.74-8.49-.74m37.36 8.85c0 2.24-1.52 4.11-3.6 4.73.01.38.06.74.06 1.12v.36h-3.58v-.35c0-.45-.05-.89-.07-1.34-.57-.26-1.09-.61-1.53-1.05-.77.92-1.92 1.52-3.22 1.52-1.38 0-2.59-.66-3.36-1.67-.87 1.52-2.51 2.55-4.4 2.55-2.25 0-4.13-1.44-4.8-3.42-1.18 2.04-3.39 3.42-5.95 3.42-1.67 0-3.18-.6-4.37-1.57-.8.83-1.88 1.37-3.09 1.52-1.22-.14-2.3-.68-3.1-1.51-1.19.97-2.7 1.58-4.37 1.58-2.56 0-4.77-1.39-5.95-3.42-.67 1.98-2.55 3.42-4.8 3.42-1.9 0-3.54-1.03-4.41-2.55-.76 1.01-1.98 1.68-3.36 1.68-1.31 0-2.46-.59-3.23-1.51-.44.44-.95.79-1.53 1.05-.02.45-.07.89-.07 1.34v.36H20.7v-.35c0-.373.045-.74.06-1.113-2.075-.62-3.59-2.49-3.59-4.73 0-1.293.515-2.46 1.345-3.35-.83-1.002-1.347-2.27-1.347-3.66 0-2.93 2.205-5.333 5.08-5.76 0-.025-.008-.053-.008-.085 0-.217.032-.42.064-.63.304-1.92 1.96-3.396 3.994-3.454.04 0 .08-.01.12-.01.43 0 .847.09 1.243.208-.01-.164-.05-.33-.05-.497 0-2.75 2.27-4.97 5.08-4.97.36 0 .7.03 1.04.1.64-3.06 3.4-5.37 6.72-5.37 1.32 0 2.54.383 3.58 1.013.69-1.94 2.55-3.35 4.77-3.35 1.1 0 2.09.37 2.92.957.52-1.4 1.89-2.41 3.5-2.41 1.55 0 2.88.93 3.44 2.25.78-.48 1.69-.787 2.68-.787 2.22 0 4.08 1.404 4.77 3.35 1.05-.63 2.26-1.015 3.58-1.015 3.32 0 6.08 2.31 6.72 5.37.33-.07.68-.102 1.04-.102 2.7 0 4.88 2.062 5.04 4.66.01.1.03.2.03.31 0 .17-.04.33-.05.5.4-.12.81-.21 1.24-.21 1.55 0 2.89.83 3.61 2.06.35.6.57 1.28.57 2.03 0 .03-.01.06-.01.08 2.87.42 5.08 2.83 5.08 5.76 0 1.39-.52 2.66-1.35 3.66.83.88 1.35 2.05 1.35 3.35m-37.89 62.56c-15.87 0-29.22-10.61-33.15-24.96h3.7c2.4 7.775 7.93 14.23 15.14 17.965.08-.775.73-1.39 1.54-1.39.87 0 1.57.69 1.57 1.535 0 .43-.21.78-.5 1.06 3.62 1.46 7.57 2.28 11.72 2.28 4.17 0 8.14-.823 11.77-2.3-.27-.27-.452-.626-.452-1.04 0-.84.705-1.53 1.567-1.53.797 0 1.426.6 1.524 1.35 7.18-3.74 12.666-10.18 15.06-17.923h3.694C84.3 218.39 70.95 229 55.08 229"/>
    <path fill="#fff" d="M29.313 208.975c-.863 0-1.567-.69-1.567-1.535s.704-1.535 1.567-1.535c.862 0 1.566.69 1.566 1.535s-.71 1.535-1.57 1.535m8.55 0c-.86 0-1.57-.69-1.57-1.535s.7-1.535 1.56-1.535c.86 0 1.56.69 1.56 1.535s-.7 1.535-1.57 1.535m8.55 0c-.87 0-1.57-.69-1.57-1.535s.7-1.535 1.56-1.535c.86 0 1.56.69 1.56 1.535s-.71 1.535-1.57 1.535m8.55 0c-.86 0-1.57-.69-1.57-1.535s.702-1.535 1.564-1.535 1.566.69 1.566 1.535-.702 1.535-1.564 1.535m8.554 0c-.86 0-1.567-.69-1.567-1.535s.7-1.535 1.565-1.535 1.57.69 1.57 1.535-.707 1.535-1.57 1.535m8.55 0c-.86 0-1.566-.69-1.566-1.535s.71-1.535 1.57-1.535c.87 0 1.57.69 1.57 1.535s-.7 1.535-1.57 1.535m8.555 0c-.86 0-1.57-.69-1.57-1.535s.705-1.535 1.567-1.535 1.562.69 1.562 1.535-.704 1.535-1.566 1.535m-46.882 4.97c-.86 0-1.563-.69-1.563-1.536 0-.85.703-1.54 1.57-1.54.86 0 1.562.69 1.562 1.53s-.71 1.53-1.57 1.53m8.55 0c-.86 0-1.565-.69-1.565-1.54 0-.85.71-1.54 1.57-1.54s1.57.69 1.57 1.53-.7 1.53-1.566 1.53m8.558 0c-.86 0-1.564-.69-1.564-1.54 0-.85.703-1.54 1.565-1.54.86 0 1.56.69 1.56 1.53s-.705 1.54-1.57 1.54m8.55 0c-.864 0-1.57-.69-1.57-1.54s.71-1.54 1.57-1.54c.867 0 1.566.69 1.566 1.53s-.7 1.532-1.562 1.532m8.55 0c-.86 0-1.563-.69-1.563-1.54 0-.85.7-1.534 1.56-1.534s1.566.69 1.566 1.535-.7 1.53-1.564 1.53m8.55 0c-.86 0-1.56-.69-1.56-1.537s.71-1.537 1.57-1.537c.86 0 1.567.69 1.567 1.53s-.7 1.536-1.56 1.536m-38.65 4.8c-.86 0-1.57-.69-1.57-1.53s.704-1.535 1.566-1.535 1.56.69 1.56 1.538-.7 1.53-1.57 1.53m34.21 0c-.867 0-1.57-.69-1.57-1.537s.705-1.532 1.57-1.532c.865 0 1.564.69 1.564 1.535s-.7 1.536-1.565 1.536m-21.22 4.97c-.868 0-1.57-.69-1.57-1.54 0-.84.702-1.53 1.564-1.53.86 0 1.567.69 1.567 1.53 0 .84-.7 1.53-1.562 1.53m8.55 0c-.863 0-1.566-.69-1.566-1.54 0-.84.7-1.53 1.567-1.53.87 0 1.57.69 1.57 1.535s-.7 1.535-1.57 1.535m-12.99-4.93c-.86 0-1.565-.69-1.565-1.54 0-.85.702-1.534 1.565-1.534s1.57.69 1.57 1.54c0 .85-.702 1.538-1.564 1.538m8.56 0c-.86 0-1.568-.69-1.568-1.536 0-.85.7-1.537 1.564-1.537s1.57.68 1.57 1.53c0 .847-.7 1.536-1.56 1.536m8.55 0c-.86 0-1.564-.69-1.564-1.54 0-.85.71-1.54 1.57-1.54s1.57.684 1.57 1.533c0 .85-.705 1.54-1.567 1.54M53.4 70.92c1.12-1.096 2.986-1.096 4.11 0 1.12 1.1 1.12 2.93 0 4.028-1.124 1.097-2.99 1.097-4.11 0-1.12-1.098-1.12-2.928 0-4.026m5.975-5.856c1.12-1.1 2.99-1.1 4.11 0s1.12 2.928 0 4.027c-1.12 1.098-2.99 1.098-4.11 0-1.12-1.1-1.12-2.928 0-4.026m6.164-6.04c1.12-1.096 2.98-1.096 4.1 0 1.12 1.1 1.12 2.93 0 4.028-1.12 1.09-2.99 1.09-4.11 0-1.12-1.1-1.12-2.93 0-4.03m5.98-5.858c1.12-1.097 2.99-1.097 4.11 0 1.12 1.098 1.12 2.928 0 4.026-1.12 1.1-2.99 1.1-4.11 0s-1.12-2.928 0-4.026m11.95-11.71c1.12-1.098 2.99-1.098 4.11 0 1.12 1.097 1.12 2.928 0 4.025-1.12 1.1-2.99 1.1-4.11 0-1.12-1.097-1.12-2.928 0-4.026m5.98-5.856c1.12-1.1 2.99-1.1 4.11 0s1.12 2.93 0 4.03-2.99 1.1-4.11 0-1.12-2.926 0-4.024M77.49 51.35c-1.122-1.098-1.122-2.928 0-4.026 1.12-1.098 2.987-1.098 4.108 0 1.12 1.098 1.12 2.928 0 4.026-1.12 1.097-2.988 1.097-4.11 0M53.395 70.93c1.12-1.098 2.988-1.098 4.11 0 1.12 1.098 1.12 2.928 0 4.026-1.122 1.097-2.99 1.097-4.11 0-1.12-1.098-1.12-2.928 0-4.026m-1.307-8.085c0-1.553 1.32-2.847 2.906-2.847 1.584 0 2.905 1.294 2.905 2.847 0 1.552-1.33 2.846-2.91 2.846-1.59 0-2.91-1.29-2.91-2.84m0-8.28c0-1.55 1.32-2.84 2.9-2.84 1.58 0 2.9 1.3 2.9 2.85s-1.32 2.85-2.91 2.85-2.91-1.29-2.91-2.84m0-8.54c0-1.55 1.32-2.84 2.9-2.84s2.91 1.3 2.91 2.85-1.32 2.85-2.91 2.85-2.91-1.3-2.91-2.85m0-8.28c0-1.55 1.32-2.85 2.9-2.85s2.9 1.3 2.9 2.85-1.32 2.85-2.9 2.85-2.9-1.29-2.9-2.85m0 25.1c0-1.55 1.32-2.85 2.9-2.85 1.59 0 2.91 1.3 2.91 2.85s-1.32 2.85-2.9 2.85c-1.59 0-2.91-1.29-2.91-2.84"/>
    <path fill="#fff" d="M56.2 74.954c-1.12 1.098-2.988 1.098-4.11 0-1.12-1.098-1.12-2.928 0-4.026 1.122-1.097 2.99-1.097 4.11 0 1.12 1.098 1.12 2.928 0 4.026M50.224 69.1c-1.12 1.096-2.99 1.096-4.11 0-1.12-1.1-1.12-2.93 0-4.028 1.12-1.098 2.99-1.098 4.11 0s1.12 2.928 0 4.027m-6.164-6.04c-1.12 1.09-2.99 1.09-4.11 0-1.12-1.1-1.12-2.93 0-4.03s2.99-1.1 4.11 0 1.12 2.93 0 4.02m-5.977-5.85c-1.12 1.1-2.988 1.1-4.11 0-1.12-1.1-1.12-2.93 0-4.03 1.122-1.1 2.99-1.1 4.11 0s1.12 2.93 0 4.02M26.13 45.5c-1.12 1.097-2.99 1.097-4.11 0-1.12-1.098-1.12-2.93 0-4.027s2.99-1.097 4.11 0c1.12 1.098 1.12 2.93 0 4.026m-5.977-5.86c-1.12 1.1-2.99 1.1-4.11 0s-1.12-2.93 0-4.03 2.99-1.1 4.11 0 1.12 2.93 0 4.02m7.844 11.71c-1.12-1.1-1.12-2.93 0-4.03s2.99-1.1 4.11 0 1.12 2.93 0 4.02c-1.12 1.1-2.99 1.1-4.11 0M56.2 74.95c-1.12 1.1-2.988 1.1-4.11 0-1.12-1.1-1.12-2.93 0-4.022 1.122-1.094 2.99-1.094 4.11 0 1.12 1.1 1.12 2.93 0 4.03m33.873-51.07c-2.458 0-4.46-1.96-4.46-4.37V9.55c0-2.41 2.002-4.37 4.46-4.37h10.18c2.46 0 4.46 1.96 4.46 4.37v9.972c0 2.41-2 4.37-4.46 4.37zM100.253 0h-10.18C84.7 0 80.33 4.28 80.33 9.543v9.977c0 5.264 4.37 9.545 9.743 9.545h10.18c5.37 0 9.74-4.28 9.74-9.542v-9.98c0-5.263-4.37-9.545-9.74-9.545M49.905 23.885c-2.458 0-4.46-1.96-4.46-4.37V9.543c0-2.41 2.002-4.37 4.46-4.37h10.18c2.46 0 4.46 1.96 4.46 4.37v9.974c0 2.41-2 4.37-4.46 4.37zM60.085-.003h-10.18c-5.373 0-9.742 4.282-9.742 9.545v9.974c0 5.264 4.37 9.545 9.742 9.545h10.18c5.372 0 9.74-4.28 9.74-9.54V9.54c0-5.263-4.368-9.545-9.74-9.545M9.753 23.885c-2.458 0-4.46-1.96-4.46-4.37V9.543c0-2.41 2.002-4.37 4.46-4.37h10.18c2.46 0 4.46 1.96 4.46 4.37v9.974c0 2.41-2 4.37-4.46 4.37zM19.933-.003H9.753C4.38-.003.01 4.28.01 9.542v9.974c0 5.264 4.37 9.545 9.743 9.545h10.18c5.374 0 9.744-4.28 9.744-9.54V9.54c0-5.263-4.37-9.545-9.743-9.545"/>
  </g>
</svg>
