<svg xmlns="http://www.w3.org/2000/svg" viewBox="0 0 744 178.667">
  <defs>
    <clipPath id="a">
      <path d="M0 134h558V0H0z"/>
    </clipPath>
  </defs>
  <path fill="none" stroke="#fff" stroke-width="2.667" stroke-miterlimit="10" style="opacity:.4" d="M500.833 70.977h-63.777v-47.48h63.777z"/>
  <path fill="none" stroke="#fff" stroke-width="2.667" stroke-miterlimit="10" style="opacity:.4" d="M506.444 77.32h-75v-6.343h75z"/>
  <path fill="#fff" style="opacity:.4" d="M472.444 23.495h-7v-4.688h7zm10.584 62.66h-28.083v-2.75h28.083z"/>
  <path fill="#fff" style="opacity:.4" d="M459.57 77.736l-5.755 17.73-3.33-1.08 5.757-17.73zm18.165 0l5.756 17.73 3.33-1.08-5.75-17.73z"/>
  <g clip-path="url(#a)" transform="matrix(1.33333 0 0 -1.33333 0 178.667)" style="opacity:.4" fill="#fff">
    <path d="M339.99 101.51c-4.844 0-5.406-6.063-5.406-6.063h10.812s-.396 6.063-5.406 6.063m0-1c2.886 0 3.894-2.56 4.238-4.063h-8.45c.375 1.516 1.422 4.063 4.212 4.063m.062 8.645c-1.847 0-3.344-1.497-3.344-3.344 0-1.84 1.497-3.34 3.344-3.34 1.847 0 3.344 1.5 3.344 3.35s-1.497 3.35-3.344 3.35m0-1c1.292 0 2.344-1.05 2.344-2.34 0-1.29-1.052-2.34-2.344-2.34-1.292 0-2.344 1.05-2.344 2.35s1.052 2.35 2.344 2.35m23.52-6.65c-4.843 0-5.405-6.06-5.405-6.06h10.812s-.4 6.07-5.41 6.07m0-1c2.88 0 3.89-2.56 4.24-4.06h-8.45c.37 1.52 1.42 4.07 4.21 4.07m.06 8.65c-1.85 0-3.35-1.49-3.35-3.34 0-1.84 1.5-3.34 3.34-3.34 1.84 0 3.34 1.5 3.34 3.34s-1.5 3.35-3.35 3.35m0-1c1.29 0 2.34-1.05 2.34-2.35 0-1.29-1.06-2.34-2.35-2.34s-2.34 1.05-2.34 2.35 1.05 2.35 2.34 2.35m-11.76-13.6c-6.61 0-7.38-8.27-7.38-8.27h14.75s-.54 8.27-7.38 8.27m0-1c4.5 0 5.84-4.23 6.23-6.27h-12.43c.44 2.06 1.87 6.27 6.2 6.27m.09 11.43c-2.52 0-4.56-2.04-4.56-4.56 0-2.52 2.04-4.56 4.56-4.56 2.52 0 4.56 2.04 4.56 4.56 0 2.52-2.04 4.56-4.56 4.56m0-1c1.96 0 3.56-1.59 3.56-3.56 0-1.96-1.6-3.56-3.56-3.56s-3.56 1.6-3.56 3.56c0 1.97 1.59 3.56 3.56 3.56m185.78 21.21l-9.06 2.53 11 4.46zm8.32-9.79l-13.55 3.77.53 1.93 13.54-3.78zm-2.13-3.45l-12.47 3.47.53 1.93 12.46-3.47zm14.09-3.73l-17.55-5.46-1.1 3.53 17.55 5.46z"/>
    <path d="M546.787 103.224l-2.235-8.02-21.514 5.994 7.275 26.11 9.327 4.56 14.038-3.91-4.735-16.996 2.273.707 4.926 17.67-16.697 4.66-10.817-5.29-8.053-28.91 25.367-7.07 3.118 11.19z"/>
    <path d="M539.333 109.073l-8.97 2.5.536 1.926 8.97-2.5zm-.18-6.727l-2.377 1.25 1.25 2.376z"/>
    <path fill="none" stroke="#fff" stroke-width="1.5" stroke-miterlimit="10" d="M78.347 113.192c.958-2.382-.196-5.09-2.578-6.048-2.39-.96-5.09.196-6.05 2.578-.96 2.383.19 5.09 2.58 6.048 2.38.957 5.09-.197 6.04-2.58z"/>
    <path d="M84.42 95.178c-.137-.444-.268-.864-.39-1.253 5.793 1.978 10.08 2.202 10.552 1.028.54-1.34-3.776-4.812-10.833-7.65s-12.58-3.323-13.12-1.98c-.48 1.18 2.81 4.006 8.41 6.602-.36.195-.75.408-1.16.634-5.9-2.83-9.57-6.01-8.82-7.87.87-2.18 7.35-1.48 15.07 1.62s12.87 7.08 12 9.26c-.75 1.85-5.56 1.62-11.73-.41"/>
    <path d="M81.682 96.203c-.05-.544-.1-1.043-.145-1.5-.054-.54-.106-1.038-.148-1.43-.31.254-.69.577-1.1.93l-1.15.985c-4.43 3.836-12.04 10.722-13.32 13.902-1.76 4.37.37 9.355 4.73 11.112 4.37 1.758 9.35-.367 11.11-4.737 1.28-3.18.55-13.423.01-19.262m-11.63 25.262c-5.07-2.038-7.53-7.817-5.49-12.882 1.35-3.354 8.69-10.08 13.25-14.05l1.11-.96c1.43-1.222 2.41-2.035 2.56-2.158l.96-.787.14 1.232c.03.193.17 1.46.36 3.33l.14 1.457c.54 6.027 1.18 15.97-.17 19.326-2.04 5.065-7.82 7.53-12.88 5.492"/>
    <path fill-rule="evenodd" d="M437.312 43.534c-.554-1.886-1.762-4.225-3.364-6.41 1.198-.952 2.25-1.91 3.016-2.843 2.695 1.75 4.772 4.44 5.815 7.79zm5.83-.11c.773 3.425.32 6.792-1.142 9.653-1.13-.424-2.52-.73-4.033-.953.25-2.682.14-5.267-.292-7.234zM429.347 32.06c2.257-.07 4.445.505 6.414 1.527-.69.863-1.57 1.73-2.61 2.54-1.09-1.547-2.39-2.944-3.8-4.065m11.96 22.22c-1.19 1.87-2.8 3.463-4.78 4.574.63-1.622 1.09-3.536 1.31-5.434 1.31.183 2.51.49 3.48.86M426 32.332c.454-.12.918-.196 1.44-.24 1.71 1.334 3.33 3.03 4.687 4.846-1.39.954-2.89 1.694-4.31 2.172zm3.56 13.285l-1.367-5.106c1.51-.5 3.153-1.42 4.676-2.61 1.39 1.96 2.47 3.99 3.1 6zm.364 1.355l6.416-1.72c.48 2.148.55 4.405.304 6.747-1.91-.27-3.795-.25-5.355.07zm1.743 6.506c1.514-.31 3.24-.384 4.873-.24-.3 2.307-.924 4.508-1.696 6.507-.474.223-.914.39-1.367.51zm-5.207-14.004c-1.47.296-3.138.404-4.82.273.268-2.25.82-4.53 1.637-6.54.474-.224.913-.39 1.365-.51zm5.664 21.145c-.454.12-.918.19-1.44.24-1.664-1.35-3.304-2.94-4.72-4.79 1.35-.94 2.88-1.74 4.344-2.23zM421.77 47.7c-.452-2.06-.537-4.36-.305-6.75 1.91.263 3.794.243 5.354-.08l1.36 5.108zm8.148 4.74c-1.51.5-3.152 1.425-4.676 2.61-1.382-1.908-2.448-3.9-3.108-5.998l6.416-1.72zm-13.133-13.77c1.194-1.87 2.803-3.464 4.793-4.53-.664 1.68-1.088 3.537-1.26 5.423-1.307-.183-2.504-.49-3.533-.894m11.972 22.26c-2.268.02-4.458-.55-6.427-1.57.656-.81 1.54-1.67 2.58-2.49 1.137 1.53 2.49 2.96 3.847 4.05m-13.81-11.41c-.77-3.43-.317-6.79 1.144-9.65 1.13.42 2.52.72 4.03.95-.29 2.69-.17 5.32.3 7.23zm5.832-.11c.61 1.92 1.8 4.21 3.36 6.41-1.2.95-2.25 1.91-3.02 2.84-2.7-1.75-4.77-4.44-5.82-7.79zm12.38 12.42c8.58-2.3 13.54-10.9 11.24-19.48-2.3-8.59-10.9-13.55-19.48-11.25-8.59 2.3-13.55 10.89-11.25 19.48 2.3 8.58 10.89 13.54 19.48 11.24"/>
    <path fill="none" stroke="#fff" stroke-miterlimit="10" d="M195.91 15.103l5.777 5.848-8.937 8.94s-7.962 3.2-10.756 2.07c-1.463-.59-5.463-8.9-6.088-10.28s1.62-4.35 3.75-1.9c2.53 2.91 5.412 6.26 5.412 6.26"/>
    <path d="M166.04 21.805l-.75-.668 5.428-5.442.733.682zm32.212-9.045l-2.342 2.343-2.018 2.018-9.01 9.09-.716-.69 9.018-9.1 2.02-2.01 2.34-2.34c.286-.28.177-1.03-.397-1.6-.487-.48-1.06-.61-1.384-.52l-.3.09-5.623 5.62-.825-.82 5.28-5.28.235-.83c.09-.32-.033-.89-.52-1.38-.504-.5-1.085-.61-1.41-.5l-.526.18-5.445 5.45-.83-.83 5.27-5.27.26-.79c.11-.33-.01-.91-.51-1.41-.32-.32-.72-.52-1.1-.54l-.15-.01-5.9 5.9-.83-.82 5.93-5.93-.01-.07c-.02-.38-.22-.78-.54-1.1-.57-.57-1.32-.68-1.6-.39l-2.34 2.34-2.02 2.02-.89.9c-.02-.02-.03-.05-.06-.07l-.67-.622.91-.91 2.01-2.02L185.9.5c.72-.727 2.07-.55 3.02.395.51.52.79 1.16.83 1.75.59.04 1.23.32 1.742.83.73.73.997 1.7.75 2.44.74-.24 1.707.024 2.435.75.702.705.98 1.635.775 2.36.73-.2 1.66.075 2.36.78.95.95 1.13 2.3.4 3.02"/>
    <path d="M180.686 7.115c-.012-.013-.016-.032-.03-.044l-.694-.64-1.778-1.65c-.33-.3-.905-.23-1.28.18-.376.41-.412.98-.082 1.29l1.727 1.61.73.68.01.02c.33.31.9.23 1.28-.17.36-.39.4-.93.11-1.24m-4.83.16c-.33-.3-.91-.23-1.28.18-.38.4-.41.98-.08 1.29l1.64 1.52.73.68.1.1c.33.31.9.23 1.28-.17s.41-.98.08-1.29l-.05-.04-.74-.68zm-3.58 2.65c-.38.41-.42.99-.08 1.29l1.55 1.44.73.68.19.18c.33.31.9.23 1.28-.17.37-.4.41-.98.08-1.29l-.14-.12-.74-.68-1.6-1.49c-.33-.31-.91-.23-1.28.18m-.96 2.24c-.33-.31-.91-.23-1.28.174-.38.4-.42.98-.09 1.29L171.4 15l.733.68.273.25c.33.31.904.23 1.28-.174.375-.403.41-.982.08-1.29l-.22-.205-.73-.68zm9.85-3.24c-.5.53-1.16.774-1.75.71.11.58-.09 1.26-.58 1.79-.49.52-1.14.77-1.71.716.09.57-.11 1.23-.59 1.754-.47.5-1.08.75-1.64.72.06.555-.14 1.187-.6 1.69-.76.807-1.9.964-2.57.35l-.3-.28-.73-.684-1.44-1.34c-.66-.616-.59-1.77.16-2.58.47-.5 1.08-.75 1.64-.72-.07-.56.14-1.19.6-1.69.49-.52 1.13-.77 1.71-.716-.09-.574.1-1.237.59-1.76.5-.53 1.16-.77 1.75-.71-.11-.58.09-1.26.58-1.79.75-.81 1.9-.97 2.56-.35l1.8 1.674.67.62c.02.02.03.04.05.06.59.63.51 1.73-.22 2.517m22.25 16.22c-.47.468-.47 1.22 0 1.68.46.468 1.21.468 1.68 0 .46-.46.46-1.212 0-1.68-.47-.46-1.22-.46-1.68 0m4.18 1.68l-7.23 7.23c-1.23 1.23-2.19.198-3.42-1.032s-2.27-2.19-1.04-3.42l7.23-7.23c1.23-1.23 2.07-.08 3.3 1.15s2.38 2.073 1.15 3.303M282 110.93c.61 1.356 2.196 1.966 3.55 1.36 1.36-.6 1.97-2.19 1.365-3.546-.604-1.35-2.19-1.96-3.55-1.36-1.36.61-1.97 2.2-1.365 3.55m-2.43.98c-1.2-2.71.29-12.57.29-12.57s8.33 5.5 9.54 8.21c1.206 2.71-.014 5.89-2.726 7.1-2.71 1.21-5.89-.01-7.1-2.72"/>
    <path d="M262.774 99.467c-.523 2.453-.186 5.083 1.09 7.51l3.826-2.21c-.735-1.347-1.36-3.305-1.682-5.396-1.186.14-2.296.19-3.234.1m.28-1.05c.858.1 1.822.09 2.845-.04-.26-1.45-.31-2.94-.15-4.34-1.29 1.21-2.18 2.73-2.7 4.38m3.86-.16c1.29-.24 2.53-.66 3.58-1.18l-2.74-4.74c-.32.19-.62.4-.93.66-.21 1.69-.17 3.52.08 5.27m1.79-6.47l2.74 4.75c.97-.65 1.95-1.51 2.81-2.51-1.39-1.09-2.96-2.05-4.52-2.7-.39.14-.72.29-1.04.47m2.48-.88c1.29.56 2.55 1.35 3.68 2.3.62-.82 1.11-1.65 1.46-2.44-1.69-.37-3.46-.36-5.14.15m6.19.14c-.39.86-.99 1.8-1.7 2.76 1.65 1.33 3.03 2.85 3.83 4.16l3.82-2.21c-1.46-2.31-3.57-3.92-5.96-4.69m-6.32 7.02c-1.11.56-2.52.96-4.02 1.14.31 1.85.84 3.57 1.6 5.03l4.49-2.59zm2.62 4.53l-4.49 2.59c.92 1.45 2.12 2.74 3.55 3.9.91-1.2 1.96-2.23 3-2.91zm-.82 7.94c-.62.827-1.11 1.658-1.45 2.398 1.69.377 3.46.37 5.16-.11-1.24-.545-2.55-1.35-3.72-2.28m-2.49 2.115c.39-.854.99-1.79 1.7-2.75-1.62-1.34-2.98-2.83-3.83-4.15l-3.83 2.21c1.46 2.31 3.57 3.92 5.96 4.69m-2.7-21.55c6.01-3.47 13.49-1.463 16.96 4.546.93 1.62 1.46 3.35 1.63 5.073l-1.17-.366c-.19-1.24-.58-2.47-1.21-3.66l-3.69 2.13-1.787-.56v.01c-.87-1.3-2.03-2.55-3.4-3.67-.91 1.2-1.96 2.23-3 2.91l2.06 3.577 4.31-2.484-.11 1.33-3.65 2.11 2.07 3.57c.35-.176.74-.33 1.15-.47l-.103 1.24c-.16.07-.323.135-.475.21l.4.695-.16 1.91-1.19-2.06c-1.006.67-2 1.58-2.82 2.56 1.203.93 2.49 1.68 3.775 2.3l-.152 1.83c-5.323 1.475-11.07-.73-13.98-5.78-3.47-6.01-1.464-13.49 4.54-16.96"/>
    <path d="M278.414 98.266l-.027.326.183-.106c-.048-.074-.107-.146-.156-.22M6.524 118.31c-1.356-.605-2.945.005-3.548 1.36-.604 1.357.006 2.946 1.362 3.55 1.356.603 2.945-.007 3.548-1.363.604-1.356-.006-2.944-1.362-3.548m-3.298 7.25c-2.712-1.21-3.932-4.39-2.724-7.1 1.207-2.71 9.536-8.21 9.536-8.21s1.492 9.86.284 12.58c-1.207 2.71-4.384 3.93-7.096 2.72"/>
    <path d="M23.91 110.33c-.32 2.09-.946 4.048-1.68 5.395l3.826 2.21c1.275-2.427 1.612-5.057 1.09-7.51-.94.09-2.05.04-3.235-.096m.26-5.34c.16 1.4.11 2.88-.14 4.34 1.03.12 1.99.13 2.85.04-.52-1.65-1.41-3.18-2.7-4.39m-1.08-1.05c-.31-.27-.61-.48-.93-.66l-2.74 4.74c1.05.52 2.29.94 3.58 1.18.26-1.75.3-3.58.09-5.27m-2.91-1.68c-1.56.66-3.12 1.61-4.51 2.7.86 1 1.84 1.86 2.81 2.51l2.74-4.75c-.32-.19-.65-.34-1.03-.48m-6.59-.56c.35.79.84 1.62 1.46 2.44 1.14-.95 2.4-1.74 3.69-2.3-1.69-.51-3.45-.52-5.15-.15m-7 4.98l3.83 2.21c.8-1.31 2.19-2.83 3.84-4.16-.71-.96-1.31-1.89-1.7-2.75-2.38.77-4.49 2.38-5.96 4.7m10.22 5.9l4.49 2.59c.76-1.46 1.29-3.18 1.6-5.03-1.49-.18-2.91-.58-4.02-1.14zm-2.61 4.52c1.04.68 2.09 1.71 3 2.91 1.43-1.16 2.64-2.44 3.56-3.9l-4.49-2.59zm-.84 6.64c1.71.48 3.48.48 5.17.11-.33-.74-.82-1.57-1.44-2.39-1.16.93-2.47 1.73-3.72 2.28m12.17-4.87l-3.82-2.21c-.85 1.325-2.21 2.81-3.83 4.16.71.96 1.31 1.9 1.7 2.754 2.39-.77 4.5-2.38 5.96-4.7m1.29.11c-2.91 5.05-8.65 7.257-13.98 5.78l-.15-1.823c1.28-.62 2.57-1.38 3.77-2.306-.822-.98-1.814-1.89-2.822-2.56l-1.19 2.058-.16-1.91.4-.69c-.15-.08-.32-.14-.48-.21l-.1-1.24c.41.14.8.29 1.15.47l2.06-3.58-3.65-2.105-.11-1.33 4.31 2.49 2.06-3.57c-1.04-.68-2.09-1.71-3-2.91-1.37 1.13-2.53 2.37-3.4 3.67v-.016l-1.79.553-3.69-2.13c-.62 1.19-1.015 2.42-1.2 3.66l-1.165.36c.17-1.726.69-3.45 1.63-5.076 3.47-6.01 10.953-8.014 16.963-4.544 6.01 3.47 8.01 10.95 4.54 16.96"/>
    <path d="M11.505 109.225l.027.326-.183-.1c.04-.07.1-.14.15-.22M357.75 42.6c-7.18 0-13-5.82-13-13s5.82-13 13-13 13 5.82 13 13-5.82 13-13 13m0-1.5c6.34 0 11.5-5.16 11.5-11.5s-5.16-11.5-11.5-11.5-11.5 5.16-11.5 11.5 5.16 11.5 11.5 11.5"/>
    <path d="M357.752 38.282c-4.795 0-8.682-3.887-8.682-8.682s3.887-8.683 8.682-8.683 8.682 3.888 8.682 8.683-3.887 8.682-8.682 8.682m0-1.5c3.96 0 7.182-3.222 7.182-7.182 0-3.96-3.222-7.183-7.182-7.183-3.96 0-7.182 3.222-7.182 7.183 0 3.96 3.222 7.182 7.182 7.182"/>
    <path d="M357.596 25.543c-2.013 0-3.65 1.638-3.65 3.65h-1.5c0-2.844 2.305-5.15 5.15-5.15.012 0 .022.003.034.003v1.5c-.012 0-.022-.003-.034-.003m-8.526-4.913c-.98 0-1.835-.366-2.305-1.088L338.272 6.52c-.882-1.352-.08-3.44 1.793-4.66.874-.57 1.826-.85 2.683-.85.98 0 1.835.366 2.306 1.088l8.492 13.022c.882 1.353.08 3.44-1.793 4.66-.874.57-1.826.85-2.683.85m0-1.5c.6 0 1.263-.215 1.863-.606 1.222-.796 1.724-2.022 1.356-2.585l-8.5-13.03c-.24-.37-.82-.41-1.05-.41-.6 0-1.27.21-1.87.6-.64.41-1.13.98-1.35 1.56-.08.19-.23.68-.01 1.02L348 18.7c.24.367.816.407 1.05.407m-211.9 67.43l-9.333 9.04 9.334.002zm24.25 24.01l-1.12 1.12-8.624-8.624-8.624 8.627-1.12-1.12 9.744-9.742z"/>
    <path d="M151.458 87.305H137.47l-8.887 8.608v22.392h22.875v-6.543h1.5v8.042h-25.875V95.28l9.78-9.476h16.095v9.708h-1.5z"/>
    <path d="M152.958 111.763h-12.125V96.5l1.5 1.5v12.263h18.333v-13.25h-17.08l-1.5-1.5h20.08v16.25z"/>
    <path d="M143.586 97.013l6.18 6.178-1.12 1.12-6.313-6.31v-.98zm15.827 0l-6.18 6.178 1.12 1.12 6.313-6.31v-.98z"/>
    <path d="M142.333 97.013v.985l-1.5-1.5v-.985h1.253l1.5 1.5zm-26.81-39.84c-.846 0-1.53.686-1.53 1.53 0 .847.684 1.533 1.53 1.533s1.53-.686 1.53-1.532c0-.845-.684-1.53-1.53-1.53m-4.844 0c-.85 0-1.54.685-1.54 1.53 0 .846.68 1.532 1.53 1.532.84 0 1.53-.686 1.53-1.532 0-.845-.69-1.53-1.53-1.53m-4.85 0c-.85 0-1.53.685-1.53 1.53 0 .846.68 1.532 1.53 1.532.84 0 1.53-.686 1.53-1.532 0-.845-.69-1.53-1.54-1.53m4.84 12.21c-5.9 0-10.68-4.78-10.68-10.68 0-5.897 4.78-10.678 10.68-10.678 5.9 0 10.68 4.78 10.68 10.678 0 5.9-4.78 10.68-10.68 10.68"/>
    <path fill="none" stroke="#fff" stroke-width="1.5" stroke-miterlimit="10" d="M115.688 47.15c0-3-1.447-5.66-3.68-7.323-.425-1.584-.758-6.74-.758-6.74l-4.688 4.938H97.5c-5.04 0-9.125 4.085-9.125 9.125s4.085 9.125 9.125 9.125h9.062c5.04 0 9.125-4.085 9.125-9.125zm329.282 63.904c0-4.694.104-8.5-4.59-8.5h-17.25c-4.695 0-4.626 3.806-4.626 8.5s-.194 8.5 4.5 8.5h17.375c4.69 0 4.59-3.806 4.59-8.5z"/>
    <path fill="none" stroke="#fff" stroke-width="1.5" stroke-miterlimit="10" d="M432.552 103.762c0-4.694.105-8.5-4.59-8.5h-10.666l-6.584-6.5v6.5c-4.694 0-4.625 3.806-4.625 8.5s-.194 8.5 4.5 8.5h17.375c4.695 0 4.59-3.806 4.59-8.5z"/>
    <path d="M487.846 76.298l1.347-.64c.815-.386 1.788-.04 2.173.773l3.845 8.11c.39.82.04 1.79-.77 2.17l-1.34.64c-.81.39-1.78.04-2.17-.77l-3.84-8.1c-.38-.81-.04-1.78.78-2.17"/>
    <path d="M477.205 64.952l-.842.4.466.98.84-.4c2.46-1.17 5.42-.12 6.59 2.343l4.68 9.874 1.9-.91c1.98-.94 4.35-.1 5.29 1.88.94 1.98.09 4.35-1.9 5.29l-1.41.67.46.98 1.41-.67c2.52-1.2 3.61-4.22 2.41-6.74-1.2-2.52-4.22-3.6-6.75-2.4l-.92.43-4.22-8.9c-1.43-3.01-5.03-4.29-8.04-2.86M465.61 86.8l-1.344.64c-.82.383-1.165 1.36-.78 2.17l3.846 8.104c.383.812 1.356 1.157 2.17.77l1.345-.637c.82-.388 1.167-1.36.78-2.17l-3.84-8.11c-.385-.81-1.36-1.156-2.17-.77"/>
    <path d="M490.373 76.766l-.983.466 4.322 9.113c3.038 6.403.288 14.09-6.13 17.135-6.42 3.045-14.112.312-17.15-6.092l-4.323-9.112-.99.466 4.32 9.113c3.29 6.944 11.63 9.908 18.59 6.606 6.96-3.3 9.94-11.63 6.65-18.58zm-18.713-6.904c-.395.188-.868.02-1.056-.375l-.522-1.102c-.187-.394-.018-.868.378-1.056l4.397-2.09c.395-.19.87-.02 1.057.37l.522 1.1c.187.39.018.87-.378 1.05zm2.732-5.6l-4.398 2.086c-.937.445-1.34 1.568-.895 2.504l.52 1.1c.44.937 1.57 1.336 2.5.89l4.4-2.085c.93-.444 1.34-1.567.89-2.503l-.53-1.102c-.45-.935-1.57-1.334-2.51-.89"/>
    <text fill="#fff" transform="matrix(.92998 .43897 .3676 -.7788 167.547 47.537)" font-size="30.192" font-family="Arial">
      <tspan x="0" y="0">$</tspan>
    </text>
    <path fill="none" stroke="#fff" stroke-width="1.3" stroke-miterlimit="10" d="M228.842 98.04c1.56-6.05-4.065-7.422-10.98-9.207l-6.183-1.595c-6.92-1.785-12.36-3.89-13.92 2.16l-1.44 5.563-2.83 10.96 31.23 8.06 2.82-10.95z"/>
    <path fill="none" stroke="#fff" stroke-width="1.3" stroke-miterlimit="10" d="M213.113 114.463l-9.804-2.53.84-3.268 9.8 2.53zm13.542-7.953l-14.924-6.95-16.3-1.108-1.92 7.464 31.23 8.06z"/>
    <path d="M215.808 100.022c.247-.958-.33-1.936-1.287-2.183l-4.57-1.19c-.96-.25-1.93.33-2.18 1.29-.24.96.33 1.93 1.29 2.18l4.58 1.18c.96.25 1.94-.33 2.18-1.29"/>
  </g>
</svg>
