<svg xmlns="http://www.w3.org/2000/svg" viewBox="0 0 311.333 273.247" style="max-width:208px; height:auto">
  <defs>
    <clipPath id="a">
      <path d="M0 204.935h233.5V0H0z"/>
    </clipPath>
  </defs>
  <path fill="#fff" d="M143.288 0v22.002H20.666v181.336H0v30.667h90.278L80.186 267.01l20.4 6.236 7.617-24.908H197l7.614 24.908 20.4-6.237-10.09-33.01h96.408v-30.667h-19.998V22.003H164.622v-22zM30 31.335h252V201.34H30zM8 211.338h295.334v14.667H8zm104.586 22.667h80.03l2.752 9h-85.534z"/>
  <path fill="#fff" d="M74.17 189.397h43.71v-45.9H74.17zm59.526 0h43.71v-60.984h-43.71zm59.116-.11h43.71v-77.77h-43.71z"/>
  <g clip-path="url(#a)" transform="matrix(1.33333 0 0 -1.33333 0 273.247)">
    <path fill="#fff" d="M170.462 156.57l-.194-8.764 5.203-.073.45 20.157-24.52-8.133 2.006-3.822 13.496 4.477c-12.232-16.23-26.245-29.058-50.736-38.395C99.12 115.52 73.02 110.53 55.45 110.41l.048-4.418c18.573.127 45.094 5.19 63.063 12.042 24.93 9.503 39.44 22.363 51.906 38.536"/>
  </g>
</svg>
