<svg xmlns="http://www.w3.org/2000/svg" id="Слой_1" data-name="Слой 1" viewBox="0 0 746.68 559.87">
  <defs>
    <style>
      .cls-1{fill:#ffffff;}
    </style>
  </defs>
  <path class="cls-1" d="M520.24 451.66c0-12.61-7.27-22.87-16.21-22.87h-32.09a62.08 62.08 0 0 0-27.28-35.19 7.77 7.77 0 0 0 6.38-7.64 7.32 7.32 0 0 0-.21-1.06 9 9 0 0 0 5-16.11 9 9 0 0 0-2.6-15.45v-8.57c4.79-2.07 8.14-9.12 8.14-18 0-8-2.74-14.59-6.81-17.3.85-.33 1.7-.66 2.47-1a29.26 29.26 0 0 0 6.95-4.08 12.09 12.09 0 0 0 2.49-2.76 6.79 6.79 0 0 0 1.11-3.63 6.67 6.67 0 0 0-.92-3.31 12.53 12.53 0 0 0-3.44-3.68 37.76 37.76 0 0 0-9.56-4.83c-1.63-.6-3.45-1.16-5.35-1.71-.14-.33-.29-.65-.44-1V261.8c0-16.1-14.62-29.2-32.6-29.2h-46.55c-18 0-32.6 13.1-32.6 29.19l-.11 22.68c-11.65 3.36-19.22 7.93-19.22 13.49 0 4.43 4.85 8.48 14 11.83-4.5 2.39-7.57 9.28-7.57 17.73 0 8.88 3.31 16 8.14 18v7.67a9 9 0 0 0-2.83 15.58 9 9 0 0 0 5.64 16.07h.3a6.88 6.88 0 0 0-.3 1.51 7.16 7.16 0 0 0 10.11 6.57c0 .21-.06.42-.06.64s.06.54.08.81a62.1 62.1 0 0 0-26 34.4h-24.89a22.83 22.83 0 0 0-23 23.11l10.12 83.91h-3.57a3.43 3.43 0 0 0-3.42 3.42v17.26a3.43 3.43 0 0 0 3.42 3.42h237.68a3.43 3.43 0 0 0 3.42-3.42v-17.24a3.43 3.43 0 0 0-3.42-3.42h-4l9.59-83.89zm-67-134.88a23.51 23.51 0 0 1 0 20zm-121.89 20.75a23.58 23.58 0 0 1 0-20zm9.66 18.43a9.13 9.13 0 0 0-3.75-2.58v-45.34a52.8 52.8 0 0 1 5.16-22.71c12.56-2.86 29.63-4.86 49.77-4.86 18.78 0 36.39 1.77 50 5a52.8 52.8 0 0 1 5.09 22.57v45.24a9.11 9.11 0 0 0-4.21 2.89 6.34 6.34 0 0 0-11.59.79 8.56 8.56 0 0 0-15.9.53c-.83-3.14-6.16-6.5-9.24-6.5-2.43 0-6.5 1.91-8.54 4.23a5.92 5.92 0 0 0-11.45.4 10.8 10.8 0 0 0-8.66-4.73c-3.76 0-8 2.52-9.44 5.95a8.27 8.27 0 0 0-15.41-1.2 6.75 6.75 0 0 0-11.87.3zm71.47 19.84a3.09 3.09 0 0 1-3.08 3.08s-12.58 3.82-17.1 3.82-17.1-3.82-17.1-3.82a3.08 3.08 0 0 1 0-6.16s12.58 3.82 17.1 3.82 17.1-3.82 17.1-3.82a3.09 3.09 0 0 1 3.08 3.08zm-65.71 24a8.82 8.82 0 0 0 8.38 2.48v.28a10.28 10.28 0 0 0 17.47 7.37 9 9 0 0 0 15 5.28 5.33 5.33 0 0 0 10.62-.61 8.39 8.39 0 0 0 14.61-4.34 10.73 10.73 0 0 0 16.42-7.62 7.56 7.56 0 0 0 3.75 1.1 7.76 7.76 0 0 0 7.49-5.8 56.18 56.18 0 0 1 25.21 30.85h-141.2a56.2 56.2 0 0 1 22.2-28.96zm159.3 135.76l2.26.26H284.24l.85-.1-10.15-83.95a18.31 18.31 0 0 1 18.47-18.42h210.62c6.29 0 11.6 8.32 11.65 18.19z"/>
  <path class="cls-1" d="M396.72 451.19a14.15 14.15 0 1 0 14.15 14.15 14.17 14.17 0 0 0-14.15-14.15zm0 23.75a9.59 9.59 0 1 1 9.59-9.59 9.6 9.6 0 0 1-9.59 9.59z"/>
  <ellipse class="cls-1" cx="363.71" cy="325.9" rx="5.73" ry="14.04"/>
  <ellipse class="cls-1" cx="420.87" cy="326.77" rx="5.73" ry="14.04"/>
  <rect class="cls-1" width="20.2" height="5.91" x="354.29" y="294.99" rx="1.26" ry="1.26"/>
  <rect class="cls-1" width="20.2" height="5.91" x="410.76" y="295.48" rx="1.26" ry="1.26"/>
  <path d="M251.45 317.11H235.3V170.65H132.96v-17.77h-17.24v17.77h-99v146.46H0v24.77h72.91l-8.19 26.66 16.48 5 6.19-20.07h71.72l6.15 20.12 16.48-5-8.15-26.66h77.87zM24.23 178.19h203.49v137.28H24.23zm133.56 171H88.72l2.22-7.27h64.64zm87.2-13.73H6.46v-11.89h238.53zm226.93-205.09H459.1V14.1h-81.25V0h-13.68v14.11h-78.62v116.26H272.3v19.66h57.88l-6.46 21.17 13.08 4 4.88-16h56.93l4.88 16 13.08-4-6.47-21.16h61.82zM291.54 20.09h161.57v109H291.54zm106 135.72h-54.82l1.76-5.77h51.31zm69.23-10.9H277.43v-9.44h189.36zm279.95 153.1h-16.61V147.85H625.19v-18.22h-17.66v18.22H505.99v150.16h-17.11v25.39h74.75l-8.36 27.33 16.89 5.16 6.31-20.63H652l6.31 20.63 16.89-5.16-8.36-27.33h79.88zm-233-142.43h208.67v140.77H513.72zm136.93 175.27h-70.82l2.28-7.45h66.27zm89.4-14.08H495.5v-12.14h244.55z" class="cls-1"/>
  <path d="M52.93 264.74h37.68v39.56H52.93zm51.31-13h37.68v52.56h-37.68zm50.95-14.56h37.68v67.03h-37.68zm29.71-40.54l-.18 10.07 6 .08.51-23.17-28.18 9.35 2.3 4.39 15.51-5.15c-14.06 18.65-30.16 33.39-58.31 44.12-19.59 7.47-49.58 13.2-69.77 13.34l.05 5.08c21.34-.15 51.82-6 72.47-13.84 28.6-10.91 45.27-25.69 59.6-44.27zM343.46 33.7l-19.74 1.11a5.09 5.09 0 1 0-7.38 5.19l-13.38 29.55a5.09 5.09 0 1 0-.1 9.6l13.58 31.39a5.09 5.09 0 1 0 7.44 4.89h20.06a5.1 5.1 0 1 0 2.92-5l-9.57-17.09a5.09 5.09 0 0 0-2.8-9.34h-.09l.38-21.24a5.09 5.09 0 0 0 2.65-9.24l9-14.77a5.09 5.09 0 1 0-3-5.07zm-29.47 1.77a4.7 4.7 0 1 1 4.7 4.7 4.71 4.71 0 0 1-4.7-4.7zm3.07 4.82a5.08 5.08 0 0 0 4.33-.51l9.88 14a5.09 5.09 0 0 0-1.48 5.86l-24.19 12.1a5.13 5.13 0 0 0-1.93-1.86zm-20.53 34a4.7 4.7 0 1 1 4.7 4.7 4.71 4.71 0 0 1-4.71-4.66zm7.06 4.52a5.13 5.13 0 0 0 2.13-2.1l24 10.65a5.09 5.09 0 0 0 1.85 5.87l-10.44 17.24a5.07 5.07 0 0 0-4-.28zm15.24 40.91a4.7 4.7 0 1 1 4.7-4.7 4.71 4.71 0 0 1-4.71 4.74zm34.92-4.7a4.7 4.7 0 1 1-4.7-4.7 4.71 4.71 0 0 1 4.67 4.73zm-7.53-4.24a5.1 5.1 0 0 0-2.25 3.85H323.9a5.09 5.09 0 0 0-2.11-3.76l10.43-17.26a5.08 5.08 0 0 0 4.43.08zm-7-21.71a4.7 4.7 0 1 1-4.7-4.7 4.71 4.71 0 0 1 4.69 4.73zm-9.19-2.41l-24-10.65a5.08 5.08 0 0 0-.08-3.64l24.19-12.1a5.1 5.1 0 0 0 3.9 2.46l-.38 21.32a5.11 5.11 0 0 0-3.64 2.64zm9.19-29a4.7 4.7 0 1 1-4.7-4.7 4.71 4.71 0 0 1 4.69 4.73zm-2.42-4.55a5.08 5.08 0 0 0-4.9.18l-9.89-14a5.08 5.08 0 0 0 1.78-3.77l19.67-1.1a5.09 5.09 0 0 0 2.31 3.93zm16.45-19a4.7 4.7 0 1 1-4.7-4.7 4.71 4.71 0 0 1 4.69 4.71z" class="cls-1"/>
  <path d="M389.92 33.7l-19.72 1.11a5.09 5.09 0 1 0-7.38 5.19l-13.38 29.55a5.09 5.09 0 1 0-.1 9.6l13.58 31.39a5.09 5.09 0 1 0 7.44 4.89h20.06a5.1 5.1 0 1 0 2.92-5l-9.57-17.09a5.09 5.09 0 0 0-2.8-9.34h-.09l.38-21.24a5.09 5.09 0 0 0 2.65-9.24l9-14.77a5.09 5.09 0 1 0-3-5.07zm-29.47 1.77a4.7 4.7 0 1 1 4.7 4.7 4.71 4.71 0 0 1-4.7-4.7zm3.07 4.82a5.08 5.08 0 0 0 4.33-.51l9.88 14a5.09 5.09 0 0 0-1.48 5.86l-24.19 12.1a5.13 5.13 0 0 0-1.93-1.86zm-20.53 34a4.7 4.7 0 1 1 4.7 4.7 4.71 4.71 0 0 1-4.7-4.66zm7.06 4.52a5.13 5.13 0 0 0 2.13-2.1l24 10.65a5.09 5.09 0 0 0 1.85 5.87l-10.43 17.24a5.07 5.07 0 0 0-4-.28zm15.24 40.91a4.7 4.7 0 1 1 4.7-4.7 4.71 4.71 0 0 1-4.7 4.74zm34.92-4.7a4.7 4.7 0 1 1-4.7-4.7 4.71 4.71 0 0 1 4.69 4.73zm-7.49-4.2a5.1 5.1 0 0 0-2.25 3.85h-20.11a5.09 5.09 0 0 0-2.11-3.76l10.47-17.26a5.08 5.08 0 0 0 4.43.08zm-7-21.71a4.7 4.7 0 1 1-4.7-4.7 4.71 4.71 0 0 1 4.7 4.69zm-9.19-2.41l-24-10.65a5.08 5.08 0 0 0-.08-3.64l24.19-12.1a5.1 5.1 0 0 0 3.9 2.46l-.38 21.32a5.11 5.11 0 0 0-3.68 2.6zm9.19-29a4.7 4.7 0 1 1-4.7-4.7 4.71 4.71 0 0 1 4.7 4.69zm-2.42-4.55a5.08 5.08 0 0 0-4.9.18l-9.89-14a5.08 5.08 0 0 0 1.78-3.77l19.63-1.09a5.09 5.09 0 0 0 2.31 3.93zm16.45-19a4.7 4.7 0 1 1-4.7-4.7 4.71 4.71 0 0 1 4.67 4.67z" class="cls-1"/>
  <path d="M437.29 33.7l-19.72 1.11a5.09 5.09 0 1 0-7.38 5.19l-13.38 29.55a5.09 5.09 0 1 0-.1 9.6l13.58 31.39a5.09 5.09 0 1 0 7.43 4.93h20.06a5.1 5.1 0 1 0 2.92-5l-9.57-17.09a5.09 5.09 0 0 0-2.8-9.34h-.09l.38-21.24a5.09 5.09 0 0 0 2.65-9.24l9-14.77a5.09 5.09 0 1 0-3-5.07zm-29.47 1.77a4.7 4.7 0 1 1 4.7 4.7 4.71 4.71 0 0 1-4.7-4.7zm3.07 4.82a5.08 5.08 0 0 0 4.33-.51l9.88 14a5.09 5.09 0 0 0-1.48 5.86l-24.19 12.1a5.13 5.13 0 0 0-1.93-1.86zm-20.53 34a4.7 4.7 0 1 1 4.7 4.7 4.71 4.71 0 0 1-4.71-4.66zm7.06 4.52a5.13 5.13 0 0 0 2.13-2.1l24 10.65a5.09 5.09 0 0 0 1.85 5.87l-10.44 17.24a5.07 5.07 0 0 0-4-.28zm15.24 40.91a4.7 4.7 0 1 1 4.7-4.7 4.71 4.71 0 0 1-4.71 4.74zm34.92-4.7a4.7 4.7 0 1 1-4.7-4.7 4.71 4.71 0 0 1 4.69 4.73zm-7.53-4.24a5.1 5.1 0 0 0-2.25 3.85h-20.08a5.09 5.09 0 0 0-2.11-3.76l10.43-17.26a5.08 5.08 0 0 0 4.43.08zm-7-21.71a4.7 4.7 0 1 1-4.7-4.7 4.71 4.71 0 0 1 4.69 4.73zm-9.19-2.41l-24-10.65a5.08 5.08 0 0 0-.08-3.64l24.19-12.1a5.1 5.1 0 0 0 3.9 2.46l-.38 21.32a5.11 5.11 0 0 0-3.64 2.64zm9.19-29a4.7 4.7 0 1 1-4.7-4.7 4.71 4.71 0 0 1 4.69 4.73zm-2.42-4.55a5.08 5.08 0 0 0-4.9.18l-9.89-14a5.08 5.08 0 0 0 1.78-3.77l19.67-1.1a5.09 5.09 0 0 0 2.31 3.93zm16.45-19a4.7 4.7 0 1 1-4.7-4.7 4.71 4.71 0 0 1 4.69 4.71z" class="cls-1"/>
  <path class="cls-1" d="M579.5 183.82h-1.34a47.11 47.11 0 1 0 47.07 49H579.5z"/>
  <path class="cls-1" d="M615.57 194.36a45.7 45.7 0 0 0-31.62-13.89h-1.23v49h45.8v-2.98a45.7 45.7 0 0 0-12.95-32.13zm10.65 32.67h-41.11v-44.12a43.33 43.33 0 0 1 41.12 43.56c0 .15 0 .35-.01.56zm58.04 33.92l.79-.13a28.14 28.14 0 1 0-32.82-23.88l26.89-4.79z"/>
  <path class="cls-1" d="M661.94 258.53a27.3 27.3 0 0 0 20 4.85l.72-.11-5.08-28.8-26.93 4.8.09.68c.06.4.11.76.17 1.09a27.3 27.3 0 0 0 11.03 17.49zm-9.69-18.06l24.18-4.31 4.62 25.95a25.89 25.89 0 0 1-28.74-21.28z"/>
</svg>
