<svg xmlns="http://www.w3.org/2000/svg" viewBox="0 0 625.622 346.309">
  <defs>
    <clipPath id="a">
      <path d="M0 500h500V0H0z"/>
    </clipPath>
    <clipPath id="b">
      <path d="M0 500h500V0H0z"/>
    </clipPath>
  </defs>
  <g fill="#ffffff" clip-path="url(#a)" transform="matrix(1.33 0 0 -1.33 -21.04 494.76)">
    <path d="M209.105 137.913c-34.115 5.705-57.227 38.1-51.522 72.216 5.705 34.11 38.1 57.22 72.215 51.52 34.116-5.71 57.228-38.1 51.523-72.22-2.31-13.85-9.02-25.88-18.46-34.91l-11.04-8.44c-12.37-7.47-27.36-10.75-42.7-8.18m53.85-14.66L282.3 138l-7.63 15.25c4.87 5.764 8.87 12.33 11.773 19.534l18.18.395 4.028 23.98-17.07 6.32c-.49 9.52-2.86 18.67-6.8 27.02l12.32 13.73-14.74 19.34-16.69-8.34c-5.72 4.78-12.22 8.71-19.35 11.56l-.39 17.4-23.98 4.01-6.03-16.33c-9.35-.46-18.35-2.73-26.59-6.53l-13.36 11.97-19.34-14.76 7.96-15.92c-5.35-6.25-9.68-13.46-12.67-21.41l-17.81-.36-4.06-23.98 17.44-6.49c.68-9.22 3.14-18.07 7.07-26.15l-11.79-13.1 14.71-19.37 16.29 8.1c5.61-4.61 11.95-8.41 18.89-11.19l.39-17.4 23.99-4.01 6.03 16.32c9.63.47 18.89 2.88 27.32 6.89zM87.11 248.05c-28.25.617-50.727 24.1-50.11 52.345.616 28.246 24.096 50.725 52.342 50.108 28.247-.616 50.724-24.097 50.11-52.343-.25-11.463-4.27-21.98-10.84-30.383l-7.944-8.11c-9.13-7.488-20.858-11.892-33.562-11.615m45.246-5.54l13.9 14.194-7.95 11.435c3.265 5.23 5.73 11.01 7.23 17.17l14.65 2.45.446 19.86-14.54 3.11c-1.51 7.64-4.498 14.76-8.665 21.05l8.35 12.54-14.182 13.91-12.51-8.69c-5.18 3.2-10.9 5.62-16.99 7.09l-2.35 14.02-19.86.43-2.96-13.9c-7.5-1.46-14.51-4.35-20.73-8.39l-12.2 8.11-13.9-14.19 8.3-11.93c-3.6-5.68-6.25-12.01-7.74-18.79l-14.36-2.38-.48-19.86 14.85-3.2c1.63-7.37 4.66-14.24 8.78-20.31l-7.99-11.97 14.16-13.93 12.22 8.46c5.08-3.07 10.65-5.4 16.58-6.83l2.36-14.02 19.86-.43 2.97 13.9c7.73 1.51 14.94 4.54 21.29 8.77zm259.23-28.583c-24.375-10.84-53.024.17-63.863 24.55-10.84 24.37.17 53.02 24.55 63.86 24.37 10.84 53.02-.18 63.86-24.55 4.4-9.89 5.2-20.49 2.97-30.32l-3.52-10.13c-4.79-10.07-13.04-18.55-24-23.43m40.88 13.48l6.16 17.71-11.4 6.57c.68 5.78.46 11.7-.74 17.57l11.53 7.98-7.61 17.14-13.67-3.2c-4.36 5.91-9.78 10.79-15.87 14.49l2.09 14.07-17.71 6.17-7.2-12.46c-5.72.64-11.57.41-17.37-.79l-7.66 11.03-17.14-7.62 3.06-13.07c-5.82-4.28-10.65-9.57-14.33-15.51l-13.69 2.02-6.17-17.72 11.89-6.86c-.79-6.3-.5-12.78.95-19.17l-11.3-7.8 7.58-17.16 13.98 3.24c4.36-5.64 9.7-10.29 15.66-13.81l-2.01-13.44 17.7-6.21 7.04 12.14c5.57-.58 11.27-.33 16.91.84l7.66-11.03 17.14 7.62-3.07 13.07c6 4.4 10.93 9.89 14.65 16.05zM103.9 178.15c-7.813-3.476-16.996.054-20.47 7.87-3.473 7.81.056 16.99 7.87 20.465 7.81 3.474 16.993-.056 20.467-7.868 1.41-3.17 1.667-6.567.95-9.716l-1.127-3.24c-1.535-3.22-4.178-5.94-7.69-7.51m13.1 4.32l1.974 5.68-3.65 2.11c.22 1.85.15 3.75-.234 5.63l3.694 2.56-2.44 5.5-4.38-1.02c-1.4 1.9-3.136 3.46-5.087 4.65l.668 4.51-5.675 1.98-2.306-3.99c-1.833.21-3.71.13-5.567-.25l-2.453 3.54-5.494-2.44.98-4.19c-1.864-1.37-3.41-3.06-4.59-4.97l-4.39.65-1.974-5.68 3.81-2.19c-.252-2.01-.16-4.09.305-6.14l-3.62-2.5 2.43-5.5 4.48 1.04c1.4-1.81 3.11-3.3 5.02-4.43l-.64-4.31 5.68-1.99 2.26 3.89c1.79-.18 3.62-.1 5.42.27l2.46-3.53 5.5 2.44-.98 4.19c1.93 1.41 3.51 3.17 4.7 5.15zm167.093 105.6c-7.81-3.47-16.994.06-20.47 7.87-3.472 7.81.057 17 7.87 20.47s16.995-.05 20.47-7.87c1.41-3.17 1.666-6.57.95-9.71l-1.128-3.24c-1.532-3.22-4.175-5.94-7.69-7.51m13.103 4.32l1.974 5.68-3.65 2.11c.217 1.85.146 3.75-.237 5.63l3.695 2.56-2.44 5.5-4.38-1.02c-1.398 1.9-3.135 3.46-5.086 4.65l.667 4.51-5.67 1.98-2.31-3.99c-1.83.2-3.71.13-5.56-.26l-2.45 3.54-5.49-2.44.99-4.19c-1.86-1.37-3.41-3.06-4.59-4.97l-4.39.65-1.97-5.67 3.81-2.2c-.25-2.02-.16-4.1.31-6.14l-3.62-2.5 2.43-5.5 4.48 1.04c1.4-1.81 3.11-3.3 5.02-4.43l-.64-4.31 5.68-1.99 2.26 3.89c1.79-.18 3.61-.1 5.42.27l2.45-3.53 5.5 2.44-.98 4.19c1.92 1.41 3.5 3.17 4.69 5.15zm172.73-44.08c-7.81-3.47-16.994.06-20.47 7.87-3.47 7.81.058 16.99 7.87 20.47 7.813 3.48 16.995-.05 20.47-7.87 1.41-3.17 1.666-6.56.95-9.71l-1.128-3.24c-1.534-3.23-4.177-5.94-7.69-7.51m13.1 4.32l1.97 5.67-3.65 2.11c.218 1.86.147 3.76-.236 5.64l3.694 2.56-2.44 5.5-4.38-1.02c-1.398 1.9-3.135 3.46-5.086 4.65l.668 4.51-5.677 1.98-2.306-4c-1.832.21-3.708.13-5.566-.25l-2.45 3.54-5.49-2.44.98-4.19c-1.86-1.37-3.41-3.07-4.59-4.97l-4.39.65-1.97-5.68 3.81-2.19c-.25-2.02-.16-4.09.31-6.14l-3.62-2.5 2.43-5.5 4.48 1.04c1.4-1.81 3.11-3.3 5.02-4.43l-.64-4.31 5.68-1.99 2.26 3.89c1.79-.18 3.61-.1 5.42.27l2.46-3.53 5.49 2.45-.98 4.19c1.93 1.41 3.51 3.17 4.7 5.15z"/>
    <path d="M350.18 266.073c-.623 0-1.128-1.452-1.128-3.244 0-1.8.505-3.25 1.128-3.25.623 0 1.128 1.45 1.128 3.24 0 1.79-.505 3.24-1.128 3.24m12.216 0c-.623 0-1.128-1.46-1.128-3.25s.505-3.25 1.128-3.25c.623 0 1.128 1.45 1.128 3.24 0 1.79-.505 3.24-1.128 3.24m-14.32 2.33h3.817c.094 0 .17.08.17.17v.64c0 .09-.076.17-.17.17h-3.818c-.094 0-.172-.08-.172-.17v-.65c0-.1.078-.17.172-.17m12.412 0h3.818c.094 0 .17.07.17.17v.64c0 .09-.076.17-.17.17h-3.818c-.094 0-.172-.08-.172-.17v-.65c0-.1.078-.18.172-.18"/>
    <path d="M357.204 221.666v17.014l10.428 10.427c2.94-1.616 4.862-4.762 4.862-8.387v-14.253c-4.488-2.987-9.75-4.635-15.29-4.8m-17.385 4.843v14.21c0 3.865 2.35 7.283 5.72 8.807l10.87-10.873V221.65l-.15-.002c-6.23 0-11.77 1.633-16.46 4.86m5.26 30.804c-.58 1.683-.58 3.548-.57 5.523v1.062c-.01 1.975-.01 3.84.57 5.524.05.15.1.31.16.46h.01l.21-.01c1-.05 2.85.28 3.71.59.65.24 1.95 1.03 2.48 1.43.58.45 1.16.79 2.08 1.01.74.18 1.31-.09 1.85-.35.14-.07.28-.14.43-.19.18-.07.52-.39.82-.67.68-.64 1.32-1.24 1.94-1.05.58.18.54.97.5 1.6-.01.18-.02.36-.01.45l.03.44c.02.31.08 1.05.21 1.15.28.1 1.01-.94 1.33-1.39.25-.35.47-.66.67-.86.55-.55 1.79-1.08 2.6-1.23.76-.14 2.09-.27 2.55-.21.17.02.56.1.98.2.19-.44.37-.89.52-1.32.58-1.68.57-3.55.57-5.52v-1.06c0-1.97.01-3.84-.57-5.52-.64-1.85-1.55-3.5-2.71-4.93-1.16-1.41-2.5-2.53-3.99-3.3-1.54-.8-3.18-1.2-4.86-1.2-1.69 0-3.32.41-4.86 1.21-1.49.77-2.84 1.89-3.99 3.3-1.16 1.43-2.07 3.08-2.71 4.93m12.12-16.84l9.2 9.2c.16-.06.33-.12.49-.19l-9.69-9.68zm-.78 0v-.7l-10.08 10.08c.18.06.36.12.54.17zm8.02 9.7c.38-.05.75-.13 1.11-.23l-8.75-8.75-9.03 9.03c.27.05.55.09.84.12l-.01.04c.86-.79 1.8-1.46 2.8-1.98 1.65-.86 3.41-1.29 5.22-1.29 1.81 0 3.57.43 5.22 1.29.92.48 1.78 1.07 2.58 1.78M342.61 263c0 1.463.52 2.554 1.09 2.874-.02-.63-.02-1.276-.02-1.93v-1.06c0-.955-.003-1.88.06-2.786-.583.29-1.133 1.398-1.133 2.9m27.79 0c0-1.335-.44-2.36-.94-2.774.05.864.05 1.75.05 2.66v1.06c0 .61 0 1.21-.02 1.8.49-.435.9-1.44.9-2.745m-4.98-11.79c.21.23.42.47.63.72 1.21 1.49 2.17 3.23 2.84 5.17.24.71.39 1.44.48 2.2 1.04.31 1.8 1.82 1.8 3.69 0 1.82-.73 3.3-1.73 3.67-.07 1.05-.22 2.07-.56 3.05-.19.55-.42 1.11-.69 1.68l-.14.29-.13.29c-.55 1.17-1.15 1.94-1.92 2.9-1.2 1.52-2.64 2.75-4.23 3.6-1.59.85-3.34 1.32-5.18 1.32-1.84 0-3.59-.47-5.18-1.32-1.59-.85-3.03-2.08-4.23-3.6-.95-1.2-1.75-2.3-2.39-3.83l-.132-.32-.106-.27c-.1-.26-.2-.51-.28-.76-.33-.97-.49-1.97-.56-3-1.1-.24-1.92-1.79-1.92-3.73 0-1.99.86-3.57 1.99-3.74.09-.74.24-1.45.48-2.15.67-1.94 1.62-3.68 2.84-5.17.14-.18.28-.34.43-.51-5.1-.89-8.98-5.41-8.98-10.66V225.9l.47-.328c4.9-3.38 10.67-5.092 17.16-5.092 6.22 0 12.15 1.8 17.14 5.197l.25.175v14.877c0 5.1-3.4 9.36-8.2 10.45"/>
    <path d="M352.165 254.387c.062-.062.148-.1.242-.1 0 0 3.194-.59 4.26-.59 1.063 0 4.257.59 4.257.59.095 0 .18.038.243.1.062.062.1.148.1.242s-.038.18-.1.24c-.062.06-.148.1-.243.1 0 0-3.194-.59-4.258-.59-1.065 0-4.26.59-4.26.59-.093 0-.18-.04-.24-.1-.063-.07-.102-.15-.102-.25s.04-.18.1-.25m14.53-17.99h-2.237c-.433 0-.785.35-.785.78v3.47h3.805v-3.48c0-.43-.352-.79-.784-.79m-1.118 7l1.83-1.83h-3.66zm2.643-1.83h-.26l-2.383 2.39-2.383-2.38h-.445c-.252 0-.458-.21-.458-.46s.2-.46.45-.46h.14v-3.47c0-.87.7-1.57 1.57-1.57h2.23c.86 0 1.57.7 1.57 1.57v3.48c.23.02.41.22.41.45 0 .25-.21.46-.46.46M409.05 261h-36.53v1.814h36.53zm-13.35-2.1h-10.58l.34 1.113h9.9zm-20.45 26.18h31.17v-21.03h-31.17zm34.8-21.28h-2.476v22.43H391.9v2.72h-2.64v-2.72h-15.167V263.8h-2.556v-3.792h11.167l-1.25-4.084 2.525-.77.94 3.08h10.98l.94-3.08 2.52.77-1.25 4.083h11.92z"/>
    <path d="M390.58 275.11c.997 0 1.81-.812 1.81-1.81 0-.997-.813-1.808-1.81-1.808-.997 0-1.81.81-1.81 1.808s.813 1.81 1.81 1.81m0-4.443c1.452 0 2.633 1.18 2.633 2.633 0 1.452-1.18 2.634-2.633 2.634-1.452 0-2.633-1.182-2.633-2.634s1.18-2.633 2.633-2.633m-2.976-3.79c.1 1.556 1.396 2.79 2.977 2.79 1.58 0 2.88-1.234 2.98-2.79zm2.977 3.616c-2.1 0-3.8-1.708-3.8-3.807 0-.084.01-.166.01-.248l.03-.386h7.55l.03.386c.01.082.01.164.01.248 0 2.1-1.71 3.807-3.8 3.807m-8.64 10.157c.82 0 1.49-.665 1.49-1.485 0-.82-.67-1.486-1.49-1.486s-1.48.66-1.48 1.48.67 1.48 1.49 1.48m0-3.8c1.28 0 2.31 1.03 2.31 2.31s-1.03 2.31-2.31 2.31-2.31-1.04-2.31-2.31 1.04-2.31 2.31-2.31m-2.48-3.31c.12 1.27 1.19 2.26 2.48 2.26s2.37-1 2.48-2.27zm2.48 3.09c-1.82 0-3.31-1.49-3.31-3.32 0-.08.01-.15.01-.22l.03-.39h6.57l.03.38c.01.07.01.14.01.21 0 1.83-1.49 3.31-3.31 3.31m16.94 4.01c.82 0 1.49-.67 1.49-1.49s-.67-1.49-1.49-1.49-1.48.67-1.48 1.48c0 .82.66 1.48 1.48 1.48m0-3.79c1.28 0 2.31 1.04 2.31 2.31s-1.03 2.31-2.31 2.31-2.31-1.03-2.31-2.31 1.04-2.31 2.31-2.31m-2.48-3.31c.11 1.27 1.18 2.26 2.48 2.26s2.37-1 2.48-2.27zm2.48 3.09c-1.83 0-3.31-1.49-3.31-3.32 0-.07 0-.14.01-.22l.02-.39h6.56l.03.38.01.22c0 1.83-1.49 3.31-3.32 3.31m-176.4-90.317c.66.32 1.15.705 1.15 1.125 0 .42-.19.812-.51 1.09-.31.276-.75.46-1.22.46h-3.2c-.48 0-.91-.184-1.23-.46-.32-.28-.51-.67-.51-1.09 0-.42.66-.94 1.15-1.08.59-.22 2.18-.45 2.18-.45s1.49.18 2.18.4m-11.29 19.21c-.3 0-.59-.188-.84-.51-.35.38-.63.705-.63.705s.19-.5.42-1.01c-.07-.12-.14-.26-.2-.41-.53.55-1.12 1.22-1.12 1.22s.51-1.32.88-1.87c-.22-.76-.36-1.7-.36-2.72 0-2.54.83-4.59 1.85-4.59 1.03 0 1.85 2.05 1.85 4.59s-.82 4.59-1.85 4.59"/>
    <path d="M244 156.92c-5-.786-6.277-1.38-9.43-1.797.02.295-.467.605-.467.933 0 1.634-.543 2.96-.903 2.96s-.778-1.325-.778-2.96c0-.384-.045-.748-.016-1.085-3.49-.39-7.456-.59-11.944-.59-5.233 0-10.01.37-14.282 1.09.042.39.06.83.06 1.29 0 1.64-.296 2.96-.656 2.96-.36 0-.654-1.32-.654-2.96 0-.38-.02-.74.01-1.08-2.478.47-3.94 1.05-6.94 1.76v2.16c0 5.38 2.298 10.38 6.02 13.96 4.146-4.04 9.924-6.35 15.992-6.35 6.073 0 12.85 2.31 16.996 6.36 3.69-3.64 6.992-8.68 6.992-13.96zm-31.77 21.295l-.026.095c2.292-1.393 4.846-2.176 7.54-2.176 2.93 0 5.694.927 8.136 2.56l-.08-.28c2.446-.706 4.685-1.912 6.634-3.47-3.747-3.603-8.933-5.65-14.405-5.65-5.46 0-10.63 2.034-14.37 5.614 1.92 1.48 4.13 2.626 6.57 3.307m-8.96 21.15c0 1.875.18 3.696.51 5.435.81.35 2.17 1.053 2.55 1.366.67.563 1.52 1.434 2.02 2.156.29.43 2.68 3.498 2.68 3.498s.5-2.337.7-2.918c.02-.058.05.098.08.098h-2.72c-.36 0-.65-.643-.65-1 0-.356.29-1 .65-1h3.61c.39 0 .82-.81 1.15-1.01.98-.587 3.13-1.23 4.27-1.33.89-.077 4.02-.313 5.5-.172 2.59.248 3.89.824 3.89.824s-1.86 1.554-2.14 1.957c-.38.53-1.31 1.77-1.6 2.27-.19.32-.85 1.76-.85 1.76s1.52.07 2.51-.61c.43-.3 1.27-.71 2.15-1.71h-1.4c-.36 0-.65-.65-.65-1 0-.36.29-1 .65-1h2.54c.3 0 .61-.54.96-.89.23-.24.49-.42.76-.61-.27-.3-.66-.71-1-1.05-.04.08-.08.16-.12.23.24.52.43 1.04.43 1.04s-.29-.33-.65-.72c-.26.33-.55.52-.86.52-1.03 0-1.85-2.06-1.85-4.6s.82-4.59 1.85-4.59c1.02 0 1.85 2.05 1.85 4.59 0 1.08-.16 2.08-.41 2.87l.09.1c.25.31.57 1.05.77 1.53.48-.34 1-.6 1.57-.74.94-.24 2.07-.66 3.36-.83l.29-.03c.22-1.45.35-2.95.35-4.49 0-12.04-7.39-21.83-16.47-21.83s-16.47 9.79-16.47 21.83M230.05 180c4.818 4.165 7.77 11.28 7.77 19.347 0 1.515-.23 2.99-.44 4.425.71-.004 1.32.022 1.57.06.57.092 1.96.487 1.96.487s-.8.93-1.13 1.47c-.57.92-1.08 2.26-1.547 3.31-.467 1.04-.947 1.88-1.535 3.32-.56 1.36-1.205 2.46-1.59 3.16-.437.78-2.31 3.1-2.793 3.63-.387.42-1.917 1.74-2.687 2.35 1.74 1.26 2.785 2.87 2.785 4.63 0 4.02-5.467 7.29-12.212 7.29s-12.2-3.26-12.2-7.28c0-1.62.9-3.11 2.4-4.32-.61-.43-1.18-.88-1.66-1.34-1.07-1.03-2.67-2.61-3.44-3.88-.63-1.05-1.41-2.42-2.14-4.01-.39-.86-1.03-2.55-1.25-3.16-.36-1-.98-2.14-1.21-2.55-.14-.27-.51-1.05-.93-1.52-.36-.4-1.27-1.27-1.27-1.27s.89-.24 1.43-.24c.55 0 1.06.03 1.51.11.26.04.55.12.86.21-.26-1.58-.4-3.22-.4-4.89 0-8.24 3.33-15.49 8.32-19.61-8.44-3.04-14.2-11.11-14.2-20.16v-3.65l.69-.25c6.36-2.27 14.34-3.42 23.75-3.42 9.84 0 17.58.92 23.4 2.89l1.17.24v4.18c0 9.01-6.47 17.39-14.92 20.43"/>
  </g>
  <text fill="#ffffff" transform="matrix(1.33 0 0 1.33 299.76 207.05)"  font-size="45.752" font-family="san-serif">
    <tspan x="0 -62.544" y="0">??</tspan>
  </text>
  <g fill="#ffffff" clip-path="url(#b)" transform="matrix(1.33 0 0 -1.33 -21.04 494.76)">
    <path d="M84.897 301.73c.38-.138 1.41-.29 1.41-.29s.962.123 1.41.26c.43.21.748.457.748.73 0 .27-.126.52-.33.698-.203.18-.483.29-.79.29H85.27c-.308 0-.588-.11-.79-.29-.204-.18-.33-.427-.33-.7 0-.27.43-.608.747-.698m-3.297 8.536c0 1.643-.537 2.975-1.2 2.975-.196 0-.382-.12-.546-.33-.226.25-.41.46-.41.46s.125-.32.276-.65c-.046-.08-.09-.17-.13-.26-.348.36-.724.79-.724.79s.327-.85.57-1.21c-.146-.49-.234-1.1-.234-1.76 0-1.64.537-2.97 1.2-2.97.66 0 1.198 1.34 1.198 2.98m.15 4.01c.23 0 .42.19.42.42 0 .23-.19.42-.42.42h-2.697c-.23 0-.42-.19-.42-.42 0-.23.19-.42.42-.42zm8.392 0h2.697c.23 0 .42.19.42.42 0 .23-.19.42-.42.42h-2.7c-.23 0-.42-.19-.42-.42 0-.23.19-.42.42-.42m2.96-.8s-.47-.54-.85-.91c-.03.05-.05.1-.08.15.15.34.28.67.28.67l-.42-.46c-.17.22-.36.34-.56.34-.66 0-1.2-1.33-1.2-2.97 0-1.64.54-2.97 1.2-2.97.66 0 1.2 1.34 1.2 2.98 0 .71-.1 1.35-.27 1.86.02.02.04.05.06.07.24.31.61 1.28.61 1.28m-6.84-30.09c1.05 0 1.91-.86 1.91-1.91s-.86-1.91-1.91-1.91-1.91.85-1.91 1.91.85 1.91 1.9 1.91m0-4.72c1.55 0 2.81 1.27 2.81 2.82 0 1.55-1.27 2.82-2.82 2.82-1.55 0-2.82-1.26-2.82-2.81s1.26-2.81 2.81-2.81"/>
    <path d="M119.127 299.89c-.07-.132-.188-.226-.33-.265l-3.4-.914c-.3-.08-.628.1-.727.42-.05.15-.036.31.038.45.07.13.188.23.33.27l3.4.92c.054.02.11.03.17.02.083 0 .168-.02.247-.06.147-.07.26-.21.31-.36.05-.15.035-.31-.038-.45m-4.935.75c-.144.08-.25.2-.297.36-.05.16-.023.32.056.46.14-.16.32-.29.55-.35.1-.03.2-.04.31-.05.14 0 .28.01.42.05.19.05.37.14.51.26.28.23.4.55.36.86l2.35.65c.15.04.31.03.45-.05.15-.08.25-.2.3-.35.1-.31-.07-.63-.38-.72l-4.15-1.15c-.14-.04-.3-.02-.44.06m-.52-2.29l-.09-.01c-.9-.11-1.77.16-2.47.75-.83.71-1.3 1.79-1.26 2.89.07 1.87 1.51 2.85 3.01 3.37.4.12.42.13.83.24.03.01.05.01.07.02.16.04.34.03.47-.03.13-.05.22-.14.26-.25l1.04-3.1c.05-.15-.02-.32-.17-.45-.08-.06-.18-.12-.29-.14-.13-.04-.28-.04-.4 0-.17.05-.28.15-.33.29l-.83 2.48-1.05-.33.18-.5.52.16.58-1.7c-.33-.27-.48-.72-.34-1.15.09-.28.29-.52.56-.66.15-.08.31-.12.47-.14-.06-.07-.13-.14-.17-.23-.13-.26-.16-.56-.07-.84.07-.2.2-.37.35-.51-.2-.04-.44-.06-.81-.11m-.79-3.29c-.27.11-.58.23-.89.29-.32.06-.66-.06-.99-.17-.15-.05-.31-.11-.46-.14l1.87 2.15-.01-.17c-.02-.35-.05-.7.1-1 .14-.28.34-.54.52-.78.08-.09.17-.22.25-.33-.12.04-.27.1-.38.15m-18.7-6.32l-.63.55-.47-.54H72.5c.727 1.88 1.888 3.56 3.354 4.93 2.648-2.63 6.356-4.13 10.267-4.13 3.86 0 7.52 1.46 10.16 4.02l4.33-3.36 5.94 6.85c.05-.19.13-.37.28-.53.31-.33.8-.37 1.23-.4.28-.02.59-.04.72-.14s.24-.39.33-.65c.15-.41.31-.87.71-1.07.07-.03.14-.06.2-.08l-4.7-5.42zm15.72-4.52l-1.91-16.7.46-.05H63.9l.166.02-2.016 16.68c.014 2.06 1.62 3.66 3.67 3.66h41.87c1.25 0 2.305-1.65 2.314-3.61m-23.917 10.9c2.006 0 3.88.8 5.462 2.16l4.1-3.18c-2.47-2.34-5.86-3.67-9.44-3.67-3.65 0-7.11 1.39-9.58 3.82 1.37 1.13 2.97 1.98 4.69 2.49 1.42-1.02 3.04-1.6 4.75-1.6m-9.36 14c0 3 .72 5.76 1.93 7.97 2.56 1.22 4.86 1.65 8.39 1.59 2.19-.04 4.92-.78 6.42-1.52 1.24-2.22 1.98-5.01 1.98-8.04 0-7.23-4.2-13.11-9.36-13.11-5.17 0-9.37 5.88-9.37 13.11m-.71 2.7c-.13-.87-.2-1.77-.2-2.7 0-.65.03-1.29.1-1.92-.42.32-.78 1.16-.78 2.28 0 1.2.42 2.09.87 2.34m20.91-2.34c0-1.01-.3-1.79-.66-2.17.06.6.09 1.2.09 1.82 0 .89-.07 1.76-.18 2.61.4-.337.75-1.166.75-2.26m10.1-9.64c.27-.11.58-.24.88-.3.33-.07.64.04.93.15.31.11.52.175.69.09l-2.05-2.35c-.01.14 0 .29.01.435.02.35.04.71-.1 1-.14.28-.34.55-.52.78-.08.1-.17.23-.25.34.13-.04.28-.1.39-.14m3.16-4.65c-.06.12-.11.28-.15.39-.14.38-.29.81-.63 1.07s-.8.29-1.2.32c-.13.01-.33.02-.47.05l2.28 2.62c.22-.37.5-.7.83-.98.49-.42 1.05-.7 1.65-.83zm6.81 11.29c.33.09.68-.09.78-.4.05-.15.03-.306-.05-.444-.08-.14-.21-.24-.37-.29l-2.01-.6-.23.67c-.06.177-.17.325-.32.44.65.226 2.17.62 2.19.62m1.42-1.933c.15-.08.25-.2.3-.36.05-.15.03-.31-.05-.445-.08-.14-.2-.23-.35-.28l-2.34-.65-.37 1.13 2.35.65c.15.04.31.03.45-.05m-15.72 14.95c0 4.13 3.35 7.48 7.48 7.48s7.48-3.35 7.48-7.48c0-4.12-3.36-7.47-7.48-7.47-4.12 0-7.48 3.36-7.48 7.48m16.51-18.37c-.05.03-.11.05-.17.07.61.17.95.78.76 1.37-.09.28-.29.52-.56.66-.06.04-.13.06-.19.08.05.06.09.12.13.18.14.26.17.56.08.84-.09.29-.3.53-.58.67-.21.11-.44.15-.67.13.08.08.15.16.21.25.15.26.18.56.09.85-.19.59-.85.93-1.47.75-.05-.01-.68-.17-1.31-.35l-1.79 5.28c2.84 1.34 4.81 4.23 4.81 7.57 0 4.62-3.76 8.39-8.38 8.39-4.62 0-8.39-3.76-8.39-8.38 0-4.62 3.76-8.38 8.38-8.38.44 0 .87.05 1.29.11l1.79-5.28c-.15-.04-.29-.07-.43-.12l-.06-.012c-2.13-.736-3.324-2.07-3.39-3.84-.015-.42.04-.83.15-1.23-.37.04-.724-.08-1-.18-.158-.06-.374-.136-.457-.12-.22.04-.48.146-.72.245-.54.21-1.21.48-1.6-.03-.4-.52.04-1.09.39-1.55.165-.21.33-.43.43-.63.01-.03.02-.07.02-.12l-6.03-6.95-8.36 6.49c1.92 1.96 3.323 4.82 3.873 8.12.11-.16.28-.26.46-.26.33 0 .6.31.6.7 0 .32-.18.59-.43.68.4.51.66 1.36.66 2.35 0 1.43-.55 2.58-1.3 2.83-.76 4.41-3.04 8.03-6.05 9.75 1.7.52 2.81 1.35 2.81 2.3 0 .72-.66 1.38-1.74 1.89.46.34.72.74.72 1.17 0 .62-.56 1.18-1.48 1.61.28.254.44.536.44.835 0 1.12-2.2 2.02-4.915 2.02s-4.92-.91-4.92-2.024c0-.3.16-.58.44-.84-.92-.43-1.48-.99-1.48-1.61 0-.424.26-.82.72-1.17-1.08-.506-1.74-1.17-1.74-1.895 0-.99 1.23-1.87 3.09-2.38-2.93-1.744-5.15-5.3-5.895-9.63-.81-.15-1.41-1.35-1.41-2.86 0-.934.23-1.75.6-2.27-.227-.1-.38-.36-.38-.657 0-.39.263-.7.593-.7.24 0 .44.16.54.39.57-3.69 2.2-6.843 4.44-8.842-4.07-1.39-7.4-4.65-8.85-8.69h-5.8c-2.57 0-4.58-2.02-4.58-4.6l2.01-16.68h-.71c-.37 0-.68-.3-.68-.68v-3.42c0-.37.31-.68.68-.68h47.24c.38 0 .68.31.68.68v3.42c0 .38-.3.68-.68.68h-.8l1.91 16.68v.05c0 2.51-1.45 4.55-3.22 4.55h-1.1l4.85 5.59-.01.01c.17.06.4.14.49.13.22-.044.474-.15.72-.25.31-.123.66-.27.98-.27.236 0 .45.08.62.3.39.51-.05 1.08-.4 1.54-.16.21-.33.43-.43.63-.035.08-.02.36-.01.54.02.27.036.56-.02.84.13.003.25 0 .38.015l.09.01c.92.11 1.06.13 1.915.4v.01l.21.06.6-1.76c.065-.2.28-.3.48-.24l1.13.39c.2.07.305.286.24.485l-.56 1.64 1.19.32c.29.08.53.27.67.53.13.26.16.56.07.84-.09.29-.307.53-.58.67"/>
    <path d="M110.017 314.123c-2.984 0-5.41 2.427-5.41 5.41 0 2.985 2.426 5.412 5.41 5.412s5.41-2.427 5.41-5.41c0-2.985-2.426-5.412-5.41-5.412m0 11.728c-3.483 0-6.317-2.83-6.317-6.31 0-3.48 2.834-6.31 6.317-6.31s6.317 2.84 6.317 6.32-2.834 6.32-6.317 6.32"/>
  </g>
</svg>
