<svg xmlns="http://www.w3.org/2000/svg" viewBox="0 0 1531.067 1412.133" width="300">
  <defs>
    <clipPath id="a">
      <path d="M0 1059.1h1148.297V0H0z"/>
    </clipPath>
    <clipPath id="b">
      <path d="M0 1059.1h1148.297V0H0z"/>
    </clipPath>
  </defs>
  <g fill="#fff" clip-path="url(#a)" transform="matrix(1.33333 0 0 -1.33333 0 1412.133)">
    <path d="M303.77 998.346c0 8.354 6.383 15.15 14.228 15.15s14.227-6.797 14.227-15.15c0-8.354-6.382-15.15-14.227-15.15-7.845 0-14.227 6.796-14.227 15.15m31.41 0c0 9.98-7.7 18.098-17.17 18.098s-17.17-8.12-17.17-18.098c0-9.98 7.71-18.098 17.18-18.098s17.17 8.12 17.17 18.098"/>
    <path fill="#fff" d="M345.05 924.793c-7.21-1.488-16.817-2.307-27.052-2.307s-19.842.82-27.053 2.307c-8.288 1.71-10.153 3.654-10.153 4.2 0 .503 1.67 2.312 9.09 3.97 6.24 1.397 14.65 2.273 23.775 2.485l4.156-10.382 4.252 10.388c9.187-.2 17.666-1.07 23.966-2.47 7.49-1.665 9.18-3.485 9.18-3.99 0-.547-1.86-2.49-10.15-4.2m-53.02 73.55c0 15.212 11.65 27.587 25.97 27.587 14.32 0 25.97-12.37 25.97-27.58 0-.57-.01-1.14-.05-1.71l-26.07-63.71-25.8 64.44c-.01.33-.01.66-.01.99m54.65-62.48c-6.22 1.39-14.47 2.27-23.41 2.52l23.57 57.59.02.24c.05.71.07 1.44.07 2.15 0 16.84-12.97 30.54-28.92 30.54-15.94 0-28.91-13.69-28.91-30.53 0-.45.01-.9.03-1.35l.01-.25 23.37-58.37c-8.89-.26-17.08-1.15-23.25-2.53-7.66-1.71-11.39-3.95-11.39-6.85 0-7.47 26.27-9.45 40.16-9.45 13.89 0 40.16 1.98 40.16 9.46 0 2.91-3.76 5.15-11.48 6.87M70.44 989.73c0 6.642 5.077 12.05 11.32 12.05 6.24 0 11.32-5.408 11.32-12.054 0-6.65-5.08-12.06-11.32-12.06s-11.318 5.4-11.318 12.05m24.98 0c0 7.94-6.13 14.39-13.66 14.39-7.535 0-13.663-6.46-13.663-14.4s6.13-14.4 13.66-14.4 13.66 6.457 13.66 14.395"/>
    <path d="M103.276 931.206c-5.735-1.183-13.378-1.835-21.52-1.835-8.143 0-15.786.66-21.522 1.84-6.593 1.36-8.077 2.91-8.077 3.34 0 .4 1.328 1.84 7.23 3.16 4.965 1.11 11.657 1.81 18.915 1.98l3.305-8.26 3.384 8.27c7.31-.16 14.06-.85 19.07-1.96 5.96-1.32 7.3-2.77 7.3-3.17 0-.43-1.48-1.98-8.08-3.34m-42.18 58.5c0 12.1 9.27 21.95 20.66 21.95s20.66-9.84 20.66-21.94c0-.45-.01-.91-.04-1.36l-20.75-50.69-20.52 51.27c-.01.26-.01.52-.01.78m43.47-49.71c-4.95 1.1-11.51 1.8-18.62 2l18.75 45.81.02.19c.04.56.06 1.14.06 1.7 0 13.39-10.32 24.29-23 24.29s-23-10.9-23-24.29c0-.36.01-.72.03-1.08l.01-.2L77.38 942c-7.076-.205-13.59-.91-18.5-2.007-6.1-1.365-9.064-3.147-9.064-5.448 0-5.95 20.896-7.52 31.944-7.52 11.05 0 31.944 1.57 31.944 7.52 0 2.31-2.987 4.097-9.133 5.463m271.05-114.783c0 5.982 4.57 10.85 10.18 10.85s10.19-4.868 10.19-10.85c0-5.982-4.57-10.85-10.19-10.85s-10.19 4.868-10.19 10.85m22.48 0c0 7.146-5.51 12.96-12.29 12.96-6.78 0-12.3-5.814-12.3-12.96 0-7.146 5.52-12.96 12.3-12.96 6.78 0 12.3 5.814 12.3 12.96"/>
    <path d="M405.188 772.555c-5.163-1.065-12.043-1.652-19.372-1.652-7.33 0-14.21.587-19.373 1.652-5.935 1.224-7.27 2.617-7.27 3.008 0 .36 1.195 1.655 6.508 2.843 4.47 1 10.5 1.627 17.03 1.78l2.98-7.435 3.05 7.44c6.58-.14 12.65-.76 17.16-1.77 5.37-1.19 6.57-2.49 6.57-2.85 0-.39-1.33-1.78-7.27-3.01m-37.97 52.67c0 10.89 8.35 19.76 18.6 19.76s18.6-8.86 18.6-19.75c0-.41-.01-.82-.03-1.23l-18.67-45.62-18.47 46.15c0 .24-.01.47-.01.71m39.13-44.75c-4.45.99-10.36 1.62-16.76 1.8l16.88 41.24.01.17c.03.51.05 1.03.05 1.54 0 12.06-9.29 21.87-20.71 21.87-11.42 0-20.71-9.81-20.71-21.86 0-.32.01-.65.02-.97l.01-.18 16.74-41.8c-6.36-.18-12.23-.82-16.65-1.81-5.49-1.22-8.15-2.83-8.15-4.9 0-5.35 18.81-6.77 28.75-6.77 9.95 0 28.76 1.42 28.76 6.77 0 2.08-2.69 3.69-8.22 4.92m-276 76.31c0 9.01 6.88 16.33 15.33 16.33s15.33-7.32 15.33-16.32-6.88-16.32-15.33-16.32-15.33 7.32-15.33 16.33m33.84 0c0 10.76-8.3 19.5-18.51 19.5-10.2 0-18.5-8.74-18.5-19.5s8.3-19.5 18.51-19.5 18.51 8.75 18.51 19.5"/>
    <path d="M174.832 777.534c-7.77-1.603-18.122-2.486-29.15-2.486-11.03 0-21.38.883-29.15 2.486-8.93 1.842-10.94 3.937-10.94 4.526 0 .542 1.798 2.49 9.793 4.28 6.724 1.503 15.788 2.446 25.62 2.675l4.477-11.187 4.582 11.194c9.9-.216 19.036-1.154 25.824-2.663 8.07-1.8 9.884-3.76 9.884-4.3 0-.59-2.01-2.69-10.94-4.53m-57.134 79.25c0 16.39 12.553 29.72 27.984 29.72 15.43 0 27.984-13.34 27.984-29.73 0-.62-.018-1.24-.053-1.85l-28.098-68.65-27.8 69.43c-.012.35-.017.71-.017 1.06m58.88-67.33c-6.705 1.49-15.592 2.44-25.227 2.71l25.4 62.05.02.26c.05.76.08 1.54.08 2.31 0 18.14-13.97 32.9-31.16 32.9-17.18 0-31.16-14.76-31.16-32.9 0-.49.01-.98.03-1.46l.01-.27 25.18-62.9c-9.58-.28-18.4-1.24-25.05-2.72-8.26-1.85-12.27-4.26-12.27-7.38 0-8.06 28.3-10.19 43.27-10.19 14.97 0 43.27 2.13 43.27 10.18 0 3.13-4.04 5.55-12.37 7.4"/>
    <path fill="none" stroke="#fff" stroke-width="6" stroke-miterlimit="10" d="M272.216 920.772s-3.528-4.073-18.12-8.472c-6.137-1.85-15.13.273-20.835 3.192-7.33 3.75-19.69 15.1-25.91 20.49-5.62 4.87-19.51 15.283-26.36 18.193-9.91 4.214-19.36 4.308-27.35.593-4.75-2.213-17.3-10.67-17.3-10.67"/>
    <path d="M816.008 944.2c1.824-3.285.815-7.36-2.24-9.058l-71.027-39.436c-3.05-1.697-7.04-.398-8.87 2.886l-21.08 37.96c-1.82 3.286-.81 7.362 2.25 9.06l71.03 39.435c3.06 1.697 7.05.398 8.88-2.887zm-86.04 29.904c-.346.62-.148 1.417.43 1.738l21.876 12.146c.578.32 1.358.068 1.703-.553l1.743-3.14-24.01-13.33zm64.31 31.6l-31.56-17.523-1.743 3.14c-2.653 4.78-8.43 6.66-12.877 4.19l-21.876-12.14c-4.447-2.47-5.906-8.36-3.253-13.14l1.74-3.14-31.56-17.52c-3.06-1.69-4.07-5.77-2.24-9.05l34.77-62.63c1.82-3.28 5.81-4.58 8.87-2.88l101.13 56.15c3.05 1.7 4.06 5.78 2.24 9.06l-34.78 62.64c-1.83 3.29-5.82 4.59-8.88 2.89"/>
  </g>
  <text fill="#fff" transform="rotate(22.466 -300.533 3133.592) scale(1.33333)" font-size="55.698" font-family="ClearSansRegular">
    <tspan x="0 28.573 57.146 76.25" y="0">24/7</tspan>
  </text>
  <g fill="#fff" clip-path="url(#b)" transform="matrix(1.33333 0 0 -1.33333 0 1412.133)">
    <path d="M1000.844 903.217c4.95-1.142 8.046-6.097 6.904-11.046-1.14-4.94-6.097-8.04-11.046-6.9-4.948 1.14-8.045 6.1-6.904 11.05 1.142 4.95 6.097 8.05 11.046 6.91m-5.086-22.04c7.206-1.66 14.42 2.85 16.082 10.06 1.663 7.21-2.847 14.42-10.052 16.08-7.205 1.66-14.42-2.85-16.082-10.05-1.662-7.2 2.847-14.42 10.052-16.08m-19.108-15.4c2.273 7.61 10.124 12.25 17.966 10.44 7.842-1.81 12.864-9.42 11.575-17.25zm18.91 14.54c-10.417 2.41-20.848-4.11-23.25-14.53-.096-.41-.173-.82-.24-1.24l-.32-1.94 37.45-8.64.566 1.89c.12.4.232.81.328 1.22 2.403 10.42-4.117 20.85-14.534 23.25m36.896-15.42c3.545.21 6.6-2.5 6.81-6.05.21-3.54-2.503-6.6-6.048-6.81-3.545-.21-6.6 2.51-6.81 6.05-.21 3.55 2.503 6.6 6.048 6.81m.936-15.79c5.16.31 9.11 4.76 8.805 9.92-.306 5.16-4.754 9.11-9.915 8.81-5.16-.31-9.11-4.75-8.805-9.91.306-5.16 4.754-9.11 9.915-8.8m-9.782-14.1c.025 5.55 4.375 10.22 9.992 10.55 5.617.34 10.488-3.78 11.168-9.29zm9.818 13.48c-7.462-.44-13.172-6.87-12.73-14.33.017-.29.047-.59.083-.88l.17-1.37 26.83 1.59.01 1.38c0 .29 0 .59-.02.88-.44 7.46-6.87 13.17-14.33 12.73m23.67 87.14c6.23 1.3 12.35-2.72 13.64-8.94 1.3-6.23-2.71-12.35-8.94-13.64-6.22-1.3-12.34 2.71-13.64 8.94-1.29 6.22 2.72 12.34 8.94 13.64m5.78-27.73c9.06 1.89 14.9 10.8 13.02 19.86-1.88 9.06-10.79 14.9-19.86 13.02-9.06-1.89-14.9-10.8-13.01-19.86 1.89-9.06 10.8-14.9 19.86-13.02m-13.65-27.52c-1.4 9.84 5.09 19.24 14.96 21.29 9.87 2.06 19.57-3.97 22.21-13.55zm13.89 26.44c-13.1-2.73-21.54-15.61-18.82-28.71.11-.52.24-1.03.38-1.53l.66-2.38 47.11 9.81-.34 2.44c-.07.52-.16 1.04-.27 1.56-2.73 13.11-15.61 21.55-28.71 18.82"/>
    <path d="M629.034 718.212c0-12.494-24.573-22.622-54.885-22.622-30.32 0-54.89 10.128-54.89 22.622s24.57 22.622 54.88 22.622c30.31 0 54.88-10.128 54.88-22.622"/>
    <path d="M803.713 50.097l4.665-.534H346.555l1.742.21-20.904 172.99c.143 21.308 16.807 37.96 38.057 37.96h51.847c-.026-.055-.048-.113-.074-.17 1.253.073 2.478.186 3.777.186 2.52 0 4.928-.17 7.27-.44.07.14.124.28.193.42h89.788c.63.06 1.2.21 1.86.22 27.76.62 56.47.53 84.45-.68.9.15 1.81.28 2.71.45h117l.09-.18c.67.05 1.27.19 1.98.19.93 0 1.73-.17 2.6-.26 1.69.15 3.41.25 5.21.25.45 0 .87-.06 1.32-.07l-.02.05h64.08c12.96 0 23.91-17.14 24.01-37.48zM460.65 303.764c14.544-14.433 31.946-25.806 51.083-33.644h-53.755c-.943-.102-1.896-.158-2.86-.158-7.187.007-14.373.055-21.56.093 7.36 12.46 16.505 23.835 27.09 33.71m60.064 34.408c15.895-11.395 33.963-17.88 53.13-17.88 20.83 0 40.362 7.66 57.216 20.965l-.716-2.56c19.39-5.425 37.354-14.91 52.903-27.353-21.574-21.578-49.978-35.92-80.95-41.225h-53.957c-30.528 5.23-58.582 19.227-80.038 40.295 15.366 12.543 33.177 22.124 52.412 27.758m-51.42 138.634c0 33.465 8.08 64.322 21.625 89.007 28.632 13.65 54.35 18.41 93.665 17.743 24.455-.403 54.907-8.76 71.75-16.974 13.804-24.812 22.057-55.96 22.057-89.776 0-80.722-46.91-146.392-104.55-146.392-57.65 0-104.55 65.67-104.55 146.392M719.12 270.12h-80.23c19.57 8.015 37.317 19.735 52.06 34.64 11.033-10.092 20.563-21.775 28.17-34.64M459.17 476.807c0-5.996.274-11.904.757-17.726-3.09 3.87-5.837 11.49-5.838 21.71 0 11.22 3.36 19.4 6.79 22.8-1.11-8.7-1.72-17.64-1.72-26.77m233.22 3.98c0-8.58-1.99-15.3-4.45-19.55.37 5.13.57 10.32.57 15.57 0 8.52-.52 16.87-1.49 25.02 2.87-4.05 5.36-11.39 5.36-21.03M832.9 222.99c0 25.99-14.985 47.14-33.4 47.14h-25.4c-1.496-.22-3.04-.376-4.687-.37-10.08.03-20.16.2-30.24.366h-5.807l-.03.094c-.886.012-1.77.02-2.656.03-19.62 36.12-53.3 64.252-92.88 76.714 23.81 21.916 41.27 55.713 47.84 95.098 1.23-1.76 3.07-2.91 5.15-2.91 3.69 0 6.68 3.52 6.68 7.87 0 2.55-1.04 4.79-2.64 6.23 4.74 6.23 7.7 16.053 7.7 27.55 0 18.14-7.35 32.15-17.49 34.333-8.89 48.05-34.1 87.32-67.08 106.143 18.997 5.85 31.35 15.166 31.35 25.693 0 8.11-7.36 15.5-19.41 21.15 5.124 3.89 8.037 8.34 8.037 13.07 0 15.14-29.764 27.41-66.484 27.41s-66.49-12.27-66.49-27.4c0-4.73 2.91-9.18 8.035-13.07-12.046-5.65-19.41-13.04-19.41-21.15 0-11.11 13.714-20.9 34.54-26.66-32.13-19.15-56.634-57.81-65.41-104.96-10.776-1.26-18.728-15.67-18.728-34.54 0-11.12 2.76-20.7 7.23-26.95-1.325-1.44-2.17-3.48-2.17-5.77 0-4.34 2.99-7.87 6.68-7.87 2.6 0 4.83 1.78 5.93 4.33 6.352-41.17 24.6-76.4 49.582-98.73-38.03-13.03-70.258-40.63-89.25-75.69l-5.137.03-.003-.01-51.384-.01c-26.61 0-47.453-20.92-47.453-47.63l20.86-172.92h-7.37c-3.875 0-7.046-3.17-7.046-7.05V7.04c0-3.872 3.17-7.043 7.04-7.043h489.88c3.88 0 7.05 3.17 7.05 7.044v35.47c0 3.88-3.17 7.05-7.05 7.05h-8.27l19.76 172.89z"/>
    <path d="M503.83 155.338c-1.293-.89-3.102-1.334-5.425-1.334-3.454 0-5.97 1.107-7.546 3.316-1.58 2.21-2.37 5.55-2.37 10.027 0 4.793.84 8.213 2.52 10.264 1.68 2.06 4.12 3.08 7.33 3.08 1.34 0 2.49-.15 3.45-.45.96-.3 1.82-.75 2.57-1.36.75-.6 1.58-1.58 2.49-2.94l6.2 4.82c-1.27 2.1-3.11 3.79-5.52 5.09-2.42 1.3-5.54 1.95-9.38 1.95-5.8 0-10.23-1.66-13.31-4.99-3.08-3.32-4.62-8.47-4.62-15.43 0-13.61 6.07-20.42 18.21-20.42 3.57 0 6.57.59 9.02 1.77 2.44 1.18 4.51 3.03 6.19 5.54l-6.32 4.65c-1.06-1.47-2.24-2.65-3.53-3.54m37.44 1.85c-1.31-2.12-3.54-3.19-6.67-3.19-3.1 0-5.31 1.07-6.64 3.19-1.34 2.13-2 5.51-2 10.16s.65 8.03 1.97 10.15 3.53 3.19 6.67 3.19c3.13 0 5.36-1.06 6.67-3.19 1.31-2.12 1.97-5.5 1.97-10.15 0-4.64-.66-8.03-1.97-10.15m-6.67 30.58c-5.8 0-10.06-1.78-12.79-5.34-2.73-3.56-4.09-8.58-4.09-15.08 0-6.46 1.36-11.47 4.09-15.05 2.73-3.57 6.99-5.36 12.79-5.36 5.49 0 9.68 1.7 12.56 5.1 2.88 3.4 4.32 8.51 4.32 15.33 0 6.49-1.36 11.52-4.07 15.08-2.71 3.56-6.98 5.34-12.82 5.34m43.26-18.27c-.46-.96-1.26-1.65-2.38-2.05-1.12-.41-3.15-.61-6.08-.61h-3.26V180h3.99c3.17 0 5.37-.49 6.59-1.472 1.21-.98 1.82-2.575 1.82-4.784 0-1.868-.23-3.286-.69-4.25m-4.97 17.445H558.1v-39.19h7.984v12.14h6.513c4.98 0 8.58 1.14 10.8 3.42 2.22 2.28 3.33 5.77 3.33 10.48 0 4.62-1.21 7.97-3.63 10.04-2.42 2.06-5.84 3.1-10.28 3.1m28.34-.01h-7.98v-39.19h24.47v7.31H601.2zm21.41-39.19h25.46v7.31H630.6v9.4h14.73v7.08h-14.71v8.32h17.48v7.07h-25.46zm50.53 22.31c-.96-.34-2.34-.51-4.134-.51h-5.86V180h6.2c2.32 0 3.99-.335 4.997-1.017 1.01-.682 1.52-2.02 1.52-4.023 0-1.49-.213-2.592-.64-3.31-.423-.715-1.12-1.244-2.08-1.585m8.63-2.733c1.39 1.983 2.08 4.637 2.08 7.97 0 4.14-1.16 7.11-3.48 8.923-2.32 1.813-5.995 2.718-11.016 2.718h-14.19v-39.19h7.983v14.87h4.05l9.98-14.87h9.15l-10.46 15.8c2.55.543 4.52 1.808 5.91 3.785M561.64 393.83c4.245-1.544 15.75-3.236 15.75-3.236s10.74 1.368 15.75 2.9c4.806 2.343 8.35 5.107 8.35 8.145 0 3.03-1.41 5.79-3.68 7.8-2.27 2-5.4 3.24-8.846 3.24h-23.15c-3.443 0-6.575-1.25-8.844-3.25-2.27-2.01-3.68-4.77-3.68-7.8 0-3.04 4.808-6.81 8.35-7.81m-36.814 95.32c0 18.35-5.994 33.22-13.388 33.22-2.203 0-4.276-1.35-6.108-3.69-2.53 2.76-4.575 5.11-4.575 5.11s1.386-3.61 3.08-7.32c-.52-.89-1.003-1.88-1.464-2.94-3.88 4-8.08 8.83-8.08 8.83s3.65-9.52 6.38-13.53c-1.64-5.52-2.62-12.32-2.62-19.7 0-18.35 6-33.23 13.39-33.23s13.39 14.87 13.39 33.22m1.68 44.76c2.58 0 4.69 2.11 4.69 4.68 0 2.58-2.11 4.69-4.68 4.69h-30.13c-2.57 0-4.68-2.11-4.68-4.69s2.11-4.69 4.69-4.69zm93.72 0h30.13c2.58 0 4.69 2.11 4.69 4.68 0 2.58-2.11 4.69-4.68 4.69h-30.13c-2.57 0-4.68-2.11-4.68-4.69s2.11-4.69 4.69-4.69m33.06-8.99s-5.26-6.06-9.43-10.22c-.27.57-.56 1.1-.86 1.61 1.73 3.77 3.16 7.49 3.16 7.49s-2.09-2.41-4.66-5.21c-1.85 2.4-3.95 3.78-6.19 3.78-7.39 0-13.39-14.88-13.39-33.23 0-18.35 6-33.23 13.39-33.23s13.39 14.87 13.39 33.23c0 7.86-1.1 15.07-2.94 20.76.22.24.51.53.67.73 2.76 3.47 6.88 14.27 6.88 14.27"/>
    <path fill="none" stroke="#fff" stroke-width="10" stroke-miterlimit="10" d="M432.167 723.687l-39.38-75-42.96 75H79.207C38.392 723.687 5 757.08 5 797.894v182c0 40.814 33.393 74.207 74.207 74.207l360.257.01c40.813 0 74.206-33.39 74.206-74.21v-182c0-40.81-33.393-74.2-74.206-74.2zm283.963 0l39.38-75 42.96 75h270.62c40.814 0 74.207 33.393 74.207 74.207v182c0 40.814-33.393 74.207-74.207 74.207l-360.257.01c-40.813 0-74.206-33.39-74.206-74.21v-182c0-40.81 33.393-74.2 74.206-74.2z"/>
    <path fill="none" stroke="#fff" stroke-width="6" stroke-miterlimit="10" d="M372.58 932.92s19.15 1.645 26.428 0c8.613-1.947 18.468-7.096 24.48-21.313 4.555-10.772 5.973-19.73 1.27-30.436-3.354-7.63-15.677-27.5-15.677-27.5m-61.83-58.33s-21.54 14.22-29.03 16.93c-10.01 3.63-26.19 6.62-37.42 6.41-10.55-.2-31.68-6.19-41.21-10.73-6.23-2.96-17.53-11.91-25-18.91"/>
    <path d="M823.76 777.15c1.956-4.466-.09-9.694-4.556-11.65l-33.597-14.706c-4.468-1.956-9.693.09-11.648 4.557l-23.02 52.58c-1.96 4.47.08 9.7 4.55 11.65l33.59 14.71c4.47 1.96 9.69-.09 11.65-4.55zm-35.703 59.505l-33.597-14.707c-5.773-2.527-8.415-9.283-5.887-15.06l23.014-52.575c2.528-5.776 9.284-8.418 15.058-5.89l33.597 14.706c5.776 2.52 8.418 9.28 5.89 15.06l-23.015 52.57c-2.528 5.77-9.284 8.42-15.06 5.89"/>
    <path d="M761.128 807.793c-.5 1.144.023 2.483 1.167 2.983l28.854 12.63c1.14.502 2.48-.022 2.98-1.166l3.54-8.1c.5-1.145-.02-2.484-1.17-2.984l-28.86-12.63c-1.15-.502-2.49.022-2.99 1.166zm7.568-11.64l28.854 12.63c2.452 1.075 3.573 3.942 2.5 6.394l-3.546 8.1c-1.074 2.454-3.94 3.575-6.393 2.5l-28.85-12.63c-2.45-1.073-3.57-3.94-2.5-6.392l3.55-8.1c1.08-2.454 3.94-3.575 6.4-2.5m2.33-6.99c-2.06-.903-3-3.306-2.09-5.367.9-2.062 3.31-3 5.37-2.1 2.06.904 3 3.306 2.1 5.367-.9 2.062-3.3 3.002-5.37 2.1m30.24 13.235c-2.06-.902-3-3.305-2.1-5.366.9-2.06 3.31-3 5.37-2.1 2.07.904 3 3.306 2.1 5.367-.9 2.07-3.3 3.01-5.36 2.1m-15.12-6.61c-2.06-.9-3-3.3-2.1-5.36.9-2.06 3.31-3 5.37-2.1 2.06.91 3 3.31 2.1 5.37-.9 2.06-3.31 3-5.37 2.1m-10.04-18.23c-2.06-.9-3-3.3-2.09-5.36.9-2.06 3.3-3 5.37-2.1 2.06.91 3 3.31 2.1 5.37-.91 2.06-3.31 3-5.37 2.1m30.24 13.24c-2.06-.9-3-3.3-2.1-5.36.9-2.06 3.3-3 5.36-2.1 2.07.91 3 3.31 2.1 5.37-.9 2.06-3.3 3-5.36 2.1m-15.12-6.62c-2.06-.9-3-3.3-2.1-5.36.91-2.06 3.31-3 5.37-2.1 2.06.9 3 3.3 2.1 5.36-.9 2.06-3.3 3-5.37 2.1m-10.1-18.08c-2.06-.9-3-3.3-2.1-5.36.9-2.06 3.3-3 5.37-2.1 2.066.91 3 3.31 2.1 5.37-.9 2.06-3.302 3-5.364 2.1m30.234 13.24c-2.06-.9-3-3.3-2.1-5.36.9-2.06 3.3-3 5.36-2.1 2.06.91 3 3.31 2.1 5.37-.9 2.06-3.31 3-5.37 2.09m-15.12-6.61c-2.06-.9-3-3.31-2.094-5.37.9-2.06 3.305-3 5.366-2.1 2.06.9 3 3.3 2.1 5.37-.9 2.06-3.303 3-5.37 2.1M962.17 943c.157.29.294.593.397.92l3.78 11.94c.17.54.23 1.086.22 1.627 3.64-1.49 5.62-5.53 4.41-9.343-1.19-3.753-5.03-5.91-8.81-5.14m-83.68 33.85c1.14 3.61 4.73 5.754 8.36 5.235-.16-.3-.3-.61-.402-.94l-3.78-11.94c-.16-.5-.21-1.01-.22-1.51-3.35 1.63-5.11 5.5-3.95 9.15m94.2-29.25c1.56 4.96-1.19 10.26-6.15 11.83-.13.04-.26.07-.39.1-.59 1.4-1.75 2.56-3.3 3.05l5.08 16.05c3.72 11.75-2.82 24.34-14.58 28.07l-27.03 8.55c-11.76 3.72-24.35-2.82-28.07-14.58l-5.08-16.06c-1.8.57-3.69.13-5.05-1-4.81 1.25-9.83-1.45-11.35-6.25-1.56-4.92 1.16-10.19 6.05-11.8.58-1.44 1.75-2.63 3.34-3.13 2.82-.89 5.85.68 6.74 3.5l3.78 11.94c.7 2.21-.14 4.54-1.89 5.88l5.18 16.37c3.43 10.82 15.01 16.83 25.83 13.41l27.03-8.55c10.817-3.43 16.83-15.01 13.41-25.83l-5.18-16.37c-2.203-.08-4.23-1.51-4.93-3.72l-3.78-11.94c-.7-2.21.134-4.55 1.89-5.88L949.38 926c-3.875-12.25-15.83-19.43-26.645-16.007l-.59.187c-.03 1.163-.773 2.24-1.94 2.608l-12.714 4.026c-1.47.464-3.05-.355-3.51-1.82-.47-1.467.35-3.046 1.82-3.51l12.71-4.024c1.17-.37 2.4.083 3.09 1.02l.6-.19c11.76-3.72 24.72 3.984 28.89 17.174l4.74 14.96c1.81-.573 3.7-.116 5.06 1.026 4.94-1.535 10.22 1.216 11.79 6.157"/>
  </g>
</svg>
